<svg width="1511" height="744" viewBox="0 0 1511 744" fill="none" xmlns="http://www.w3.org/2000/svg">
<g clip-path="url(#clip0_1944_184498)">
<rect width="1511" height="744" fill="#F0F0F0"/>
<rect x="238" width="1034" height="744" fill="white"/>
<rect x="237" width="1035" height="135.986" fill="#F3F7F9"/>
<path d="M317.576 74.2832C317.178 75.6222 316.551 76.7414 315.693 77.641C314.835 78.5406 313.82 79.2101 312.649 79.6494C311.477 80.0888 310.191 80.3084 308.789 80.3084C306.739 80.3084 304.96 79.8796 303.454 79.0218C301.969 78.164 300.818 76.9402 300.002 75.3502C299.207 73.7602 298.81 71.8564 298.81 69.6388C298.81 67.4212 299.207 65.5174 300.002 63.9274C300.818 62.3374 301.969 61.1135 303.454 60.2557C304.96 59.398 306.718 58.9691 308.726 58.9691C310.149 58.9691 311.435 59.1679 312.586 59.5654C313.737 59.9419 314.71 60.5277 315.505 61.3227C316.321 62.1177 316.917 63.1219 317.293 64.3353L313.371 65.9985C313.015 64.7433 312.471 63.8541 311.739 63.3311C311.007 62.7872 310.065 62.5152 308.914 62.5152C307.785 62.5152 306.791 62.7872 305.933 63.3311C305.096 63.8751 304.448 64.6805 303.988 65.7475C303.527 66.7935 303.297 68.0906 303.297 69.6388C303.297 71.166 303.506 72.4631 303.925 73.5301C304.364 74.597 305.002 75.4025 305.839 75.9464C306.676 76.4904 307.701 76.7623 308.914 76.7623C310.044 76.7623 311.017 76.459 311.833 75.8523C312.67 75.2456 313.256 74.3251 313.59 73.0907L317.576 74.2832ZM332.826 58.9691C334.876 58.9691 336.644 59.398 338.129 60.2557C339.614 61.1135 340.755 62.3374 341.55 63.9274C342.365 65.5174 342.773 67.4212 342.773 69.6388C342.773 71.8564 342.365 73.7602 341.55 75.3502C340.755 76.9402 339.614 78.164 338.129 79.0218C336.644 79.8796 334.876 80.3084 332.826 80.3084C330.775 80.3084 328.997 79.8796 327.491 79.0218C326.005 78.164 324.855 76.9402 324.039 75.3502C323.244 73.7602 322.846 71.8564 322.846 69.6388C322.846 67.4212 323.244 65.5174 324.039 63.9274C324.855 62.3374 326.005 61.1135 327.491 60.2557C328.997 59.398 330.775 58.9691 332.826 58.9691ZM332.826 62.5152C331.654 62.5152 330.66 62.7872 329.844 63.3311C329.028 63.8751 328.401 64.6805 327.961 65.7475C327.543 66.7935 327.334 68.0906 327.334 69.6388C327.334 71.166 327.543 72.4631 327.961 73.5301C328.401 74.597 329.028 75.4025 329.844 75.9464C330.66 76.4904 331.654 76.7623 332.826 76.7623C333.976 76.7623 334.959 76.4904 335.775 75.9464C336.591 75.4025 337.208 74.597 337.627 73.5301C338.066 72.4631 338.286 71.166 338.286 69.6388C338.286 68.0906 338.066 66.7935 337.627 65.7475C337.208 64.6805 336.591 63.8751 335.775 63.3311C334.959 62.7872 333.976 62.5152 332.826 62.5152ZM367.55 59.2829V79.9946H362.592L355.343 67.8187L353.554 64.4295H353.523L353.648 68.0069V79.9946H349.757V59.2829H354.684L361.933 71.4275L363.722 74.8481H363.785L363.659 71.2706V59.2829H367.55ZM391.952 59.2829V62.7663H385.017V79.9946H380.686V62.7663H373.72V59.2829H391.952ZM398.106 79.9946V59.2829H413.64V62.7663H402.437V67.9128H411.255V71.2392H402.437V76.5113H414.079V79.9946H398.106ZM438.373 59.2829V79.9946H433.415L426.166 67.8187L424.377 64.4295H424.346L424.471 68.0069V79.9946H420.58V59.2829H425.507L432.756 71.4275L434.545 74.8481H434.607L434.482 71.2706V59.2829H438.373ZM462.775 59.2829V62.7663H455.84V79.9946H451.509V62.7663H444.542V59.2829H462.775ZM475.909 58.9691C477.792 58.9691 479.445 59.2934 480.868 59.9419C482.29 60.5905 483.504 61.5528 484.508 62.829L482.092 65.622C481.234 64.5341 480.292 63.7391 479.267 63.237C478.263 62.714 477.091 62.4524 475.752 62.4524C474.874 62.4524 474.142 62.5675 473.556 62.7976C472.991 63.0278 472.573 63.3311 472.301 63.7077C472.049 64.0843 471.924 64.5027 471.924 64.963C471.924 65.5278 472.144 66.009 472.583 66.4065C473.022 66.7831 473.775 67.0969 474.842 67.3479L478.702 68.2266C480.753 68.6869 482.217 69.3773 483.096 70.2978C483.995 71.1974 484.445 72.369 484.445 73.8125C484.445 75.1724 484.089 76.3439 483.378 77.3272C482.667 78.2896 481.673 79.0323 480.397 79.5553C479.121 80.0574 477.656 80.3084 476.004 80.3084C474.56 80.3084 473.232 80.1411 472.018 79.8063C470.826 79.4507 469.759 78.9695 468.817 78.3628C467.876 77.7561 467.091 77.0552 466.464 76.2602L468.911 73.3418C469.393 74.0112 469.989 74.6075 470.7 75.1305C471.411 75.6535 472.217 76.072 473.116 76.3858C474.037 76.6787 474.999 76.8251 476.004 76.8251C476.861 76.8251 477.583 76.731 478.169 76.5427C478.776 76.3335 479.225 76.051 479.518 75.6954C479.832 75.3188 479.989 74.869 479.989 74.346C479.989 73.802 479.801 73.3418 479.424 72.9652C479.068 72.5677 478.399 72.2644 477.416 72.0551L473.211 71.1137C471.997 70.8208 470.951 70.4442 470.072 69.984C469.215 69.5028 468.556 68.8961 468.095 68.1639C467.656 67.4107 467.436 66.5216 467.436 65.4964C467.436 64.2621 467.771 63.1533 468.441 62.17C469.11 61.1867 470.072 60.4127 471.328 59.8478C472.604 59.262 474.131 58.9691 475.909 58.9691Z" fill="#666687"/>
<path d="M306.284 222.207V220.324H311.488V207.406C311.052 207.807 310.555 208.182 309.997 208.53C309.439 208.861 308.864 209.149 308.271 209.393C307.678 209.637 307.103 209.829 306.545 209.969L305.996 208.06C306.31 208.025 306.728 207.911 307.251 207.72C307.792 207.51 308.358 207.258 308.951 206.961C309.561 206.647 310.119 206.316 310.625 205.967C311.13 205.619 311.505 205.279 311.749 204.948H313.58V220.324H318.261V222.207H306.284ZM323.714 219.069C324.219 219.069 324.629 219.226 324.943 219.54C325.257 219.854 325.414 220.263 325.414 220.769C325.414 221.275 325.257 221.684 324.943 221.998C324.629 222.312 324.219 222.469 323.714 222.469C323.208 222.469 322.798 222.312 322.485 221.998C322.171 221.684 322.014 221.275 322.014 220.769C322.014 220.263 322.171 219.854 322.485 219.54C322.798 219.226 323.208 219.069 323.714 219.069ZM341.29 204.948V222.207H339.198V204.948H341.29ZM345.631 222.207V209.132H347.462L347.645 212.061L347.305 211.773C347.584 211.076 347.959 210.518 348.429 210.099C348.9 209.663 349.44 209.35 350.051 209.158C350.678 208.966 351.323 208.87 351.986 208.87C352.927 208.87 353.782 209.053 354.549 209.419C355.316 209.768 355.926 210.309 356.379 211.041C356.85 211.773 357.085 212.706 357.085 213.839V222.207H354.993V214.571C354.993 213.124 354.679 212.122 354.052 211.564C353.442 210.988 352.683 210.701 351.777 210.701C351.149 210.701 350.521 210.849 349.894 211.145C349.266 211.442 348.743 211.921 348.325 212.584C347.924 213.246 347.723 214.135 347.723 215.251V222.207H345.631ZM363.945 205.418V218.598C363.945 219.243 364.128 219.723 364.494 220.037C364.86 220.351 365.331 220.507 365.906 220.507C366.412 220.507 366.848 220.42 367.214 220.246C367.58 220.072 367.911 219.836 368.208 219.54L368.94 221.292C368.539 221.658 368.059 221.946 367.501 222.155C366.961 222.364 366.333 222.469 365.619 222.469C364.956 222.469 364.337 222.355 363.762 222.129C363.186 221.885 362.724 221.51 362.376 221.004C362.045 220.481 361.87 219.801 361.853 218.965V205.994L363.945 205.418ZM368.704 209.132V210.936H359.238V209.132H368.704ZM371.03 222.207V209.132H372.73L373.018 211.276C373.384 210.474 373.916 209.873 374.613 209.472C375.328 209.071 376.191 208.87 377.202 208.87C377.429 208.87 377.673 208.888 377.934 208.922C378.213 208.957 378.449 209.027 378.64 209.132L378.274 211.041C378.082 210.971 377.873 210.919 377.647 210.884C377.42 210.849 377.097 210.832 376.679 210.832C376.139 210.832 375.589 210.988 375.032 211.302C374.491 211.616 374.038 212.095 373.672 212.741C373.306 213.368 373.122 214.17 373.122 215.146V222.207H371.03ZM385.926 208.87C387.163 208.87 388.253 209.14 389.194 209.681C390.153 210.221 390.903 211.006 391.443 212.034C391.984 213.046 392.254 214.257 392.254 215.669C392.254 217.082 391.984 218.302 391.443 219.331C390.903 220.342 390.153 221.118 389.194 221.658C388.253 222.199 387.163 222.469 385.926 222.469C384.705 222.469 383.616 222.199 382.657 221.658C381.698 221.118 380.948 220.342 380.408 219.331C379.867 218.302 379.597 217.082 379.597 215.669C379.597 214.257 379.867 213.046 380.408 212.034C380.948 211.006 381.698 210.221 382.657 209.681C383.616 209.14 384.705 208.87 385.926 208.87ZM385.926 210.675C385.036 210.675 384.278 210.875 383.65 211.276C383.023 211.677 382.535 212.252 382.186 213.002C381.855 213.734 381.689 214.623 381.689 215.669C381.689 216.698 381.855 217.587 382.186 218.337C382.535 219.087 383.023 219.662 383.65 220.063C384.278 220.464 385.036 220.664 385.926 220.664C386.815 220.664 387.573 220.464 388.201 220.063C388.828 219.662 389.308 219.087 389.639 218.337C389.988 217.587 390.162 216.698 390.162 215.669C390.162 214.623 389.988 213.734 389.639 213.002C389.308 212.252 388.828 211.677 388.201 211.276C387.573 210.875 386.815 210.675 385.926 210.675ZM400.508 222.469C399.427 222.469 398.433 222.199 397.526 221.658C396.62 221.118 395.896 220.342 395.356 219.331C394.815 218.302 394.545 217.082 394.545 215.669C394.545 214.222 394.833 212.993 395.408 211.982C395.984 210.971 396.742 210.204 397.683 209.681C398.625 209.14 399.636 208.87 400.717 208.87C401.798 208.87 402.73 209.149 403.515 209.707C404.317 210.265 404.849 211.006 405.11 211.93L404.849 212.113V203.117H406.941V222.207H405.11L404.927 219.043L405.215 218.886C405.093 219.653 404.796 220.307 404.326 220.847C403.872 221.37 403.306 221.771 402.626 222.05C401.963 222.329 401.257 222.469 400.508 222.469ZM400.717 220.638C401.554 220.638 402.277 220.429 402.887 220.011C403.515 219.592 403.994 218.999 404.326 218.232C404.674 217.448 404.849 216.532 404.849 215.486C404.849 214.493 404.674 213.638 404.326 212.924C403.994 212.209 403.524 211.66 402.914 211.276C402.321 210.893 401.623 210.701 400.821 210.701C399.496 210.701 398.468 211.154 397.736 212.061C397.003 212.967 396.637 214.17 396.637 215.669C396.637 217.169 396.995 218.372 397.709 219.278C398.424 220.185 399.427 220.638 400.717 220.638ZM415.753 222.469C414.916 222.469 414.122 222.312 413.373 221.998C412.641 221.684 412.039 221.179 411.568 220.481C411.115 219.767 410.888 218.842 410.888 217.709V209.132H412.981V217.16C412.981 218.485 413.268 219.4 413.843 219.906C414.419 220.394 415.23 220.638 416.276 220.638C416.764 220.638 417.243 220.56 417.714 220.403C418.185 220.229 418.603 219.967 418.969 219.618C419.353 219.252 419.649 218.79 419.858 218.232C420.085 217.674 420.198 217.012 420.198 216.245V209.132H422.29V222.207H420.46L420.329 220.22C419.876 221.004 419.257 221.58 418.472 221.946C417.705 222.294 416.799 222.469 415.753 222.469ZM431.788 208.87C432.695 208.87 433.488 209.01 434.168 209.289C434.865 209.568 435.467 209.969 435.972 210.492C436.478 211.015 436.888 211.633 437.201 212.348L435.214 213.29C434.935 212.453 434.508 211.817 433.932 211.381C433.375 210.927 432.642 210.701 431.736 210.701C430.864 210.701 430.114 210.901 429.487 211.302C428.859 211.686 428.38 212.252 428.048 213.002C427.717 213.734 427.552 214.623 427.552 215.669C427.552 216.698 427.717 217.587 428.048 218.337C428.38 219.087 428.859 219.662 429.487 220.063C430.114 220.446 430.864 220.638 431.736 220.638C432.416 220.638 433 220.534 433.488 220.324C433.994 220.115 434.403 219.81 434.717 219.409C435.048 219.008 435.275 218.52 435.397 217.945L437.332 218.625C437.036 219.427 436.626 220.115 436.103 220.691C435.597 221.266 434.979 221.71 434.246 222.024C433.532 222.321 432.712 222.469 431.788 222.469C430.568 222.469 429.478 222.199 428.519 221.658C427.56 221.118 426.811 220.342 426.27 219.331C425.73 218.302 425.46 217.082 425.46 215.669C425.46 214.257 425.73 213.046 426.27 212.034C426.811 211.006 427.56 210.221 428.519 209.681C429.478 209.14 430.568 208.87 431.788 208.87ZM443.31 205.418V218.598C443.31 219.243 443.493 219.723 443.859 220.037C444.225 220.351 444.696 220.507 445.271 220.507C445.776 220.507 446.212 220.42 446.578 220.246C446.945 220.072 447.276 219.836 447.572 219.54L448.304 221.292C447.903 221.658 447.424 221.946 446.866 222.155C446.326 222.364 445.698 222.469 444.983 222.469C444.321 222.469 443.702 222.355 443.126 222.129C442.551 221.885 442.089 221.51 441.74 221.004C441.409 220.481 441.235 219.801 441.217 218.965V205.994L443.31 205.418ZM448.069 209.132V210.936H438.602V209.132H448.069ZM451.441 206.621C450.97 206.621 450.587 206.482 450.29 206.203C450.011 205.906 449.872 205.523 449.872 205.052C449.872 204.581 450.011 204.207 450.29 203.928C450.587 203.631 450.97 203.483 451.441 203.483C451.912 203.483 452.287 203.631 452.566 203.928C452.862 204.207 453.01 204.581 453.01 205.052C453.01 205.523 452.862 205.906 452.566 206.203C452.287 206.482 451.912 206.621 451.441 206.621ZM452.487 209.132V222.207H450.395V209.132H452.487ZM461.97 208.87C463.208 208.87 464.298 209.14 465.239 209.681C466.198 210.221 466.948 211.006 467.488 212.034C468.029 213.046 468.299 214.257 468.299 215.669C468.299 217.082 468.029 218.302 467.488 219.331C466.948 220.342 466.198 221.118 465.239 221.658C464.298 222.199 463.208 222.469 461.97 222.469C460.75 222.469 459.66 222.199 458.701 221.658C457.742 221.118 456.993 220.342 456.452 219.331C455.912 218.302 455.642 217.082 455.642 215.669C455.642 214.257 455.912 213.046 456.452 212.034C456.993 211.006 457.742 210.221 458.701 209.681C459.66 209.14 460.75 208.87 461.97 208.87ZM461.97 210.675C461.081 210.675 460.323 210.875 459.695 211.276C459.067 211.677 458.579 212.252 458.231 213.002C457.899 213.734 457.734 214.623 457.734 215.669C457.734 216.698 457.899 217.587 458.231 218.337C458.579 219.087 459.067 219.662 459.695 220.063C460.323 220.464 461.081 220.664 461.97 220.664C462.859 220.664 463.618 220.464 464.245 220.063C464.873 219.662 465.352 219.087 465.684 218.337C466.032 217.587 466.207 216.698 466.207 215.669C466.207 214.623 466.032 213.734 465.684 213.002C465.352 212.252 464.873 211.677 464.245 211.276C463.618 210.875 462.859 210.675 461.97 210.675ZM471.453 222.207V209.132H473.283L473.466 212.061L473.127 211.773C473.405 211.076 473.78 210.518 474.251 210.099C474.722 209.663 475.262 209.35 475.872 209.158C476.5 208.966 477.145 208.87 477.808 208.87C478.749 208.87 479.603 209.053 480.37 209.419C481.137 209.768 481.748 210.309 482.201 211.041C482.672 211.773 482.907 212.706 482.907 213.839V222.207H480.815V214.571C480.815 213.124 480.501 212.122 479.874 211.564C479.263 210.988 478.505 210.701 477.598 210.701C476.971 210.701 476.343 210.849 475.715 211.145C475.088 211.442 474.565 211.921 474.146 212.584C473.745 213.246 473.545 214.135 473.545 215.251V222.207H471.453ZM306.153 306.207V304.507C307.879 303.235 309.317 302.119 310.468 301.16C311.636 300.201 312.569 299.33 313.266 298.545C313.963 297.76 314.46 297.02 314.757 296.322C315.053 295.607 315.201 294.866 315.201 294.099C315.201 293.071 314.87 292.243 314.207 291.615C313.562 290.97 312.673 290.647 311.54 290.647C310.354 290.647 309.404 291.04 308.69 291.824C307.975 292.591 307.556 293.62 307.434 294.91L305.604 293.812C305.761 292.8 306.083 291.911 306.571 291.144C307.077 290.377 307.748 289.776 308.585 289.34C309.439 288.904 310.45 288.686 311.618 288.686C312.508 288.686 313.301 288.817 313.998 289.078C314.713 289.34 315.323 289.715 315.829 290.203C316.334 290.673 316.718 291.24 316.979 291.903C317.258 292.565 317.398 293.297 317.398 294.099C317.398 295.18 317.136 296.244 316.613 297.29C316.09 298.318 315.227 299.399 314.024 300.532C312.821 301.666 311.191 302.921 309.134 304.298V304.324C309.326 304.307 309.587 304.298 309.919 304.298C310.267 304.281 310.607 304.272 310.939 304.272C311.287 304.255 311.549 304.246 311.723 304.246H317.764V306.207H306.153ZM323.714 303.069C324.219 303.069 324.629 303.226 324.943 303.54C325.257 303.854 325.414 304.263 325.414 304.769C325.414 305.275 325.257 305.684 324.943 305.998C324.629 306.312 324.219 306.469 323.714 306.469C323.208 306.469 322.798 306.312 322.485 305.998C322.171 305.684 322.014 305.275 322.014 304.769C322.014 304.263 322.171 303.854 322.485 303.54C322.798 303.226 323.208 303.069 323.714 303.069ZM353.11 301.788C352.744 302.764 352.221 303.61 351.541 304.324C350.861 305.022 350.059 305.553 349.135 305.92C348.228 306.286 347.235 306.469 346.154 306.469C344.515 306.469 343.094 306.111 341.891 305.397C340.706 304.664 339.782 303.636 339.119 302.311C338.474 300.986 338.151 299.408 338.151 297.577C338.151 295.747 338.474 294.169 339.119 292.844C339.782 291.519 340.706 290.499 341.891 289.784C343.094 289.052 344.497 288.686 346.101 288.686C347.217 288.686 348.211 288.843 349.083 289.157C349.954 289.453 350.695 289.906 351.306 290.517C351.933 291.109 352.43 291.842 352.796 292.713L350.73 293.681C350.347 292.687 349.789 291.937 349.057 291.432C348.342 290.909 347.409 290.647 346.258 290.647C345.09 290.647 344.062 290.926 343.172 291.484C342.283 292.025 341.586 292.809 341.08 293.838C340.592 294.866 340.348 296.113 340.348 297.577C340.348 299.024 340.584 300.271 341.054 301.317C341.525 302.346 342.196 303.139 343.068 303.697C343.94 304.237 344.968 304.507 346.154 304.507C347.304 304.507 348.307 304.22 349.161 303.644C350.015 303.052 350.634 302.171 351.018 301.003L353.11 301.788ZM361.362 292.87C362.6 292.87 363.689 293.14 364.631 293.681C365.59 294.221 366.339 295.006 366.88 296.034C367.42 297.046 367.69 298.257 367.69 299.669C367.69 301.082 367.42 302.302 366.88 303.331C366.339 304.342 365.59 305.118 364.631 305.658C363.689 306.199 362.6 306.469 361.362 306.469C360.141 306.469 359.052 306.199 358.093 305.658C357.134 305.118 356.384 304.342 355.844 303.331C355.303 302.302 355.033 301.082 355.033 299.669C355.033 298.257 355.303 297.046 355.844 296.034C356.384 295.006 357.134 294.221 358.093 293.681C359.052 293.14 360.141 292.87 361.362 292.87ZM361.362 294.675C360.473 294.675 359.714 294.875 359.087 295.276C358.459 295.677 357.971 296.252 357.622 297.002C357.291 297.734 357.125 298.623 357.125 299.669C357.125 300.698 357.291 301.587 357.622 302.337C357.971 303.087 358.459 303.662 359.087 304.063C359.714 304.464 360.473 304.664 361.362 304.664C362.251 304.664 363.009 304.464 363.637 304.063C364.265 303.662 364.744 303.087 365.075 302.337C365.424 301.587 365.598 300.698 365.598 299.669C365.598 298.623 365.424 297.734 365.075 297.002C364.744 296.252 364.265 295.677 363.637 295.276C363.009 294.875 362.251 294.675 361.362 294.675ZM370.844 306.207V293.132H372.675L372.806 295.171C373.277 294.37 373.887 293.785 374.636 293.419C375.404 293.053 376.188 292.87 376.99 292.87C377.914 292.87 378.786 293.079 379.605 293.498C380.425 293.916 381.052 294.561 381.488 295.433C381.767 294.84 382.159 294.361 382.665 293.995C383.17 293.611 383.72 293.332 384.312 293.158C384.923 292.966 385.498 292.87 386.038 292.87C386.875 292.87 387.668 293.045 388.418 293.393C389.185 293.742 389.813 294.282 390.301 295.015C390.789 295.747 391.033 296.688 391.033 297.839V306.207H388.941V298.048C388.941 296.863 388.645 296.008 388.052 295.485C387.459 294.962 386.727 294.701 385.855 294.701C385.175 294.701 384.539 294.866 383.946 295.198C383.353 295.529 382.874 296.017 382.508 296.662C382.159 297.307 381.985 298.1 381.985 299.042V306.207H379.893V298.048C379.893 296.863 379.596 296.008 379.004 295.485C378.411 294.962 377.679 294.701 376.807 294.701C376.232 294.701 375.639 294.858 375.029 295.171C374.436 295.468 373.939 295.947 373.538 296.61C373.137 297.272 372.937 298.144 372.937 299.225V306.207H370.844ZM394.985 311.699V293.132H396.816L396.999 296.322L396.711 295.956C396.938 295.346 397.278 294.814 397.731 294.361C398.184 293.89 398.734 293.524 399.379 293.262C400.024 293.001 400.721 292.87 401.471 292.87C402.534 292.87 403.511 293.14 404.4 293.681C405.306 294.221 406.03 294.997 406.57 296.008C407.111 297.02 407.381 298.24 407.381 299.669C407.381 301.082 407.102 302.302 406.544 303.331C406.004 304.342 405.28 305.118 404.374 305.658C403.467 306.199 402.473 306.469 401.392 306.469C400.311 306.469 399.361 306.207 398.542 305.684C397.74 305.144 397.165 304.464 396.816 303.644L397.077 303.252V311.699H394.985ZM401.183 304.638C402.473 304.638 403.476 304.185 404.19 303.278C404.923 302.372 405.289 301.169 405.289 299.669C405.289 298.17 404.931 296.967 404.217 296.061C403.519 295.154 402.534 294.701 401.262 294.701C400.425 294.701 399.692 294.91 399.065 295.328C398.437 295.729 397.949 296.305 397.6 297.054C397.252 297.787 397.077 298.658 397.077 299.669C397.077 300.663 397.243 301.535 397.574 302.285C397.923 303.034 398.402 303.618 399.013 304.037C399.64 304.438 400.364 304.638 401.183 304.638ZM416.01 292.87C417.247 292.87 418.337 293.14 419.278 293.681C420.237 294.221 420.987 295.006 421.527 296.034C422.068 297.046 422.338 298.257 422.338 299.669C422.338 301.082 422.068 302.302 421.527 303.331C420.987 304.342 420.237 305.118 419.278 305.658C418.337 306.199 417.247 306.469 416.01 306.469C414.789 306.469 413.7 306.199 412.741 305.658C411.782 305.118 411.032 304.342 410.492 303.331C409.951 302.302 409.681 301.082 409.681 299.669C409.681 298.257 409.951 297.046 410.492 296.034C411.032 295.006 411.782 294.221 412.741 293.681C413.7 293.14 414.789 292.87 416.01 292.87ZM416.01 294.675C415.12 294.675 414.362 294.875 413.734 295.276C413.107 295.677 412.619 296.252 412.27 297.002C411.939 297.734 411.773 298.623 411.773 299.669C411.773 300.698 411.939 301.587 412.27 302.337C412.619 303.087 413.107 303.662 413.734 304.063C414.362 304.464 415.12 304.664 416.01 304.664C416.899 304.664 417.657 304.464 418.285 304.063C418.912 303.662 419.392 303.087 419.723 302.337C420.072 301.587 420.246 300.698 420.246 299.669C420.246 298.623 420.072 297.734 419.723 297.002C419.392 296.252 418.912 295.677 418.285 295.276C417.657 294.875 416.899 294.675 416.01 294.675ZM430.199 306.469C428.927 306.469 427.75 306.199 426.669 305.658C425.606 305.118 424.786 304.351 424.211 303.357L425.989 302.075C426.373 302.877 426.931 303.505 427.663 303.958C428.412 304.412 429.31 304.638 430.356 304.638C431.28 304.638 432.004 304.464 432.527 304.115C433.05 303.749 433.311 303.278 433.311 302.703C433.311 302.337 433.189 302.006 432.945 301.709C432.719 301.395 432.274 301.169 431.612 301.029L428.473 300.376C427.201 300.114 426.285 299.678 425.728 299.068C425.187 298.458 424.917 297.699 424.917 296.793C424.917 296.078 425.117 295.424 425.518 294.832C425.937 294.239 426.521 293.768 427.27 293.419C428.038 293.053 428.935 292.87 429.964 292.87C431.254 292.87 432.344 293.123 433.233 293.629C434.122 294.134 434.785 294.849 435.22 295.773L433.468 296.924C433.172 296.157 432.692 295.599 432.03 295.25C431.367 294.884 430.679 294.701 429.964 294.701C429.336 294.701 428.796 294.788 428.343 294.962C427.907 295.137 427.567 295.381 427.323 295.695C427.096 295.991 426.983 296.331 426.983 296.714C426.983 297.098 427.114 297.455 427.375 297.787C427.637 298.1 428.125 298.327 428.84 298.467L432.108 299.146C433.329 299.391 434.183 299.792 434.671 300.349C435.159 300.907 435.403 301.587 435.403 302.389C435.403 303.209 435.186 303.932 434.75 304.56C434.314 305.17 433.704 305.641 432.919 305.972C432.135 306.303 431.228 306.469 430.199 306.469ZM439.544 290.621C439.074 290.621 438.69 290.482 438.394 290.203C438.115 289.906 437.975 289.523 437.975 289.052C437.975 288.581 438.115 288.207 438.394 287.928C438.69 287.631 439.074 287.483 439.544 287.483C440.015 287.483 440.39 287.631 440.669 287.928C440.965 288.207 441.113 288.581 441.113 289.052C441.113 289.523 440.965 289.906 440.669 290.203C440.39 290.482 440.015 290.621 439.544 290.621ZM440.59 293.132V306.207H438.498V293.132H440.59ZM447.746 289.418V302.598C447.746 303.243 447.929 303.723 448.295 304.037C448.661 304.351 449.132 304.507 449.707 304.507C450.213 304.507 450.649 304.42 451.015 304.246C451.381 304.072 451.712 303.836 452.009 303.54L452.741 305.292C452.34 305.658 451.86 305.946 451.303 306.155C450.762 306.364 450.134 306.469 449.42 306.469C448.757 306.469 448.138 306.355 447.563 306.129C446.988 305.885 446.526 305.51 446.177 305.004C445.846 304.481 445.671 303.801 445.654 302.965V289.994L447.746 289.418ZM452.506 293.132V294.936H443.039V293.132H452.506ZM455.878 290.621C455.407 290.621 455.023 290.482 454.727 290.203C454.448 289.906 454.309 289.523 454.309 289.052C454.309 288.581 454.448 288.207 454.727 287.928C455.023 287.631 455.407 287.483 455.878 287.483C456.348 287.483 456.723 287.631 457.002 287.928C457.298 288.207 457.447 288.581 457.447 289.052C457.447 289.523 457.298 289.906 457.002 290.203C456.723 290.482 456.348 290.621 455.878 290.621ZM456.924 293.132V306.207H454.832V293.132H456.924ZM466.407 292.87C467.645 292.87 468.734 293.14 469.676 293.681C470.634 294.221 471.384 295.006 471.925 296.034C472.465 297.046 472.735 298.257 472.735 299.669C472.735 301.082 472.465 302.302 471.925 303.331C471.384 304.342 470.634 305.118 469.676 305.658C468.734 306.199 467.645 306.469 466.407 306.469C465.186 306.469 464.097 306.199 463.138 305.658C462.179 305.118 461.429 304.342 460.889 303.331C460.348 302.302 460.078 301.082 460.078 299.669C460.078 298.257 460.348 297.046 460.889 296.034C461.429 295.006 462.179 294.221 463.138 293.681C464.097 293.14 465.186 292.87 466.407 292.87ZM466.407 294.675C465.518 294.675 464.759 294.875 464.132 295.276C463.504 295.677 463.016 296.252 462.667 297.002C462.336 297.734 462.17 298.623 462.17 299.669C462.17 300.698 462.336 301.587 462.667 302.337C463.016 303.087 463.504 303.662 464.132 304.063C464.759 304.464 465.518 304.664 466.407 304.664C467.296 304.664 468.054 304.464 468.682 304.063C469.309 303.662 469.789 303.087 470.12 302.337C470.469 301.587 470.643 300.698 470.643 299.669C470.643 298.623 470.469 297.734 470.12 297.002C469.789 296.252 469.309 295.677 468.682 295.276C468.054 294.875 467.296 294.675 466.407 294.675ZM475.889 306.207V293.132H477.72L477.903 296.061L477.563 295.773C477.842 295.076 478.217 294.518 478.688 294.099C479.158 293.663 479.699 293.35 480.309 293.158C480.937 292.966 481.582 292.87 482.244 292.87C483.186 292.87 484.04 293.053 484.807 293.419C485.574 293.768 486.184 294.309 486.637 295.041C487.108 295.773 487.344 296.706 487.344 297.839V306.207H485.251V298.571C485.251 297.124 484.938 296.122 484.31 295.564C483.7 294.988 482.941 294.701 482.035 294.701C481.407 294.701 480.78 294.849 480.152 295.145C479.524 295.442 479.001 295.921 478.583 296.584C478.182 297.246 477.981 298.135 477.981 299.251V306.207H475.889ZM311.985 389.469C310.45 389.469 309.09 389.111 307.905 388.397C306.737 387.664 305.944 386.662 305.525 385.389L307.617 384.317C307.827 384.962 308.114 385.529 308.48 386.017C308.846 386.488 309.326 386.854 309.919 387.115C310.529 387.377 311.287 387.507 312.194 387.507C312.961 387.507 313.606 387.368 314.129 387.089C314.652 386.81 315.053 386.435 315.332 385.965C315.611 385.476 315.75 384.918 315.75 384.291C315.75 383.663 315.628 383.14 315.384 382.722C315.158 382.303 314.791 381.998 314.286 381.807C313.78 381.597 313.118 381.493 312.298 381.493C312.107 381.493 311.897 381.501 311.671 381.519C311.444 381.519 311.209 381.536 310.965 381.571V379.479C311.122 379.496 311.27 379.505 311.409 379.505C311.566 379.505 311.706 379.505 311.828 379.505C313.1 379.505 314.007 379.261 314.547 378.773C315.088 378.267 315.358 377.483 315.358 376.419C315.358 375.513 315.079 374.824 314.521 374.353C313.963 373.883 313.17 373.647 312.141 373.647C311.043 373.647 310.206 373.891 309.631 374.38C309.056 374.85 308.602 375.495 308.271 376.315L306.284 375.373C306.563 374.641 306.981 373.996 307.539 373.438C308.097 372.88 308.768 372.444 309.552 372.131C310.354 371.817 311.235 371.66 312.194 371.66C313.397 371.66 314.39 371.869 315.175 372.287C315.96 372.688 316.544 373.229 316.927 373.909C317.328 374.589 317.529 375.338 317.529 376.158C317.529 376.785 317.441 377.352 317.267 377.858C317.093 378.346 316.849 378.773 316.535 379.139C316.238 379.505 315.899 379.802 315.515 380.028C315.131 380.237 314.722 380.377 314.286 380.447V380.499C314.861 380.516 315.367 380.63 315.803 380.839C316.256 381.048 316.639 381.327 316.953 381.676C317.267 382.024 317.502 382.425 317.659 382.879C317.834 383.315 317.921 383.777 317.921 384.265C317.921 385.276 317.668 386.174 317.162 386.958C316.674 387.743 315.986 388.362 315.097 388.815C314.207 389.251 313.17 389.469 311.985 389.469ZM323.714 386.069C324.219 386.069 324.629 386.226 324.943 386.54C325.257 386.854 325.414 387.263 325.414 387.769C325.414 388.275 325.257 388.684 324.943 388.998C324.629 389.312 324.219 389.469 323.714 389.469C323.208 389.469 322.798 389.312 322.485 388.998C322.171 388.684 322.014 388.275 322.014 387.769C322.014 387.263 322.171 386.854 322.485 386.54C322.798 386.226 323.208 386.069 323.714 386.069ZM341.29 371.948V389.207H339.198V371.948H341.29ZM345.631 389.207V376.132H347.462L347.645 379.061L347.305 378.773C347.584 378.076 347.959 377.518 348.429 377.099C348.9 376.663 349.44 376.35 350.051 376.158C350.678 375.966 351.323 375.87 351.986 375.87C352.927 375.87 353.782 376.053 354.549 376.419C355.316 376.768 355.926 377.309 356.379 378.041C356.85 378.773 357.085 379.706 357.085 380.839V389.207H354.993V381.571C354.993 380.124 354.679 379.122 354.052 378.564C353.442 377.988 352.683 377.701 351.777 377.701C351.149 377.701 350.521 377.849 349.894 378.145C349.266 378.442 348.743 378.921 348.325 379.584C347.924 380.246 347.723 381.135 347.723 382.251V389.207H345.631ZM363.945 372.418V385.598C363.945 386.243 364.128 386.723 364.494 387.037C364.86 387.351 365.331 387.507 365.906 387.507C366.412 387.507 366.848 387.42 367.214 387.246C367.58 387.072 367.911 386.836 368.208 386.54L368.94 388.292C368.539 388.658 368.059 388.946 367.501 389.155C366.961 389.364 366.333 389.469 365.619 389.469C364.956 389.469 364.337 389.355 363.762 389.129C363.186 388.885 362.724 388.51 362.376 388.004C362.045 387.481 361.87 386.801 361.853 385.965V372.994L363.945 372.418ZM368.704 376.132V377.936H359.238V376.132H368.704ZM376.496 389.469C375.258 389.469 374.151 389.199 373.175 388.658C372.216 388.118 371.466 387.342 370.926 386.331C370.385 385.302 370.115 384.082 370.115 382.669C370.115 381.257 370.385 380.046 370.926 379.034C371.466 378.006 372.207 377.221 373.149 376.681C374.09 376.14 375.162 375.87 376.365 375.87C377.586 375.87 378.623 376.132 379.477 376.655C380.349 377.178 381.011 377.893 381.465 378.799C381.918 379.688 382.145 380.691 382.145 381.807C382.145 382.103 382.136 382.373 382.118 382.617C382.101 382.861 382.075 383.079 382.04 383.271H371.475V381.414H381.125L380.053 381.623C380.053 380.368 379.704 379.401 379.007 378.721C378.327 378.041 377.429 377.701 376.313 377.701C375.459 377.701 374.718 377.901 374.09 378.302C373.48 378.686 373 379.252 372.652 380.002C372.321 380.734 372.155 381.623 372.155 382.669C372.155 383.698 372.329 384.587 372.678 385.337C373.027 386.087 373.515 386.662 374.142 387.063C374.787 387.446 375.555 387.638 376.444 387.638C377.403 387.638 378.178 387.455 378.771 387.089C379.381 386.723 379.869 386.226 380.236 385.598L381.883 386.566C381.552 387.159 381.125 387.673 380.602 388.109C380.096 388.545 379.495 388.885 378.797 389.129C378.117 389.355 377.35 389.469 376.496 389.469ZM385.339 389.207V376.132H387.17L387.353 379.061L387.013 378.773C387.292 378.076 387.666 377.518 388.137 377.099C388.608 376.663 389.148 376.35 389.759 376.158C390.386 375.966 391.031 375.87 391.694 375.87C392.635 375.87 393.489 376.053 394.257 376.419C395.024 376.768 395.634 377.309 396.087 378.041C396.558 378.773 396.793 379.706 396.793 380.839V389.207H394.701V381.571C394.701 380.124 394.387 379.122 393.76 378.564C393.149 377.988 392.391 377.701 391.484 377.701C390.857 377.701 390.229 377.849 389.602 378.145C388.974 378.442 388.451 378.921 388.033 379.584C387.632 380.246 387.431 381.135 387.431 382.251V389.207H385.339ZM403.653 372.418V385.598C403.653 386.243 403.836 386.723 404.202 387.037C404.568 387.351 405.039 387.507 405.614 387.507C406.12 387.507 406.556 387.42 406.922 387.246C407.288 387.072 407.619 386.836 407.915 386.54L408.648 388.292C408.247 388.658 407.767 388.946 407.209 389.155C406.669 389.364 406.041 389.469 405.326 389.469C404.664 389.469 404.045 389.355 403.47 389.129C402.894 388.885 402.432 388.51 402.084 388.004C401.752 387.481 401.578 386.801 401.561 385.965V372.994L403.653 372.418ZM408.412 376.132V377.936H398.946V376.132H408.412ZM313.449 473.207V468.683H305.028V467.14L312.9 455.948H315.541V466.879H318.601V468.683H315.541V473.207H313.449ZM307.251 466.879H313.449V460.419C313.449 460.106 313.458 459.8 313.475 459.504C313.493 459.19 313.51 458.876 313.527 458.563C313.545 458.249 313.554 457.944 313.554 457.647H313.501C313.292 458.083 313.022 458.571 312.691 459.112C312.359 459.652 312.054 460.123 311.775 460.524L307.251 466.879ZM323.714 470.069C324.219 470.069 324.629 470.226 324.943 470.54C325.257 470.854 325.414 471.263 325.414 471.769C325.414 472.275 325.257 472.684 324.943 472.998C324.629 473.312 324.219 473.469 323.714 473.469C323.208 473.469 322.798 473.312 322.485 472.998C322.171 472.684 322.014 472.275 322.014 471.769C322.014 471.263 322.171 470.854 322.485 470.54C322.798 470.226 323.208 470.069 323.714 470.069ZM345.291 455.948C346.459 455.948 347.47 456.165 348.324 456.601C349.196 457.02 349.876 457.621 350.364 458.406C350.852 459.19 351.096 460.123 351.096 461.204C351.096 462.285 350.852 463.218 350.364 464.002C349.876 464.787 349.196 465.397 348.324 465.833C347.47 466.251 346.459 466.46 345.291 466.46H341.29V473.207H339.198V455.948H345.291ZM344.977 464.499C346.337 464.499 347.331 464.22 347.958 463.662C348.586 463.087 348.9 462.267 348.9 461.204C348.9 460.123 348.586 459.304 347.958 458.746C347.331 458.188 346.337 457.909 344.977 457.909H341.29V464.499H344.977ZM353.982 473.207V460.132H355.682L355.97 462.276C356.336 461.474 356.867 460.873 357.565 460.472C358.28 460.071 359.143 459.87 360.154 459.87C360.38 459.87 360.624 459.888 360.886 459.922C361.165 459.957 361.4 460.027 361.592 460.132L361.226 462.041C361.034 461.971 360.825 461.919 360.598 461.884C360.372 461.849 360.049 461.832 359.631 461.832C359.09 461.832 358.541 461.988 357.983 462.302C357.443 462.616 356.989 463.095 356.623 463.741C356.257 464.368 356.074 465.17 356.074 466.146V473.207H353.982ZM368.877 459.87C370.115 459.87 371.205 460.14 372.146 460.681C373.105 461.221 373.855 462.006 374.395 463.034C374.936 464.046 375.206 465.257 375.206 466.669C375.206 468.082 374.936 469.302 374.395 470.331C373.855 471.342 373.105 472.118 372.146 472.658C371.205 473.199 370.115 473.469 368.877 473.469C367.657 473.469 366.567 473.199 365.608 472.658C364.649 472.118 363.9 471.342 363.359 470.331C362.819 469.302 362.549 468.082 362.549 466.669C362.549 465.257 362.819 464.046 363.359 463.034C363.9 462.006 364.649 461.221 365.608 460.681C366.567 460.14 367.657 459.87 368.877 459.87ZM368.877 461.675C367.988 461.675 367.23 461.875 366.602 462.276C365.974 462.677 365.486 463.252 365.138 464.002C364.806 464.734 364.641 465.623 364.641 466.669C364.641 467.698 364.806 468.587 365.138 469.337C365.486 470.087 365.974 470.662 366.602 471.063C367.23 471.464 367.988 471.664 368.877 471.664C369.766 471.664 370.525 471.464 371.152 471.063C371.78 470.662 372.259 470.087 372.591 469.337C372.939 468.587 373.114 467.698 373.114 466.669C373.114 465.623 372.939 464.734 372.591 464.002C372.259 463.252 371.78 462.677 371.152 462.276C370.525 461.875 369.766 461.675 368.877 461.675ZM378.36 478.699V460.132H380.19L380.374 463.322L380.086 462.956C380.312 462.346 380.652 461.814 381.106 461.361C381.559 460.89 382.108 460.524 382.753 460.262C383.398 460.001 384.096 459.87 384.845 459.87C385.909 459.87 386.885 460.14 387.774 460.681C388.681 461.221 389.404 461.997 389.945 463.008C390.485 464.02 390.756 465.24 390.756 466.669C390.756 468.082 390.477 469.302 389.919 470.331C389.378 471.342 388.655 472.118 387.748 472.658C386.842 473.199 385.848 473.469 384.767 473.469C383.686 473.469 382.736 473.207 381.916 472.684C381.114 472.144 380.539 471.464 380.19 470.644L380.452 470.252V478.699H378.36ZM384.558 471.638C385.848 471.638 386.85 471.185 387.565 470.278C388.297 469.372 388.663 468.169 388.663 466.669C388.663 465.17 388.306 463.967 387.591 463.061C386.894 462.154 385.909 461.701 384.636 461.701C383.799 461.701 383.067 461.91 382.439 462.328C381.812 462.729 381.324 463.305 380.975 464.054C380.626 464.787 380.452 465.658 380.452 466.669C380.452 467.663 380.618 468.535 380.949 469.285C381.298 470.034 381.777 470.618 382.387 471.037C383.015 471.438 383.738 471.638 384.558 471.638ZM399.436 473.469C398.199 473.469 397.092 473.199 396.115 472.658C395.156 472.118 394.407 471.342 393.866 470.331C393.326 469.302 393.056 468.082 393.056 466.669C393.056 465.257 393.326 464.046 393.866 463.034C394.407 462.006 395.148 461.221 396.089 460.681C397.031 460.14 398.103 459.87 399.306 459.87C400.526 459.87 401.563 460.132 402.418 460.655C403.289 461.178 403.952 461.893 404.405 462.799C404.858 463.688 405.085 464.691 405.085 465.807C405.085 466.103 405.076 466.373 405.059 466.617C405.042 466.861 405.015 467.079 404.981 467.271H394.415V465.414H404.065L402.993 465.623C402.993 464.368 402.644 463.401 401.947 462.721C401.267 462.041 400.369 461.701 399.253 461.701C398.399 461.701 397.658 461.901 397.031 462.302C396.42 462.686 395.941 463.252 395.592 464.002C395.261 464.734 395.095 465.623 395.095 466.669C395.095 467.698 395.27 468.587 395.618 469.337C395.967 470.087 396.455 470.662 397.083 471.063C397.728 471.446 398.495 471.638 399.384 471.638C400.343 471.638 401.119 471.455 401.712 471.089C402.322 470.723 402.81 470.226 403.176 469.598L404.824 470.566C404.492 471.159 404.065 471.673 403.542 472.109C403.037 472.545 402.435 472.885 401.738 473.129C401.058 473.355 400.291 473.469 399.436 473.469ZM408.279 473.207V460.132H409.979L410.267 462.276C410.633 461.474 411.165 460.873 411.862 460.472C412.577 460.071 413.44 459.87 414.451 459.87C414.678 459.87 414.922 459.888 415.183 459.922C415.462 459.957 415.698 460.027 415.889 460.132L415.523 462.041C415.332 461.971 415.122 461.919 414.896 461.884C414.669 461.849 414.347 461.832 413.928 461.832C413.388 461.832 412.838 461.988 412.281 462.302C411.74 462.616 411.287 463.095 410.921 463.741C410.555 464.368 410.372 465.17 410.372 466.146V473.207H408.279ZM420.464 456.418V469.598C420.464 470.243 420.647 470.723 421.013 471.037C421.379 471.351 421.85 471.507 422.425 471.507C422.931 471.507 423.367 471.42 423.733 471.246C424.099 471.072 424.43 470.836 424.727 470.54L425.459 472.292C425.058 472.658 424.578 472.946 424.021 473.155C423.48 473.364 422.853 473.469 422.138 473.469C421.475 473.469 420.856 473.355 420.281 473.129C419.706 472.885 419.244 472.51 418.895 472.004C418.564 471.481 418.389 470.801 418.372 469.965V456.994L420.464 456.418ZM425.224 460.132V461.936H415.757V460.132H425.224ZM428.596 457.621C428.125 457.621 427.741 457.482 427.445 457.203C427.166 456.906 427.027 456.523 427.027 456.052C427.027 455.581 427.166 455.207 427.445 454.928C427.741 454.631 428.125 454.483 428.596 454.483C429.066 454.483 429.441 454.631 429.72 454.928C430.016 455.207 430.165 455.581 430.165 456.052C430.165 456.523 430.016 456.906 429.72 457.203C429.441 457.482 429.066 457.621 428.596 457.621ZM429.642 460.132V473.207H427.55V460.132H429.642ZM439.177 473.469C437.939 473.469 436.832 473.199 435.856 472.658C434.897 472.118 434.147 471.342 433.607 470.331C433.066 469.302 432.796 468.082 432.796 466.669C432.796 465.257 433.066 464.046 433.607 463.034C434.147 462.006 434.888 461.221 435.83 460.681C436.771 460.14 437.843 459.87 439.046 459.87C440.267 459.87 441.304 460.132 442.158 460.655C443.03 461.178 443.692 461.893 444.146 462.799C444.599 463.688 444.826 464.691 444.826 465.807C444.826 466.103 444.817 466.373 444.8 466.617C444.782 466.861 444.756 467.079 444.721 467.271H434.156V465.414H443.806L442.734 465.623C442.734 464.368 442.385 463.401 441.688 462.721C441.008 462.041 440.11 461.701 438.994 461.701C438.14 461.701 437.399 461.901 436.771 462.302C436.161 462.686 435.681 463.252 435.333 464.002C435.002 464.734 434.836 465.623 434.836 466.669C434.836 467.698 435.01 468.587 435.359 469.337C435.708 470.087 436.196 470.662 436.823 471.063C437.468 471.446 438.236 471.638 439.125 471.638C440.084 471.638 440.859 471.455 441.452 471.089C442.062 470.723 442.551 470.226 442.917 469.598L444.564 470.566C444.233 471.159 443.806 471.673 443.283 472.109C442.777 472.545 442.176 472.885 441.478 473.129C440.798 473.355 440.031 473.469 439.177 473.469ZM452.727 473.469C451.454 473.469 450.278 473.199 449.197 472.658C448.133 472.118 447.314 471.351 446.739 470.357L448.517 469.075C448.9 469.877 449.458 470.505 450.191 470.958C450.94 471.412 451.838 471.638 452.884 471.638C453.808 471.638 454.532 471.464 455.055 471.115C455.578 470.749 455.839 470.278 455.839 469.703C455.839 469.337 455.717 469.006 455.473 468.709C455.246 468.395 454.802 468.169 454.139 468.029L451.001 467.376C449.729 467.114 448.813 466.678 448.255 466.068C447.715 465.458 447.445 464.699 447.445 463.793C447.445 463.078 447.645 462.424 448.046 461.832C448.465 461.239 449.049 460.768 449.798 460.419C450.565 460.053 451.463 459.87 452.492 459.87C453.782 459.87 454.872 460.123 455.761 460.629C456.65 461.134 457.312 461.849 457.748 462.773L455.996 463.924C455.7 463.157 455.22 462.599 454.558 462.25C453.895 461.884 453.207 461.701 452.492 461.701C451.864 461.701 451.324 461.788 450.87 461.962C450.435 462.137 450.095 462.381 449.851 462.695C449.624 462.991 449.511 463.331 449.511 463.714C449.511 464.098 449.641 464.455 449.903 464.787C450.164 465.1 450.653 465.327 451.367 465.467L454.636 466.146C455.857 466.391 456.711 466.792 457.199 467.349C457.687 467.907 457.931 468.587 457.931 469.389C457.931 470.209 457.713 470.932 457.277 471.56C456.842 472.17 456.231 472.641 455.447 472.972C454.662 473.303 453.756 473.469 452.727 473.469ZM311.828 557.469C310.293 557.469 309.056 557.12 308.114 556.423C307.19 555.725 306.475 554.758 305.97 553.52L308.01 552.448C308.289 553.354 308.716 554.095 309.291 554.671C309.884 555.229 310.747 555.507 311.88 555.507C312.682 555.507 313.362 555.359 313.92 555.063C314.495 554.767 314.94 554.348 315.253 553.808C315.567 553.25 315.724 552.587 315.724 551.82C315.724 551.001 315.576 550.321 315.28 549.78C315.001 549.222 314.591 548.804 314.05 548.525C313.51 548.246 312.848 548.107 312.063 548.107C311.505 548.107 310.982 548.168 310.494 548.29C310.023 548.394 309.596 548.569 309.213 548.813C308.829 549.057 308.498 549.379 308.219 549.78L306.388 549.44L307.408 539.948H317.11V541.909H309.186L308.506 547.348L308.454 547.584H308.506C308.925 547.148 309.457 546.799 310.102 546.538C310.764 546.276 311.549 546.145 312.455 546.145C313.554 546.145 314.504 546.381 315.306 546.851C316.125 547.305 316.761 547.95 317.215 548.787C317.668 549.623 317.895 550.6 317.895 551.716C317.895 552.605 317.747 553.407 317.45 554.121C317.154 554.836 316.735 555.446 316.195 555.952C315.654 556.44 315.009 556.815 314.26 557.077C313.527 557.338 312.717 557.469 311.828 557.469ZM323.714 554.069C324.219 554.069 324.629 554.226 324.943 554.54C325.257 554.854 325.414 555.263 325.414 555.769C325.414 556.275 325.257 556.684 324.943 556.998C324.629 557.312 324.219 557.469 323.714 557.469C323.208 557.469 322.798 557.312 322.485 556.998C322.171 556.684 322.014 556.275 322.014 555.769C322.014 555.263 322.171 554.854 322.485 554.54C322.798 554.226 323.208 554.069 323.714 554.069ZM344.768 539.948C347.47 539.948 349.588 540.697 351.122 542.197C352.674 543.678 353.45 545.805 353.45 548.577C353.45 551.349 352.674 553.485 351.122 554.984C349.588 556.466 347.47 557.207 344.768 557.207H339.198V539.948H344.768ZM344.977 555.246C346.947 555.246 348.481 554.662 349.58 553.494C350.695 552.308 351.253 550.669 351.253 548.577C351.253 546.485 350.695 544.855 349.58 543.687C348.481 542.502 346.947 541.909 344.977 541.909H341.29V555.246H344.977ZM362.334 557.469C361.096 557.469 359.989 557.199 359.012 556.658C358.053 556.118 357.304 555.342 356.763 554.331C356.223 553.302 355.953 552.082 355.953 550.669C355.953 549.257 356.223 548.046 356.763 547.034C357.304 546.006 358.045 545.221 358.986 544.681C359.928 544.14 361 543.87 362.203 543.87C363.423 543.87 364.46 544.132 365.315 544.655C366.186 545.178 366.849 545.893 367.302 546.799C367.756 547.688 367.982 548.691 367.982 549.807C367.982 550.103 367.973 550.373 367.956 550.617C367.939 550.861 367.912 551.079 367.878 551.271H357.313V549.414H366.962L365.89 549.623C365.89 548.368 365.541 547.401 364.844 546.721C364.164 546.041 363.266 545.701 362.15 545.701C361.296 545.701 360.555 545.901 359.928 546.302C359.317 546.686 358.838 547.252 358.489 548.002C358.158 548.734 357.992 549.623 357.992 550.669C357.992 551.698 358.167 552.587 358.515 553.337C358.864 554.087 359.352 554.662 359.98 555.063C360.625 555.446 361.392 555.638 362.281 555.638C363.24 555.638 364.016 555.455 364.609 555.089C365.219 554.723 365.707 554.226 366.073 553.598L367.721 554.566C367.389 555.159 366.962 555.673 366.439 556.109C365.934 556.545 365.332 556.885 364.635 557.129C363.955 557.355 363.188 557.469 362.334 557.469ZM375.884 557.469C374.611 557.469 373.434 557.199 372.353 556.658C371.29 556.118 370.47 555.351 369.895 554.357L371.673 553.075C372.057 553.877 372.615 554.505 373.347 554.958C374.097 555.412 374.995 555.638 376.041 555.638C376.965 555.638 377.688 555.464 378.211 555.115C378.734 554.749 378.996 554.278 378.996 553.703C378.996 553.337 378.874 553.006 378.63 552.709C378.403 552.395 377.958 552.169 377.296 552.029L374.158 551.376C372.885 551.114 371.97 550.678 371.412 550.068C370.871 549.458 370.601 548.699 370.601 547.793C370.601 547.078 370.802 546.424 371.203 545.832C371.621 545.239 372.205 544.768 372.955 544.419C373.722 544.053 374.62 543.87 375.648 543.87C376.938 543.87 378.028 544.123 378.917 544.629C379.806 545.134 380.469 545.849 380.905 546.773L379.153 547.924C378.856 547.157 378.377 546.599 377.714 546.25C377.052 545.884 376.363 545.701 375.648 545.701C375.021 545.701 374.48 545.788 374.027 545.962C373.591 546.137 373.251 546.381 373.007 546.695C372.78 546.991 372.667 547.331 372.667 547.714C372.667 548.098 372.798 548.455 373.059 548.787C373.321 549.1 373.809 549.327 374.524 549.467L377.793 550.146C379.013 550.391 379.867 550.792 380.356 551.349C380.844 551.907 381.088 552.587 381.088 553.389C381.088 554.209 380.87 554.932 380.434 555.56C379.998 556.17 379.388 556.641 378.603 556.972C377.819 557.303 376.912 557.469 375.884 557.469ZM385.229 541.621C384.758 541.621 384.374 541.482 384.078 541.203C383.799 540.906 383.66 540.523 383.66 540.052C383.66 539.581 383.799 539.207 384.078 538.928C384.374 538.631 384.758 538.483 385.229 538.483C385.699 538.483 386.074 538.631 386.353 538.928C386.65 539.207 386.798 539.581 386.798 540.052C386.798 540.523 386.65 540.906 386.353 541.203C386.074 541.482 385.699 541.621 385.229 541.621ZM386.275 544.132V557.207H384.183V544.132H386.275ZM401.354 541.726L401.825 543.583C401.807 543.583 401.781 543.583 401.746 543.583C401.711 543.583 401.677 543.583 401.642 543.583C400.787 543.583 400.125 543.757 399.654 544.106C399.201 544.437 398.974 544.977 398.974 545.727L397.693 545.073C397.693 544.393 397.85 543.8 398.164 543.295C398.477 542.789 398.905 542.406 399.445 542.144C399.986 541.865 400.578 541.726 401.223 541.726C401.241 541.726 401.258 541.726 401.276 541.726C401.311 541.726 401.337 541.726 401.354 541.726ZM397.379 555.534C398.617 555.534 399.585 555.821 400.282 556.397C400.979 556.954 401.328 557.704 401.328 558.646C401.328 559.5 401.04 560.241 400.465 560.868C399.907 561.496 399.149 561.976 398.19 562.307C397.248 562.655 396.185 562.83 394.999 562.83C392.942 562.83 391.399 562.481 390.371 561.784C389.359 561.086 388.854 560.25 388.854 559.273C388.854 558.576 389.08 557.948 389.534 557.39C390.004 556.85 390.789 556.545 391.887 556.475L391.704 556.867C391.112 556.71 390.606 556.449 390.188 556.083C389.787 555.699 389.586 555.15 389.586 554.435C389.586 553.72 389.848 553.11 390.371 552.605C390.911 552.082 391.704 551.759 392.75 551.637L394.136 552.343H393.875C393.021 552.43 392.41 552.648 392.044 552.997C391.696 553.328 391.521 553.694 391.521 554.095C391.521 554.583 391.696 554.95 392.044 555.194C392.41 555.42 392.916 555.534 393.561 555.534H397.379ZM394.973 561.078C395.984 561.078 396.813 560.973 397.458 560.764C398.12 560.555 398.608 560.284 398.922 559.953C399.236 559.622 399.393 559.264 399.393 558.881C399.393 558.41 399.201 558.035 398.817 557.756C398.451 557.478 397.78 557.338 396.804 557.338H392.777C392.219 557.338 391.748 557.478 391.364 557.756C390.981 558.053 390.789 558.454 390.789 558.959C390.789 559.604 391.155 560.119 391.887 560.502C392.637 560.886 393.666 561.078 394.973 561.078ZM394.79 543.87C395.836 543.87 396.76 544.062 397.562 544.446C398.382 544.812 399.018 545.326 399.471 545.988C399.924 546.651 400.151 547.418 400.151 548.29C400.151 549.144 399.924 549.911 399.471 550.591C399.018 551.254 398.382 551.777 397.562 552.16C396.76 552.526 395.836 552.709 394.79 552.709C393.064 552.709 391.739 552.3 390.815 551.48C389.891 550.643 389.429 549.58 389.429 548.29C389.429 547.418 389.656 546.651 390.109 545.988C390.58 545.326 391.216 544.812 392.018 544.446C392.82 544.062 393.744 543.87 394.79 543.87ZM394.79 545.57C393.884 545.57 393.125 545.823 392.515 546.328C391.905 546.817 391.6 547.47 391.6 548.29C391.6 549.092 391.905 549.745 392.515 550.251C393.125 550.757 393.884 551.009 394.79 551.009C395.697 551.009 396.455 550.757 397.065 550.251C397.675 549.745 397.981 549.092 397.981 548.29C397.981 547.47 397.675 546.817 397.065 546.328C396.455 545.823 395.697 545.57 394.79 545.57ZM403.478 557.207V544.132H405.309L405.492 547.061L405.152 546.773C405.431 546.076 405.806 545.518 406.276 545.099C406.747 544.663 407.288 544.35 407.898 544.158C408.525 543.966 409.17 543.87 409.833 543.87C410.774 543.87 411.629 544.053 412.396 544.419C413.163 544.768 413.773 545.309 414.226 546.041C414.697 546.773 414.932 547.706 414.932 548.839V557.207H412.84V549.571C412.84 548.124 412.527 547.122 411.899 546.564C411.289 545.988 410.53 545.701 409.624 545.701C408.996 545.701 408.369 545.849 407.741 546.145C407.113 546.442 406.59 546.921 406.172 547.584C405.771 548.246 405.57 549.135 405.57 550.251V557.207H403.478ZM438.825 539.948V541.909H432.81V557.207H430.718V541.909H424.703V539.948H438.825ZM443.824 543.87C445.062 543.87 446.151 544.14 447.093 544.681C448.052 545.221 448.801 546.006 449.342 547.034C449.882 548.046 450.152 549.257 450.152 550.669C450.152 552.082 449.882 553.302 449.342 554.331C448.801 555.342 448.052 556.118 447.093 556.658C446.151 557.199 445.062 557.469 443.824 557.469C442.603 557.469 441.514 557.199 440.555 556.658C439.596 556.118 438.846 555.342 438.306 554.331C437.765 553.302 437.495 552.082 437.495 550.669C437.495 549.257 437.765 548.046 438.306 547.034C438.846 546.006 439.596 545.221 440.555 544.681C441.514 544.14 442.603 543.87 443.824 543.87ZM443.824 545.675C442.935 545.675 442.176 545.875 441.549 546.276C440.921 546.677 440.433 547.252 440.084 548.002C439.753 548.734 439.587 549.623 439.587 550.669C439.587 551.698 439.753 552.587 440.084 553.337C440.433 554.087 440.921 554.662 441.549 555.063C442.176 555.464 442.935 555.664 443.824 555.664C444.713 555.664 445.471 555.464 446.099 555.063C446.727 554.662 447.206 554.087 447.537 553.337C447.886 552.587 448.06 551.698 448.06 550.669C448.06 549.623 447.886 548.734 447.537 548.002C447.206 547.252 446.727 546.677 446.099 546.276C445.471 545.875 444.713 545.675 443.824 545.675ZM464.787 544.132L459.138 549.78L458.641 550.277L454.352 554.566V551.951L462.145 544.132H464.787ZM455.398 538.117V557.207H453.306V538.117H455.398ZM459.321 548.708L465.101 557.207H462.564L457.569 549.885L459.321 548.708ZM472.365 557.469C471.128 557.469 470.021 557.199 469.044 556.658C468.085 556.118 467.336 555.342 466.795 554.331C466.255 553.302 465.985 552.082 465.985 550.669C465.985 549.257 466.255 548.046 466.795 547.034C467.336 546.006 468.077 545.221 469.018 544.681C469.96 544.14 471.032 543.87 472.235 543.87C473.455 543.87 474.492 544.132 475.347 544.655C476.218 545.178 476.881 545.893 477.334 546.799C477.787 547.688 478.014 548.691 478.014 549.807C478.014 550.103 478.005 550.373 477.988 550.617C477.971 550.861 477.944 551.079 477.91 551.271H467.344V549.414H476.994L475.922 549.623C475.922 548.368 475.573 547.401 474.876 546.721C474.196 546.041 473.298 545.701 472.182 545.701C471.328 545.701 470.587 545.901 469.96 546.302C469.349 546.686 468.87 547.252 468.521 548.002C468.19 548.734 468.024 549.623 468.024 550.669C468.024 551.698 468.199 552.587 468.547 553.337C468.896 554.087 469.384 554.662 470.012 555.063C470.657 555.446 471.424 555.638 472.313 555.638C473.272 555.638 474.048 555.455 474.641 555.089C475.251 554.723 475.739 554.226 476.105 553.598L477.753 554.566C477.421 555.159 476.994 555.673 476.471 556.109C475.966 556.545 475.364 556.885 474.667 557.129C473.987 557.355 473.22 557.469 472.365 557.469ZM481.208 557.207V544.132H483.039L483.222 547.061L482.882 546.773C483.161 546.076 483.536 545.518 484.007 545.099C484.477 544.663 485.018 544.35 485.628 544.158C486.256 543.966 486.901 543.87 487.563 543.87C488.505 543.87 489.359 544.053 490.126 544.419C490.893 544.768 491.503 545.309 491.957 546.041C492.427 546.773 492.663 547.706 492.663 548.839V557.207H490.571V549.571C490.571 548.124 490.257 547.122 489.629 546.564C489.019 545.988 488.261 545.701 487.354 545.701C486.726 545.701 486.099 545.849 485.471 546.145C484.843 546.442 484.32 546.921 483.902 547.584C483.501 548.246 483.301 549.135 483.301 550.251V557.207H481.208ZM501.322 557.469C500.05 557.469 498.873 557.199 497.792 556.658C496.728 556.118 495.909 555.351 495.334 554.357L497.112 553.075C497.496 553.877 498.053 554.505 498.786 554.958C499.535 555.412 500.433 555.638 501.479 555.638C502.403 555.638 503.127 555.464 503.65 555.115C504.173 554.749 504.434 554.278 504.434 553.703C504.434 553.337 504.312 553.006 504.068 552.709C503.842 552.395 503.397 552.169 502.734 552.029L499.596 551.376C498.324 551.114 497.408 550.678 496.85 550.068C496.31 549.458 496.04 548.699 496.04 547.793C496.04 547.078 496.24 546.424 496.641 545.832C497.06 545.239 497.644 544.768 498.393 544.419C499.161 544.053 500.058 543.87 501.087 543.87C502.377 543.87 503.467 544.123 504.356 544.629C505.245 545.134 505.908 545.849 506.343 546.773L504.591 547.924C504.295 547.157 503.815 546.599 503.153 546.25C502.49 545.884 501.802 545.701 501.087 545.701C500.459 545.701 499.919 545.788 499.466 545.962C499.03 546.137 498.69 546.381 498.446 546.695C498.219 546.991 498.106 547.331 498.106 547.714C498.106 548.098 498.237 548.455 498.498 548.787C498.76 549.1 499.248 549.327 499.962 549.467L503.231 550.146C504.452 550.391 505.306 550.792 505.794 551.349C506.282 551.907 506.526 552.587 506.526 553.389C506.526 554.209 506.308 554.932 505.873 555.56C505.437 556.17 504.827 556.641 504.042 556.972C503.258 557.303 502.351 557.469 501.322 557.469ZM312.56 622.686C313.484 622.686 314.286 622.817 314.966 623.078C315.663 623.322 316.265 623.715 316.77 624.255C317.276 624.778 317.703 625.467 318.052 626.321L316.116 627.236C315.855 626.434 315.428 625.807 314.835 625.353C314.26 624.883 313.458 624.647 312.429 624.647C311.679 624.647 311.017 624.839 310.442 625.223C309.866 625.589 309.378 626.103 308.977 626.766C308.576 627.428 308.271 628.204 308.062 629.093C307.87 629.982 307.774 630.941 307.774 631.97C307.774 632.005 307.774 632.057 307.774 632.127C307.774 632.196 307.774 632.301 307.774 632.44H307.879C308.071 631.691 308.419 631.089 308.925 630.636C309.448 630.165 310.032 629.825 310.677 629.616C311.339 629.389 311.985 629.276 312.612 629.276C313.78 629.276 314.8 629.503 315.672 629.956C316.544 630.409 317.215 631.054 317.686 631.891C318.174 632.728 318.418 633.722 318.418 634.872C318.418 636.581 317.877 637.941 316.796 638.952C315.733 639.963 314.295 640.469 312.481 640.469C311.034 640.469 309.814 640.085 308.82 639.318C307.827 638.551 307.077 637.505 306.571 636.18C306.066 634.838 305.813 633.303 305.813 631.577C305.813 629.642 306.109 628.021 306.702 626.713C307.295 625.388 308.097 624.386 309.108 623.706C310.137 623.026 311.287 622.686 312.56 622.686ZM312.455 631.29C311.706 631.29 311.043 631.447 310.468 631.76C309.91 632.057 309.474 632.475 309.16 633.016C308.846 633.539 308.69 634.149 308.69 634.846C308.69 635.509 308.855 636.119 309.186 636.677C309.518 637.217 309.962 637.653 310.52 637.984C311.095 638.298 311.74 638.455 312.455 638.455C313.641 638.455 314.565 638.141 315.227 637.514C315.89 636.869 316.221 635.98 316.221 634.846C316.221 634.114 316.073 633.486 315.776 632.963C315.48 632.423 315.053 632.013 314.495 631.734C313.937 631.438 313.257 631.29 312.455 631.29ZM323.714 637.069C324.219 637.069 324.629 637.226 324.943 637.54C325.257 637.854 325.414 638.263 325.414 638.769C325.414 639.275 325.257 639.684 324.943 639.998C324.629 640.312 324.219 640.469 323.714 640.469C323.208 640.469 322.798 640.312 322.485 639.998C322.171 639.684 322.014 639.275 322.014 638.769C322.014 638.263 322.171 637.854 322.485 637.54C322.798 637.226 323.208 637.069 323.714 637.069ZM351.332 622.948V624.909H345.317V640.207H343.225V624.909H337.21V622.948H351.332ZM353.293 640.207V621.117H355.385V629.093C355.838 628.309 356.439 627.742 357.189 627.393C357.939 627.045 358.758 626.87 359.647 626.87C360.589 626.87 361.443 627.053 362.21 627.419C362.977 627.768 363.587 628.309 364.041 629.041C364.511 629.773 364.747 630.706 364.747 631.839V640.207H362.655V632.571C362.655 631.124 362.341 630.122 361.713 629.564C361.103 628.988 360.345 628.701 359.438 628.701C358.81 628.701 358.183 628.849 357.555 629.145C356.928 629.442 356.405 629.93 355.986 630.61C355.585 631.272 355.385 632.161 355.385 633.277V640.207H353.293ZM374.165 640.469C372.927 640.469 371.82 640.199 370.844 639.658C369.885 639.118 369.135 638.342 368.595 637.331C368.054 636.302 367.784 635.082 367.784 633.669C367.784 632.257 368.054 631.046 368.595 630.034C369.135 629.006 369.876 628.221 370.818 627.681C371.759 627.14 372.831 626.87 374.034 626.87C375.254 626.87 376.292 627.132 377.146 627.655C378.018 628.178 378.68 628.893 379.134 629.799C379.587 630.688 379.814 631.691 379.814 632.807C379.814 633.103 379.805 633.373 379.787 633.617C379.77 633.861 379.744 634.079 379.709 634.271H369.144V632.414H378.794L377.721 632.623C377.721 631.368 377.373 630.401 376.675 629.721C375.995 629.041 375.098 628.701 373.982 628.701C373.128 628.701 372.387 628.901 371.759 629.302C371.149 629.686 370.669 630.252 370.321 631.002C369.989 631.734 369.824 632.623 369.824 633.669C369.824 634.698 369.998 635.587 370.347 636.337C370.695 637.087 371.184 637.662 371.811 638.063C372.456 638.446 373.223 638.638 374.113 638.638C375.071 638.638 375.847 638.455 376.44 638.089C377.05 637.723 377.538 637.226 377.904 636.598L379.552 637.566C379.221 638.159 378.794 638.673 378.271 639.109C377.765 639.545 377.164 639.885 376.466 640.129C375.786 640.355 375.019 640.469 374.165 640.469ZM405.441 635.788C405.075 636.764 404.552 637.61 403.872 638.324C403.192 639.022 402.39 639.553 401.466 639.92C400.559 640.286 399.566 640.469 398.485 640.469C396.846 640.469 395.425 640.111 394.222 639.397C393.036 638.664 392.112 637.636 391.45 636.311C390.805 634.986 390.482 633.408 390.482 631.577C390.482 629.747 390.805 628.169 391.45 626.844C392.112 625.519 393.036 624.499 394.222 623.784C395.425 623.052 396.828 622.686 398.432 622.686C399.548 622.686 400.542 622.843 401.414 623.157C402.285 623.453 403.026 623.906 403.636 624.517C404.264 625.109 404.761 625.842 405.127 626.713L403.061 627.681C402.678 626.687 402.12 625.937 401.387 625.432C400.673 624.909 399.74 624.647 398.589 624.647C397.421 624.647 396.393 624.926 395.503 625.484C394.614 626.025 393.917 626.809 393.411 627.838C392.923 628.866 392.679 630.113 392.679 631.577C392.679 633.024 392.914 634.271 393.385 635.317C393.856 636.346 394.527 637.139 395.399 637.697C396.27 638.237 397.299 638.507 398.485 638.507C399.635 638.507 400.638 638.22 401.492 637.644C402.346 637.052 402.965 636.171 403.349 635.003L405.441 635.788ZM413.693 626.87C414.931 626.87 416.02 627.14 416.962 627.681C417.92 628.221 418.67 629.006 419.211 630.034C419.751 631.046 420.021 632.257 420.021 633.669C420.021 635.082 419.751 636.302 419.211 637.331C418.67 638.342 417.92 639.118 416.962 639.658C416.02 640.199 414.931 640.469 413.693 640.469C412.472 640.469 411.383 640.199 410.424 639.658C409.465 639.118 408.715 638.342 408.175 637.331C407.634 636.302 407.364 635.082 407.364 633.669C407.364 632.257 407.634 631.046 408.175 630.034C408.715 629.006 409.465 628.221 410.424 627.681C411.383 627.14 412.472 626.87 413.693 626.87ZM413.693 628.675C412.804 628.675 412.045 628.875 411.418 629.276C410.79 629.677 410.302 630.252 409.953 631.002C409.622 631.734 409.456 632.623 409.456 633.669C409.456 634.698 409.622 635.587 409.953 636.337C410.302 637.087 410.79 637.662 411.418 638.063C412.045 638.464 412.804 638.664 413.693 638.664C414.582 638.664 415.34 638.464 415.968 638.063C416.596 637.662 417.075 637.087 417.406 636.337C417.755 635.587 417.929 634.698 417.929 633.669C417.929 632.623 417.755 631.734 417.406 631.002C417.075 630.252 416.596 629.677 415.968 629.276C415.34 628.875 414.582 628.675 413.693 628.675ZM423.175 640.207V627.132H425.006L425.137 629.171C425.607 628.37 426.218 627.785 426.967 627.419C427.734 627.053 428.519 626.87 429.321 626.87C430.245 626.87 431.117 627.079 431.936 627.498C432.755 627.916 433.383 628.561 433.819 629.433C434.098 628.84 434.49 628.361 434.996 627.995C435.501 627.611 436.05 627.332 436.643 627.158C437.253 626.966 437.829 626.87 438.369 626.87C439.206 626.87 439.999 627.045 440.749 627.393C441.516 627.742 442.144 628.282 442.632 629.015C443.12 629.747 443.364 630.688 443.364 631.839V640.207H441.272V632.048C441.272 630.863 440.976 630.008 440.383 629.485C439.79 628.962 439.058 628.701 438.186 628.701C437.506 628.701 436.87 628.866 436.277 629.198C435.684 629.529 435.205 630.017 434.839 630.662C434.49 631.307 434.316 632.1 434.316 633.042V640.207H432.224V632.048C432.224 630.863 431.927 630.008 431.335 629.485C430.742 628.962 430.01 628.701 429.138 628.701C428.563 628.701 427.97 628.858 427.36 629.171C426.767 629.468 426.27 629.947 425.869 630.61C425.468 631.272 425.267 632.144 425.267 633.225V640.207H423.175ZM447.316 645.699V627.132H449.147L449.33 630.322L449.042 629.956C449.269 629.346 449.609 628.814 450.062 628.361C450.515 627.89 451.064 627.524 451.71 627.262C452.355 627.001 453.052 626.87 453.802 626.87C454.865 626.87 455.841 627.14 456.731 627.681C457.637 628.221 458.361 628.997 458.901 630.008C459.442 631.02 459.712 632.24 459.712 633.669C459.712 635.082 459.433 636.302 458.875 637.331C458.334 638.342 457.611 639.118 456.704 639.658C455.798 640.199 454.804 640.469 453.723 640.469C452.642 640.469 451.692 640.207 450.873 639.684C450.071 639.144 449.495 638.464 449.147 637.644L449.408 637.252V645.699H447.316ZM453.514 638.638C454.804 638.638 455.807 638.185 456.521 637.278C457.254 636.372 457.62 635.169 457.62 633.669C457.62 632.17 457.262 630.967 456.548 630.061C455.85 629.154 454.865 628.701 453.592 628.701C452.756 628.701 452.023 628.91 451.396 629.328C450.768 629.729 450.28 630.305 449.931 631.054C449.583 631.787 449.408 632.658 449.408 633.669C449.408 634.663 449.574 635.535 449.905 636.285C450.254 637.034 450.733 637.618 451.343 638.037C451.971 638.438 452.695 638.638 453.514 638.638ZM468.34 626.87C469.578 626.87 470.668 627.14 471.609 627.681C472.568 628.221 473.318 629.006 473.858 630.034C474.399 631.046 474.669 632.257 474.669 633.669C474.669 635.082 474.399 636.302 473.858 637.331C473.318 638.342 472.568 639.118 471.609 639.658C470.668 640.199 469.578 640.469 468.34 640.469C467.12 640.469 466.03 640.199 465.072 639.658C464.113 639.118 463.363 638.342 462.823 637.331C462.282 636.302 462.012 635.082 462.012 633.669C462.012 632.257 462.282 631.046 462.823 630.034C463.363 629.006 464.113 628.221 465.072 627.681C466.03 627.14 467.12 626.87 468.34 626.87ZM468.34 628.675C467.451 628.675 466.693 628.875 466.065 629.276C465.438 629.677 464.95 630.252 464.601 631.002C464.27 631.734 464.104 632.623 464.104 633.669C464.104 634.698 464.27 635.587 464.601 636.337C464.95 637.087 465.438 637.662 466.065 638.063C466.693 638.464 467.451 638.664 468.34 638.664C469.23 638.664 469.988 638.464 470.616 638.063C471.243 637.662 471.723 637.087 472.054 636.337C472.403 635.587 472.577 634.698 472.577 633.669C472.577 632.623 472.403 631.734 472.054 631.002C471.723 630.252 471.243 629.677 470.616 629.276C469.988 628.875 469.23 628.675 468.34 628.675ZM477.823 640.207V627.132H479.654L479.837 630.061L479.497 629.773C479.776 629.076 480.151 628.518 480.621 628.099C481.092 627.663 481.632 627.35 482.243 627.158C482.87 626.966 483.515 626.87 484.178 626.87C485.119 626.87 485.974 627.053 486.741 627.419C487.508 627.768 488.118 628.309 488.571 629.041C489.042 629.773 489.277 630.706 489.277 631.839V640.207H487.185V632.571C487.185 631.124 486.871 630.122 486.244 629.564C485.634 628.988 484.875 628.701 483.969 628.701C483.341 628.701 482.713 628.849 482.086 629.145C481.458 629.442 480.935 629.921 480.517 630.584C480.116 631.246 479.915 632.135 479.915 633.251V640.207H477.823ZM498.695 640.469C497.458 640.469 496.35 640.199 495.374 639.658C494.415 639.118 493.666 638.342 493.125 637.331C492.585 636.302 492.314 635.082 492.314 633.669C492.314 632.257 492.585 631.046 493.125 630.034C493.666 629.006 494.407 628.221 495.348 627.681C496.289 627.14 497.362 626.87 498.565 626.87C499.785 626.87 500.822 627.132 501.677 627.655C502.548 628.178 503.211 628.893 503.664 629.799C504.117 630.688 504.344 631.691 504.344 632.807C504.344 633.103 504.335 633.373 504.318 633.617C504.3 633.861 504.274 634.079 504.239 634.271H493.674V632.414H503.324L502.252 632.623C502.252 631.368 501.903 630.401 501.206 629.721C500.526 629.041 499.628 628.701 498.512 628.701C497.658 628.701 496.917 628.901 496.289 629.302C495.679 629.686 495.2 630.252 494.851 631.002C494.52 631.734 494.354 632.623 494.354 633.669C494.354 634.698 494.529 635.587 494.877 636.337C495.226 637.087 495.714 637.662 496.342 638.063C496.987 638.446 497.754 638.638 498.643 638.638C499.602 638.638 500.378 638.455 500.971 638.089C501.581 637.723 502.069 637.226 502.435 636.598L504.083 637.566C503.751 638.159 503.324 638.673 502.801 639.109C502.296 639.545 501.694 639.885 500.997 640.129C500.317 640.355 499.55 640.469 498.695 640.469ZM507.538 640.207V627.132H509.369L509.552 630.061L509.212 629.773C509.491 629.076 509.866 628.518 510.337 628.099C510.807 627.663 511.348 627.35 511.958 627.158C512.586 626.966 513.231 626.87 513.893 626.87C514.835 626.87 515.689 627.053 516.456 627.419C517.223 627.768 517.833 628.309 518.286 629.041C518.757 629.773 518.993 630.706 518.993 631.839V640.207H516.9V632.571C516.9 631.124 516.587 630.122 515.959 629.564C515.349 628.988 514.59 628.701 513.684 628.701C513.056 628.701 512.429 628.849 511.801 629.145C511.173 629.442 510.65 629.921 510.232 630.584C509.831 631.246 509.63 632.135 509.63 633.251V640.207H507.538ZM525.852 623.418V636.598C525.852 637.243 526.035 637.723 526.401 638.037C526.767 638.351 527.238 638.507 527.813 638.507C528.319 638.507 528.755 638.42 529.121 638.246C529.487 638.072 529.818 637.836 530.115 637.54L530.847 639.292C530.446 639.658 529.967 639.946 529.409 640.155C528.868 640.364 528.241 640.469 527.526 640.469C526.863 640.469 526.244 640.355 525.669 640.129C525.094 639.885 524.632 639.51 524.283 639.004C523.952 638.481 523.777 637.801 523.76 636.965V623.994L525.852 623.418ZM530.612 627.132V628.936H521.145V627.132H530.612ZM548.702 631.76C548.702 630.784 548.441 630.034 547.918 629.511C547.395 628.971 546.654 628.701 545.695 628.701C544.788 628.701 544.021 628.901 543.393 629.302C542.766 629.686 542.304 630.313 542.007 631.185L540.308 630.139C540.656 629.163 541.301 628.378 542.243 627.785C543.184 627.175 544.352 626.87 545.747 626.87C546.688 626.87 547.543 627.036 548.31 627.367C549.077 627.681 549.678 628.169 550.114 628.832C550.568 629.477 550.794 630.313 550.794 631.342V637.671C550.794 638.298 551.125 638.612 551.788 638.612C552.119 638.612 552.442 638.568 552.756 638.481L552.651 640.129C552.302 640.303 551.849 640.39 551.291 640.39C550.785 640.39 550.332 640.294 549.931 640.103C549.53 639.911 549.216 639.623 548.99 639.24C548.763 638.839 548.65 638.342 548.65 637.749V637.488L549.173 637.566C548.964 638.246 548.606 638.804 548.101 639.24C547.595 639.658 547.028 639.972 546.401 640.181C545.773 640.373 545.154 640.469 544.544 640.469C543.777 640.469 543.062 640.338 542.4 640.077C541.737 639.815 541.205 639.423 540.804 638.9C540.421 638.359 540.229 637.697 540.229 636.912C540.229 635.936 540.552 635.134 541.197 634.506C541.859 633.861 542.774 633.425 543.943 633.199L549.121 632.179V633.905L544.91 634.768C544.056 634.942 543.42 635.186 543.001 635.5C542.583 635.814 542.374 636.25 542.374 636.808C542.374 637.348 542.583 637.793 543.001 638.141C543.437 638.473 544.047 638.638 544.832 638.638C545.337 638.638 545.817 638.577 546.27 638.455C546.741 638.316 547.159 638.115 547.525 637.854C547.891 637.575 548.179 637.235 548.388 636.834C548.597 636.415 548.702 635.927 548.702 635.369V631.76ZM555.094 640.207V627.132H556.924L557.107 630.061L556.767 629.773C557.046 629.076 557.421 628.518 557.892 628.099C558.362 627.663 558.903 627.35 559.513 627.158C560.141 626.966 560.786 626.87 561.448 626.87C562.39 626.87 563.244 627.053 564.011 627.419C564.778 627.768 565.388 628.309 565.842 629.041C566.312 629.773 566.548 630.706 566.548 631.839V640.207H564.456V632.571C564.456 631.124 564.142 630.122 563.514 629.564C562.904 628.988 562.146 628.701 561.239 628.701C560.611 628.701 559.984 628.849 559.356 629.145C558.729 629.442 558.206 629.921 557.787 630.584C557.386 631.246 557.186 632.135 557.186 633.251V640.207H555.094ZM575.6 640.469C574.519 640.469 573.525 640.199 572.619 639.658C571.712 639.118 570.988 638.342 570.448 637.331C569.908 636.302 569.637 635.082 569.637 633.669C569.637 632.222 569.925 630.993 570.5 629.982C571.076 628.971 571.834 628.204 572.775 627.681C573.717 627.14 574.728 626.87 575.809 626.87C576.89 626.87 577.823 627.149 578.607 627.707C579.409 628.265 579.941 629.006 580.202 629.93L579.941 630.113V621.117H582.033V640.207H580.202L580.019 637.043L580.307 636.886C580.185 637.653 579.889 638.307 579.418 638.847C578.965 639.37 578.398 639.771 577.718 640.05C577.056 640.329 576.349 640.469 575.6 640.469ZM575.809 638.638C576.646 638.638 577.369 638.429 577.98 638.011C578.607 637.592 579.087 636.999 579.418 636.232C579.767 635.448 579.941 634.532 579.941 633.486C579.941 632.493 579.767 631.638 579.418 630.924C579.087 630.209 578.616 629.66 578.006 629.276C577.413 628.893 576.716 628.701 575.914 628.701C574.589 628.701 573.56 629.154 572.828 630.061C572.096 630.967 571.729 632.17 571.729 633.669C571.729 635.169 572.087 636.372 572.802 637.278C573.516 638.185 574.519 638.638 575.809 638.638ZM607.127 622.948L600.59 640.207H598.21L591.646 622.948H593.895L598.288 634.872L599.387 638.298L600.485 634.899L604.878 622.948H607.127ZM615.597 631.76C615.597 630.784 615.335 630.034 614.812 629.511C614.289 628.971 613.548 628.701 612.59 628.701C611.683 628.701 610.916 628.901 610.288 629.302C609.661 629.686 609.199 630.313 608.902 631.185L607.202 630.139C607.551 629.163 608.196 628.378 609.138 627.785C610.079 627.175 611.247 626.87 612.642 626.87C613.583 626.87 614.438 627.036 615.205 627.367C615.972 627.681 616.573 628.169 617.009 628.832C617.462 629.477 617.689 630.313 617.689 631.342V637.671C617.689 638.298 618.02 638.612 618.683 638.612C619.014 638.612 619.337 638.568 619.65 638.481L619.546 640.129C619.197 640.303 618.744 640.39 618.186 640.39C617.68 640.39 617.227 640.294 616.826 640.103C616.425 639.911 616.111 639.623 615.885 639.24C615.658 638.839 615.545 638.342 615.545 637.749V637.488L616.068 637.566C615.858 638.246 615.501 638.804 614.995 639.24C614.49 639.658 613.923 639.972 613.296 640.181C612.668 640.373 612.049 640.469 611.439 640.469C610.672 640.469 609.957 640.338 609.294 640.077C608.632 639.815 608.1 639.423 607.699 638.9C607.316 638.359 607.124 637.697 607.124 636.912C607.124 635.936 607.446 635.134 608.092 634.506C608.754 633.861 609.669 633.425 610.837 633.199L616.015 632.179V633.905L611.805 634.768C610.951 634.942 610.314 635.186 609.896 635.5C609.478 635.814 609.268 636.25 609.268 636.808C609.268 637.348 609.478 637.793 609.896 638.141C610.332 638.473 610.942 638.638 611.727 638.638C612.232 638.638 612.712 638.577 613.165 638.455C613.636 638.316 614.054 638.115 614.42 637.854C614.786 637.575 615.074 637.235 615.283 636.834C615.492 636.415 615.597 635.927 615.597 635.369V631.76ZM621.988 640.207V627.132H623.688L623.976 629.276C624.342 628.474 624.874 627.873 625.571 627.472C626.286 627.071 627.149 626.87 628.16 626.87C628.387 626.87 628.631 626.888 628.892 626.922C629.171 626.957 629.407 627.027 629.598 627.132L629.232 629.041C629.041 628.971 628.831 628.919 628.605 628.884C628.378 628.849 628.055 628.832 627.637 628.832C627.097 628.832 626.547 628.988 625.99 629.302C625.449 629.616 624.996 630.095 624.63 630.741C624.264 631.368 624.081 632.17 624.081 633.146V640.207H621.988ZM632.925 624.621C632.454 624.621 632.071 624.482 631.774 624.203C631.495 623.906 631.356 623.523 631.356 623.052C631.356 622.581 631.495 622.207 631.774 621.928C632.071 621.631 632.454 621.483 632.925 621.483C633.396 621.483 633.77 621.631 634.049 621.928C634.346 622.207 634.494 622.581 634.494 623.052C634.494 623.523 634.346 623.906 634.049 624.203C633.77 624.482 633.396 624.621 632.925 624.621ZM633.971 627.132V640.207H631.879V627.132H633.971ZM645.677 631.76C645.677 630.784 645.415 630.034 644.892 629.511C644.369 628.971 643.628 628.701 642.669 628.701C641.763 628.701 640.996 628.901 640.368 629.302C639.741 629.686 639.279 630.313 638.982 631.185L637.282 630.139C637.631 629.163 638.276 628.378 639.218 627.785C640.159 627.175 641.327 626.87 642.722 626.87C643.663 626.87 644.517 627.036 645.285 627.367C646.052 627.681 646.653 628.169 647.089 628.832C647.542 629.477 647.769 630.313 647.769 631.342V637.671C647.769 638.298 648.1 638.612 648.763 638.612C649.094 638.612 649.416 638.568 649.73 638.481L649.626 640.129C649.277 640.303 648.824 640.39 648.266 640.39C647.76 640.39 647.307 640.294 646.906 640.103C646.505 639.911 646.191 639.623 645.965 639.24C645.738 638.839 645.625 638.342 645.625 637.749V637.488L646.148 637.566C645.938 638.246 645.581 638.804 645.075 639.24C644.57 639.658 644.003 639.972 643.376 640.181C642.748 640.373 642.129 640.469 641.519 640.469C640.752 640.469 640.037 640.338 639.374 640.077C638.712 639.815 638.18 639.423 637.779 638.9C637.396 638.359 637.204 637.697 637.204 636.912C637.204 635.936 637.526 635.134 638.171 634.506C638.834 633.861 639.749 633.425 640.917 633.199L646.095 632.179V633.905L641.885 634.768C641.031 634.942 640.394 635.186 639.976 635.5C639.557 635.814 639.348 636.25 639.348 636.808C639.348 637.348 639.557 637.793 639.976 638.141C640.412 638.473 641.022 638.638 641.806 638.638C642.312 638.638 642.792 638.577 643.245 638.455C643.716 638.316 644.134 638.115 644.5 637.854C644.866 637.575 645.154 637.235 645.363 636.834C645.572 636.415 645.677 635.927 645.677 635.369V631.76ZM652.068 640.207V627.132H653.899L654.082 630.061L653.742 629.773C654.021 629.076 654.396 628.518 654.867 628.099C655.337 627.663 655.878 627.35 656.488 627.158C657.116 626.966 657.761 626.87 658.423 626.87C659.365 626.87 660.219 627.053 660.986 627.419C661.753 627.768 662.363 628.309 662.816 629.041C663.287 629.773 663.523 630.706 663.523 631.839V640.207H661.43V632.571C661.43 631.124 661.117 630.122 660.489 629.564C659.879 628.988 659.12 628.701 658.214 628.701C657.586 628.701 656.959 628.849 656.331 629.145C655.703 629.442 655.18 629.921 654.762 630.584C654.361 631.246 654.16 632.135 654.16 633.251V640.207H652.068ZM670.382 623.418V636.598C670.382 637.243 670.565 637.723 670.931 638.037C671.297 638.351 671.768 638.507 672.343 638.507C672.849 638.507 673.285 638.42 673.651 638.246C674.017 638.072 674.348 637.836 674.645 637.54L675.377 639.292C674.976 639.658 674.497 639.946 673.939 640.155C673.398 640.364 672.771 640.469 672.056 640.469C671.393 640.469 670.774 640.355 670.199 640.129C669.624 639.885 669.162 639.51 668.813 639.004C668.482 638.481 668.307 637.801 668.29 636.965V623.994L670.382 623.418ZM675.142 627.132V628.936H665.675V627.132H675.142ZM682.175 640.469C680.902 640.469 679.725 640.199 678.644 639.658C677.581 639.118 676.762 638.351 676.186 637.357L677.965 636.075C678.348 636.877 678.906 637.505 679.638 637.958C680.388 638.412 681.286 638.638 682.332 638.638C683.256 638.638 683.979 638.464 684.502 638.115C685.025 637.749 685.287 637.278 685.287 636.703C685.287 636.337 685.165 636.006 684.921 635.709C684.694 635.395 684.25 635.169 683.587 635.029L680.449 634.376C679.176 634.114 678.261 633.678 677.703 633.068C677.163 632.458 676.892 631.699 676.892 630.793C676.892 630.078 677.093 629.424 677.494 628.832C677.912 628.239 678.496 627.768 679.246 627.419C680.013 627.053 680.911 626.87 681.939 626.87C683.23 626.87 684.319 627.123 685.208 627.629C686.098 628.134 686.76 628.849 687.196 629.773L685.444 630.924C685.147 630.157 684.668 629.599 684.005 629.25C683.343 628.884 682.654 628.701 681.939 628.701C681.312 628.701 680.771 628.788 680.318 628.962C679.882 629.137 679.542 629.381 679.298 629.695C679.072 629.991 678.958 630.331 678.958 630.714C678.958 631.098 679.089 631.455 679.351 631.787C679.612 632.1 680.1 632.327 680.815 632.467L684.084 633.146C685.304 633.391 686.159 633.792 686.647 634.349C687.135 634.907 687.379 635.587 687.379 636.389C687.379 637.209 687.161 637.932 686.725 638.56C686.289 639.17 685.679 639.641 684.895 639.972C684.11 640.303 683.203 640.469 682.175 640.469Z" fill="#4F4F4F"/>
</g>
<defs>
<clipPath id="clip0_1944_184498">
<rect width="1511" height="744" fill="white"/>
</clipPath>
</defs>
</svg>
