<svg width="1035" height="796" viewBox="0 0 1035 796" fill="none" xmlns="http://www.w3.org/2000/svg">
<rect x="1" width="1034" height="796" fill="white"/>
<rect width="1035" height="67" fill="#F0F0F0"/>
<rect y="67" width="1035" height="135.986" fill="#F3F7F9"/>
<path d="M80.5758 139.289C80.1783 140.628 79.5506 141.747 78.6929 142.646C77.8351 143.546 76.8205 144.215 75.6489 144.655C74.4773 145.094 73.1907 145.314 71.789 145.314C69.7387 145.314 67.9604 144.885 66.4541 144.027C64.9688 143.169 63.8181 141.946 63.0022 140.356C62.2072 138.766 61.8097 136.862 61.8097 134.644C61.8097 132.427 62.2072 130.523 63.0022 128.933C63.8181 127.343 64.9688 126.119 66.4541 125.261C67.9604 124.403 69.7178 123.974 71.7262 123.974C73.1488 123.974 74.4355 124.173 75.5861 124.571C76.7368 124.947 77.7096 125.533 78.5046 126.328C79.3205 127.123 79.9167 128.127 80.2933 129.341L76.3707 131.004C76.015 129.749 75.4711 128.86 74.7388 128.336C74.0066 127.793 73.0651 127.521 71.9145 127.521C70.7848 127.521 69.791 127.793 68.9333 128.336C68.0964 128.88 67.4479 129.686 66.9876 130.753C66.5274 131.799 66.2972 133.096 66.2972 134.644C66.2972 136.171 66.5064 137.468 66.9249 138.535C67.3642 139.602 68.0023 140.408 68.8391 140.952C69.676 141.496 70.7011 141.768 71.9145 141.768C73.0442 141.768 74.0171 141.464 74.833 140.858C75.6698 140.251 76.2556 139.33 76.5903 138.096L80.5758 139.289ZM95.8256 123.974C97.8758 123.974 99.6436 124.403 101.129 125.261C102.614 126.119 103.755 127.343 104.55 128.933C105.365 130.523 105.773 132.427 105.773 134.644C105.773 136.862 105.365 138.766 104.55 140.356C103.755 141.946 102.614 143.169 101.129 144.027C99.6436 144.885 97.8758 145.314 95.8256 145.314C93.7753 145.314 91.997 144.885 90.4907 144.027C89.0053 143.169 87.8547 141.946 87.0388 140.356C86.2438 138.766 85.8463 136.862 85.8463 134.644C85.8463 132.427 86.2438 130.523 87.0388 128.933C87.8547 127.343 89.0053 126.119 90.4907 125.261C91.997 124.403 93.7753 123.974 95.8256 123.974ZM95.8256 127.521C94.654 127.521 93.6602 127.793 92.8443 128.336C92.0284 128.88 91.4008 129.686 90.9614 130.753C90.543 131.799 90.3338 133.096 90.3338 134.644C90.3338 136.171 90.543 137.468 90.9614 138.535C91.4008 139.602 92.0284 140.408 92.8443 140.952C93.6602 141.496 94.654 141.768 95.8256 141.768C96.9762 141.768 97.9595 141.496 98.7754 140.952C99.5913 140.408 100.208 139.602 100.627 138.535C101.066 137.468 101.286 136.171 101.286 134.644C101.286 133.096 101.066 131.799 100.627 130.753C100.208 129.686 99.5913 128.88 98.7754 128.336C97.9595 127.793 96.9762 127.521 95.8256 127.521ZM130.55 124.288V145H125.592L118.343 132.824L116.554 129.435H116.523L116.648 133.012V145H112.757V124.288H117.684L124.933 136.433L126.722 139.853H126.785L126.659 136.276V124.288H130.55ZM154.952 124.288V127.772H148.017V145H143.686V127.772H136.72V124.288H154.952ZM161.106 145V124.288H176.64V127.772H165.437V132.918H174.255V136.245H165.437V141.517H177.079V145H161.106ZM201.373 124.288V145H196.415L189.166 132.824L187.377 129.435H187.346L187.471 133.012V145H183.58V124.288H188.507L195.756 136.433L197.545 139.853H197.607L197.482 136.276V124.288H201.373ZM225.775 124.288V127.772H218.84V145H214.509V127.772H207.542V124.288H225.775ZM238.909 123.974C240.792 123.974 242.445 124.299 243.868 124.947C245.29 125.596 246.504 126.558 247.508 127.834L245.092 130.627C244.234 129.539 243.292 128.744 242.267 128.242C241.263 127.719 240.091 127.458 238.752 127.458C237.874 127.458 237.142 127.573 236.556 127.803C235.991 128.033 235.573 128.336 235.301 128.713C235.049 129.09 234.924 129.508 234.924 129.968C234.924 130.533 235.144 131.014 235.583 131.412C236.022 131.788 236.775 132.102 237.842 132.353L241.702 133.232C243.753 133.692 245.217 134.383 246.096 135.303C246.995 136.203 247.445 137.374 247.445 138.818C247.445 140.178 247.089 141.349 246.378 142.333C245.667 143.295 244.673 144.038 243.397 144.561C242.121 145.063 240.656 145.314 239.004 145.314C237.56 145.314 236.232 145.146 235.018 144.812C233.826 144.456 232.759 143.975 231.817 143.368C230.876 142.761 230.091 142.061 229.464 141.266L231.911 138.347C232.393 139.017 232.989 139.613 233.7 140.136C234.411 140.659 235.217 141.077 236.116 141.391C237.037 141.684 237.999 141.83 239.004 141.83C239.861 141.83 240.583 141.736 241.169 141.548C241.776 141.339 242.225 141.056 242.518 140.701C242.832 140.324 242.989 139.874 242.989 139.351C242.989 138.807 242.801 138.347 242.424 137.971C242.068 137.573 241.399 137.27 240.416 137.061L236.211 136.119C234.997 135.826 233.951 135.45 233.072 134.989C232.215 134.508 231.556 133.901 231.095 133.169C230.656 132.416 230.436 131.527 230.436 130.502C230.436 129.267 230.771 128.159 231.441 127.175C232.11 126.192 233.072 125.418 234.328 124.853C235.604 124.267 237.131 123.974 238.909 123.974Z" fill="#666687"/>
<path d="M69.2836 293V291.117H74.4877V278.198C74.0518 278.599 73.555 278.974 72.9971 279.323C72.4392 279.654 71.8638 279.942 71.2711 280.186C70.6783 280.43 70.103 280.622 69.5451 280.761L68.9959 278.852C69.3098 278.817 69.7282 278.704 70.2512 278.512C70.7917 278.303 71.3583 278.05 71.951 277.754C72.5612 277.44 73.1191 277.109 73.6247 276.76C74.1303 276.411 74.5051 276.071 74.7492 275.74H76.5798V291.117H81.2608V293H69.2836ZM86.7137 289.862C87.2193 289.862 87.629 290.019 87.9429 290.333C88.2567 290.646 88.4136 291.056 88.4136 291.562C88.4136 292.067 88.2567 292.477 87.9429 292.791C87.629 293.105 87.2193 293.262 86.7137 293.262C86.2082 293.262 85.7985 293.105 85.4846 292.791C85.1708 292.477 85.0139 292.067 85.0139 291.562C85.0139 291.056 85.1708 290.646 85.4846 290.333C85.7985 290.019 86.2082 289.862 86.7137 289.862ZM104.29 275.74V293H102.198V275.74H104.29ZM108.631 293V279.924H110.462L110.645 282.853L110.305 282.566C110.584 281.868 110.959 281.31 111.429 280.892C111.9 280.456 112.44 280.142 113.051 279.951C113.678 279.759 114.323 279.663 114.986 279.663C115.927 279.663 116.782 279.846 117.549 280.212C118.316 280.561 118.926 281.101 119.379 281.833C119.85 282.566 120.085 283.498 120.085 284.632V293H117.993V285.364C117.993 283.917 117.679 282.914 117.052 282.356C116.442 281.781 115.683 281.493 114.777 281.493C114.149 281.493 113.521 281.642 112.894 281.938C112.266 282.234 111.743 282.714 111.325 283.376C110.924 284.039 110.723 284.928 110.723 286.044V293H108.631ZM126.945 276.211V289.391C126.945 290.036 127.128 290.516 127.494 290.829C127.86 291.143 128.331 291.3 128.906 291.3C129.412 291.3 129.848 291.213 130.214 291.039C130.58 290.864 130.911 290.629 131.208 290.333L131.94 292.085C131.539 292.451 131.059 292.738 130.501 292.948C129.961 293.157 129.333 293.262 128.619 293.262C127.956 293.262 127.337 293.148 126.762 292.922C126.186 292.677 125.724 292.303 125.376 291.797C125.045 291.274 124.87 290.594 124.853 289.757V276.786L126.945 276.211ZM131.704 279.924V281.729H122.238V279.924H131.704ZM134.03 293V279.924H135.73L136.018 282.069C136.384 281.267 136.916 280.665 137.613 280.264C138.328 279.863 139.191 279.663 140.202 279.663C140.429 279.663 140.673 279.68 140.934 279.715C141.213 279.75 141.449 279.82 141.64 279.924L141.274 281.833C141.082 281.764 140.873 281.711 140.647 281.677C140.42 281.642 140.097 281.624 139.679 281.624C139.139 281.624 138.589 281.781 138.032 282.095C137.491 282.409 137.038 282.888 136.672 283.533C136.306 284.161 136.122 284.963 136.122 285.939V293H134.03ZM148.926 279.663C150.163 279.663 151.253 279.933 152.194 280.474C153.153 281.014 153.903 281.799 154.443 282.827C154.984 283.838 155.254 285.05 155.254 286.462C155.254 287.874 154.984 289.095 154.443 290.123C153.903 291.135 153.153 291.91 152.194 292.451C151.253 292.991 150.163 293.262 148.926 293.262C147.705 293.262 146.616 292.991 145.657 292.451C144.698 291.91 143.948 291.135 143.408 290.123C142.867 289.095 142.597 287.874 142.597 286.462C142.597 285.05 142.867 283.838 143.408 282.827C143.948 281.799 144.698 281.014 145.657 280.474C146.616 279.933 147.705 279.663 148.926 279.663ZM148.926 281.467C148.036 281.467 147.278 281.668 146.65 282.069C146.023 282.47 145.535 283.045 145.186 283.795C144.855 284.527 144.689 285.416 144.689 286.462C144.689 287.491 144.855 288.38 145.186 289.13C145.535 289.879 146.023 290.455 146.65 290.856C147.278 291.257 148.036 291.457 148.926 291.457C149.815 291.457 150.573 291.257 151.201 290.856C151.828 290.455 152.308 289.879 152.639 289.13C152.988 288.38 153.162 287.491 153.162 286.462C153.162 285.416 152.988 284.527 152.639 283.795C152.308 283.045 151.828 282.47 151.201 282.069C150.573 281.668 149.815 281.467 148.926 281.467ZM163.508 293.262C162.427 293.262 161.433 292.991 160.526 292.451C159.62 291.91 158.896 291.135 158.356 290.123C157.815 289.095 157.545 287.874 157.545 286.462C157.545 285.015 157.833 283.786 158.408 282.775C158.984 281.764 159.742 280.997 160.683 280.474C161.625 279.933 162.636 279.663 163.717 279.663C164.798 279.663 165.73 279.942 166.515 280.5C167.317 281.058 167.849 281.799 168.11 282.723L167.849 282.906V273.91H169.941V293H168.11L167.927 289.836L168.215 289.679C168.093 290.446 167.796 291.1 167.326 291.64C166.872 292.163 166.306 292.564 165.626 292.843C164.963 293.122 164.257 293.262 163.508 293.262ZM163.717 291.431C164.554 291.431 165.277 291.222 165.887 290.803C166.515 290.385 166.994 289.792 167.326 289.025C167.674 288.24 167.849 287.325 167.849 286.279C167.849 285.285 167.674 284.431 167.326 283.716C166.994 283.002 166.524 282.452 165.914 282.069C165.321 281.685 164.623 281.493 163.821 281.493C162.496 281.493 161.468 281.947 160.736 282.853C160.003 283.76 159.637 284.963 159.637 286.462C159.637 287.962 159.995 289.164 160.709 290.071C161.424 290.978 162.427 291.431 163.717 291.431ZM178.753 293.262C177.916 293.262 177.122 293.105 176.373 292.791C175.641 292.477 175.039 291.971 174.568 291.274C174.115 290.559 173.888 289.635 173.888 288.502V279.924H175.981V287.953C175.981 289.278 176.268 290.193 176.843 290.699C177.419 291.187 178.23 291.431 179.276 291.431C179.764 291.431 180.243 291.352 180.714 291.196C181.185 291.021 181.603 290.76 181.969 290.411C182.353 290.045 182.649 289.583 182.858 289.025C183.085 288.467 183.198 287.805 183.198 287.038V279.924H185.29V293H183.46L183.329 291.013C182.876 291.797 182.257 292.372 181.472 292.738C180.705 293.087 179.799 293.262 178.753 293.262ZM194.788 279.663C195.695 279.663 196.488 279.802 197.168 280.081C197.865 280.36 198.467 280.761 198.972 281.284C199.478 281.807 199.888 282.426 200.201 283.141L198.214 284.082C197.935 283.246 197.508 282.609 196.932 282.173C196.375 281.72 195.642 281.493 194.736 281.493C193.864 281.493 193.114 281.694 192.487 282.095C191.859 282.479 191.38 283.045 191.048 283.795C190.717 284.527 190.552 285.416 190.552 286.462C190.552 287.491 190.717 288.38 191.048 289.13C191.38 289.879 191.859 290.455 192.487 290.856C193.114 291.239 193.864 291.431 194.736 291.431C195.416 291.431 196 291.326 196.488 291.117C196.994 290.908 197.403 290.603 197.717 290.202C198.048 289.801 198.275 289.313 198.397 288.737L200.332 289.417C200.036 290.219 199.626 290.908 199.103 291.483C198.597 292.059 197.979 292.503 197.246 292.817C196.532 293.113 195.712 293.262 194.788 293.262C193.568 293.262 192.478 292.991 191.519 292.451C190.56 291.91 189.811 291.135 189.27 290.123C188.73 289.095 188.46 287.874 188.46 286.462C188.46 285.05 188.73 283.838 189.27 282.827C189.811 281.799 190.56 281.014 191.519 280.474C192.478 279.933 193.568 279.663 194.788 279.663ZM206.31 276.211V289.391C206.31 290.036 206.493 290.516 206.859 290.829C207.225 291.143 207.696 291.3 208.271 291.3C208.776 291.3 209.212 291.213 209.578 291.039C209.945 290.864 210.276 290.629 210.572 290.333L211.304 292.085C210.903 292.451 210.424 292.738 209.866 292.948C209.326 293.157 208.698 293.262 207.983 293.262C207.321 293.262 206.702 293.148 206.126 292.922C205.551 292.677 205.089 292.303 204.74 291.797C204.409 291.274 204.235 290.594 204.217 289.757V276.786L206.31 276.211ZM211.069 279.924V281.729H201.602V279.924H211.069ZM214.441 277.414C213.97 277.414 213.587 277.274 213.29 276.995C213.011 276.699 212.872 276.316 212.872 275.845C212.872 275.374 213.011 274.999 213.29 274.72C213.587 274.424 213.97 274.276 214.441 274.276C214.912 274.276 215.287 274.424 215.566 274.72C215.862 274.999 216.01 275.374 216.01 275.845C216.01 276.316 215.862 276.699 215.566 276.995C215.287 277.274 214.912 277.414 214.441 277.414ZM215.487 279.924V293H213.395V279.924H215.487ZM224.97 279.663C226.208 279.663 227.298 279.933 228.239 280.474C229.198 281.014 229.948 281.799 230.488 282.827C231.029 283.838 231.299 285.05 231.299 286.462C231.299 287.874 231.029 289.095 230.488 290.123C229.948 291.135 229.198 291.91 228.239 292.451C227.298 292.991 226.208 293.262 224.97 293.262C223.75 293.262 222.66 292.991 221.701 292.451C220.742 291.91 219.993 291.135 219.452 290.123C218.912 289.095 218.642 287.874 218.642 286.462C218.642 285.05 218.912 283.838 219.452 282.827C219.993 281.799 220.742 281.014 221.701 280.474C222.66 279.933 223.75 279.663 224.97 279.663ZM224.97 281.467C224.081 281.467 223.323 281.668 222.695 282.069C222.067 282.47 221.579 283.045 221.231 283.795C220.899 284.527 220.734 285.416 220.734 286.462C220.734 287.491 220.899 288.38 221.231 289.13C221.579 289.879 222.067 290.455 222.695 290.856C223.323 291.257 224.081 291.457 224.97 291.457C225.859 291.457 226.618 291.257 227.245 290.856C227.873 290.455 228.352 289.879 228.684 289.13C229.032 288.38 229.207 287.491 229.207 286.462C229.207 285.416 229.032 284.527 228.684 283.795C228.352 283.045 227.873 282.47 227.245 282.069C226.618 281.668 225.859 281.467 224.97 281.467ZM234.453 293V279.924H236.283L236.466 282.853L236.127 282.566C236.405 281.868 236.78 281.31 237.251 280.892C237.722 280.456 238.262 280.142 238.872 279.951C239.5 279.759 240.145 279.663 240.808 279.663C241.749 279.663 242.603 279.846 243.37 280.212C244.137 280.561 244.748 281.101 245.201 281.833C245.672 282.566 245.907 283.498 245.907 284.632V293H243.815V285.364C243.815 283.917 243.501 282.914 242.874 282.356C242.263 281.781 241.505 281.493 240.598 281.493C239.971 281.493 239.343 281.642 238.715 281.938C238.088 282.234 237.565 282.714 237.146 283.376C236.745 284.039 236.545 284.928 236.545 286.044V293H234.453ZM69.1528 377V375.3C70.8788 374.027 72.3171 372.912 73.4678 371.953C74.6359 370.994 75.5686 370.122 76.266 369.338C76.9633 368.553 77.4602 367.812 77.7566 367.115C78.053 366.4 78.2011 365.659 78.2011 364.892C78.2011 363.863 77.8699 363.035 77.2074 362.408C76.5623 361.763 75.6732 361.44 74.54 361.44C73.3545 361.44 72.4043 361.832 71.6895 362.617C70.9747 363.384 70.5563 364.413 70.4343 365.703L68.6037 364.604C68.7606 363.593 69.0831 362.704 69.5713 361.937C70.0769 361.17 70.7481 360.568 71.5849 360.133C72.4392 359.697 73.4504 359.479 74.6184 359.479C75.5076 359.479 76.3008 359.609 76.9982 359.871C77.713 360.133 78.3232 360.507 78.8288 360.995C79.3344 361.466 79.7179 362.033 79.9794 362.695C80.2584 363.358 80.3978 364.09 80.3978 364.892C80.3978 365.973 80.1363 367.036 79.6133 368.082C79.0903 369.111 78.2273 370.192 77.0243 371.325C75.8214 372.458 74.1913 373.714 72.1341 375.091V375.117C72.3259 375.1 72.5874 375.091 72.9186 375.091C73.2673 375.074 73.6073 375.065 73.9385 375.065C74.2872 375.047 74.5487 375.039 74.723 375.039H80.764V377H69.1528ZM86.7137 373.862C87.2193 373.862 87.629 374.019 87.9429 374.333C88.2567 374.646 88.4136 375.056 88.4136 375.562C88.4136 376.067 88.2567 376.477 87.9429 376.791C87.629 377.105 87.2193 377.262 86.7137 377.262C86.2082 377.262 85.7985 377.105 85.4846 376.791C85.1708 376.477 85.0139 376.067 85.0139 375.562C85.0139 375.056 85.1708 374.646 85.4846 374.333C85.7985 374.019 86.2082 373.862 86.7137 373.862ZM116.11 372.58C115.744 373.557 115.221 374.402 114.541 375.117C113.861 375.814 113.059 376.346 112.135 376.712C111.228 377.078 110.235 377.262 109.154 377.262C107.515 377.262 106.094 376.904 104.891 376.189C103.706 375.457 102.782 374.428 102.119 373.103C101.474 371.778 101.151 370.201 101.151 368.37C101.151 366.54 101.474 364.962 102.119 363.637C102.782 362.312 103.706 361.292 104.891 360.577C106.094 359.845 107.497 359.479 109.101 359.479C110.217 359.479 111.211 359.636 112.083 359.949C112.954 360.246 113.695 360.699 114.306 361.309C114.933 361.902 115.43 362.634 115.796 363.506L113.73 364.474C113.347 363.48 112.789 362.73 112.057 362.225C111.342 361.702 110.409 361.44 109.258 361.44C108.09 361.44 107.062 361.719 106.172 362.277C105.283 362.817 104.586 363.602 104.08 364.631C103.592 365.659 103.348 366.906 103.348 368.37C103.348 369.817 103.584 371.064 104.054 372.11C104.525 373.138 105.196 373.932 106.068 374.489C106.94 375.03 107.968 375.3 109.154 375.3C110.304 375.3 111.307 375.013 112.161 374.437C113.015 373.844 113.634 372.964 114.018 371.796L116.11 372.58ZM124.362 363.663C125.6 363.663 126.689 363.933 127.631 364.474C128.59 365.014 129.339 365.799 129.88 366.827C130.42 367.838 130.69 369.05 130.69 370.462C130.69 371.874 130.42 373.095 129.88 374.123C129.339 375.135 128.59 375.91 127.631 376.451C126.689 376.991 125.6 377.262 124.362 377.262C123.141 377.262 122.052 376.991 121.093 376.451C120.134 375.91 119.384 375.135 118.844 374.123C118.303 373.095 118.033 371.874 118.033 370.462C118.033 369.05 118.303 367.838 118.844 366.827C119.384 365.799 120.134 365.014 121.093 364.474C122.052 363.933 123.141 363.663 124.362 363.663ZM124.362 365.467C123.473 365.467 122.714 365.668 122.087 366.069C121.459 366.47 120.971 367.045 120.622 367.795C120.291 368.527 120.125 369.416 120.125 370.462C120.125 371.491 120.291 372.38 120.622 373.13C120.971 373.879 121.459 374.455 122.087 374.856C122.714 375.257 123.473 375.457 124.362 375.457C125.251 375.457 126.009 375.257 126.637 374.856C127.265 374.455 127.744 373.879 128.075 373.13C128.424 372.38 128.598 371.491 128.598 370.462C128.598 369.416 128.424 368.527 128.075 367.795C127.744 367.045 127.265 366.47 126.637 366.069C126.009 365.668 125.251 365.467 124.362 365.467ZM133.844 377V363.924H135.675L135.806 365.964C136.277 365.162 136.887 364.578 137.636 364.212C138.404 363.846 139.188 363.663 139.99 363.663C140.914 363.663 141.786 363.872 142.605 364.291C143.425 364.709 144.052 365.354 144.488 366.226C144.767 365.633 145.159 365.154 145.665 364.787C146.17 364.404 146.72 364.125 147.312 363.951C147.923 363.759 148.498 363.663 149.038 363.663C149.875 363.663 150.668 363.837 151.418 364.186C152.185 364.535 152.813 365.075 153.301 365.807C153.789 366.54 154.033 367.481 154.033 368.632V377H151.941V368.841C151.941 367.655 151.645 366.801 151.052 366.278C150.459 365.755 149.727 365.493 148.855 365.493C148.175 365.493 147.539 365.659 146.946 365.99C146.353 366.322 145.874 366.81 145.508 367.455C145.159 368.1 144.985 368.893 144.985 369.835V377H142.893V368.841C142.893 367.655 142.596 366.801 142.004 366.278C141.411 365.755 140.679 365.493 139.807 365.493C139.232 365.493 138.639 365.65 138.029 365.964C137.436 366.261 136.939 366.74 136.538 367.403C136.137 368.065 135.937 368.937 135.937 370.018V377H133.844ZM157.985 382.492V363.924H159.816L159.999 367.115L159.711 366.749C159.938 366.139 160.278 365.607 160.731 365.154C161.184 364.683 161.734 364.317 162.379 364.055C163.024 363.794 163.721 363.663 164.471 363.663C165.534 363.663 166.511 363.933 167.4 364.474C168.306 365.014 169.03 365.79 169.57 366.801C170.111 367.812 170.381 369.033 170.381 370.462C170.381 371.874 170.102 373.095 169.544 374.123C169.004 375.135 168.28 375.91 167.374 376.451C166.467 376.991 165.473 377.262 164.392 377.262C163.311 377.262 162.361 377 161.542 376.477C160.74 375.937 160.165 375.257 159.816 374.437L160.077 374.045V382.492H157.985ZM164.183 375.431C165.473 375.431 166.476 374.978 167.19 374.071C167.923 373.164 168.289 371.962 168.289 370.462C168.289 368.963 167.931 367.76 167.217 366.853C166.519 365.947 165.534 365.493 164.262 365.493C163.425 365.493 162.692 365.703 162.065 366.121C161.437 366.522 160.949 367.097 160.6 367.847C160.252 368.579 160.077 369.451 160.077 370.462C160.077 371.456 160.243 372.328 160.574 373.077C160.923 373.827 161.402 374.411 162.013 374.829C162.64 375.23 163.364 375.431 164.183 375.431ZM179.01 363.663C180.247 363.663 181.337 363.933 182.278 364.474C183.237 365.014 183.987 365.799 184.527 366.827C185.068 367.838 185.338 369.05 185.338 370.462C185.338 371.874 185.068 373.095 184.527 374.123C183.987 375.135 183.237 375.91 182.278 376.451C181.337 376.991 180.247 377.262 179.01 377.262C177.789 377.262 176.7 376.991 175.741 376.451C174.782 375.91 174.032 375.135 173.492 374.123C172.951 373.095 172.681 371.874 172.681 370.462C172.681 369.05 172.951 367.838 173.492 366.827C174.032 365.799 174.782 365.014 175.741 364.474C176.7 363.933 177.789 363.663 179.01 363.663ZM179.01 365.467C178.12 365.467 177.362 365.668 176.734 366.069C176.107 366.47 175.619 367.045 175.27 367.795C174.939 368.527 174.773 369.416 174.773 370.462C174.773 371.491 174.939 372.38 175.27 373.13C175.619 373.879 176.107 374.455 176.734 374.856C177.362 375.257 178.12 375.457 179.01 375.457C179.899 375.457 180.657 375.257 181.285 374.856C181.912 374.455 182.392 373.879 182.723 373.13C183.072 372.38 183.246 371.491 183.246 370.462C183.246 369.416 183.072 368.527 182.723 367.795C182.392 367.045 181.912 366.47 181.285 366.069C180.657 365.668 179.899 365.467 179.01 365.467ZM193.199 377.262C191.927 377.262 190.75 376.991 189.669 376.451C188.606 375.91 187.786 375.143 187.211 374.15L188.989 372.868C189.373 373.67 189.931 374.298 190.663 374.751C191.412 375.204 192.31 375.431 193.356 375.431C194.28 375.431 195.004 375.257 195.527 374.908C196.05 374.542 196.311 374.071 196.311 373.496C196.311 373.13 196.189 372.798 195.945 372.502C195.719 372.188 195.274 371.962 194.612 371.822L191.473 371.168C190.201 370.907 189.285 370.471 188.728 369.861C188.187 369.251 187.917 368.492 187.917 367.586C187.917 366.871 188.117 366.217 188.518 365.624C188.937 365.031 189.521 364.561 190.27 364.212C191.038 363.846 191.935 363.663 192.964 363.663C194.254 363.663 195.344 363.916 196.233 364.421C197.122 364.927 197.785 365.642 198.22 366.566L196.468 367.716C196.172 366.949 195.692 366.391 195.03 366.043C194.367 365.677 193.679 365.493 192.964 365.493C192.336 365.493 191.796 365.581 191.343 365.755C190.907 365.929 190.567 366.173 190.323 366.487C190.096 366.784 189.983 367.124 189.983 367.507C189.983 367.891 190.114 368.248 190.375 368.579C190.637 368.893 191.125 369.12 191.84 369.259L195.108 369.939C196.329 370.183 197.183 370.584 197.671 371.142C198.159 371.7 198.403 372.38 198.403 373.182C198.403 374.001 198.186 374.725 197.75 375.352C197.314 375.963 196.704 376.433 195.919 376.765C195.135 377.096 194.228 377.262 193.199 377.262ZM202.544 361.414C202.074 361.414 201.69 361.274 201.394 360.995C201.115 360.699 200.975 360.316 200.975 359.845C200.975 359.374 201.115 358.999 201.394 358.72C201.69 358.424 202.074 358.276 202.544 358.276C203.015 358.276 203.39 358.424 203.669 358.72C203.965 358.999 204.113 359.374 204.113 359.845C204.113 360.316 203.965 360.699 203.669 360.995C203.39 361.274 203.015 361.414 202.544 361.414ZM203.59 363.924V377H201.498V363.924H203.59ZM210.746 360.211V373.391C210.746 374.036 210.929 374.516 211.295 374.829C211.661 375.143 212.132 375.3 212.707 375.3C213.213 375.3 213.649 375.213 214.015 375.039C214.381 374.864 214.712 374.629 215.009 374.333L215.741 376.085C215.34 376.451 214.86 376.738 214.303 376.948C213.762 377.157 213.134 377.262 212.42 377.262C211.757 377.262 211.138 377.148 210.563 376.922C209.988 376.677 209.526 376.303 209.177 375.797C208.846 375.274 208.671 374.594 208.654 373.757V360.786L210.746 360.211ZM215.506 363.924V365.729H206.039V363.924H215.506ZM218.878 361.414C218.407 361.414 218.023 361.274 217.727 360.995C217.448 360.699 217.309 360.316 217.309 359.845C217.309 359.374 217.448 358.999 217.727 358.72C218.023 358.424 218.407 358.276 218.878 358.276C219.348 358.276 219.723 358.424 220.002 358.72C220.298 358.999 220.447 359.374 220.447 359.845C220.447 360.316 220.298 360.699 220.002 360.995C219.723 361.274 219.348 361.414 218.878 361.414ZM219.924 363.924V377H217.832V363.924H219.924ZM229.407 363.663C230.645 363.663 231.734 363.933 232.676 364.474C233.634 365.014 234.384 365.799 234.925 366.827C235.465 367.838 235.735 369.05 235.735 370.462C235.735 371.874 235.465 373.095 234.925 374.123C234.384 375.135 233.634 375.91 232.676 376.451C231.734 376.991 230.645 377.262 229.407 377.262C228.186 377.262 227.097 376.991 226.138 376.451C225.179 375.91 224.429 375.135 223.889 374.123C223.348 373.095 223.078 371.874 223.078 370.462C223.078 369.05 223.348 367.838 223.889 366.827C224.429 365.799 225.179 365.014 226.138 364.474C227.097 363.933 228.186 363.663 229.407 363.663ZM229.407 365.467C228.518 365.467 227.759 365.668 227.132 366.069C226.504 366.47 226.016 367.045 225.667 367.795C225.336 368.527 225.17 369.416 225.17 370.462C225.17 371.491 225.336 372.38 225.667 373.13C226.016 373.879 226.504 374.455 227.132 374.856C227.759 375.257 228.518 375.457 229.407 375.457C230.296 375.457 231.054 375.257 231.682 374.856C232.309 374.455 232.789 373.879 233.12 373.13C233.469 372.38 233.643 371.491 233.643 370.462C233.643 369.416 233.469 368.527 233.12 367.795C232.789 367.045 232.309 366.47 231.682 366.069C231.054 365.668 230.296 365.467 229.407 365.467ZM238.889 377V363.924H240.72L240.903 366.853L240.563 366.566C240.842 365.868 241.217 365.31 241.688 364.892C242.158 364.456 242.699 364.142 243.309 363.951C243.937 363.759 244.582 363.663 245.244 363.663C246.186 363.663 247.04 363.846 247.807 364.212C248.574 364.561 249.184 365.101 249.637 365.833C250.108 366.566 250.344 367.498 250.344 368.632V377H248.251V369.364C248.251 367.917 247.938 366.914 247.31 366.356C246.7 365.781 245.941 365.493 245.035 365.493C244.407 365.493 243.78 365.642 243.152 365.938C242.524 366.234 242.001 366.714 241.583 367.376C241.182 368.039 240.981 368.928 240.981 370.044V377H238.889ZM74.9846 460.262C73.4504 460.262 72.0905 459.904 70.905 459.189C69.7369 458.457 68.9436 457.455 68.5252 456.182L70.6173 455.11C70.8265 455.755 71.1142 456.321 71.4803 456.81C71.8464 457.28 72.3259 457.646 72.9186 457.908C73.5288 458.169 74.2872 458.3 75.1938 458.3C75.9609 458.3 76.6059 458.161 77.1289 457.882C77.652 457.603 78.053 457.228 78.3319 456.757C78.6108 456.269 78.7503 455.711 78.7503 455.084C78.7503 454.456 78.6283 453.933 78.3842 453.515C78.1576 453.096 77.7914 452.791 77.2859 452.599C76.7803 452.39 76.1178 452.285 75.2984 452.285C75.1066 452.285 74.8974 452.294 74.6707 452.312C74.4441 452.312 74.2087 452.329 73.9647 452.364V450.272C74.1216 450.289 74.2698 450.298 74.4092 450.298C74.5661 450.298 74.7056 450.298 74.8276 450.298C76.1003 450.298 77.0069 450.054 77.5474 449.566C78.0878 449.06 78.358 448.276 78.358 447.212C78.358 446.306 78.0791 445.617 77.5212 445.146C76.9633 444.675 76.1701 444.44 75.1415 444.44C74.0431 444.44 73.2063 444.684 72.6309 445.172C72.0556 445.643 71.6023 446.288 71.2711 447.107L69.2836 446.166C69.5625 445.434 69.981 444.789 70.5389 444.231C71.0967 443.673 71.768 443.237 72.5525 442.923C73.3545 442.609 74.2349 442.453 75.1938 442.453C76.3967 442.453 77.3905 442.662 78.175 443.08C78.9595 443.481 79.5436 444.022 79.9271 444.702C80.3281 445.382 80.5286 446.131 80.5286 446.951C80.5286 447.578 80.4414 448.145 80.2671 448.65C80.0927 449.139 79.8487 449.566 79.5349 449.932C79.2385 450.298 78.8985 450.594 78.515 450.821C78.1314 451.03 77.7217 451.17 77.2859 451.239V451.292C77.8612 451.309 78.3668 451.422 78.8026 451.632C79.2559 451.841 79.6395 452.12 79.9533 452.468C80.2671 452.817 80.5024 453.218 80.6593 453.671C80.8337 454.107 80.9209 454.569 80.9209 455.057C80.9209 456.069 80.6681 456.966 80.1625 457.751C79.6743 458.536 78.9857 459.154 78.0965 459.608C77.2074 460.044 76.1701 460.262 74.9846 460.262ZM86.7137 456.862C87.2193 456.862 87.629 457.019 87.9429 457.333C88.2567 457.646 88.4136 458.056 88.4136 458.562C88.4136 459.067 88.2567 459.477 87.9429 459.791C87.629 460.105 87.2193 460.262 86.7137 460.262C86.2082 460.262 85.7985 460.105 85.4846 459.791C85.1708 459.477 85.0139 459.067 85.0139 458.562C85.0139 458.056 85.1708 457.646 85.4846 457.333C85.7985 457.019 86.2082 456.862 86.7137 456.862ZM104.29 442.74V460H102.198V442.74H104.29ZM108.631 460V446.924H110.462L110.645 449.853L110.305 449.566C110.584 448.868 110.959 448.31 111.429 447.892C111.9 447.456 112.44 447.142 113.051 446.951C113.678 446.759 114.323 446.663 114.986 446.663C115.927 446.663 116.782 446.846 117.549 447.212C118.316 447.561 118.926 448.101 119.379 448.833C119.85 449.566 120.085 450.498 120.085 451.632V460H117.993V452.364C117.993 450.917 117.679 449.914 117.052 449.356C116.442 448.781 115.683 448.493 114.777 448.493C114.149 448.493 113.521 448.642 112.894 448.938C112.266 449.234 111.743 449.714 111.325 450.376C110.924 451.039 110.723 451.928 110.723 453.044V460H108.631ZM126.945 443.211V456.391C126.945 457.036 127.128 457.516 127.494 457.829C127.86 458.143 128.331 458.3 128.906 458.3C129.412 458.3 129.848 458.213 130.214 458.039C130.58 457.864 130.911 457.629 131.208 457.333L131.94 459.085C131.539 459.451 131.059 459.738 130.501 459.948C129.961 460.157 129.333 460.262 128.619 460.262C127.956 460.262 127.337 460.148 126.762 459.922C126.186 459.677 125.724 459.303 125.376 458.797C125.045 458.274 124.87 457.594 124.853 456.757V443.786L126.945 443.211ZM131.704 446.924V448.729H122.238V446.924H131.704ZM139.496 460.262C138.258 460.262 137.151 459.991 136.175 459.451C135.216 458.91 134.466 458.135 133.926 457.123C133.385 456.095 133.115 454.874 133.115 453.462C133.115 452.05 133.385 450.838 133.926 449.827C134.466 448.799 135.207 448.014 136.149 447.474C137.09 446.933 138.162 446.663 139.365 446.663C140.586 446.663 141.623 446.924 142.477 447.447C143.349 447.97 144.011 448.685 144.465 449.592C144.918 450.481 145.145 451.483 145.145 452.599C145.145 452.896 145.136 453.166 145.118 453.41C145.101 453.654 145.075 453.872 145.04 454.064H134.475V452.207H144.125L143.053 452.416C143.053 451.161 142.704 450.193 142.007 449.513C141.327 448.833 140.429 448.493 139.313 448.493C138.459 448.493 137.718 448.694 137.09 449.095C136.48 449.479 136 450.045 135.652 450.795C135.321 451.527 135.155 452.416 135.155 453.462C135.155 454.491 135.329 455.38 135.678 456.13C136.027 456.879 136.515 457.455 137.142 457.856C137.787 458.239 138.555 458.431 139.444 458.431C140.403 458.431 141.178 458.248 141.771 457.882C142.381 457.516 142.869 457.019 143.236 456.391L144.883 457.359C144.552 457.951 144.125 458.466 143.602 458.902C143.096 459.338 142.495 459.677 141.797 459.922C141.117 460.148 140.35 460.262 139.496 460.262ZM148.339 460V446.924H150.17L150.353 449.853L150.013 449.566C150.292 448.868 150.666 448.31 151.137 447.892C151.608 447.456 152.148 447.142 152.759 446.951C153.386 446.759 154.031 446.663 154.694 446.663C155.635 446.663 156.489 446.846 157.257 447.212C158.024 447.561 158.634 448.101 159.087 448.833C159.558 449.566 159.793 450.498 159.793 451.632V460H157.701V452.364C157.701 450.917 157.387 449.914 156.76 449.356C156.149 448.781 155.391 448.493 154.484 448.493C153.857 448.493 153.229 448.642 152.602 448.938C151.974 449.234 151.451 449.714 151.033 450.376C150.632 451.039 150.431 451.928 150.431 453.044V460H148.339ZM166.653 443.211V456.391C166.653 457.036 166.836 457.516 167.202 457.829C167.568 458.143 168.039 458.3 168.614 458.3C169.12 458.3 169.556 458.213 169.922 458.039C170.288 457.864 170.619 457.629 170.915 457.333L171.648 459.085C171.247 459.451 170.767 459.738 170.209 459.948C169.669 460.157 169.041 460.262 168.326 460.262C167.664 460.262 167.045 460.148 166.47 459.922C165.894 459.677 165.432 459.303 165.084 458.797C164.752 458.274 164.578 457.594 164.561 456.757V443.786L166.653 443.211ZM171.412 446.924V448.729H161.946V446.924H171.412ZM76.449 544V539.476H68.0283V537.933L75.8998 526.74H78.5411V537.671H81.6008V539.476H78.5411V544H76.449ZM70.2512 537.671H76.449V531.212C76.449 530.898 76.4577 530.593 76.4752 530.297C76.4926 529.983 76.51 529.669 76.5275 529.355C76.5449 529.042 76.5536 528.736 76.5536 528.44H76.5013C76.2921 528.876 76.0219 529.364 75.6906 529.905C75.3594 530.445 75.0543 530.916 74.7753 531.317L70.2512 537.671ZM86.7137 540.862C87.2193 540.862 87.629 541.019 87.9429 541.333C88.2567 541.646 88.4136 542.056 88.4136 542.562C88.4136 543.067 88.2567 543.477 87.9429 543.791C87.629 544.105 87.2193 544.262 86.7137 544.262C86.2082 544.262 85.7985 544.105 85.4846 543.791C85.1708 543.477 85.0139 543.067 85.0139 542.562C85.0139 542.056 85.1708 541.646 85.4846 541.333C85.7985 541.019 86.2082 540.862 86.7137 540.862ZM108.291 526.74C109.459 526.74 110.47 526.958 111.324 527.394C112.196 527.812 112.876 528.414 113.364 529.198C113.852 529.983 114.096 530.916 114.096 531.997C114.096 533.078 113.852 534.01 113.364 534.795C112.876 535.579 112.196 536.19 111.324 536.625C110.47 537.044 109.459 537.253 108.291 537.253H104.29V544H102.198V526.74H108.291ZM107.977 535.292C109.337 535.292 110.331 535.013 110.958 534.455C111.586 533.88 111.9 533.06 111.9 531.997C111.9 530.916 111.586 530.096 110.958 529.538C110.331 528.981 109.337 528.702 107.977 528.702H104.29V535.292H107.977ZM116.982 544V530.924H118.682L118.97 533.069C119.336 532.267 119.867 531.665 120.565 531.264C121.28 530.863 122.143 530.663 123.154 530.663C123.38 530.663 123.624 530.68 123.886 530.715C124.165 530.75 124.4 530.82 124.592 530.924L124.226 532.833C124.034 532.764 123.825 532.711 123.598 532.677C123.372 532.642 123.049 532.624 122.631 532.624C122.09 532.624 121.541 532.781 120.983 533.095C120.443 533.409 119.989 533.888 119.623 534.533C119.257 535.161 119.074 535.963 119.074 536.939V544H116.982ZM131.877 530.663C133.115 530.663 134.205 530.933 135.146 531.474C136.105 532.014 136.855 532.799 137.395 533.827C137.936 534.838 138.206 536.05 138.206 537.462C138.206 538.874 137.936 540.095 137.395 541.123C136.855 542.135 136.105 542.91 135.146 543.451C134.205 543.991 133.115 544.262 131.877 544.262C130.657 544.262 129.567 543.991 128.608 543.451C127.649 542.91 126.9 542.135 126.359 541.123C125.819 540.095 125.549 538.874 125.549 537.462C125.549 536.05 125.819 534.838 126.359 533.827C126.9 532.799 127.649 532.014 128.608 531.474C129.567 530.933 130.657 530.663 131.877 530.663ZM131.877 532.467C130.988 532.467 130.23 532.668 129.602 533.069C128.974 533.47 128.486 534.045 128.138 534.795C127.806 535.527 127.641 536.416 127.641 537.462C127.641 538.491 127.806 539.38 128.138 540.13C128.486 540.879 128.974 541.455 129.602 541.856C130.23 542.257 130.988 542.457 131.877 542.457C132.766 542.457 133.525 542.257 134.152 541.856C134.78 541.455 135.259 540.879 135.591 540.13C135.939 539.38 136.114 538.491 136.114 537.462C136.114 536.416 135.939 535.527 135.591 534.795C135.259 534.045 134.78 533.47 134.152 533.069C133.525 532.668 132.766 532.467 131.877 532.467ZM141.36 549.492V530.924H143.19L143.374 534.115L143.086 533.749C143.312 533.139 143.652 532.607 144.106 532.154C144.559 531.683 145.108 531.317 145.753 531.055C146.398 530.794 147.096 530.663 147.845 530.663C148.909 530.663 149.885 530.933 150.774 531.474C151.681 532.014 152.404 532.79 152.945 533.801C153.485 534.812 153.756 536.033 153.756 537.462C153.756 538.874 153.477 540.095 152.919 541.123C152.378 542.135 151.655 542.91 150.748 543.451C149.842 543.991 148.848 544.262 147.767 544.262C146.686 544.262 145.736 544 144.916 543.477C144.114 542.937 143.539 542.257 143.19 541.437L143.452 541.045V549.492H141.36ZM147.558 542.431C148.848 542.431 149.85 541.978 150.565 541.071C151.297 540.164 151.663 538.962 151.663 537.462C151.663 535.963 151.306 534.76 150.591 533.853C149.894 532.947 148.909 532.493 147.636 532.493C146.799 532.493 146.067 532.703 145.439 533.121C144.812 533.522 144.324 534.097 143.975 534.847C143.626 535.579 143.452 536.451 143.452 537.462C143.452 538.456 143.618 539.328 143.949 540.077C144.298 540.827 144.777 541.411 145.387 541.829C146.015 542.23 146.738 542.431 147.558 542.431ZM162.436 544.262C161.199 544.262 160.092 543.991 159.115 543.451C158.156 542.91 157.407 542.135 156.866 541.123C156.326 540.095 156.056 538.874 156.056 537.462C156.056 536.05 156.326 534.838 156.866 533.827C157.407 532.799 158.148 532.014 159.089 531.474C160.031 530.933 161.103 530.663 162.306 530.663C163.526 530.663 164.563 530.924 165.418 531.447C166.289 531.97 166.952 532.685 167.405 533.592C167.858 534.481 168.085 535.483 168.085 536.599C168.085 536.896 168.076 537.166 168.059 537.41C168.042 537.654 168.015 537.872 167.981 538.064H157.415V536.207H167.065L165.993 536.416C165.993 535.161 165.644 534.193 164.947 533.513C164.267 532.833 163.369 532.493 162.253 532.493C161.399 532.493 160.658 532.694 160.031 533.095C159.42 533.479 158.941 534.045 158.592 534.795C158.261 535.527 158.095 536.416 158.095 537.462C158.095 538.491 158.27 539.38 158.618 540.13C158.967 540.879 159.455 541.455 160.083 541.856C160.728 542.239 161.495 542.431 162.384 542.431C163.343 542.431 164.119 542.248 164.712 541.882C165.322 541.516 165.81 541.019 166.176 540.391L167.824 541.359C167.492 541.951 167.065 542.466 166.542 542.902C166.037 543.338 165.435 543.677 164.738 543.922C164.058 544.148 163.291 544.262 162.436 544.262ZM171.279 544V530.924H172.979L173.267 533.069C173.633 532.267 174.165 531.665 174.862 531.264C175.577 530.863 176.44 530.663 177.451 530.663C177.678 530.663 177.922 530.68 178.183 530.715C178.462 530.75 178.698 530.82 178.889 530.924L178.523 532.833C178.332 532.764 178.122 532.711 177.896 532.677C177.669 532.642 177.347 532.624 176.928 532.624C176.388 532.624 175.838 532.781 175.281 533.095C174.74 533.409 174.287 533.888 173.921 534.533C173.555 535.161 173.372 535.963 173.372 536.939V544H171.279ZM183.464 527.211V540.391C183.464 541.036 183.647 541.516 184.013 541.829C184.379 542.143 184.85 542.3 185.425 542.3C185.931 542.3 186.367 542.213 186.733 542.039C187.099 541.864 187.43 541.629 187.727 541.333L188.459 543.085C188.058 543.451 187.578 543.738 187.021 543.948C186.48 544.157 185.853 544.262 185.138 544.262C184.475 544.262 183.856 544.148 183.281 543.922C182.706 543.677 182.244 543.303 181.895 542.797C181.564 542.274 181.389 541.594 181.372 540.757V527.786L183.464 527.211ZM188.224 530.924V532.729H178.757V530.924H188.224ZM191.596 528.414C191.125 528.414 190.741 528.274 190.445 527.995C190.166 527.699 190.027 527.316 190.027 526.845C190.027 526.374 190.166 525.999 190.445 525.72C190.741 525.424 191.125 525.276 191.596 525.276C192.066 525.276 192.441 525.424 192.72 525.72C193.016 525.999 193.165 526.374 193.165 526.845C193.165 527.316 193.016 527.699 192.72 527.995C192.441 528.274 192.066 528.414 191.596 528.414ZM192.642 530.924V544H190.55V530.924H192.642ZM202.177 544.262C200.939 544.262 199.832 543.991 198.856 543.451C197.897 542.91 197.147 542.135 196.607 541.123C196.066 540.095 195.796 538.874 195.796 537.462C195.796 536.05 196.066 534.838 196.607 533.827C197.147 532.799 197.888 532.014 198.83 531.474C199.771 530.933 200.843 530.663 202.046 530.663C203.267 530.663 204.304 530.924 205.158 531.447C206.03 531.97 206.692 532.685 207.146 533.592C207.599 534.481 207.826 535.483 207.826 536.599C207.826 536.896 207.817 537.166 207.8 537.41C207.782 537.654 207.756 537.872 207.721 538.064H197.156V536.207H206.806L205.734 536.416C205.734 535.161 205.385 534.193 204.688 533.513C204.008 532.833 203.11 532.493 201.994 532.493C201.14 532.493 200.399 532.694 199.771 533.095C199.161 533.479 198.681 534.045 198.333 534.795C198.002 535.527 197.836 536.416 197.836 537.462C197.836 538.491 198.01 539.38 198.359 540.13C198.708 540.879 199.196 541.455 199.823 541.856C200.468 542.239 201.236 542.431 202.125 542.431C203.084 542.431 203.859 542.248 204.452 541.882C205.062 541.516 205.551 541.019 205.917 540.391L207.564 541.359C207.233 541.951 206.806 542.466 206.283 542.902C205.777 543.338 205.176 543.677 204.478 543.922C203.798 544.148 203.031 544.262 202.177 544.262ZM215.727 544.262C214.454 544.262 213.278 543.991 212.197 543.451C211.133 542.91 210.314 542.143 209.739 541.15L211.517 539.868C211.9 540.67 212.458 541.298 213.191 541.751C213.94 542.204 214.838 542.431 215.884 542.431C216.808 542.431 217.532 542.257 218.055 541.908C218.578 541.542 218.839 541.071 218.839 540.496C218.839 540.13 218.717 539.798 218.473 539.502C218.246 539.188 217.802 538.962 217.139 538.822L214.001 538.168C212.729 537.907 211.813 537.471 211.255 536.861C210.715 536.251 210.445 535.492 210.445 534.586C210.445 533.871 210.645 533.217 211.046 532.624C211.465 532.031 212.049 531.561 212.798 531.212C213.565 530.846 214.463 530.663 215.492 530.663C216.782 530.663 217.872 530.916 218.761 531.421C219.65 531.927 220.312 532.642 220.748 533.566L218.996 534.716C218.7 533.949 218.22 533.391 217.558 533.043C216.895 532.677 216.207 532.493 215.492 532.493C214.864 532.493 214.324 532.581 213.87 532.755C213.435 532.929 213.095 533.173 212.851 533.487C212.624 533.784 212.511 534.124 212.511 534.507C212.511 534.891 212.641 535.248 212.903 535.579C213.164 535.893 213.653 536.12 214.367 536.259L217.636 536.939C218.857 537.183 219.711 537.584 220.199 538.142C220.687 538.7 220.931 539.38 220.931 540.182C220.931 541.001 220.713 541.725 220.277 542.352C219.842 542.963 219.231 543.433 218.447 543.765C217.662 544.096 216.756 544.262 215.727 544.262ZM74.8276 628.262C73.2934 628.262 72.0556 627.913 71.1142 627.215C70.1902 626.518 69.4754 625.551 68.9698 624.313L71.0096 623.24C71.2885 624.147 71.7157 624.888 72.291 625.463C72.8837 626.021 73.7467 626.3 74.8799 626.3C75.6819 626.3 76.3618 626.152 76.9197 625.856C77.4951 625.559 77.9396 625.141 78.2534 624.6C78.5673 624.042 78.7242 623.38 78.7242 622.613C78.7242 621.793 78.576 621.114 78.2796 620.573C78.0007 620.015 77.5909 619.597 77.0505 619.318C76.51 619.039 75.8475 618.899 75.063 618.899C74.5051 618.899 73.9821 618.96 73.4939 619.082C73.0232 619.187 72.5961 619.361 72.2125 619.605C71.829 619.85 71.4977 620.172 71.2188 620.573L69.3882 620.233L70.4081 610.74H80.1102V612.702H72.1864L71.5064 618.141L71.4541 618.376H71.5064C71.9249 617.941 72.4566 617.592 73.1017 617.33C73.7642 617.069 74.5487 616.938 75.4553 616.938C76.5536 616.938 77.5038 617.173 78.3057 617.644C79.1251 618.097 79.7615 618.742 80.2148 619.579C80.6681 620.416 80.8947 621.392 80.8947 622.508C80.8947 623.397 80.7465 624.199 80.4501 624.914C80.1538 625.629 79.7353 626.239 79.1949 626.745C78.6544 627.233 78.0094 627.608 77.2597 627.869C76.5275 628.131 75.7168 628.262 74.8276 628.262ZM86.7137 624.862C87.2193 624.862 87.629 625.019 87.9429 625.333C88.2567 625.646 88.4136 626.056 88.4136 626.562C88.4136 627.067 88.2567 627.477 87.9429 627.791C87.629 628.105 87.2193 628.262 86.7137 628.262C86.2082 628.262 85.7985 628.105 85.4846 627.791C85.1708 627.477 85.0139 627.067 85.0139 626.562C85.0139 626.056 85.1708 625.646 85.4846 625.333C85.7985 625.019 86.2082 624.862 86.7137 624.862ZM107.768 610.74C110.47 610.74 112.588 611.49 114.122 612.989C115.674 614.471 116.45 616.598 116.45 619.37C116.45 622.142 115.674 624.278 114.122 625.777C112.588 627.259 110.47 628 107.768 628H102.198V610.74H107.768ZM107.977 626.039C109.947 626.039 111.481 625.455 112.58 624.287C113.695 623.101 114.253 621.462 114.253 619.37C114.253 617.278 113.695 615.648 112.58 614.48C111.481 613.294 109.947 612.702 107.977 612.702H104.29V626.039H107.977ZM125.334 628.262C124.096 628.262 122.989 627.991 122.012 627.451C121.053 626.91 120.304 626.135 119.763 625.123C119.223 624.095 118.953 622.874 118.953 621.462C118.953 620.05 119.223 618.838 119.763 617.827C120.304 616.799 121.045 616.014 121.986 615.474C122.928 614.933 124 614.663 125.203 614.663C126.423 614.663 127.46 614.924 128.315 615.447C129.186 615.97 129.849 616.685 130.302 617.592C130.756 618.481 130.982 619.483 130.982 620.599C130.982 620.896 130.973 621.166 130.956 621.41C130.939 621.654 130.912 621.872 130.878 622.064H120.313V620.207H129.962L128.89 620.416C128.89 619.161 128.541 618.193 127.844 617.513C127.164 616.833 126.266 616.493 125.15 616.493C124.296 616.493 123.555 616.694 122.928 617.095C122.317 617.479 121.838 618.045 121.489 618.795C121.158 619.527 120.992 620.416 120.992 621.462C120.992 622.491 121.167 623.38 121.515 624.13C121.864 624.879 122.352 625.455 122.98 625.856C123.625 626.239 124.392 626.431 125.281 626.431C126.24 626.431 127.016 626.248 127.609 625.882C128.219 625.516 128.707 625.019 129.073 624.391L130.721 625.359C130.389 625.951 129.962 626.466 129.439 626.902C128.934 627.338 128.332 627.677 127.635 627.922C126.955 628.148 126.188 628.262 125.334 628.262ZM138.884 628.262C137.611 628.262 136.434 627.991 135.353 627.451C134.29 626.91 133.47 626.143 132.895 625.15L134.673 623.868C135.057 624.67 135.615 625.298 136.347 625.751C137.097 626.204 137.995 626.431 139.041 626.431C139.965 626.431 140.688 626.257 141.211 625.908C141.734 625.542 141.996 625.071 141.996 624.496C141.996 624.13 141.874 623.798 141.63 623.502C141.403 623.188 140.958 622.962 140.296 622.822L137.158 622.168C135.885 621.907 134.97 621.471 134.412 620.861C133.871 620.251 133.601 619.492 133.601 618.586C133.601 617.871 133.802 617.217 134.203 616.624C134.621 616.031 135.205 615.561 135.955 615.212C136.722 614.846 137.62 614.663 138.648 614.663C139.938 614.663 141.028 614.916 141.917 615.421C142.806 615.927 143.469 616.642 143.905 617.566L142.153 618.716C141.856 617.949 141.377 617.391 140.714 617.043C140.052 616.677 139.363 616.493 138.648 616.493C138.021 616.493 137.48 616.581 137.027 616.755C136.591 616.929 136.251 617.173 136.007 617.487C135.78 617.784 135.667 618.124 135.667 618.507C135.667 618.891 135.798 619.248 136.059 619.579C136.321 619.893 136.809 620.12 137.524 620.259L140.793 620.939C142.013 621.183 142.867 621.584 143.356 622.142C143.844 622.7 144.088 623.38 144.088 624.182C144.088 625.001 143.87 625.725 143.434 626.352C142.998 626.963 142.388 627.433 141.603 627.765C140.819 628.096 139.912 628.262 138.884 628.262ZM148.229 612.414C147.758 612.414 147.374 612.274 147.078 611.995C146.799 611.699 146.66 611.316 146.66 610.845C146.66 610.374 146.799 609.999 147.078 609.72C147.374 609.424 147.758 609.276 148.229 609.276C148.699 609.276 149.074 609.424 149.353 609.72C149.65 609.999 149.798 610.374 149.798 610.845C149.798 611.316 149.65 611.699 149.353 611.995C149.074 612.274 148.699 612.414 148.229 612.414ZM149.275 614.924V628H147.183V614.924H149.275ZM164.354 612.519L164.825 614.375C164.807 614.375 164.781 614.375 164.746 614.375C164.711 614.375 164.677 614.375 164.642 614.375C163.787 614.375 163.125 614.55 162.654 614.898C162.201 615.23 161.974 615.77 161.974 616.52L160.693 615.866C160.693 615.186 160.85 614.593 161.164 614.088C161.477 613.582 161.905 613.198 162.445 612.937C162.986 612.658 163.578 612.519 164.223 612.519C164.241 612.519 164.258 612.519 164.276 612.519C164.311 612.519 164.337 612.519 164.354 612.519ZM160.379 626.326C161.617 626.326 162.585 626.614 163.282 627.189C163.979 627.747 164.328 628.497 164.328 629.438C164.328 630.293 164.04 631.034 163.465 631.661C162.907 632.289 162.149 632.768 161.19 633.099C160.248 633.448 159.185 633.622 157.999 633.622C155.942 633.622 154.399 633.274 153.371 632.576C152.359 631.879 151.854 631.042 151.854 630.066C151.854 629.369 152.08 628.741 152.534 628.183C153.004 627.643 153.789 627.338 154.887 627.268L154.704 627.66C154.112 627.503 153.606 627.242 153.188 626.876C152.787 626.492 152.586 625.943 152.586 625.228C152.586 624.513 152.848 623.903 153.371 623.397C153.911 622.874 154.704 622.552 155.75 622.43L157.136 623.136H156.875C156.021 623.223 155.41 623.441 155.044 623.79C154.696 624.121 154.521 624.487 154.521 624.888C154.521 625.376 154.696 625.742 155.044 625.986C155.41 626.213 155.916 626.326 156.561 626.326H160.379ZM157.973 631.87C158.984 631.87 159.813 631.766 160.458 631.557C161.12 631.347 161.608 631.077 161.922 630.746C162.236 630.415 162.393 630.057 162.393 629.674C162.393 629.203 162.201 628.828 161.817 628.549C161.451 628.27 160.78 628.131 159.804 628.131H155.777C155.219 628.131 154.748 628.27 154.364 628.549C153.981 628.846 153.789 629.247 153.789 629.752C153.789 630.397 154.155 630.911 154.887 631.295C155.637 631.679 156.666 631.87 157.973 631.87ZM157.79 614.663C158.836 614.663 159.76 614.855 160.562 615.238C161.382 615.604 162.018 616.119 162.471 616.781C162.924 617.444 163.151 618.211 163.151 619.082C163.151 619.937 162.924 620.704 162.471 621.384C162.018 622.046 161.382 622.569 160.562 622.953C159.76 623.319 158.836 623.502 157.79 623.502C156.064 623.502 154.739 623.092 153.815 622.273C152.891 621.436 152.429 620.373 152.429 619.082C152.429 618.211 152.656 617.444 153.109 616.781C153.58 616.119 154.216 615.604 155.018 615.238C155.82 614.855 156.744 614.663 157.79 614.663ZM157.79 616.363C156.884 616.363 156.125 616.616 155.515 617.121C154.905 617.609 154.6 618.263 154.6 619.082C154.6 619.884 154.905 620.538 155.515 621.044C156.125 621.549 156.884 621.802 157.79 621.802C158.697 621.802 159.455 621.549 160.065 621.044C160.675 620.538 160.981 619.884 160.981 619.082C160.981 618.263 160.675 617.609 160.065 617.121C159.455 616.616 158.697 616.363 157.79 616.363ZM166.478 628V614.924H168.309L168.492 617.853L168.152 617.566C168.431 616.868 168.806 616.31 169.276 615.892C169.747 615.456 170.288 615.142 170.898 614.951C171.525 614.759 172.17 614.663 172.833 614.663C173.774 614.663 174.629 614.846 175.396 615.212C176.163 615.561 176.773 616.101 177.226 616.833C177.697 617.566 177.932 618.498 177.932 619.632V628H175.84V620.364C175.84 618.917 175.527 617.914 174.899 617.356C174.289 616.781 173.53 616.493 172.624 616.493C171.996 616.493 171.369 616.642 170.741 616.938C170.113 617.234 169.59 617.714 169.172 618.376C168.771 619.039 168.57 619.928 168.57 621.044V628H166.478ZM201.825 610.74V612.702H195.81V628H193.718V612.702H187.703V610.74H201.825ZM206.824 614.663C208.062 614.663 209.151 614.933 210.093 615.474C211.052 616.014 211.801 616.799 212.342 617.827C212.882 618.838 213.152 620.05 213.152 621.462C213.152 622.874 212.882 624.095 212.342 625.123C211.801 626.135 211.052 626.91 210.093 627.451C209.151 627.991 208.062 628.262 206.824 628.262C205.603 628.262 204.514 627.991 203.555 627.451C202.596 626.91 201.846 626.135 201.306 625.123C200.765 624.095 200.495 622.874 200.495 621.462C200.495 620.05 200.765 618.838 201.306 617.827C201.846 616.799 202.596 616.014 203.555 615.474C204.514 614.933 205.603 614.663 206.824 614.663ZM206.824 616.467C205.935 616.467 205.176 616.668 204.549 617.069C203.921 617.47 203.433 618.045 203.084 618.795C202.753 619.527 202.587 620.416 202.587 621.462C202.587 622.491 202.753 623.38 203.084 624.13C203.433 624.879 203.921 625.455 204.549 625.856C205.176 626.257 205.935 626.457 206.824 626.457C207.713 626.457 208.471 626.257 209.099 625.856C209.727 625.455 210.206 624.879 210.537 624.13C210.886 623.38 211.06 622.491 211.06 621.462C211.06 620.416 210.886 619.527 210.537 618.795C210.206 618.045 209.727 617.47 209.099 617.069C208.471 616.668 207.713 616.467 206.824 616.467ZM227.787 614.924L222.138 620.573L221.641 621.07L217.352 625.359V622.744L225.145 614.924H227.787ZM218.398 608.91V628H216.306V608.91H218.398ZM222.321 619.501L228.101 628H225.564L220.569 620.678L222.321 619.501ZM235.365 628.262C234.128 628.262 233.021 627.991 232.044 627.451C231.085 626.91 230.336 626.135 229.795 625.123C229.255 624.095 228.985 622.874 228.985 621.462C228.985 620.05 229.255 618.838 229.795 617.827C230.336 616.799 231.077 616.014 232.018 615.474C232.96 614.933 234.032 614.663 235.235 614.663C236.455 614.663 237.492 614.924 238.347 615.447C239.218 615.97 239.881 616.685 240.334 617.592C240.787 618.481 241.014 619.483 241.014 620.599C241.014 620.896 241.005 621.166 240.988 621.41C240.971 621.654 240.944 621.872 240.91 622.064H230.344V620.207H239.994L238.922 620.416C238.922 619.161 238.573 618.193 237.876 617.513C237.196 616.833 236.298 616.493 235.182 616.493C234.328 616.493 233.587 616.694 232.96 617.095C232.349 617.479 231.87 618.045 231.521 618.795C231.19 619.527 231.024 620.416 231.024 621.462C231.024 622.491 231.199 623.38 231.547 624.13C231.896 624.879 232.384 625.455 233.012 625.856C233.657 626.239 234.424 626.431 235.313 626.431C236.272 626.431 237.048 626.248 237.641 625.882C238.251 625.516 238.739 625.019 239.105 624.391L240.753 625.359C240.421 625.951 239.994 626.466 239.471 626.902C238.966 627.338 238.364 627.677 237.667 627.922C236.987 628.148 236.22 628.262 235.365 628.262ZM244.208 628V614.924H246.039L246.222 617.853L245.882 617.566C246.161 616.868 246.536 616.31 247.007 615.892C247.477 615.456 248.018 615.142 248.628 614.951C249.256 614.759 249.901 614.663 250.563 614.663C251.505 614.663 252.359 614.846 253.126 615.212C253.893 615.561 254.503 616.101 254.957 616.833C255.427 617.566 255.663 618.498 255.663 619.632V628H253.571V620.364C253.571 618.917 253.257 617.914 252.629 617.356C252.019 616.781 251.261 616.493 250.354 616.493C249.726 616.493 249.099 616.642 248.471 616.938C247.843 617.234 247.32 617.714 246.902 618.376C246.501 619.039 246.301 619.928 246.301 621.044V628H244.208ZM264.322 628.262C263.05 628.262 261.873 627.991 260.792 627.451C259.728 626.91 258.909 626.143 258.334 625.15L260.112 623.868C260.496 624.67 261.053 625.298 261.786 625.751C262.535 626.204 263.433 626.431 264.479 626.431C265.403 626.431 266.127 626.257 266.65 625.908C267.173 625.542 267.434 625.071 267.434 624.496C267.434 624.13 267.312 623.798 267.068 623.502C266.842 623.188 266.397 622.962 265.734 622.822L262.596 622.168C261.324 621.907 260.408 621.471 259.85 620.861C259.31 620.251 259.04 619.492 259.04 618.586C259.04 617.871 259.24 617.217 259.641 616.624C260.06 616.031 260.644 615.561 261.393 615.212C262.161 614.846 263.058 614.663 264.087 614.663C265.377 614.663 266.467 614.916 267.356 615.421C268.245 615.927 268.908 616.642 269.343 617.566L267.591 618.716C267.295 617.949 266.815 617.391 266.153 617.043C265.49 616.677 264.802 616.493 264.087 616.493C263.459 616.493 262.919 616.581 262.466 616.755C262.03 616.929 261.69 617.173 261.446 617.487C261.219 617.784 261.106 618.124 261.106 618.507C261.106 618.891 261.237 619.248 261.498 619.579C261.76 619.893 262.248 620.12 262.962 620.259L266.231 620.939C267.452 621.183 268.306 621.584 268.794 622.142C269.282 622.7 269.526 623.38 269.526 624.182C269.526 625.001 269.308 625.725 268.873 626.352C268.437 626.963 267.827 627.433 267.042 627.765C266.258 628.096 265.351 628.262 264.322 628.262ZM75.5599 693.479C76.4839 693.479 77.2859 693.609 77.9658 693.871C78.6631 694.115 79.2646 694.507 79.7702 695.048C80.2758 695.571 80.7029 696.259 81.0516 697.114L79.1164 698.029C78.8549 697.227 78.4278 696.599 77.835 696.146C77.2597 695.675 76.4577 695.44 75.4291 695.44C74.6795 695.44 74.017 695.632 73.4416 696.015C72.8663 696.382 72.3782 696.896 71.9772 697.558C71.5762 698.221 71.2711 698.997 71.0619 699.886C70.8701 700.775 70.7742 701.734 70.7742 702.762C70.7742 702.797 70.7742 702.85 70.7742 702.919C70.7742 702.989 70.7742 703.094 70.7742 703.233H70.8788C71.0706 702.483 71.4193 701.882 71.9249 701.429C72.4479 700.958 73.0319 700.618 73.677 700.409C74.3395 700.182 74.9846 700.069 75.6122 700.069C76.7803 700.069 77.8002 700.295 78.6719 700.749C79.5436 701.202 80.2148 701.847 80.6855 702.684C81.1737 703.521 81.4177 704.515 81.4177 705.665C81.4177 707.374 80.8773 708.734 79.7964 709.745C78.7329 710.756 77.2946 711.262 75.4814 711.262C74.0344 711.262 72.814 710.878 71.8203 710.111C70.8265 709.344 70.0769 708.298 69.5713 706.973C69.0657 705.63 68.8129 704.096 68.8129 702.37C68.8129 700.435 69.1093 698.814 69.702 697.506C70.2948 696.181 71.0967 695.179 72.1079 694.499C73.1365 693.819 74.2872 693.479 75.5599 693.479ZM75.4553 702.082C74.7056 702.082 74.0431 702.239 73.4678 702.553C72.9099 702.85 72.474 703.268 72.1602 703.808C71.8464 704.331 71.6895 704.942 71.6895 705.639C71.6895 706.302 71.8551 706.912 72.1864 707.47C72.5176 708.01 72.9622 708.446 73.5201 708.777C74.0954 709.091 74.7405 709.248 75.4553 709.248C76.6408 709.248 77.5648 708.934 78.2273 708.306C78.8898 707.661 79.221 706.772 79.221 705.639C79.221 704.907 79.0728 704.279 78.7765 703.756C78.4801 703.216 78.053 702.806 77.4951 702.527C76.9372 702.231 76.2572 702.082 75.4553 702.082ZM86.7137 707.862C87.2193 707.862 87.629 708.019 87.9429 708.333C88.2567 708.646 88.4136 709.056 88.4136 709.562C88.4136 710.067 88.2567 710.477 87.9429 710.791C87.629 711.105 87.2193 711.262 86.7137 711.262C86.2082 711.262 85.7985 711.105 85.4846 710.791C85.1708 710.477 85.0139 710.067 85.0139 709.562C85.0139 709.056 85.1708 708.646 85.4846 708.333C85.7985 708.019 86.2082 707.862 86.7137 707.862ZM114.332 693.74V695.702H108.317V711H106.225V695.702H100.21V693.74H114.332ZM116.293 711V691.91H118.385V699.886C118.838 699.101 119.439 698.535 120.189 698.186C120.939 697.837 121.758 697.663 122.647 697.663C123.589 697.663 124.443 697.846 125.21 698.212C125.977 698.561 126.587 699.101 127.041 699.833C127.511 700.566 127.747 701.498 127.747 702.632V711H125.655V703.364C125.655 701.917 125.341 700.914 124.713 700.356C124.103 699.781 123.345 699.493 122.438 699.493C121.81 699.493 121.183 699.642 120.555 699.938C119.928 700.234 119.405 700.723 118.986 701.403C118.585 702.065 118.385 702.954 118.385 704.07V711H116.293ZM137.165 711.262C135.927 711.262 134.82 710.991 133.844 710.451C132.885 709.91 132.135 709.135 131.595 708.123C131.054 707.095 130.784 705.874 130.784 704.462C130.784 703.05 131.054 701.838 131.595 700.827C132.135 699.799 132.876 699.014 133.818 698.474C134.759 697.933 135.831 697.663 137.034 697.663C138.254 697.663 139.292 697.924 140.146 698.447C141.018 698.97 141.68 699.685 142.134 700.592C142.587 701.481 142.814 702.483 142.814 703.599C142.814 703.896 142.805 704.166 142.787 704.41C142.77 704.654 142.744 704.872 142.709 705.064H132.144V703.207H141.794L140.721 703.416C140.721 702.161 140.373 701.193 139.675 700.513C138.995 699.833 138.098 699.493 136.982 699.493C136.128 699.493 135.387 699.694 134.759 700.095C134.149 700.479 133.669 701.045 133.321 701.795C132.989 702.527 132.824 703.416 132.824 704.462C132.824 705.491 132.998 706.38 133.347 707.13C133.695 707.879 134.184 708.455 134.811 708.856C135.456 709.239 136.223 709.431 137.113 709.431C138.071 709.431 138.847 709.248 139.44 708.882C140.05 708.516 140.538 708.019 140.904 707.391L142.552 708.359C142.221 708.951 141.794 709.466 141.271 709.902C140.765 710.338 140.164 710.677 139.466 710.922C138.786 711.148 138.019 711.262 137.165 711.262ZM168.441 706.58C168.075 707.557 167.552 708.402 166.872 709.117C166.192 709.814 165.39 710.346 164.466 710.712C163.559 711.078 162.566 711.262 161.485 711.262C159.846 711.262 158.425 710.904 157.222 710.189C156.036 709.457 155.112 708.428 154.45 707.103C153.805 705.778 153.482 704.201 153.482 702.37C153.482 700.54 153.805 698.962 154.45 697.637C155.112 696.312 156.036 695.292 157.222 694.577C158.425 693.845 159.828 693.479 161.432 693.479C162.548 693.479 163.542 693.636 164.414 693.949C165.285 694.246 166.026 694.699 166.636 695.309C167.264 695.902 167.761 696.634 168.127 697.506L166.061 698.474C165.678 697.48 165.12 696.73 164.387 696.225C163.673 695.702 162.74 695.44 161.589 695.44C160.421 695.44 159.393 695.719 158.503 696.277C157.614 696.817 156.917 697.602 156.411 698.631C155.923 699.659 155.679 700.906 155.679 702.37C155.679 703.817 155.914 705.064 156.385 706.11C156.856 707.138 157.527 707.932 158.399 708.489C159.27 709.03 160.299 709.3 161.485 709.3C162.635 709.3 163.638 709.013 164.492 708.437C165.346 707.844 165.965 706.964 166.349 705.796L168.441 706.58ZM176.693 697.663C177.931 697.663 179.02 697.933 179.962 698.474C180.92 699.014 181.67 699.799 182.211 700.827C182.751 701.838 183.021 703.05 183.021 704.462C183.021 705.874 182.751 707.095 182.211 708.123C181.67 709.135 180.92 709.91 179.962 710.451C179.02 710.991 177.931 711.262 176.693 711.262C175.472 711.262 174.383 710.991 173.424 710.451C172.465 709.91 171.715 709.135 171.175 708.123C170.634 707.095 170.364 705.874 170.364 704.462C170.364 703.05 170.634 701.838 171.175 700.827C171.715 699.799 172.465 699.014 173.424 698.474C174.383 697.933 175.472 697.663 176.693 697.663ZM176.693 699.467C175.804 699.467 175.045 699.668 174.418 700.069C173.79 700.47 173.302 701.045 172.953 701.795C172.622 702.527 172.456 703.416 172.456 704.462C172.456 705.491 172.622 706.38 172.953 707.13C173.302 707.879 173.79 708.455 174.418 708.856C175.045 709.257 175.804 709.457 176.693 709.457C177.582 709.457 178.34 709.257 178.968 708.856C179.596 708.455 180.075 707.879 180.406 707.13C180.755 706.38 180.929 705.491 180.929 704.462C180.929 703.416 180.755 702.527 180.406 701.795C180.075 701.045 179.596 700.47 178.968 700.069C178.34 699.668 177.582 699.467 176.693 699.467ZM186.175 711V697.924H188.006L188.137 699.964C188.607 699.162 189.218 698.578 189.967 698.212C190.734 697.846 191.519 697.663 192.321 697.663C193.245 697.663 194.117 697.872 194.936 698.291C195.755 698.709 196.383 699.354 196.819 700.226C197.098 699.633 197.49 699.154 197.996 698.787C198.501 698.404 199.05 698.125 199.643 697.951C200.253 697.759 200.829 697.663 201.369 697.663C202.206 697.663 202.999 697.837 203.749 698.186C204.516 698.535 205.144 699.075 205.632 699.807C206.12 700.54 206.364 701.481 206.364 702.632V711H204.272V702.841C204.272 701.655 203.976 700.801 203.383 700.278C202.79 699.755 202.058 699.493 201.186 699.493C200.506 699.493 199.87 699.659 199.277 699.99C198.684 700.322 198.205 700.81 197.839 701.455C197.49 702.1 197.316 702.893 197.316 703.835V711H195.224V702.841C195.224 701.655 194.927 700.801 194.335 700.278C193.742 699.755 193.01 699.493 192.138 699.493C191.563 699.493 190.97 699.65 190.36 699.964C189.767 700.261 189.27 700.74 188.869 701.403C188.468 702.065 188.267 702.937 188.267 704.018V711H186.175ZM210.316 716.492V697.924H212.147L212.33 701.115L212.042 700.749C212.269 700.139 212.609 699.607 213.062 699.154C213.515 698.683 214.064 698.317 214.71 698.055C215.355 697.794 216.052 697.663 216.802 697.663C217.865 697.663 218.841 697.933 219.731 698.474C220.637 699.014 221.361 699.79 221.901 700.801C222.442 701.812 222.712 703.033 222.712 704.462C222.712 705.874 222.433 707.095 221.875 708.123C221.334 709.135 220.611 709.91 219.704 710.451C218.798 710.991 217.804 711.262 216.723 711.262C215.642 711.262 214.692 711 213.873 710.477C213.071 709.937 212.495 709.257 212.147 708.437L212.408 708.045V716.492H210.316ZM216.514 709.431C217.804 709.431 218.807 708.978 219.521 708.071C220.254 707.164 220.62 705.962 220.62 704.462C220.62 702.963 220.262 701.76 219.548 700.853C218.85 699.947 217.865 699.493 216.592 699.493C215.756 699.493 215.023 699.703 214.396 700.121C213.768 700.522 213.28 701.097 212.931 701.847C212.583 702.579 212.408 703.451 212.408 704.462C212.408 705.456 212.574 706.328 212.905 707.077C213.254 707.827 213.733 708.411 214.343 708.829C214.971 709.23 215.695 709.431 216.514 709.431ZM231.34 697.663C232.578 697.663 233.668 697.933 234.609 698.474C235.568 699.014 236.318 699.799 236.858 700.827C237.399 701.838 237.669 703.05 237.669 704.462C237.669 705.874 237.399 707.095 236.858 708.123C236.318 709.135 235.568 709.91 234.609 710.451C233.668 710.991 232.578 711.262 231.34 711.262C230.12 711.262 229.03 710.991 228.072 710.451C227.113 709.91 226.363 709.135 225.823 708.123C225.282 707.095 225.012 705.874 225.012 704.462C225.012 703.05 225.282 701.838 225.823 700.827C226.363 699.799 227.113 699.014 228.072 698.474C229.03 697.933 230.12 697.663 231.34 697.663ZM231.34 699.467C230.451 699.467 229.693 699.668 229.065 700.069C228.438 700.47 227.95 701.045 227.601 701.795C227.27 702.527 227.104 703.416 227.104 704.462C227.104 705.491 227.27 706.38 227.601 707.13C227.95 707.879 228.438 708.455 229.065 708.856C229.693 709.257 230.451 709.457 231.34 709.457C232.23 709.457 232.988 709.257 233.616 708.856C234.243 708.455 234.723 707.879 235.054 707.13C235.403 706.38 235.577 705.491 235.577 704.462C235.577 703.416 235.403 702.527 235.054 701.795C234.723 701.045 234.243 700.47 233.616 700.069C232.988 699.668 232.23 699.467 231.34 699.467ZM240.823 711V697.924H242.654L242.837 700.853L242.497 700.566C242.776 699.868 243.151 699.31 243.621 698.892C244.092 698.456 244.632 698.142 245.243 697.951C245.87 697.759 246.515 697.663 247.178 697.663C248.119 697.663 248.974 697.846 249.741 698.212C250.508 698.561 251.118 699.101 251.571 699.833C252.042 700.566 252.277 701.498 252.277 702.632V711H250.185V703.364C250.185 701.917 249.871 700.914 249.244 700.356C248.634 699.781 247.875 699.493 246.969 699.493C246.341 699.493 245.713 699.642 245.086 699.938C244.458 700.234 243.935 700.714 243.517 701.376C243.116 702.039 242.915 702.928 242.915 704.044V711H240.823ZM261.695 711.262C260.458 711.262 259.35 710.991 258.374 710.451C257.415 709.91 256.666 709.135 256.125 708.123C255.585 707.095 255.314 705.874 255.314 704.462C255.314 703.05 255.585 701.838 256.125 700.827C256.666 699.799 257.407 699.014 258.348 698.474C259.289 697.933 260.362 697.663 261.565 697.663C262.785 697.663 263.822 697.924 264.677 698.447C265.548 698.97 266.211 699.685 266.664 700.592C267.117 701.481 267.344 702.483 267.344 703.599C267.344 703.896 267.335 704.166 267.318 704.41C267.3 704.654 267.274 704.872 267.239 705.064H256.674V703.207H266.324L265.252 703.416C265.252 702.161 264.903 701.193 264.206 700.513C263.526 699.833 262.628 699.493 261.512 699.493C260.658 699.493 259.917 699.694 259.289 700.095C258.679 700.479 258.2 701.045 257.851 701.795C257.52 702.527 257.354 703.416 257.354 704.462C257.354 705.491 257.529 706.38 257.877 707.13C258.226 707.879 258.714 708.455 259.342 708.856C259.987 709.239 260.754 709.431 261.643 709.431C262.602 709.431 263.378 709.248 263.971 708.882C264.581 708.516 265.069 708.019 265.435 707.391L267.083 708.359C266.751 708.951 266.324 709.466 265.801 709.902C265.296 710.338 264.694 710.677 263.997 710.922C263.317 711.148 262.55 711.262 261.695 711.262ZM270.538 711V697.924H272.369L272.552 700.853L272.212 700.566C272.491 699.868 272.866 699.31 273.337 698.892C273.807 698.456 274.348 698.142 274.958 697.951C275.586 697.759 276.231 697.663 276.893 697.663C277.835 697.663 278.689 697.846 279.456 698.212C280.223 698.561 280.833 699.101 281.286 699.833C281.757 700.566 281.993 701.498 281.993 702.632V711H279.9V703.364C279.9 701.917 279.587 700.914 278.959 700.356C278.349 699.781 277.59 699.493 276.684 699.493C276.056 699.493 275.429 699.642 274.801 699.938C274.173 700.234 273.65 700.714 273.232 701.376C272.831 702.039 272.63 702.928 272.63 704.044V711H270.538ZM288.852 694.211V707.391C288.852 708.036 289.035 708.516 289.401 708.829C289.767 709.143 290.238 709.3 290.813 709.3C291.319 709.3 291.755 709.213 292.121 709.039C292.487 708.864 292.818 708.629 293.115 708.333L293.847 710.085C293.446 710.451 292.967 710.738 292.409 710.948C291.868 711.157 291.241 711.262 290.526 711.262C289.863 711.262 289.244 711.148 288.669 710.922C288.094 710.677 287.632 710.303 287.283 709.797C286.952 709.274 286.777 708.594 286.76 707.757V694.786L288.852 694.211ZM293.612 697.924V699.729H284.145V697.924H293.612ZM311.702 702.553C311.702 701.577 311.441 700.827 310.918 700.304C310.395 699.764 309.654 699.493 308.695 699.493C307.788 699.493 307.021 699.694 306.393 700.095C305.766 700.479 305.304 701.106 305.007 701.978L303.308 700.932C303.656 699.956 304.301 699.171 305.243 698.578C306.184 697.968 307.352 697.663 308.747 697.663C309.688 697.663 310.543 697.829 311.31 698.16C312.077 698.474 312.678 698.962 313.114 699.624C313.568 700.269 313.794 701.106 313.794 702.135V708.463C313.794 709.091 314.125 709.405 314.788 709.405C315.119 709.405 315.442 709.361 315.756 709.274L315.651 710.922C315.302 711.096 314.849 711.183 314.291 711.183C313.785 711.183 313.332 711.087 312.931 710.895C312.53 710.704 312.216 710.416 311.99 710.032C311.763 709.631 311.65 709.135 311.65 708.542V708.28L312.173 708.359C311.964 709.039 311.606 709.597 311.101 710.032C310.595 710.451 310.028 710.765 309.401 710.974C308.773 711.166 308.154 711.262 307.544 711.262C306.777 711.262 306.062 711.131 305.4 710.869C304.737 710.608 304.205 710.215 303.804 709.692C303.421 709.152 303.229 708.489 303.229 707.705C303.229 706.729 303.552 705.927 304.197 705.299C304.859 704.654 305.774 704.218 306.943 703.991L312.121 702.972V704.698L307.91 705.561C307.056 705.735 306.42 705.979 306.001 706.293C305.583 706.607 305.374 707.042 305.374 707.6C305.374 708.141 305.583 708.585 306.001 708.934C306.437 709.265 307.047 709.431 307.832 709.431C308.337 709.431 308.817 709.37 309.27 709.248C309.741 709.108 310.159 708.908 310.525 708.646C310.891 708.367 311.179 708.027 311.388 707.627C311.597 707.208 311.702 706.72 311.702 706.162V702.553ZM318.094 711V697.924H319.924L320.107 700.853L319.767 700.566C320.046 699.868 320.421 699.31 320.892 698.892C321.362 698.456 321.903 698.142 322.513 697.951C323.141 697.759 323.786 697.663 324.448 697.663C325.39 697.663 326.244 697.846 327.011 698.212C327.778 698.561 328.388 699.101 328.842 699.833C329.312 700.566 329.548 701.498 329.548 702.632V711H327.456V703.364C327.456 701.917 327.142 700.914 326.514 700.356C325.904 699.781 325.146 699.493 324.239 699.493C323.611 699.493 322.984 699.642 322.356 699.938C321.729 700.234 321.206 700.714 320.787 701.376C320.386 702.039 320.186 702.928 320.186 704.044V711H318.094ZM338.6 711.262C337.519 711.262 336.525 710.991 335.619 710.451C334.712 709.91 333.988 709.135 333.448 708.123C332.908 707.095 332.637 705.874 332.637 704.462C332.637 703.015 332.925 701.786 333.5 700.775C334.076 699.764 334.834 698.997 335.775 698.474C336.717 697.933 337.728 697.663 338.809 697.663C339.89 697.663 340.823 697.942 341.607 698.5C342.409 699.058 342.941 699.799 343.202 700.723L342.941 700.906V691.91H345.033V711H343.202L343.019 707.836L343.307 707.679C343.185 708.446 342.889 709.1 342.418 709.64C341.965 710.163 341.398 710.564 340.718 710.843C340.056 711.122 339.349 711.262 338.6 711.262ZM338.809 709.431C339.646 709.431 340.369 709.222 340.98 708.803C341.607 708.385 342.087 707.792 342.418 707.025C342.767 706.24 342.941 705.325 342.941 704.279C342.941 703.285 342.767 702.431 342.418 701.716C342.087 701.002 341.616 700.452 341.006 700.069C340.413 699.685 339.716 699.493 338.914 699.493C337.589 699.493 336.56 699.947 335.828 700.853C335.096 701.76 334.729 702.963 334.729 704.462C334.729 705.962 335.087 707.164 335.802 708.071C336.516 708.978 337.519 709.431 338.809 709.431ZM370.127 693.74L363.59 711H361.21L354.646 693.74H356.895L361.288 705.665L362.387 709.091L363.485 705.691L367.878 693.74H370.127ZM378.597 702.553C378.597 701.577 378.335 700.827 377.812 700.304C377.289 699.764 376.548 699.493 375.59 699.493C374.683 699.493 373.916 699.694 373.288 700.095C372.661 700.479 372.199 701.106 371.902 701.978L370.202 700.932C370.551 699.956 371.196 699.171 372.138 698.578C373.079 697.968 374.247 697.663 375.642 697.663C376.583 697.663 377.438 697.829 378.205 698.16C378.972 698.474 379.573 698.962 380.009 699.624C380.462 700.269 380.689 701.106 380.689 702.135V708.463C380.689 709.091 381.02 709.405 381.683 709.405C382.014 709.405 382.337 709.361 382.65 709.274L382.546 710.922C382.197 711.096 381.744 711.183 381.186 711.183C380.68 711.183 380.227 711.087 379.826 710.895C379.425 710.704 379.111 710.416 378.885 710.032C378.658 709.631 378.545 709.135 378.545 708.542V708.28L379.068 708.359C378.858 709.039 378.501 709.597 377.995 710.032C377.49 710.451 376.923 710.765 376.296 710.974C375.668 711.166 375.049 711.262 374.439 711.262C373.672 711.262 372.957 711.131 372.294 710.869C371.632 710.608 371.1 710.215 370.699 709.692C370.316 709.152 370.124 708.489 370.124 707.705C370.124 706.729 370.446 705.927 371.092 705.299C371.754 704.654 372.669 704.218 373.837 703.991L379.015 702.972V704.698L374.805 705.561C373.951 705.735 373.314 705.979 372.896 706.293C372.478 706.607 372.268 707.042 372.268 707.6C372.268 708.141 372.478 708.585 372.896 708.934C373.332 709.265 373.942 709.431 374.727 709.431C375.232 709.431 375.712 709.37 376.165 709.248C376.636 709.108 377.054 708.908 377.42 708.646C377.786 708.367 378.074 708.027 378.283 707.627C378.492 707.208 378.597 706.72 378.597 706.162V702.553ZM384.988 711V697.924H386.688L386.976 700.069C387.342 699.267 387.874 698.665 388.571 698.264C389.286 697.863 390.149 697.663 391.16 697.663C391.387 697.663 391.631 697.68 391.892 697.715C392.171 697.75 392.407 697.82 392.598 697.924L392.232 699.833C392.041 699.764 391.831 699.711 391.605 699.677C391.378 699.642 391.055 699.624 390.637 699.624C390.097 699.624 389.547 699.781 388.99 700.095C388.449 700.409 387.996 700.888 387.63 701.533C387.264 702.161 387.081 702.963 387.081 703.939V711H384.988ZM395.925 695.414C395.454 695.414 395.071 695.274 394.774 694.995C394.495 694.699 394.356 694.316 394.356 693.845C394.356 693.374 394.495 692.999 394.774 692.72C395.071 692.424 395.454 692.276 395.925 692.276C396.396 692.276 396.77 692.424 397.049 692.72C397.346 692.999 397.494 693.374 397.494 693.845C397.494 694.316 397.346 694.699 397.049 694.995C396.77 695.274 396.396 695.414 395.925 695.414ZM396.971 697.924V711H394.879V697.924H396.971ZM408.677 702.553C408.677 701.577 408.415 700.827 407.892 700.304C407.369 699.764 406.628 699.493 405.669 699.493C404.763 699.493 403.996 699.694 403.368 700.095C402.741 700.479 402.279 701.106 401.982 701.978L400.282 700.932C400.631 699.956 401.276 699.171 402.218 698.578C403.159 697.968 404.327 697.663 405.722 697.663C406.663 697.663 407.517 697.829 408.285 698.16C409.052 698.474 409.653 698.962 410.089 699.624C410.542 700.269 410.769 701.106 410.769 702.135V708.463C410.769 709.091 411.1 709.405 411.763 709.405C412.094 709.405 412.416 709.361 412.73 709.274L412.626 710.922C412.277 711.096 411.824 711.183 411.266 711.183C410.76 711.183 410.307 711.087 409.906 710.895C409.505 710.704 409.191 710.416 408.965 710.032C408.738 709.631 408.625 709.135 408.625 708.542V708.28L409.148 708.359C408.938 709.039 408.581 709.597 408.075 710.032C407.57 710.451 407.003 710.765 406.376 710.974C405.748 711.166 405.129 711.262 404.519 711.262C403.752 711.262 403.037 711.131 402.374 710.869C401.712 710.608 401.18 710.215 400.779 709.692C400.396 709.152 400.204 708.489 400.204 707.705C400.204 706.729 400.526 705.927 401.171 705.299C401.834 704.654 402.749 704.218 403.917 703.991L409.095 702.972V704.698L404.885 705.561C404.031 705.735 403.394 705.979 402.976 706.293C402.557 706.607 402.348 707.042 402.348 707.6C402.348 708.141 402.557 708.585 402.976 708.934C403.412 709.265 404.022 709.431 404.806 709.431C405.312 709.431 405.792 709.37 406.245 709.248C406.716 709.108 407.134 708.908 407.5 708.646C407.866 708.367 408.154 708.027 408.363 707.627C408.572 707.208 408.677 706.72 408.677 706.162V702.553ZM415.068 711V697.924H416.899L417.082 700.853L416.742 700.566C417.021 699.868 417.396 699.31 417.867 698.892C418.337 698.456 418.878 698.142 419.488 697.951C420.116 697.759 420.761 697.663 421.423 697.663C422.365 697.663 423.219 697.846 423.986 698.212C424.753 698.561 425.363 699.101 425.816 699.833C426.287 700.566 426.523 701.498 426.523 702.632V711H424.43V703.364C424.43 701.917 424.117 700.914 423.489 700.356C422.879 699.781 422.12 699.493 421.214 699.493C420.586 699.493 419.959 699.642 419.331 699.938C418.703 700.234 418.18 700.714 417.762 701.376C417.361 702.039 417.16 702.928 417.16 704.044V711H415.068ZM433.382 694.211V707.391C433.382 708.036 433.565 708.516 433.931 708.829C434.297 709.143 434.768 709.3 435.343 709.3C435.849 709.3 436.285 709.213 436.651 709.039C437.017 708.864 437.348 708.629 437.645 708.333L438.377 710.085C437.976 710.451 437.497 710.738 436.939 710.948C436.398 711.157 435.771 711.262 435.056 711.262C434.393 711.262 433.774 711.148 433.199 710.922C432.624 710.677 432.162 710.303 431.813 709.797C431.482 709.274 431.307 708.594 431.29 707.757V694.786L433.382 694.211ZM438.142 697.924V699.729H428.675V697.924H438.142ZM445.175 711.262C443.902 711.262 442.725 710.991 441.644 710.451C440.581 709.91 439.762 709.143 439.186 708.15L440.965 706.868C441.348 707.67 441.906 708.298 442.638 708.751C443.388 709.204 444.286 709.431 445.332 709.431C446.256 709.431 446.979 709.257 447.502 708.908C448.025 708.542 448.287 708.071 448.287 707.496C448.287 707.13 448.165 706.798 447.921 706.502C447.694 706.188 447.25 705.962 446.587 705.822L443.449 705.168C442.176 704.907 441.261 704.471 440.703 703.861C440.163 703.251 439.892 702.492 439.892 701.586C439.892 700.871 440.093 700.217 440.494 699.624C440.912 699.031 441.496 698.561 442.246 698.212C443.013 697.846 443.911 697.663 444.939 697.663C446.23 697.663 447.319 697.916 448.208 698.421C449.098 698.927 449.76 699.642 450.196 700.566L448.444 701.716C448.147 700.949 447.668 700.391 447.005 700.043C446.343 699.677 445.654 699.493 444.939 699.493C444.312 699.493 443.771 699.581 443.318 699.755C442.882 699.929 442.542 700.173 442.298 700.487C442.072 700.784 441.958 701.124 441.958 701.507C441.958 701.891 442.089 702.248 442.351 702.579C442.612 702.893 443.1 703.12 443.815 703.259L447.084 703.939C448.304 704.183 449.159 704.584 449.647 705.142C450.135 705.7 450.379 706.38 450.379 707.182C450.379 708.001 450.161 708.725 449.725 709.352C449.289 709.963 448.679 710.433 447.895 710.765C447.11 711.096 446.203 711.262 445.175 711.262Z" fill="#4F4F4F"/>
</svg>
