<svg width="1300" height="307" viewBox="0 0 1300 307" fill="none" xmlns="http://www.w3.org/2000/svg">
<rect width="1300" height="307" fill="#F0F0F0"/>
<rect x="340.68" y="94.6798" width="134.605" height="44.8684" rx="2.03947" fill="#0A8BEF"/>
<path d="M383.15 122.516V111.747H387.392C388.686 111.747 389.633 112.008 390.231 112.53C390.829 113.052 391.128 113.776 391.128 114.7C391.128 115.266 390.965 115.772 390.639 116.218C390.313 116.653 389.834 116.93 389.203 117.05V117.066C389.899 117.175 390.438 117.463 390.818 117.931C391.21 118.388 391.406 118.921 391.406 119.53C391.406 120.454 391.069 121.183 390.394 121.716C389.72 122.249 388.741 122.516 387.457 122.516H383.15ZM384.863 121.064H387.539C388.224 121.064 388.735 120.922 389.073 120.639C389.421 120.357 389.595 119.959 389.595 119.448C389.595 118.937 389.421 118.54 389.073 118.257C388.735 117.974 388.224 117.833 387.539 117.833H384.863V121.064ZM384.863 116.381H387.262C388.632 116.381 389.317 115.853 389.317 114.798C389.317 113.743 388.632 113.216 387.262 113.216H384.863V116.381ZM396.449 122.679C395.916 122.679 395.421 122.581 394.964 122.385C394.518 122.189 394.159 121.874 393.888 121.439C393.616 121.004 393.48 120.438 393.48 119.742V114.358H395.225V119.301C395.225 120.041 395.383 120.552 395.699 120.835C396.014 121.107 396.455 121.243 397.02 121.243C397.292 121.243 397.553 121.199 397.803 121.112C398.064 121.015 398.298 120.868 398.505 120.672C398.712 120.465 398.869 120.204 398.978 119.889C399.098 119.573 399.158 119.204 399.158 118.779V114.358H400.903V122.516H399.37L399.288 121.194C399.005 121.705 398.625 122.081 398.146 122.32C397.667 122.559 397.102 122.679 396.449 122.679ZM405.85 111.959V120.068C405.85 120.471 405.953 120.764 406.16 120.949C406.377 121.134 406.665 121.227 407.024 121.227C407.318 121.227 407.574 121.183 407.791 121.096C408.009 120.998 408.21 120.868 408.395 120.705L408.786 121.977C408.536 122.195 408.226 122.369 407.856 122.499C407.498 122.619 407.095 122.679 406.649 122.679C406.181 122.679 405.752 122.603 405.36 122.45C404.969 122.298 404.664 122.053 404.446 121.716C404.229 121.368 404.115 120.917 404.104 120.362V112.449L405.85 111.959ZM408.656 114.358V115.728H402.538V114.358H408.656ZM411.677 111.959V120.068C411.677 120.471 411.781 120.764 411.987 120.949C412.205 121.134 412.493 121.227 412.852 121.227C413.146 121.227 413.401 121.183 413.619 121.096C413.837 120.998 414.038 120.868 414.223 120.705L414.614 121.977C414.364 122.195 414.054 122.369 413.684 122.499C413.325 122.619 412.923 122.679 412.477 122.679C412.009 122.679 411.58 122.603 411.188 122.45C410.796 122.298 410.492 122.053 410.274 121.716C410.057 121.368 409.943 120.917 409.932 120.362V112.449L411.677 111.959ZM414.484 114.358V115.728H408.365V114.358H414.484ZM419.588 114.195C420.382 114.195 421.083 114.363 421.693 114.7C422.302 115.038 422.775 115.527 423.112 116.169C423.46 116.8 423.634 117.556 423.634 118.437C423.634 119.318 423.46 120.079 423.112 120.721C422.775 121.352 422.302 121.836 421.693 122.173C421.083 122.51 420.382 122.679 419.588 122.679C418.794 122.679 418.092 122.51 417.483 122.173C416.874 121.836 416.395 121.352 416.047 120.721C415.699 120.079 415.525 119.318 415.525 118.437C415.525 117.556 415.699 116.8 416.047 116.169C416.395 115.527 416.874 115.038 417.483 114.7C418.092 114.363 418.794 114.195 419.588 114.195ZM419.588 115.565C419.098 115.565 418.68 115.679 418.331 115.908C417.994 116.125 417.733 116.446 417.548 116.87C417.363 117.295 417.271 117.817 417.271 118.437C417.271 119.046 417.363 119.568 417.548 120.003C417.733 120.427 417.994 120.754 418.331 120.982C418.68 121.199 419.098 121.308 419.588 121.308C420.077 121.308 420.491 121.199 420.828 120.982C421.165 120.754 421.426 120.427 421.611 120.003C421.796 119.568 421.888 119.046 421.888 118.437C421.888 117.817 421.796 117.295 421.611 116.87C421.426 116.446 421.165 116.125 420.828 115.908C420.491 115.679 420.077 115.565 419.588 115.565ZM425.667 122.516V114.358H427.217L427.331 116.479L427.103 116.25C427.255 115.783 427.473 115.397 427.756 115.092C428.049 114.777 428.392 114.548 428.784 114.407C429.186 114.265 429.61 114.195 430.056 114.195C430.633 114.195 431.149 114.309 431.606 114.537C432.074 114.755 432.444 115.087 432.716 115.532C432.988 115.978 433.124 116.544 433.124 117.229V122.516H431.378V117.768C431.378 116.963 431.209 116.408 430.872 116.104C430.546 115.788 430.132 115.63 429.632 115.63C429.273 115.63 428.925 115.717 428.588 115.891C428.251 116.055 427.968 116.321 427.739 116.691C427.522 117.061 427.413 117.556 427.413 118.176V122.516H425.667Z" fill="#F2F2F2"/>
<rect x="340.68" y="94.6798" width="134.605" height="44.8684" rx="2.03947" stroke="#0A8BEF" stroke-width="1.35965"/>
<rect width="135.965" height="46.2281" transform="translate(824.035 94)" fill="url(#paint0_linear_1926_184677)"/>
<path d="M867.185 122.516V111.747H871.427C872.722 111.747 873.668 112.008 874.266 112.53C874.864 113.052 875.164 113.776 875.164 114.7C875.164 115.266 875 115.772 874.674 116.218C874.348 116.653 873.869 116.93 873.238 117.05V117.066C873.934 117.175 874.473 117.463 874.854 117.931C875.245 118.388 875.441 118.921 875.441 119.53C875.441 120.454 875.104 121.183 874.429 121.716C873.755 122.249 872.776 122.516 871.492 122.516H867.185ZM868.898 121.064H871.574C872.259 121.064 872.771 120.922 873.108 120.639C873.456 120.357 873.63 119.959 873.63 119.448C873.63 118.937 873.456 118.54 873.108 118.257C872.771 117.974 872.259 117.833 871.574 117.833H868.898V121.064ZM868.898 116.381H871.297C872.667 116.381 873.352 115.853 873.352 114.798C873.352 113.743 872.667 113.216 871.297 113.216H868.898V116.381ZM880.484 122.679C879.951 122.679 879.456 122.581 879 122.385C878.554 122.189 878.195 121.874 877.923 121.439C877.651 121.004 877.515 120.438 877.515 119.742V114.358H879.261V119.301C879.261 120.041 879.418 120.552 879.734 120.835C880.049 121.107 880.49 121.243 881.055 121.243C881.327 121.243 881.588 121.199 881.838 121.112C882.1 121.015 882.333 120.868 882.54 120.672C882.747 120.465 882.904 120.204 883.013 119.889C883.133 119.573 883.193 119.204 883.193 118.779V114.358H884.938V122.516H883.405L883.323 121.194C883.04 121.705 882.66 122.081 882.181 122.32C881.702 122.559 881.137 122.679 880.484 122.679ZM889.885 111.959V120.068C889.885 120.471 889.988 120.764 890.195 120.949C890.412 121.134 890.701 121.227 891.06 121.227C891.353 121.227 891.609 121.183 891.826 121.096C892.044 120.998 892.245 120.868 892.43 120.705L892.822 121.977C892.571 122.195 892.261 122.369 891.892 122.499C891.533 122.619 891.13 122.679 890.684 122.679C890.217 122.679 889.787 122.603 889.395 122.45C889.004 122.298 888.699 122.053 888.482 121.716C888.264 121.368 888.15 120.917 888.139 120.362V112.449L889.885 111.959ZM892.691 114.358V115.728H886.573V114.358H892.691ZM895.713 111.959V120.068C895.713 120.471 895.816 120.764 896.023 120.949C896.24 121.134 896.528 121.227 896.887 121.227C897.181 121.227 897.437 121.183 897.654 121.096C897.872 120.998 898.073 120.868 898.258 120.705L898.649 121.977C898.399 122.195 898.089 122.369 897.719 122.499C897.361 122.619 896.958 122.679 896.512 122.679C896.044 122.679 895.615 122.603 895.223 122.45C894.832 122.298 894.527 122.053 894.309 121.716C894.092 121.368 893.978 120.917 893.967 120.362V112.449L895.713 111.959ZM898.519 114.358V115.728H892.401V114.358H898.519ZM903.623 114.195C904.417 114.195 905.119 114.363 905.728 114.7C906.337 115.038 906.81 115.527 907.147 116.169C907.495 116.8 907.669 117.556 907.669 118.437C907.669 119.318 907.495 120.079 907.147 120.721C906.81 121.352 906.337 121.836 905.728 122.173C905.119 122.51 904.417 122.679 903.623 122.679C902.829 122.679 902.127 122.51 901.518 122.173C900.909 121.836 900.431 121.352 900.082 120.721C899.734 120.079 899.56 119.318 899.56 118.437C899.56 117.556 899.734 116.8 900.082 116.169C900.431 115.527 900.909 115.038 901.518 114.7C902.127 114.363 902.829 114.195 903.623 114.195ZM903.623 115.565C903.133 115.565 902.715 115.679 902.367 115.908C902.029 116.125 901.768 116.446 901.583 116.87C901.399 117.295 901.306 117.817 901.306 118.437C901.306 119.046 901.399 119.568 901.583 120.003C901.768 120.427 902.029 120.754 902.367 120.982C902.715 121.199 903.133 121.308 903.623 121.308C904.112 121.308 904.526 121.199 904.863 120.982C905.2 120.754 905.461 120.427 905.646 120.003C905.831 119.568 905.923 119.046 905.923 118.437C905.923 117.817 905.831 117.295 905.646 116.87C905.461 116.446 905.2 116.125 904.863 115.908C904.526 115.679 904.112 115.565 903.623 115.565ZM909.702 122.516V114.358H911.252L911.367 116.479L911.138 116.25C911.29 115.783 911.508 115.397 911.791 115.092C912.084 114.777 912.427 114.548 912.819 114.407C913.221 114.265 913.645 114.195 914.091 114.195C914.668 114.195 915.184 114.309 915.641 114.537C916.109 114.755 916.479 115.087 916.751 115.532C917.023 115.978 917.159 116.544 917.159 117.229V122.516H915.413V117.768C915.413 116.963 915.244 116.408 914.907 116.104C914.581 115.788 914.167 115.63 913.667 115.63C913.308 115.63 912.96 115.717 912.623 115.891C912.286 116.055 912.003 116.321 911.774 116.691C911.557 117.061 911.448 117.556 911.448 118.176V122.516H909.702Z" fill="#F2F2F2"/>
<rect x="582.697" y="94.6798" width="134.605" height="44.8684" rx="2.03947" fill="#DDF0FF"/>
<path d="M625.168 122.516V111.747H629.41C630.704 111.747 631.65 112.008 632.249 112.53C632.847 113.052 633.146 113.776 633.146 114.7C633.146 115.266 632.983 115.772 632.656 116.218C632.33 116.653 631.852 116.93 631.221 117.05V117.066C631.917 117.175 632.455 117.463 632.836 117.931C633.228 118.388 633.423 118.921 633.423 119.53C633.423 120.454 633.086 121.183 632.412 121.716C631.737 122.249 630.758 122.516 629.475 122.516H625.168ZM626.881 121.064H629.556C630.242 121.064 630.753 120.922 631.09 120.639C631.438 120.357 631.612 119.959 631.612 119.448C631.612 118.937 631.438 118.54 631.09 118.257C630.753 117.974 630.242 117.833 629.556 117.833H626.881V121.064ZM626.881 116.381H629.279C630.65 116.381 631.335 115.853 631.335 114.798C631.335 113.743 630.65 113.216 629.279 113.216H626.881V116.381ZM638.467 122.679C637.934 122.679 637.439 122.581 636.982 122.385C636.536 122.189 636.177 121.874 635.905 121.439C635.633 121.004 635.497 120.438 635.497 119.742V114.358H637.243V119.301C637.243 120.041 637.401 120.552 637.716 120.835C638.032 121.107 638.472 121.243 639.038 121.243C639.31 121.243 639.571 121.199 639.821 121.112C640.082 121.015 640.316 120.868 640.522 120.672C640.729 120.465 640.887 120.204 640.996 119.889C641.115 119.573 641.175 119.204 641.175 118.779V114.358H642.921V122.516H641.387L641.306 121.194C641.023 121.705 640.642 122.081 640.164 122.32C639.685 122.559 639.119 122.679 638.467 122.679ZM647.867 111.959V120.068C647.867 120.471 647.971 120.764 648.177 120.949C648.395 121.134 648.683 121.227 649.042 121.227C649.336 121.227 649.591 121.183 649.809 121.096C650.026 120.998 650.228 120.868 650.412 120.705L650.804 121.977C650.554 122.195 650.244 122.369 649.874 122.499C649.515 122.619 649.113 122.679 648.667 122.679C648.199 122.679 647.769 122.603 647.378 122.45C646.986 122.298 646.682 122.053 646.464 121.716C646.247 121.368 646.132 120.917 646.121 120.362V112.449L647.867 111.959ZM650.674 114.358V115.728H644.555V114.358H650.674ZM653.695 111.959V120.068C653.695 120.471 653.798 120.764 654.005 120.949C654.223 121.134 654.511 121.227 654.87 121.227C655.163 121.227 655.419 121.183 655.637 121.096C655.854 120.998 656.055 120.868 656.24 120.705L656.632 121.977C656.382 122.195 656.072 122.369 655.702 122.499C655.343 122.619 654.94 122.679 654.495 122.679C654.027 122.679 653.597 122.603 653.206 122.45C652.814 122.298 652.509 122.053 652.292 121.716C652.074 121.368 651.96 120.917 651.949 120.362V112.449L653.695 111.959ZM656.501 114.358V115.728H650.383V114.358H656.501ZM661.605 114.195C662.399 114.195 663.101 114.363 663.71 114.7C664.319 115.038 664.792 115.527 665.13 116.169C665.478 116.8 665.652 117.556 665.652 118.437C665.652 119.318 665.478 120.079 665.13 120.721C664.792 121.352 664.319 121.836 663.71 122.173C663.101 122.51 662.399 122.679 661.605 122.679C660.811 122.679 660.11 122.51 659.501 122.173C658.892 121.836 658.413 121.352 658.065 120.721C657.717 120.079 657.543 119.318 657.543 118.437C657.543 117.556 657.717 116.8 658.065 116.169C658.413 115.527 658.892 115.038 659.501 114.7C660.11 114.363 660.811 114.195 661.605 114.195ZM661.605 115.565C661.116 115.565 660.697 115.679 660.349 115.908C660.012 116.125 659.751 116.446 659.566 116.87C659.381 117.295 659.289 117.817 659.289 118.437C659.289 119.046 659.381 119.568 659.566 120.003C659.751 120.427 660.012 120.754 660.349 120.982C660.697 121.199 661.116 121.308 661.605 121.308C662.095 121.308 662.508 121.199 662.845 120.982C663.183 120.754 663.444 120.427 663.629 120.003C663.813 119.568 663.906 119.046 663.906 118.437C663.906 117.817 663.813 117.295 663.629 116.87C663.444 116.446 663.183 116.125 662.845 115.908C662.508 115.679 662.095 115.565 661.605 115.565ZM667.685 122.516V114.358H669.235L669.349 116.479L669.121 116.25C669.273 115.783 669.49 115.397 669.773 115.092C670.067 114.777 670.41 114.548 670.801 114.407C671.204 114.265 671.628 114.195 672.074 114.195C672.65 114.195 673.167 114.309 673.624 114.537C674.091 114.755 674.461 115.087 674.733 115.532C675.005 115.978 675.141 116.544 675.141 117.229V122.516H673.395V117.768C673.395 116.963 673.227 116.408 672.89 116.104C672.563 115.788 672.15 115.63 671.65 115.63C671.291 115.63 670.943 115.717 670.605 115.891C670.268 116.055 669.985 116.321 669.757 116.691C669.539 117.061 669.431 117.556 669.431 118.176V122.516H667.685Z" fill="#0A8BEF"/>
<rect x="582.697" y="94.6798" width="134.605" height="44.8684" rx="2.03947" stroke="#49AFFD" stroke-width="1.35965"/>
<rect x="488.883" y="94.6798" width="81.5789" height="44.8684" rx="2.03947" fill="#0A8BEF"/>
<path d="M504.839 122.516V111.747H509.081C510.376 111.747 511.322 112.008 511.92 112.53C512.519 113.052 512.818 113.776 512.818 114.7C512.818 115.266 512.655 115.772 512.328 116.218C512.002 116.653 511.523 116.93 510.893 117.05V117.066C511.589 117.175 512.127 117.463 512.508 117.931C512.899 118.388 513.095 118.921 513.095 119.53C513.095 120.454 512.758 121.183 512.084 121.716C511.409 122.249 510.43 122.516 509.147 122.516H504.839ZM506.553 121.064H509.228C509.914 121.064 510.425 120.922 510.762 120.639C511.11 120.357 511.284 119.959 511.284 119.448C511.284 118.937 511.11 118.54 510.762 118.257C510.425 117.974 509.914 117.833 509.228 117.833H506.553V121.064ZM506.553 116.381H508.951C510.321 116.381 511.007 115.853 511.007 114.798C511.007 113.743 510.321 113.216 508.951 113.216H506.553V116.381ZM518.139 122.679C517.606 122.679 517.111 122.581 516.654 122.385C516.208 122.189 515.849 121.874 515.577 121.439C515.305 121.004 515.169 120.438 515.169 119.742V114.358H516.915V119.301C516.915 120.041 517.073 120.552 517.388 120.835C517.703 121.107 518.144 121.243 518.71 121.243C518.982 121.243 519.243 121.199 519.493 121.112C519.754 121.015 519.988 120.868 520.194 120.672C520.401 120.465 520.559 120.204 520.667 119.889C520.787 119.573 520.847 119.204 520.847 118.779V114.358H522.593V122.516H521.059L520.977 121.194C520.695 121.705 520.314 122.081 519.835 122.32C519.357 122.559 518.791 122.679 518.139 122.679ZM527.539 111.959V120.068C527.539 120.471 527.642 120.764 527.849 120.949C528.067 121.134 528.355 121.227 528.714 121.227C529.008 121.227 529.263 121.183 529.481 121.096C529.698 120.998 529.899 120.868 530.084 120.705L530.476 121.977C530.226 122.195 529.916 122.369 529.546 122.499C529.187 122.619 528.785 122.679 528.339 122.679C527.871 122.679 527.441 122.603 527.05 122.45C526.658 122.298 526.353 122.053 526.136 121.716C525.918 121.368 525.804 120.917 525.793 120.362V112.449L527.539 111.959ZM530.345 114.358V115.728H524.227V114.358H530.345ZM533.367 111.959V120.068C533.367 120.471 533.47 120.764 533.677 120.949C533.894 121.134 534.183 121.227 534.542 121.227C534.835 121.227 535.091 121.183 535.308 121.096C535.526 120.998 535.727 120.868 535.912 120.705L536.304 121.977C536.054 122.195 535.744 122.369 535.374 122.499C535.015 122.619 534.612 122.679 534.166 122.679C533.699 122.679 533.269 122.603 532.877 122.45C532.486 122.298 532.181 122.053 531.964 121.716C531.746 121.368 531.632 120.917 531.621 120.362V112.449L533.367 111.959ZM536.173 114.358V115.728H530.055V114.358H536.173ZM541.277 114.195C542.071 114.195 542.773 114.363 543.382 114.7C543.991 115.038 544.464 115.527 544.801 116.169C545.15 116.8 545.324 117.556 545.324 118.437C545.324 119.318 545.15 120.079 544.801 120.721C544.464 121.352 543.991 121.836 543.382 122.173C542.773 122.51 542.071 122.679 541.277 122.679C540.483 122.679 539.782 122.51 539.173 122.173C538.563 121.836 538.085 121.352 537.737 120.721C537.389 120.079 537.215 119.318 537.215 118.437C537.215 117.556 537.389 116.8 537.737 116.169C538.085 115.527 538.563 115.038 539.173 114.7C539.782 114.363 540.483 114.195 541.277 114.195ZM541.277 115.565C540.788 115.565 540.369 115.679 540.021 115.908C539.684 116.125 539.423 116.446 539.238 116.87C539.053 117.295 538.96 117.817 538.96 118.437C538.96 119.046 539.053 119.568 539.238 120.003C539.423 120.427 539.684 120.754 540.021 120.982C540.369 121.199 540.788 121.308 541.277 121.308C541.767 121.308 542.18 121.199 542.517 120.982C542.854 120.754 543.116 120.427 543.3 120.003C543.485 119.568 543.578 119.046 543.578 118.437C543.578 117.817 543.485 117.295 543.3 116.87C543.116 116.446 542.854 116.125 542.517 115.908C542.18 115.679 541.767 115.565 541.277 115.565ZM547.357 122.516V114.358H548.907L549.021 116.479L548.792 116.25C548.945 115.783 549.162 115.397 549.445 115.092C549.739 114.777 550.081 114.548 550.473 114.407C550.875 114.265 551.3 114.195 551.746 114.195C552.322 114.195 552.839 114.309 553.296 114.537C553.763 114.755 554.133 115.087 554.405 115.532C554.677 115.978 554.813 116.544 554.813 117.229V122.516H553.067V117.768C553.067 116.963 552.899 116.408 552.561 116.104C552.235 115.788 551.822 115.63 551.321 115.63C550.962 115.63 550.614 115.717 550.277 115.891C549.94 116.055 549.657 116.321 549.429 116.691C549.211 117.061 549.102 117.556 549.102 118.176V122.516H547.357Z" fill="#F2F2F2"/>
<rect x="488.883" y="94.6798" width="81.5789" height="44.8684" rx="2.03947" stroke="#0A8BEF" stroke-width="1.35965"/>
<rect x="730.899" y="94.6798" width="81.5789" height="44.8684" rx="2.03947" fill="#F8F8F8"/>
<path d="M746.855 122.516V111.747H751.097C752.392 111.747 753.338 112.008 753.936 112.53C754.534 113.052 754.833 113.776 754.833 114.7C754.833 115.266 754.67 115.772 754.344 116.218C754.018 116.653 753.539 116.93 752.908 117.05V117.066C753.604 117.175 754.143 117.463 754.523 117.931C754.915 118.388 755.111 118.921 755.111 119.53C755.111 120.454 754.774 121.183 754.099 121.716C753.425 122.249 752.446 122.516 751.162 122.516H746.855ZM748.568 121.064H751.244C751.929 121.064 752.44 120.922 752.778 120.639C753.126 120.357 753.3 119.959 753.3 119.448C753.3 118.937 753.126 118.54 752.778 118.257C752.44 117.974 751.929 117.833 751.244 117.833H748.568V121.064ZM748.568 116.381H750.967C752.337 116.381 753.022 115.853 753.022 114.798C753.022 113.743 752.337 113.216 750.967 113.216H748.568V116.381ZM760.154 122.679C759.621 122.679 759.126 122.581 758.669 122.385C758.223 122.189 757.865 121.874 757.593 121.439C757.321 121.004 757.185 120.438 757.185 119.742V114.358H758.93V119.301C758.93 120.041 759.088 120.552 759.404 120.835C759.719 121.107 760.16 121.243 760.725 121.243C760.997 121.243 761.258 121.199 761.508 121.112C761.769 121.015 762.003 120.868 762.21 120.672C762.417 120.465 762.574 120.204 762.683 119.889C762.803 119.573 762.863 119.204 762.863 118.779V114.358H764.608V122.516H763.075L762.993 121.194C762.71 121.705 762.33 122.081 761.851 122.32C761.372 122.559 760.807 122.679 760.154 122.679ZM769.555 111.959V120.068C769.555 120.471 769.658 120.764 769.865 120.949C770.082 121.134 770.371 121.227 770.729 121.227C771.023 121.227 771.279 121.183 771.496 121.096C771.714 120.998 771.915 120.868 772.1 120.705L772.492 121.977C772.241 122.195 771.931 122.369 771.562 122.499C771.203 122.619 770.8 122.679 770.354 122.679C769.886 122.679 769.457 122.603 769.065 122.45C768.674 122.298 768.369 122.053 768.152 121.716C767.934 121.368 767.82 120.917 767.809 120.362V112.449L769.555 111.959ZM772.361 114.358V115.728H766.243V114.358H772.361ZM775.383 111.959V120.068C775.383 120.471 775.486 120.764 775.693 120.949C775.91 121.134 776.198 121.227 776.557 121.227C776.851 121.227 777.107 121.183 777.324 121.096C777.542 120.998 777.743 120.868 777.928 120.705L778.319 121.977C778.069 122.195 777.759 122.369 777.389 122.499C777.03 122.619 776.628 122.679 776.182 122.679C775.714 122.679 775.285 122.603 774.893 122.45C774.501 122.298 774.197 122.053 773.979 121.716C773.762 121.368 773.648 120.917 773.637 120.362V112.449L775.383 111.959ZM778.189 114.358V115.728H772.07V114.358H778.189ZM783.293 114.195C784.087 114.195 784.788 114.363 785.398 114.7C786.007 115.038 786.48 115.527 786.817 116.169C787.165 116.8 787.339 117.556 787.339 118.437C787.339 119.318 787.165 120.079 786.817 120.721C786.48 121.352 786.007 121.836 785.398 122.173C784.788 122.51 784.087 122.679 783.293 122.679C782.499 122.679 781.797 122.51 781.188 122.173C780.579 121.836 780.1 121.352 779.752 120.721C779.404 120.079 779.23 119.318 779.23 118.437C779.23 117.556 779.404 116.8 779.752 116.169C780.1 115.527 780.579 115.038 781.188 114.7C781.797 114.363 782.499 114.195 783.293 114.195ZM783.293 115.565C782.803 115.565 782.385 115.679 782.037 115.908C781.699 116.125 781.438 116.446 781.253 116.87C781.068 117.295 780.976 117.817 780.976 118.437C780.976 119.046 781.068 119.568 781.253 120.003C781.438 120.427 781.699 120.754 782.037 120.982C782.385 121.199 782.803 121.308 783.293 121.308C783.782 121.308 784.196 121.199 784.533 120.982C784.87 120.754 785.131 120.427 785.316 120.003C785.501 119.568 785.593 119.046 785.593 118.437C785.593 117.817 785.501 117.295 785.316 116.87C785.131 116.446 784.87 116.125 784.533 115.908C784.196 115.679 783.782 115.565 783.293 115.565ZM789.372 122.516V114.358H790.922L791.037 116.479L790.808 116.25C790.96 115.783 791.178 115.397 791.461 115.092C791.754 114.777 792.097 114.548 792.489 114.407C792.891 114.265 793.315 114.195 793.761 114.195C794.338 114.195 794.854 114.309 795.311 114.537C795.779 114.755 796.149 115.087 796.421 115.532C796.693 115.978 796.829 116.544 796.829 117.229V122.516H795.083V117.768C795.083 116.963 794.914 116.408 794.577 116.104C794.251 115.788 793.837 115.63 793.337 115.63C792.978 115.63 792.63 115.717 792.293 115.891C791.956 116.055 791.673 116.321 791.444 116.691C791.227 117.061 791.118 117.556 791.118 118.176V122.516H789.372Z" fill="#4F4F4F"/>
<rect x="730.899" y="94.6798" width="81.5789" height="44.8684" rx="2.03947" stroke="#AAAAAA" stroke-width="1.35965"/>
<rect x="355.777" y="158.722" width="104.413" height="54.106" rx="2.45936" fill="#0A8BEF"/>
<path d="M378.037 192.781V179.796H383.153C384.714 179.796 385.855 180.111 386.576 180.74C387.298 181.37 387.658 182.242 387.658 183.357C387.658 184.039 387.462 184.649 387.068 185.187C386.675 185.711 386.098 186.046 385.337 186.19V186.21C386.176 186.341 386.826 186.689 387.285 187.253C387.757 187.803 387.993 188.446 387.993 189.181C387.993 190.296 387.586 191.174 386.773 191.817C385.96 192.46 384.779 192.781 383.232 192.781H378.037ZM380.103 191.03H383.33C384.156 191.03 384.773 190.86 385.179 190.519C385.599 190.178 385.809 189.699 385.809 189.082C385.809 188.466 385.599 187.987 385.179 187.646C384.773 187.305 384.156 187.135 383.33 187.135H380.103V191.03ZM380.103 185.383H382.995C384.648 185.383 385.475 184.747 385.475 183.475C385.475 182.203 384.648 181.567 382.995 181.567H380.103V185.383ZM394.075 192.978C393.432 192.978 392.835 192.86 392.284 192.624C391.746 192.388 391.314 192.007 390.986 191.483C390.658 190.958 390.494 190.276 390.494 189.437V182.944H392.599V188.905C392.599 189.797 392.789 190.414 393.17 190.755C393.55 191.083 394.081 191.247 394.763 191.247C395.091 191.247 395.406 191.194 395.708 191.089C396.022 190.971 396.304 190.794 396.554 190.558C396.803 190.309 396.993 189.994 397.124 189.614C397.268 189.233 397.341 188.787 397.341 188.276V182.944H399.446V192.781H397.596L397.498 191.188C397.157 191.804 396.698 192.257 396.121 192.545C395.544 192.834 394.862 192.978 394.075 192.978ZM405.411 180.052V189.83C405.411 190.315 405.535 190.669 405.784 190.892C406.047 191.115 406.394 191.227 406.827 191.227C407.181 191.227 407.49 191.174 407.752 191.07C408.014 190.951 408.257 190.794 408.48 190.597L408.952 192.132C408.65 192.394 408.277 192.604 407.831 192.762C407.398 192.906 406.912 192.978 406.375 192.978C405.811 192.978 405.293 192.886 404.82 192.703C404.348 192.519 403.981 192.224 403.719 191.817C403.456 191.397 403.318 190.853 403.305 190.184V180.642L405.411 180.052ZM408.795 182.944V184.596H401.417V182.944H408.795ZM412.438 180.052V189.83C412.438 190.315 412.563 190.669 412.812 190.892C413.074 191.115 413.422 191.227 413.855 191.227C414.209 191.227 414.517 191.174 414.78 191.07C415.042 190.951 415.285 190.794 415.508 190.597L415.98 192.132C415.678 192.394 415.304 192.604 414.858 192.762C414.425 192.906 413.94 192.978 413.402 192.978C412.838 192.978 412.32 192.886 411.848 192.703C411.376 192.519 411.009 192.224 410.746 191.817C410.484 191.397 410.346 190.853 410.333 190.184V180.642L412.438 180.052ZM415.822 182.944V184.596H408.444V182.944H415.822ZM421.977 182.747C422.935 182.747 423.781 182.95 424.515 183.357C425.25 183.764 425.82 184.354 426.227 185.128C426.647 185.888 426.857 186.8 426.857 187.863C426.857 188.925 426.647 189.843 426.227 190.617C425.82 191.378 425.25 191.961 424.515 192.368C423.781 192.775 422.935 192.978 421.977 192.978C421.02 192.978 420.174 192.775 419.439 192.368C418.705 191.961 418.127 191.378 417.708 190.617C417.288 189.843 417.078 188.925 417.078 187.863C417.078 186.8 417.288 185.888 417.708 185.128C418.127 184.354 418.705 183.764 419.439 183.357C420.174 182.95 421.02 182.747 421.977 182.747ZM421.977 184.4C421.387 184.4 420.882 184.537 420.462 184.813C420.056 185.075 419.741 185.462 419.518 185.974C419.295 186.485 419.183 187.115 419.183 187.863C419.183 188.597 419.295 189.227 419.518 189.751C419.741 190.263 420.056 190.656 420.462 190.932C420.882 191.194 421.387 191.325 421.977 191.325C422.567 191.325 423.066 191.194 423.472 190.932C423.879 190.656 424.194 190.263 424.417 189.751C424.64 189.227 424.751 188.597 424.751 187.863C424.751 187.115 424.64 186.485 424.417 185.974C424.194 185.462 423.879 185.075 423.472 184.813C423.066 184.537 422.567 184.4 421.977 184.4ZM429.308 192.781V182.944H431.177L431.315 185.502L431.04 185.226C431.223 184.662 431.486 184.196 431.827 183.829C432.181 183.449 432.594 183.173 433.066 183.003C433.551 182.832 434.063 182.747 434.601 182.747C435.296 182.747 435.919 182.885 436.47 183.16C437.034 183.423 437.48 183.823 437.808 184.36C438.136 184.898 438.3 185.58 438.3 186.407V192.781H436.194V187.056C436.194 186.085 435.991 185.416 435.585 185.049C435.191 184.669 434.693 184.478 434.089 184.478C433.656 184.478 433.237 184.583 432.83 184.793C432.423 184.99 432.082 185.311 431.807 185.757C431.545 186.203 431.413 186.8 431.413 187.548V192.781H429.308Z" fill="#F2F2F2"/>
<rect x="355.777" y="158.722" width="104.413" height="54.106" rx="2.45936" stroke="#0A8BEF" stroke-width="1.63958"/>
<rect x="475.965" y="157.902" width="106.053" height="55.7456" rx="3.27915" fill="url(#paint1_linear_1926_184677)"/>
<path d="M499.045 192.781V179.796H504.161C505.722 179.796 506.863 180.111 507.584 180.74C508.306 181.37 508.666 182.242 508.666 183.357C508.666 184.039 508.469 184.649 508.076 185.187C507.682 185.711 507.105 186.046 506.345 186.19V186.21C507.184 186.341 507.833 186.689 508.292 187.253C508.765 187.803 509.001 188.446 509.001 189.181C509.001 190.296 508.594 191.174 507.781 191.817C506.968 192.46 505.787 192.781 504.239 192.781H499.045ZM501.111 191.03H504.338C505.164 191.03 505.781 190.86 506.187 190.519C506.607 190.178 506.817 189.699 506.817 189.082C506.817 188.466 506.607 187.987 506.187 187.646C505.781 187.305 505.164 187.135 504.338 187.135H501.111V191.03ZM501.111 185.383H504.003C505.656 185.383 506.482 184.747 506.482 183.475C506.482 182.203 505.656 181.567 504.003 181.567H501.111V185.383ZM515.082 192.978C514.44 192.978 513.843 192.86 513.292 192.624C512.754 192.388 512.321 192.007 511.993 191.483C511.666 190.958 511.502 190.276 511.502 189.437V182.944H513.607V188.905C513.607 189.797 513.797 190.414 514.177 190.755C514.558 191.083 515.089 191.247 515.771 191.247C516.099 191.247 516.414 191.194 516.715 191.089C517.03 190.971 517.312 190.794 517.561 190.558C517.811 190.309 518.001 189.994 518.132 189.614C518.276 189.233 518.348 188.787 518.348 188.276V182.944H520.454V192.781H518.604L518.506 191.188C518.165 191.804 517.706 192.257 517.129 192.545C516.551 192.834 515.869 192.978 515.082 192.978ZM526.418 180.052V189.83C526.418 190.315 526.543 190.669 526.792 190.892C527.055 191.115 527.402 191.227 527.835 191.227C528.189 191.227 528.497 191.174 528.76 191.07C529.022 190.951 529.265 190.794 529.488 190.597L529.96 192.132C529.658 192.394 529.284 192.604 528.838 192.762C528.406 192.906 527.92 192.978 527.382 192.978C526.818 192.978 526.3 192.886 525.828 192.703C525.356 192.519 524.989 192.224 524.726 191.817C524.464 191.397 524.326 190.853 524.313 190.184V180.642L526.418 180.052ZM529.802 182.944V184.596H522.424V182.944H529.802ZM533.446 180.052V189.83C533.446 190.315 533.571 190.669 533.82 190.892C534.082 191.115 534.43 191.227 534.863 191.227C535.217 191.227 535.525 191.174 535.787 191.07C536.05 190.951 536.292 190.794 536.515 190.597L536.988 192.132C536.686 192.394 536.312 192.604 535.866 192.762C535.433 192.906 534.948 192.978 534.41 192.978C533.846 192.978 533.328 192.886 532.856 192.703C532.384 192.519 532.016 192.224 531.754 191.817C531.492 191.397 531.354 190.853 531.341 190.184V180.642L533.446 180.052ZM536.83 182.944V184.596H529.452V182.944H536.83ZM542.985 182.747C543.942 182.747 544.789 182.95 545.523 183.357C546.258 183.764 546.828 184.354 547.235 185.128C547.654 185.888 547.864 186.8 547.864 187.863C547.864 188.925 547.654 189.843 547.235 190.617C546.828 191.378 546.258 191.961 545.523 192.368C544.789 192.775 543.942 192.978 542.985 192.978C542.027 192.978 541.181 192.775 540.447 192.368C539.712 191.961 539.135 191.378 538.716 190.617C538.296 189.843 538.086 188.925 538.086 187.863C538.086 186.8 538.296 185.888 538.716 185.128C539.135 184.354 539.712 183.764 540.447 183.357C541.181 182.95 542.027 182.747 542.985 182.747ZM542.985 184.4C542.395 184.4 541.89 184.537 541.47 184.813C541.063 185.075 540.749 185.462 540.526 185.974C540.303 186.485 540.191 187.115 540.191 187.863C540.191 188.597 540.303 189.227 540.526 189.751C540.749 190.263 541.063 190.656 541.47 190.932C541.89 191.194 542.395 191.325 542.985 191.325C543.575 191.325 544.074 191.194 544.48 190.932C544.887 190.656 545.202 190.263 545.425 189.751C545.648 189.227 545.759 188.597 545.759 187.863C545.759 187.115 545.648 186.485 545.425 185.974C545.202 185.462 544.887 185.075 544.48 184.813C544.074 184.537 543.575 184.4 542.985 184.4ZM550.316 192.781V182.944H552.185L552.323 185.502L552.047 185.226C552.231 184.662 552.493 184.196 552.834 183.829C553.189 183.449 553.602 183.173 554.074 183.003C554.559 182.832 555.071 182.747 555.609 182.747C556.304 182.747 556.927 182.885 557.478 183.16C558.042 183.423 558.488 183.823 558.816 184.36C559.144 184.898 559.307 185.58 559.307 186.407V192.781H557.202V187.056C557.202 186.085 556.999 185.416 556.592 185.049C556.199 184.669 555.7 184.478 555.097 184.478C554.664 184.478 554.244 184.583 553.838 184.793C553.431 184.99 553.09 185.311 552.815 185.757C552.552 186.203 552.421 186.8 552.421 187.548V192.781H550.316Z" fill="#F2F2F2"/>
<rect x="597.654" y="158.582" width="104.693" height="54.3859" fill="white"/>
<path d="M620.055 192.781V179.796H625.17C626.731 179.796 627.872 180.111 628.594 180.74C629.315 181.37 629.676 182.242 629.676 183.357C629.676 184.039 629.479 184.649 629.086 185.187C628.692 185.711 628.115 186.046 627.354 186.19V186.21C628.194 186.341 628.843 186.689 629.302 187.253C629.774 187.803 630.01 188.446 630.01 189.181C630.01 190.296 629.604 191.174 628.791 191.817C627.977 192.46 626.797 192.781 625.249 192.781H620.055ZM622.121 191.03H625.348C626.174 191.03 626.79 190.86 627.197 190.519C627.617 190.178 627.827 189.699 627.827 189.082C627.827 188.466 627.617 187.987 627.197 187.646C626.79 187.305 626.174 187.135 625.348 187.135H622.121V191.03ZM622.121 185.383H625.013C626.666 185.383 627.492 184.747 627.492 183.475C627.492 182.203 626.666 181.567 625.013 181.567H622.121V185.383ZM636.092 192.978C635.449 192.978 634.853 192.86 634.302 192.624C633.764 192.388 633.331 192.007 633.003 191.483C632.675 190.958 632.511 190.276 632.511 189.437V182.944H634.617V188.905C634.617 189.797 634.807 190.414 635.187 190.755C635.568 191.083 636.099 191.247 636.781 191.247C637.109 191.247 637.424 191.194 637.725 191.089C638.04 190.971 638.322 190.794 638.571 190.558C638.82 190.309 639.011 189.994 639.142 189.614C639.286 189.233 639.358 188.787 639.358 188.276V182.944H641.463V192.781H639.614L639.516 191.188C639.175 191.804 638.715 192.257 638.138 192.545C637.561 192.834 636.879 192.978 636.092 192.978ZM647.428 180.052V189.83C647.428 190.315 647.553 190.669 647.802 190.892C648.064 191.115 648.412 191.227 648.845 191.227C649.199 191.227 649.507 191.174 649.769 191.07C650.032 190.951 650.274 190.794 650.497 190.597L650.97 192.132C650.668 192.394 650.294 192.604 649.848 192.762C649.415 192.906 648.93 192.978 648.392 192.978C647.828 192.978 647.31 192.886 646.838 192.703C646.366 192.519 645.998 192.224 645.736 191.817C645.474 191.397 645.336 190.853 645.323 190.184V180.642L647.428 180.052ZM650.812 182.944V184.596H643.434V182.944H650.812ZM654.456 180.052V189.83C654.456 190.315 654.58 190.669 654.83 190.892C655.092 191.115 655.44 191.227 655.872 191.227C656.227 191.227 656.535 191.174 656.797 191.07C657.059 190.951 657.302 190.794 657.525 190.597L657.997 192.132C657.696 192.394 657.322 192.604 656.876 192.762C656.443 192.906 655.958 192.978 655.42 192.978C654.856 192.978 654.338 192.886 653.866 192.703C653.393 192.519 653.026 192.224 652.764 191.817C652.501 191.397 652.364 190.853 652.351 190.184V180.642L654.456 180.052ZM657.84 182.944V184.596H650.462V182.944H657.84ZM663.995 182.747C664.952 182.747 665.798 182.95 666.533 183.357C667.267 183.764 667.838 184.354 668.245 185.128C668.664 185.888 668.874 186.8 668.874 187.863C668.874 188.925 668.664 189.843 668.245 190.617C667.838 191.378 667.267 191.961 666.533 192.368C665.798 192.775 664.952 192.978 663.995 192.978C663.037 192.978 662.191 192.775 661.457 192.368C660.722 191.961 660.145 191.378 659.725 190.617C659.306 189.843 659.096 188.925 659.096 187.863C659.096 186.8 659.306 185.888 659.725 185.128C660.145 184.354 660.722 183.764 661.457 183.357C662.191 182.95 663.037 182.747 663.995 182.747ZM663.995 184.4C663.404 184.4 662.9 184.537 662.48 184.813C662.073 185.075 661.758 185.462 661.535 185.974C661.312 186.485 661.201 187.115 661.201 187.863C661.201 188.597 661.312 189.227 661.535 189.751C661.758 190.263 662.073 190.656 662.48 190.932C662.9 191.194 663.404 191.325 663.995 191.325C664.585 191.325 665.083 191.194 665.49 190.932C665.897 190.656 666.211 190.263 666.434 189.751C666.657 189.227 666.769 188.597 666.769 187.863C666.769 187.115 666.657 186.485 666.434 185.974C666.211 185.462 665.897 185.075 665.49 184.813C665.083 184.537 664.585 184.4 663.995 184.4ZM671.326 192.781V182.944H673.195L673.333 185.502L673.057 185.226C673.241 184.662 673.503 184.196 673.844 183.829C674.198 183.449 674.612 183.173 675.084 183.003C675.569 182.832 676.081 182.747 676.618 182.747C677.314 182.747 677.937 182.885 678.487 183.16C679.051 183.423 679.497 183.823 679.825 184.36C680.153 184.898 680.317 185.58 680.317 186.407V192.781H678.212V187.056C678.212 186.085 678.009 185.416 677.602 185.049C677.209 184.669 676.71 184.478 676.107 184.478C675.674 184.478 675.254 184.583 674.848 184.793C674.441 184.99 674.1 185.311 673.825 185.757C673.562 186.203 673.431 186.8 673.431 187.548V192.781H671.326Z" fill="#070F1F"/>
<rect x="597.654" y="158.582" width="104.693" height="54.3859" stroke="black" stroke-width="1.35965"/>
<rect x="718.662" y="158.582" width="104.693" height="54.3859" fill="white"/>
<path d="M741.063 192.781V179.796H746.178C747.739 179.796 748.88 180.111 749.602 180.74C750.323 181.37 750.684 182.242 750.684 183.357C750.684 184.039 750.487 184.649 750.094 185.187C749.7 185.711 749.123 186.046 748.362 186.19V186.21C749.202 186.341 749.851 186.689 750.31 187.253C750.782 187.803 751.018 188.446 751.018 189.181C751.018 190.296 750.612 191.174 749.798 191.817C748.985 192.46 747.805 192.781 746.257 192.781H741.063ZM743.129 191.03H746.355C747.182 191.03 747.798 190.86 748.205 190.519C748.625 190.178 748.834 189.699 748.834 189.082C748.834 188.466 748.625 187.987 748.205 187.646C747.798 187.305 747.182 187.135 746.355 187.135H743.129V191.03ZM743.129 185.383H746.021C747.674 185.383 748.5 184.747 748.5 183.475C748.5 182.203 747.674 181.567 746.021 181.567H743.129V185.383ZM757.1 192.978C756.457 192.978 755.86 192.86 755.31 192.624C754.772 192.388 754.339 192.007 754.011 191.483C753.683 190.958 753.519 190.276 753.519 189.437V182.944H755.624V188.905C755.624 189.797 755.815 190.414 756.195 190.755C756.575 191.083 757.107 191.247 757.789 191.247C758.117 191.247 758.431 191.194 758.733 191.089C759.048 190.971 759.33 190.794 759.579 190.558C759.828 190.309 760.018 189.994 760.15 189.614C760.294 189.233 760.366 188.787 760.366 188.276V182.944H762.471V192.781H760.622L760.523 191.188C760.182 191.804 759.723 192.257 759.146 192.545C758.569 192.834 757.887 192.978 757.1 192.978ZM768.436 180.052V189.83C768.436 190.315 768.561 190.669 768.81 190.892C769.072 191.115 769.42 191.227 769.853 191.227C770.207 191.227 770.515 191.174 770.777 191.07C771.04 190.951 771.282 190.794 771.505 190.597L771.977 192.132C771.676 192.394 771.302 192.604 770.856 192.762C770.423 192.906 769.938 192.978 769.4 192.978C768.836 192.978 768.318 192.886 767.846 192.703C767.374 192.519 767.006 192.224 766.744 191.817C766.482 191.397 766.344 190.853 766.331 190.184V180.642L768.436 180.052ZM771.82 182.944V184.596H764.442V182.944H771.82ZM775.464 180.052V189.83C775.464 190.315 775.588 190.669 775.837 190.892C776.1 191.115 776.447 191.227 776.88 191.227C777.234 191.227 777.543 191.174 777.805 191.07C778.067 190.951 778.31 190.794 778.533 190.597L779.005 192.132C778.703 192.394 778.33 192.604 777.884 192.762C777.451 192.906 776.965 192.978 776.428 192.978C775.864 192.978 775.346 192.886 774.873 192.703C774.401 192.519 774.034 192.224 773.772 191.817C773.509 191.397 773.372 190.853 773.358 190.184V180.642L775.464 180.052ZM778.848 182.944V184.596H771.47V182.944H778.848ZM785.003 182.747C785.96 182.747 786.806 182.95 787.541 183.357C788.275 183.764 788.846 184.354 789.252 185.128C789.672 185.888 789.882 186.8 789.882 187.863C789.882 188.925 789.672 189.843 789.252 190.617C788.846 191.378 788.275 191.961 787.541 192.368C786.806 192.775 785.96 192.978 785.003 192.978C784.045 192.978 783.199 192.775 782.464 192.368C781.73 191.961 781.153 191.378 780.733 190.617C780.313 189.843 780.104 188.925 780.104 187.863C780.104 186.8 780.313 185.888 780.733 185.128C781.153 184.354 781.73 183.764 782.464 183.357C783.199 182.95 784.045 182.747 785.003 182.747ZM785.003 184.4C784.412 184.4 783.907 184.537 783.488 184.813C783.081 185.075 782.766 185.462 782.543 185.974C782.32 186.485 782.209 187.115 782.209 187.863C782.209 188.597 782.32 189.227 782.543 189.751C782.766 190.263 783.081 190.656 783.488 190.932C783.907 191.194 784.412 191.325 785.003 191.325C785.593 191.325 786.091 191.194 786.498 190.932C786.904 190.656 787.219 190.263 787.442 189.751C787.665 189.227 787.777 188.597 787.777 187.863C787.777 187.115 787.665 186.485 787.442 185.974C787.219 185.462 786.904 185.075 786.498 184.813C786.091 184.537 785.593 184.4 785.003 184.4ZM792.334 192.781V182.944H794.203L794.34 185.502L794.065 185.226C794.249 184.662 794.511 184.196 794.852 183.829C795.206 183.449 795.619 183.173 796.092 183.003C796.577 182.832 797.088 182.747 797.626 182.747C798.321 182.747 798.944 182.885 799.495 183.16C800.059 183.423 800.505 183.823 800.833 184.36C801.161 184.898 801.325 185.58 801.325 186.407V192.781H799.22V187.056C799.22 186.085 799.017 185.416 798.61 185.049C798.216 184.669 797.718 184.478 797.115 184.478C796.682 184.478 796.262 184.583 795.855 184.793C795.449 184.99 795.108 185.311 794.832 185.757C794.57 186.203 794.439 186.8 794.439 187.548V192.781H792.334Z" fill="#0A8BEF"/>
<rect x="718.662" y="158.582" width="104.693" height="54.3859" stroke="#0A8BEF" stroke-width="1.35965"/>
<rect x="838.99" y="157.902" width="106.053" height="55.7456" rx="5.4386" fill="#E9F5FF"/>
<path d="M862.071 192.781V179.796H867.186C868.747 179.796 869.888 180.111 870.61 180.74C871.331 181.37 871.692 182.242 871.692 183.357C871.692 184.039 871.495 184.649 871.101 185.187C870.708 185.711 870.131 186.046 869.37 186.19V186.21C870.209 186.341 870.859 186.689 871.318 187.253C871.79 187.803 872.026 188.446 872.026 189.181C872.026 190.296 871.619 191.174 870.806 191.817C869.993 192.46 868.813 192.781 867.265 192.781H862.071ZM864.136 191.03H867.363C868.189 191.03 868.806 190.86 869.213 190.519C869.632 190.178 869.842 189.699 869.842 189.082C869.842 188.466 869.632 187.987 869.213 187.646C868.806 187.305 868.189 187.135 867.363 187.135H864.136V191.03ZM864.136 185.383H867.029C868.681 185.383 869.508 184.747 869.508 183.475C869.508 182.203 868.681 181.567 867.029 181.567H864.136V185.383ZM878.108 192.978C877.465 192.978 876.868 192.86 876.317 192.624C875.78 192.388 875.347 192.007 875.019 191.483C874.691 190.958 874.527 190.276 874.527 189.437V182.944H876.632V188.905C876.632 189.797 876.822 190.414 877.203 190.755C877.583 191.083 878.114 191.247 878.796 191.247C879.124 191.247 879.439 191.194 879.741 191.089C880.056 190.971 880.338 190.794 880.587 190.558C880.836 190.309 881.026 189.994 881.157 189.614C881.302 189.233 881.374 188.787 881.374 188.276V182.944H883.479V192.781H881.63L881.531 191.188C881.19 191.804 880.731 192.257 880.154 192.545C879.577 192.834 878.895 192.978 878.108 192.978ZM889.444 180.052V189.83C889.444 190.315 889.568 190.669 889.818 190.892C890.08 191.115 890.428 191.227 890.86 191.227C891.215 191.227 891.523 191.174 891.785 191.07C892.047 190.951 892.29 190.794 892.513 190.597L892.985 192.132C892.684 192.394 892.31 192.604 891.864 192.762C891.431 192.906 890.946 192.978 890.408 192.978C889.844 192.978 889.326 192.886 888.854 192.703C888.381 192.519 888.014 192.224 887.752 191.817C887.489 191.397 887.352 190.853 887.339 190.184V180.642L889.444 180.052ZM892.828 182.944V184.596H885.45V182.944H892.828ZM896.471 180.052V189.83C896.471 190.315 896.596 190.669 896.845 190.892C897.108 191.115 897.455 191.227 897.888 191.227C898.242 191.227 898.55 191.174 898.813 191.07C899.075 190.951 899.318 190.794 899.541 190.597L900.013 192.132C899.711 192.394 899.337 192.604 898.891 192.762C898.459 192.906 897.973 192.978 897.435 192.978C896.871 192.978 896.353 192.886 895.881 192.703C895.409 192.519 895.042 192.224 894.779 191.817C894.517 191.397 894.379 190.853 894.366 190.184V180.642L896.471 180.052ZM899.856 182.944V184.596H892.477V182.944H899.856ZM906.01 182.747C906.968 182.747 907.814 182.95 908.548 183.357C909.283 183.764 909.854 184.354 910.26 185.128C910.68 185.888 910.89 186.8 910.89 187.863C910.89 188.925 910.68 189.843 910.26 190.617C909.854 191.378 909.283 191.961 908.548 192.368C907.814 192.775 906.968 192.978 906.01 192.978C905.053 192.978 904.207 192.775 903.472 192.368C902.738 191.961 902.161 191.378 901.741 190.617C901.321 189.843 901.111 188.925 901.111 187.863C901.111 186.8 901.321 185.888 901.741 185.128C902.161 184.354 902.738 183.764 903.472 183.357C904.207 182.95 905.053 182.747 906.01 182.747ZM906.01 184.4C905.42 184.4 904.915 184.537 904.495 184.813C904.089 185.075 903.774 185.462 903.551 185.974C903.328 186.485 903.217 187.115 903.217 187.863C903.217 188.597 903.328 189.227 903.551 189.751C903.774 190.263 904.089 190.656 904.495 190.932C904.915 191.194 905.42 191.325 906.01 191.325C906.601 191.325 907.099 191.194 907.506 190.932C907.912 190.656 908.227 190.263 908.45 189.751C908.673 189.227 908.785 188.597 908.785 187.863C908.785 187.115 908.673 186.485 908.45 185.974C908.227 185.462 907.912 185.075 907.506 184.813C907.099 184.537 906.601 184.4 906.01 184.4ZM913.341 192.781V182.944H915.211L915.348 185.502L915.073 185.226C915.256 184.662 915.519 184.196 915.86 183.829C916.214 183.449 916.627 183.173 917.099 183.003C917.585 182.832 918.096 182.747 918.634 182.747C919.329 182.747 919.952 182.885 920.503 183.16C921.067 183.423 921.513 183.823 921.841 184.36C922.169 184.898 922.333 185.58 922.333 186.407V192.781H920.228V187.056C920.228 186.085 920.024 185.416 919.618 185.049C919.224 184.669 918.726 184.478 918.122 184.478C917.69 184.478 917.27 184.583 916.863 184.793C916.457 184.99 916.116 185.311 915.84 185.757C915.578 186.203 915.447 186.8 915.447 187.548V192.781H913.341Z" fill="#0A8BEF"/>
<defs>
<linearGradient id="paint0_linear_1926_184677" x1="-14.211" y1="-18.552" x2="105.022" y2="89.2331" gradientUnits="userSpaceOnUse">
<stop stop-color="#65B9F9"/>
<stop offset="1" stop-color="#017FE0"/>
</linearGradient>
<linearGradient id="paint1_linear_1926_184677" x1="464.88" y1="135.531" x2="590.822" y2="209.172" gradientUnits="userSpaceOnUse">
<stop stop-color="#333333"/>
<stop offset="0.390036" stop-color="#404040"/>
<stop offset="1" stop-color="#555555"/>
</linearGradient>
</defs>
</svg>
