<svg width="564" height="455" viewBox="0 0 564 455" fill="none" xmlns="http://www.w3.org/2000/svg">
<rect x="0.5" y="0.5" width="563" height="454" rx="5.5" fill="#FEFCFB" stroke="#E0E0E0"/>
<g clip-path="url(#clip0_1927_184472)">
<rect x="-10.3295" y="131.622" width="239.709" height="67.9" rx="1.15343" fill="white"/>
<g style="mix-blend-mode:luminosity">
<rect x="20.7998" y="148.535" width="34.0706" height="34.0706" rx="1.41961" fill="#FFF8D2"/>
<g opacity="0.4" clip-path="url(#clip1_1927_184472)">
<path d="M38.3577 161.225C38.7503 160.833 38.7507 160.196 38.358 159.803L36.7945 158.24C36.4017 157.847 35.7662 157.847 35.3731 158.24L33.415 160.198L36.3996 163.183L38.3577 161.225Z" fill="#2CA0FB"/>
<path d="M38.2859 168.973C36.4823 170.777 33.5129 169.616 33.5731 167.147C33.5915 166.396 33.9024 165.682 34.4485 165.136L35.6897 163.895L32.7051 160.91L31.35 162.265C28.644 164.971 28.6387 169.351 31.341 172.063C34.0418 174.773 38.4916 174.737 41.1958 172.033L42.5116 170.717L39.5271 167.732L38.2859 168.973Z" fill="#2CA0FB"/>
<path d="M43.6165 165.064C43.2244 164.671 42.5878 164.671 42.1954 165.064L40.2373 167.022L43.2218 170.007L45.1799 168.049C45.5727 167.656 45.573 167.02 45.1799 166.627L43.6165 165.064Z" fill="#2CA0FB"/>
<path d="M42.027 160.244C42.5362 160.372 43.046 160.883 43.1773 161.389C43.2473 161.659 43.5224 161.819 43.7898 161.75C44.0584 161.68 44.2198 161.406 44.1502 161.137C43.9274 160.277 43.1393 159.488 42.2732 159.269C42.0041 159.201 41.7309 159.364 41.6629 159.633C41.5949 159.902 41.7579 160.176 42.027 160.244V160.244Z" fill="#2CA0FB"/>
<path d="M46.336 160.478C45.9334 158.924 44.4862 157.479 42.9275 157.086C42.6584 157.018 42.3852 157.181 42.3172 157.45C42.2492 157.719 42.4123 157.992 42.6813 158.06C43.8834 158.364 45.0521 159.53 45.3631 160.73C45.433 161 45.7082 161.16 45.9755 161.09C46.2442 161.021 46.4055 160.746 46.336 160.478V160.478Z" fill="#2CA0FB"/>
</g>
</g>
<path d="M64.9329 161.585C65.5072 161.585 66.0043 161.692 66.4243 161.906C66.8528 162.112 67.1871 162.408 67.4271 162.794C67.6671 163.179 67.7871 163.638 67.7871 164.169C67.7871 164.701 67.6671 165.159 67.4271 165.545C67.1871 165.931 66.8528 166.23 66.4243 166.445C66.0043 166.65 65.5072 166.753 64.9329 166.753H62.9659V170.07H61.9373V161.585H64.9329ZM64.7786 165.789C65.4472 165.789 65.9357 165.652 66.2443 165.378C66.5528 165.095 66.7071 164.692 66.7071 164.169C66.7071 163.638 66.5528 163.235 66.2443 162.961C65.9357 162.686 65.4472 162.549 64.7786 162.549H62.9659V165.789H64.7786ZM68.8817 170.07V163.642H69.7174L69.8588 164.696C70.0388 164.302 70.3002 164.006 70.6431 163.809C70.9945 163.612 71.4187 163.513 71.9158 163.513C72.0273 163.513 72.1473 163.522 72.2758 163.539C72.413 163.556 72.5287 163.591 72.623 163.642L72.443 164.581C72.3487 164.546 72.2458 164.521 72.1344 164.503C72.023 164.486 71.8644 164.478 71.6587 164.478C71.393 164.478 71.123 164.555 70.8488 164.709C70.5831 164.863 70.3602 165.099 70.1802 165.416C70.0002 165.725 69.9102 166.119 69.9102 166.599V170.07H68.8817ZM75.8804 163.513C76.489 163.513 77.0246 163.646 77.4875 163.912C77.9589 164.178 78.3274 164.563 78.5931 165.069C78.8588 165.566 78.9917 166.162 78.9917 166.856C78.9917 167.55 78.8588 168.15 78.5931 168.656C78.3274 169.153 77.9589 169.535 77.4875 169.8C77.0246 170.066 76.489 170.199 75.8804 170.199C75.2804 170.199 74.7447 170.066 74.2733 169.8C73.8019 169.535 73.4334 169.153 73.1677 168.656C72.902 168.15 72.7691 167.55 72.7691 166.856C72.7691 166.162 72.902 165.566 73.1677 165.069C73.4334 164.563 73.8019 164.178 74.2733 163.912C74.7447 163.646 75.2804 163.513 75.8804 163.513ZM75.8804 164.401C75.4433 164.401 75.0704 164.499 74.7619 164.696C74.4533 164.893 74.2133 165.176 74.0419 165.545C73.8791 165.905 73.7976 166.342 73.7976 166.856C73.7976 167.362 73.8791 167.799 74.0419 168.168C74.2133 168.536 74.4533 168.819 74.7619 169.016C75.0704 169.213 75.4433 169.312 75.8804 169.312C76.3175 169.312 76.6904 169.213 76.9989 169.016C77.3075 168.819 77.5432 168.536 77.706 168.168C77.8775 167.799 77.9632 167.362 77.9632 166.856C77.9632 166.342 77.8775 165.905 77.706 165.545C77.5432 165.176 77.3075 164.893 76.9989 164.696C76.6904 164.499 76.3175 164.401 75.8804 164.401ZM82.7252 170.199C82.1938 170.199 81.7053 170.066 81.2596 169.8C80.8139 169.535 80.4582 169.153 80.1925 168.656C79.9268 168.15 79.7939 167.55 79.7939 166.856C79.7939 166.145 79.9354 165.541 80.2182 165.043C80.5011 164.546 80.8739 164.169 81.3367 163.912C81.7996 163.646 82.2967 163.513 82.8281 163.513C83.3595 163.513 83.818 163.651 84.2037 163.925C84.598 164.199 84.8594 164.563 84.988 165.018L84.8594 165.108V160.685H85.8879V170.07H84.988L84.898 168.515L85.0394 168.438C84.9794 168.815 84.8337 169.136 84.6023 169.402C84.3794 169.659 84.1009 169.856 83.7666 169.993C83.4409 170.13 83.0938 170.199 82.7252 170.199ZM82.8281 169.299C83.2395 169.299 83.5952 169.196 83.8952 168.99C84.2037 168.785 84.4394 168.493 84.6023 168.116C84.7737 167.73 84.8594 167.28 84.8594 166.766C84.8594 166.278 84.7737 165.858 84.6023 165.506C84.4394 165.155 84.208 164.885 83.908 164.696C83.6166 164.508 83.2738 164.413 82.8795 164.413C82.2281 164.413 81.7224 164.636 81.3624 165.082C81.0025 165.528 80.8225 166.119 80.8225 166.856C80.8225 167.593 80.9982 168.185 81.3496 168.63C81.701 169.076 82.1938 169.299 82.8281 169.299ZM89.8959 170.199C89.4845 170.199 89.0945 170.122 88.7259 169.967C88.366 169.813 88.0703 169.565 87.8388 169.222C87.616 168.87 87.5046 168.416 87.5046 167.859V163.642H88.5331V167.589C88.5331 168.24 88.6745 168.69 88.9574 168.939C89.2402 169.179 89.6388 169.299 90.153 169.299C90.393 169.299 90.6287 169.26 90.8601 169.183C91.0916 169.097 91.2973 168.969 91.4773 168.798C91.6658 168.618 91.8115 168.39 91.9144 168.116C92.0258 167.842 92.0815 167.516 92.0815 167.139V163.642H93.11V170.07H92.2101L92.1458 169.093C91.9229 169.479 91.6187 169.762 91.233 169.942C90.8559 170.113 90.4102 170.199 89.8959 170.199ZM97.4553 163.513C97.901 163.513 98.2909 163.582 98.6252 163.719C98.9681 163.856 99.2638 164.053 99.5123 164.311C99.7609 164.568 99.9623 164.872 100.117 165.223L99.1395 165.686C99.0023 165.275 98.7923 164.962 98.5095 164.748C98.2352 164.525 97.8752 164.413 97.4296 164.413C97.001 164.413 96.6324 164.512 96.3239 164.709C96.0153 164.898 95.7796 165.176 95.6168 165.545C95.4539 165.905 95.3725 166.342 95.3725 166.856C95.3725 167.362 95.4539 167.799 95.6168 168.168C95.7796 168.536 96.0153 168.819 96.3239 169.016C96.6324 169.205 97.001 169.299 97.4296 169.299C97.7638 169.299 98.051 169.247 98.2909 169.145C98.5395 169.042 98.7409 168.892 98.8952 168.695C99.0581 168.498 99.1695 168.258 99.2295 167.975L100.181 168.309C100.035 168.703 99.8337 169.042 99.5766 169.325C99.328 169.607 99.0238 169.826 98.6638 169.98C98.3124 170.126 97.9095 170.199 97.4553 170.199C96.8553 170.199 96.3196 170.066 95.8482 169.8C95.3768 169.535 95.0082 169.153 94.7425 168.656C94.4768 168.15 94.344 167.55 94.344 166.856C94.344 166.162 94.4768 165.566 94.7425 165.069C95.0082 164.563 95.3768 164.178 95.8482 163.912C96.3196 163.646 96.8553 163.513 97.4553 163.513ZM102.795 161.816V168.296C102.795 168.613 102.885 168.849 103.065 169.003C103.245 169.157 103.477 169.235 103.76 169.235C104.008 169.235 104.222 169.192 104.402 169.106C104.582 169.02 104.745 168.905 104.891 168.759L105.251 169.62C105.054 169.8 104.818 169.942 104.544 170.045C104.278 170.147 103.97 170.199 103.618 170.199C103.292 170.199 102.988 170.143 102.705 170.032C102.423 169.912 102.195 169.727 102.024 169.479C101.861 169.222 101.775 168.888 101.767 168.476V162.099L102.795 161.816ZM105.135 163.642V164.529H100.481V163.642H105.135ZM116.067 170.07H114.974L114.075 167.718H110.23L109.33 170.07H108.251L111.555 161.585H112.776L116.067 170.07ZM110.603 166.753H113.702L112.146 162.575L110.603 166.753ZM119.198 160.621C119.421 160.621 119.631 160.646 119.828 160.698C120.025 160.749 120.179 160.822 120.291 160.916L120.021 161.752C119.918 161.684 119.807 161.636 119.687 161.611C119.567 161.576 119.434 161.559 119.288 161.559C118.919 161.559 118.632 161.649 118.427 161.829C118.221 162.001 118.118 162.279 118.118 162.665V163.642V163.976V170.07H117.09V162.562C117.09 162.279 117.132 162.018 117.218 161.778C117.304 161.538 117.432 161.332 117.604 161.161C117.784 160.989 118.007 160.856 118.272 160.762C118.538 160.668 118.847 160.621 119.198 160.621ZM120.265 163.642V164.529H115.804V163.642H120.265ZM124.251 160.621C124.473 160.621 124.683 160.646 124.881 160.698C125.078 160.749 125.232 160.822 125.343 160.916L125.073 161.752C124.971 161.684 124.859 161.636 124.739 161.611C124.619 161.576 124.486 161.559 124.341 161.559C123.972 161.559 123.685 161.649 123.479 161.829C123.274 162.001 123.171 162.279 123.171 162.665V163.642V163.976V170.07H122.142V162.562C122.142 162.279 122.185 162.018 122.271 161.778C122.356 161.538 122.485 161.332 122.656 161.161C122.836 160.989 123.059 160.856 123.325 160.762C123.591 160.668 123.899 160.621 124.251 160.621ZM125.318 163.642V164.529H120.856V163.642H125.318ZM127.208 162.408C126.976 162.408 126.788 162.339 126.642 162.202C126.505 162.056 126.436 161.868 126.436 161.636C126.436 161.405 126.505 161.221 126.642 161.084C126.788 160.938 126.976 160.865 127.208 160.865C127.439 160.865 127.623 160.938 127.76 161.084C127.906 161.221 127.979 161.405 127.979 161.636C127.979 161.868 127.906 162.056 127.76 162.202C127.623 162.339 127.439 162.408 127.208 162.408ZM127.722 163.642V170.07H126.693V163.642H127.722ZM129.4 170.07V163.642H130.3L130.39 165.082L130.223 164.941C130.36 164.598 130.545 164.323 130.776 164.118C131.007 163.903 131.273 163.749 131.573 163.655C131.882 163.561 132.199 163.513 132.524 163.513C132.987 163.513 133.407 163.603 133.784 163.783C134.161 163.955 134.461 164.221 134.684 164.581C134.916 164.941 135.031 165.399 135.031 165.956V170.07H134.003V166.316C134.003 165.605 133.849 165.112 133.54 164.838C133.24 164.555 132.867 164.413 132.422 164.413C132.113 164.413 131.804 164.486 131.496 164.632C131.187 164.778 130.93 165.013 130.725 165.339C130.527 165.665 130.429 166.102 130.429 166.65V170.07H129.4ZM137.165 162.408C136.933 162.408 136.745 162.339 136.599 162.202C136.462 162.056 136.393 161.868 136.393 161.636C136.393 161.405 136.462 161.221 136.599 161.084C136.745 160.938 136.933 160.865 137.165 160.865C137.396 160.865 137.58 160.938 137.718 161.084C137.863 161.221 137.936 161.405 137.936 161.636C137.936 161.868 137.863 162.056 137.718 162.202C137.58 162.339 137.396 162.408 137.165 162.408ZM137.679 163.642V170.07H136.65V163.642H137.679ZM140.873 161.816V168.296C140.873 168.613 140.963 168.849 141.143 169.003C141.323 169.157 141.554 169.235 141.837 169.235C142.086 169.235 142.3 169.192 142.48 169.106C142.66 169.02 142.823 168.905 142.968 168.759L143.328 169.62C143.131 169.8 142.896 169.942 142.621 170.045C142.356 170.147 142.047 170.199 141.696 170.199C141.37 170.199 141.066 170.143 140.783 170.032C140.5 169.912 140.273 169.727 140.101 169.479C139.939 169.222 139.853 168.888 139.844 168.476V162.099L140.873 161.816ZM143.213 163.642V164.529H138.559V163.642H143.213ZM149.316 163.642L146.295 171.15C146.132 171.57 145.952 171.9 145.755 172.14C145.566 172.389 145.352 172.564 145.112 172.667C144.881 172.779 144.611 172.834 144.302 172.834C144.011 172.834 143.741 172.792 143.492 172.706C143.252 172.629 143.038 172.522 142.849 172.384L143.132 171.485C143.304 171.639 143.484 171.75 143.672 171.819C143.869 171.896 144.062 171.935 144.251 171.935C144.474 171.935 144.683 171.866 144.881 171.729C145.078 171.592 145.258 171.313 145.421 170.893L145.755 170.057L145.112 168.528L143.068 163.642H144.238L145.845 167.833L146.243 168.978L146.706 167.705L148.21 163.642H149.316ZM159.738 170.07H158.645L157.745 167.718H153.901L153.001 170.07H151.921L155.225 161.585H156.446L159.738 170.07ZM154.274 166.753H157.372L155.816 162.575L154.274 166.753ZM160.56 170.07V163.642H161.46L161.55 165.082L161.383 164.941C161.52 164.598 161.704 164.323 161.935 164.118C162.167 163.903 162.433 163.749 162.733 163.655C163.041 163.561 163.358 163.513 163.684 163.513C164.147 163.513 164.567 163.603 164.944 163.783C165.321 163.955 165.621 164.221 165.844 164.581C166.075 164.941 166.191 165.399 166.191 165.956V170.07H165.162V166.316C165.162 165.605 165.008 165.112 164.7 164.838C164.4 164.555 164.027 164.413 163.581 164.413C163.272 164.413 162.964 164.486 162.655 164.632C162.347 164.778 162.09 165.013 161.884 165.339C161.687 165.665 161.588 166.102 161.588 166.65V170.07H160.56ZM171.564 165.918C171.564 165.438 171.436 165.069 171.178 164.812C170.921 164.546 170.557 164.413 170.086 164.413C169.64 164.413 169.263 164.512 168.954 164.709C168.646 164.898 168.419 165.206 168.273 165.635L167.437 165.121C167.609 164.641 167.926 164.255 168.389 163.963C168.851 163.663 169.426 163.513 170.111 163.513C170.574 163.513 170.994 163.595 171.371 163.758C171.748 163.912 172.044 164.152 172.258 164.478C172.481 164.795 172.593 165.206 172.593 165.712V168.823C172.593 169.132 172.755 169.286 173.081 169.286C173.244 169.286 173.403 169.265 173.557 169.222L173.505 170.032C173.334 170.117 173.111 170.16 172.837 170.16C172.588 170.16 172.365 170.113 172.168 170.019C171.971 169.925 171.817 169.783 171.706 169.595C171.594 169.397 171.538 169.153 171.538 168.862V168.733L171.796 168.772C171.693 169.106 171.517 169.38 171.268 169.595C171.02 169.8 170.741 169.955 170.433 170.057C170.124 170.152 169.82 170.199 169.52 170.199C169.143 170.199 168.791 170.135 168.466 170.006C168.14 169.877 167.879 169.685 167.681 169.427C167.493 169.162 167.399 168.836 167.399 168.45C167.399 167.97 167.557 167.576 167.874 167.268C168.2 166.95 168.65 166.736 169.224 166.625L171.77 166.123V166.972L169.7 167.396C169.28 167.482 168.967 167.602 168.761 167.756C168.556 167.91 168.453 168.125 168.453 168.399C168.453 168.665 168.556 168.883 168.761 169.055C168.976 169.217 169.276 169.299 169.661 169.299C169.91 169.299 170.146 169.269 170.368 169.209C170.6 169.14 170.806 169.042 170.986 168.913C171.166 168.776 171.307 168.609 171.41 168.412C171.513 168.206 171.564 167.966 171.564 167.692V165.918ZM175.359 160.685V168.438C175.359 168.763 175.419 168.99 175.539 169.119C175.659 169.239 175.852 169.299 176.118 169.299C176.289 169.299 176.431 169.286 176.542 169.26C176.654 169.235 176.804 169.187 176.992 169.119L176.825 170.019C176.688 170.079 176.538 170.122 176.375 170.147C176.212 170.182 176.045 170.199 175.874 170.199C175.351 170.199 174.961 170.057 174.704 169.775C174.455 169.492 174.331 169.059 174.331 168.476V160.685H175.359ZM182.56 163.642L179.538 171.15C179.376 171.57 179.196 171.9 178.999 172.14C178.81 172.389 178.596 172.564 178.356 172.667C178.124 172.779 177.854 172.834 177.546 172.834C177.254 172.834 176.984 172.792 176.736 172.706C176.496 172.629 176.282 172.522 176.093 172.384L176.376 171.485C176.547 171.639 176.727 171.75 176.916 171.819C177.113 171.896 177.306 171.935 177.494 171.935C177.717 171.935 177.927 171.866 178.124 171.729C178.321 171.592 178.501 171.313 178.664 170.893L178.999 170.057L178.356 168.528L176.312 163.642H177.481L179.089 167.833L179.487 168.978L179.95 167.705L181.454 163.642H182.56ZM185.346 170.199C184.72 170.199 184.142 170.066 183.61 169.8C183.088 169.535 182.685 169.157 182.402 168.669L183.276 168.039C183.465 168.433 183.739 168.742 184.099 168.965C184.468 169.187 184.909 169.299 185.423 169.299C185.877 169.299 186.233 169.213 186.49 169.042C186.747 168.862 186.876 168.63 186.876 168.348C186.876 168.168 186.816 168.005 186.696 167.859C186.585 167.705 186.366 167.593 186.04 167.525L184.498 167.203C183.872 167.075 183.422 166.86 183.148 166.56C182.882 166.26 182.749 165.888 182.749 165.442C182.749 165.091 182.848 164.769 183.045 164.478C183.25 164.186 183.538 163.955 183.906 163.783C184.283 163.603 184.725 163.513 185.23 163.513C185.865 163.513 186.4 163.638 186.837 163.886C187.275 164.135 187.6 164.486 187.815 164.941L186.953 165.506C186.807 165.129 186.572 164.855 186.246 164.683C185.92 164.503 185.582 164.413 185.23 164.413C184.922 164.413 184.656 164.456 184.433 164.542C184.219 164.628 184.052 164.748 183.932 164.902C183.82 165.048 183.765 165.215 183.765 165.403C183.765 165.592 183.829 165.768 183.958 165.931C184.086 166.085 184.326 166.196 184.678 166.265L186.285 166.599C186.885 166.719 187.305 166.916 187.545 167.19C187.785 167.465 187.905 167.799 187.905 168.193C187.905 168.596 187.797 168.952 187.583 169.26C187.369 169.56 187.069 169.792 186.683 169.955C186.297 170.117 185.852 170.199 185.346 170.199ZM189.616 162.408C189.385 162.408 189.196 162.339 189.05 162.202C188.913 162.056 188.845 161.868 188.845 161.636C188.845 161.405 188.913 161.221 189.05 161.084C189.196 160.938 189.385 160.865 189.616 160.865C189.848 160.865 190.032 160.938 190.169 161.084C190.315 161.221 190.388 161.405 190.388 161.636C190.388 161.868 190.315 162.056 190.169 162.202C190.032 162.339 189.848 162.408 189.616 162.408ZM190.13 163.642V170.07H189.102V163.642H190.13ZM194.121 170.199C193.496 170.199 192.917 170.066 192.386 169.8C191.863 169.535 191.46 169.157 191.177 168.669L192.051 168.039C192.24 168.433 192.514 168.742 192.874 168.965C193.243 169.187 193.684 169.299 194.198 169.299C194.653 169.299 195.008 169.213 195.266 169.042C195.523 168.862 195.651 168.63 195.651 168.348C195.651 168.168 195.591 168.005 195.471 167.859C195.36 167.705 195.141 167.593 194.816 167.525L193.273 167.203C192.647 167.075 192.197 166.86 191.923 166.56C191.657 166.26 191.524 165.888 191.524 165.442C191.524 165.091 191.623 164.769 191.82 164.478C192.026 164.186 192.313 163.955 192.681 163.783C193.058 163.603 193.5 163.513 194.006 163.513C194.64 163.513 195.176 163.638 195.613 163.886C196.05 164.135 196.375 164.486 196.59 164.941L195.728 165.506C195.583 165.129 195.347 164.855 195.021 164.683C194.696 164.503 194.357 164.413 194.006 164.413C193.697 164.413 193.431 164.456 193.208 164.542C192.994 164.628 192.827 164.748 192.707 164.902C192.596 165.048 192.54 165.215 192.54 165.403C192.54 165.592 192.604 165.768 192.733 165.931C192.861 166.085 193.101 166.196 193.453 166.265L195.06 166.599C195.66 166.719 196.08 166.916 196.32 167.19C196.56 167.465 196.68 167.799 196.68 168.193C196.68 168.596 196.573 168.952 196.358 169.26C196.144 169.56 195.844 169.792 195.458 169.955C195.073 170.117 194.627 170.199 194.121 170.199Z" fill="#777777"/>
<rect x="-10.3295" y="131.622" width="239.709" height="67.9" rx="1.15343" stroke="#E6E6E6" stroke-width="0.532353"/>
<g filter="url(#filter0_d_1927_184472)">
<rect x="46.0918" y="221.383" width="380.607" height="107.974" rx="2.69934" fill="white"/>
<rect x="45.417" y="220.706" width="381.957" height="109.323" rx="3.37418" stroke="#B2DDFF" stroke-opacity="0.4" stroke-width="1.34967"/>
<rect x="67.6865" y="242.977" width="64.7842" height="64.7842" rx="2.69934" fill="#E5F3FF"/>
<g clip-path="url(#clip2_1927_184472)">
<path d="M101.076 267.099C101.823 266.353 101.823 265.143 101.077 264.397L98.1038 261.424C97.3568 260.677 96.1484 260.676 95.401 261.424L91.6777 265.148L97.3527 270.823L101.076 267.099Z" fill="#2CA0FB"/>
<path d="M100.939 281.832C97.5096 285.261 91.8633 283.054 91.9779 278.36C92.0129 276.932 92.604 275.573 93.6424 274.535L96.0024 272.175L90.3274 266.5L87.7508 269.076C82.6052 274.222 82.5953 282.55 87.7336 287.706C92.8691 292.86 101.33 292.791 106.472 287.65L108.974 285.147L103.299 279.472L100.939 281.832Z" fill="#2CA0FB"/>
<path d="M111.073 274.4C110.327 273.653 109.117 273.653 108.371 274.4L104.647 278.123L110.322 283.798L114.046 280.075C114.793 279.328 114.793 278.12 114.046 277.372L111.073 274.4Z" fill="#2CA0FB"/>
<path d="M108.053 265.23C109.021 265.474 109.99 266.444 110.24 267.408C110.373 267.921 110.896 268.225 111.405 268.093C111.915 267.961 112.222 267.439 112.09 266.928C111.666 265.294 110.168 263.793 108.521 263.377C108.009 263.248 107.49 263.558 107.36 264.069C107.231 264.581 107.541 265.101 108.053 265.23V265.23Z" fill="#2CA0FB"/>
<path d="M116.243 265.678C115.478 262.724 112.726 259.977 109.762 259.229C109.25 259.099 108.731 259.409 108.602 259.921C108.472 260.432 108.782 260.952 109.294 261.081C111.58 261.659 113.802 263.876 114.393 266.158C114.526 266.671 115.05 266.975 115.558 266.843C116.069 266.711 116.375 266.189 116.243 265.678V265.678Z" fill="#2CA0FB"/>
</g>
<path d="M149.712 269.4C150.556 269.4 151.286 269.558 151.904 269.873C152.534 270.175 153.025 270.609 153.378 271.176C153.73 271.743 153.907 272.417 153.907 273.198C153.907 273.979 153.73 274.653 153.378 275.22C153.025 275.787 152.534 276.228 151.904 276.543C151.286 276.845 150.556 276.996 149.712 276.996H146.821V281.871H145.309V269.4H149.712ZM149.485 275.579C150.468 275.579 151.186 275.377 151.639 274.974C152.093 274.559 152.319 273.967 152.319 273.198C152.319 272.417 152.093 271.825 151.639 271.422C151.186 271.019 150.468 270.817 149.485 270.817H146.821V275.579H149.485ZM155.209 281.871V272.423H156.437L156.645 273.973C156.91 273.393 157.294 272.959 157.798 272.669C158.314 272.379 158.938 272.234 159.668 272.234C159.832 272.234 160.008 272.247 160.197 272.272C160.399 272.297 160.569 272.348 160.708 272.423L160.443 273.803C160.304 273.752 160.153 273.715 159.99 273.689C159.826 273.664 159.593 273.652 159.29 273.652C158.9 273.652 158.503 273.765 158.1 273.992C157.709 274.218 157.382 274.565 157.117 275.031C156.853 275.484 156.721 276.064 156.721 276.769V281.871H155.209ZM165.189 272.234C166.083 272.234 166.87 272.43 167.551 272.82C168.243 273.211 168.785 273.778 169.176 274.521C169.566 275.251 169.761 276.127 169.761 277.147C169.761 278.168 169.566 279.049 169.176 279.793C168.785 280.523 168.243 281.084 167.551 281.474C166.87 281.865 166.083 282.06 165.189 282.06C164.307 282.06 163.519 281.865 162.827 281.474C162.134 281.084 161.592 280.523 161.202 279.793C160.811 279.049 160.616 278.168 160.616 277.147C160.616 276.127 160.811 275.251 161.202 274.521C161.592 273.778 162.134 273.211 162.827 272.82C163.519 272.43 164.307 272.234 165.189 272.234ZM165.189 273.538C164.546 273.538 163.998 273.683 163.545 273.973C163.091 274.263 162.738 274.678 162.487 275.22C162.247 275.749 162.128 276.391 162.128 277.147C162.128 277.89 162.247 278.533 162.487 279.075C162.738 279.616 163.091 280.032 163.545 280.322C163.998 280.611 164.546 280.756 165.189 280.756C165.831 280.756 166.379 280.611 166.832 280.322C167.286 280.032 167.632 279.616 167.872 279.075C168.124 278.533 168.25 277.89 168.25 277.147C168.25 276.391 168.124 275.749 167.872 275.22C167.632 274.678 167.286 274.263 166.832 273.973C166.379 273.683 165.831 273.538 165.189 273.538ZM174.942 282.06C174.161 282.06 173.443 281.865 172.788 281.474C172.133 281.084 171.61 280.523 171.22 279.793C170.829 279.049 170.634 278.168 170.634 277.147C170.634 276.102 170.842 275.214 171.257 274.483C171.673 273.752 172.221 273.198 172.901 272.82C173.582 272.43 174.312 272.234 175.093 272.234C175.874 272.234 176.548 272.436 177.115 272.839C177.694 273.242 178.079 273.778 178.268 274.445L178.079 274.577V268.077H179.59V281.871H178.268L178.135 279.585L178.343 279.471C178.255 280.026 178.041 280.498 177.701 280.889C177.373 281.266 176.964 281.556 176.473 281.758C175.994 281.959 175.484 282.06 174.942 282.06ZM175.093 280.737C175.698 280.737 176.221 280.586 176.661 280.284C177.115 279.982 177.461 279.553 177.701 278.999C177.953 278.432 178.079 277.771 178.079 277.015C178.079 276.297 177.953 275.68 177.701 275.163C177.461 274.647 177.121 274.25 176.68 273.973C176.252 273.696 175.748 273.557 175.169 273.557C174.211 273.557 173.468 273.885 172.939 274.54C172.41 275.195 172.145 276.064 172.145 277.147C172.145 278.231 172.404 279.1 172.92 279.755C173.437 280.41 174.161 280.737 175.093 280.737ZM185.174 282.06C184.57 282.06 183.997 281.947 183.455 281.72C182.926 281.493 182.491 281.128 182.151 280.624C181.824 280.108 181.66 279.44 181.66 278.621V272.423H183.171V278.224C183.171 279.182 183.379 279.843 183.795 280.208C184.211 280.561 184.796 280.737 185.552 280.737C185.905 280.737 186.251 280.681 186.591 280.567C186.932 280.441 187.234 280.252 187.498 280C187.776 279.736 187.99 279.402 188.141 278.999C188.305 278.596 188.387 278.117 188.387 277.563V272.423H189.898V281.871H188.576L188.481 280.435C188.154 281.002 187.706 281.418 187.139 281.682C186.585 281.934 185.93 282.06 185.174 282.06ZM195.978 272.234C196.633 272.234 197.206 272.335 197.697 272.537C198.201 272.738 198.636 273.028 199.001 273.406C199.367 273.784 199.663 274.231 199.889 274.748L198.453 275.428C198.252 274.823 197.943 274.363 197.527 274.048C197.124 273.721 196.595 273.557 195.94 273.557C195.31 273.557 194.769 273.702 194.315 273.992C193.862 274.269 193.515 274.678 193.276 275.22C193.037 275.749 192.917 276.391 192.917 277.147C192.917 277.89 193.037 278.533 193.276 279.075C193.515 279.616 193.862 280.032 194.315 280.322C194.769 280.599 195.31 280.737 195.94 280.737C196.431 280.737 196.853 280.662 197.206 280.511C197.571 280.359 197.867 280.139 198.094 279.849C198.334 279.56 198.497 279.207 198.586 278.791L199.984 279.282C199.77 279.862 199.474 280.359 199.096 280.775C198.73 281.191 198.283 281.512 197.754 281.739C197.238 281.953 196.646 282.06 195.978 282.06C195.096 282.06 194.309 281.865 193.616 281.474C192.923 281.084 192.382 280.523 191.991 279.793C191.601 279.049 191.405 278.168 191.405 277.147C191.405 276.127 191.601 275.251 191.991 274.521C192.382 273.778 192.923 273.211 193.616 272.82C194.309 272.43 195.096 272.234 195.978 272.234ZM203.52 269.74V279.264C203.52 279.73 203.652 280.076 203.917 280.303C204.181 280.53 204.521 280.643 204.937 280.643C205.302 280.643 205.617 280.58 205.882 280.454C206.146 280.328 206.386 280.158 206.6 279.944L207.129 281.21C206.839 281.474 206.493 281.682 206.09 281.833C205.699 281.984 205.246 282.06 204.729 282.06C204.251 282.06 203.803 281.978 203.388 281.814C202.972 281.638 202.638 281.367 202.386 281.002C202.147 280.624 202.021 280.133 202.008 279.528V270.156L203.52 269.74ZM206.959 272.423V273.727H200.119V272.423H206.959ZM222.413 281.871H220.807L219.484 278.413H213.834L212.512 281.871H210.924L215.781 269.4H217.576L222.413 281.871ZM214.382 276.996H218.936L216.65 270.855L214.382 276.996ZM226.708 267.983C227.035 267.983 227.344 268.021 227.633 268.096C227.923 268.172 228.15 268.279 228.314 268.418L227.917 269.646C227.766 269.545 227.602 269.476 227.426 269.438C227.249 269.388 227.054 269.362 226.84 269.362C226.298 269.362 225.876 269.495 225.574 269.759C225.271 270.011 225.12 270.42 225.12 270.987V272.423V272.915V281.871H223.609V270.836C223.609 270.42 223.672 270.036 223.798 269.684C223.924 269.331 224.113 269.029 224.365 268.777C224.629 268.525 224.957 268.329 225.347 268.191C225.738 268.052 226.191 267.983 226.708 267.983ZM228.276 272.423V273.727H221.719V272.423H228.276ZM234.133 267.983C234.461 267.983 234.77 268.021 235.059 268.096C235.349 268.172 235.576 268.279 235.74 268.418L235.343 269.646C235.192 269.545 235.028 269.476 234.851 269.438C234.675 269.388 234.48 269.362 234.266 269.362C233.724 269.362 233.302 269.495 233 269.759C232.697 270.011 232.546 270.42 232.546 270.987V272.423V272.915V281.871H231.035V270.836C231.035 270.42 231.098 270.036 231.224 269.684C231.35 269.331 231.538 269.029 231.79 268.777C232.055 268.525 232.382 268.329 232.773 268.191C233.163 268.052 233.617 267.983 234.133 267.983ZM235.702 272.423V273.727H229.145V272.423H235.702ZM238.479 270.609C238.139 270.609 237.862 270.509 237.648 270.307C237.446 270.093 237.346 269.816 237.346 269.476C237.346 269.136 237.446 268.865 237.648 268.663C237.862 268.449 238.139 268.342 238.479 268.342C238.819 268.342 239.09 268.449 239.292 268.663C239.506 268.865 239.613 269.136 239.613 269.476C239.613 269.816 239.506 270.093 239.292 270.307C239.09 270.509 238.819 270.609 238.479 270.609ZM239.235 272.423V281.871H237.724V272.423H239.235ZM241.395 281.871V272.423H242.718L242.85 274.54L242.605 274.332C242.806 273.828 243.077 273.425 243.417 273.123C243.757 272.808 244.148 272.581 244.589 272.442C245.042 272.304 245.508 272.234 245.987 272.234C246.667 272.234 247.285 272.367 247.839 272.631C248.393 272.883 248.834 273.274 249.161 273.803C249.502 274.332 249.672 275.006 249.672 275.825V281.871H248.16V276.354C248.16 275.308 247.933 274.584 247.48 274.181C247.039 273.765 246.491 273.557 245.836 273.557C245.382 273.557 244.929 273.664 244.475 273.878C244.022 274.092 243.644 274.439 243.342 274.918C243.052 275.396 242.907 276.039 242.907 276.845V281.871H241.395ZM252.501 270.609C252.16 270.609 251.883 270.509 251.669 270.307C251.468 270.093 251.367 269.816 251.367 269.476C251.367 269.136 251.468 268.865 251.669 268.663C251.883 268.449 252.16 268.342 252.501 268.342C252.841 268.342 253.111 268.449 253.313 268.663C253.527 268.865 253.634 269.136 253.634 269.476C253.634 269.816 253.527 270.093 253.313 270.307C253.111 270.509 252.841 270.609 252.501 270.609ZM253.256 272.423V281.871H251.745V272.423H253.256ZM257.644 269.74V279.264C257.644 279.73 257.776 280.076 258.041 280.303C258.305 280.53 258.645 280.643 259.061 280.643C259.426 280.643 259.741 280.58 260.006 280.454C260.27 280.328 260.51 280.158 260.724 279.944L261.253 281.21C260.963 281.474 260.617 281.682 260.214 281.833C259.823 281.984 259.37 282.06 258.853 282.06C258.374 282.06 257.927 281.978 257.512 281.814C257.096 281.638 256.762 281.367 256.51 281.002C256.271 280.624 256.145 280.133 256.132 279.528V270.156L257.644 269.74ZM261.083 272.423V273.727H254.243V272.423H261.083ZM269.747 272.423L265.306 283.458C265.067 284.076 264.802 284.561 264.513 284.913C264.235 285.279 263.921 285.537 263.568 285.688C263.228 285.852 262.831 285.934 262.377 285.934C261.949 285.934 261.552 285.871 261.187 285.745C260.834 285.631 260.519 285.474 260.242 285.272L260.658 283.95C260.91 284.176 261.174 284.34 261.452 284.441C261.741 284.554 262.025 284.611 262.302 284.611C262.629 284.611 262.938 284.51 263.228 284.309C263.517 284.107 263.782 283.698 264.021 283.08L264.513 281.852L263.568 279.604L260.563 272.423H262.283L264.645 278.583L265.231 280.265L265.911 278.394L268.122 272.423H269.747ZM284.45 281.871H282.844L281.521 278.413H275.872L274.549 281.871H272.962L277.818 269.4H279.613L284.45 281.871ZM276.42 276.996H280.973L278.687 270.855L276.42 276.996ZM285.352 281.871V272.423H286.675L286.807 274.54L286.561 274.332C286.763 273.828 287.034 273.425 287.374 273.123C287.714 272.808 288.104 272.581 288.545 272.442C288.999 272.304 289.465 272.234 289.944 272.234C290.624 272.234 291.241 272.367 291.795 272.631C292.35 272.883 292.791 273.274 293.118 273.803C293.458 274.332 293.628 275.006 293.628 275.825V281.871H292.117V276.354C292.117 275.308 291.89 274.584 291.436 274.181C290.995 273.765 290.447 273.557 289.792 273.557C289.339 273.557 288.885 273.664 288.432 273.878C287.978 274.092 287.601 274.439 287.298 274.918C287.009 275.396 286.864 276.039 286.864 276.845V281.871H285.352ZM301.219 275.768C301.219 275.062 301.03 274.521 300.652 274.143C300.274 273.752 299.739 273.557 299.046 273.557C298.391 273.557 297.836 273.702 297.383 273.992C296.929 274.269 296.596 274.722 296.382 275.352L295.153 274.596C295.405 273.891 295.871 273.324 296.552 272.896C297.232 272.455 298.076 272.234 299.084 272.234C299.764 272.234 300.381 272.354 300.935 272.593C301.49 272.82 301.924 273.173 302.239 273.652C302.567 274.118 302.73 274.722 302.73 275.466V280.038C302.73 280.492 302.97 280.718 303.448 280.718C303.688 280.718 303.921 280.687 304.148 280.624L304.072 281.814C303.82 281.94 303.492 282.003 303.089 282.003C302.724 282.003 302.397 281.934 302.107 281.796C301.817 281.657 301.59 281.449 301.427 281.172C301.263 280.882 301.181 280.523 301.181 280.095V279.906L301.559 279.963C301.408 280.454 301.149 280.857 300.784 281.172C300.419 281.474 300.009 281.701 299.556 281.852C299.102 281.991 298.655 282.06 298.214 282.06C297.66 282.06 297.144 281.966 296.665 281.777C296.186 281.588 295.802 281.304 295.512 280.926C295.235 280.536 295.097 280.057 295.097 279.49C295.097 278.785 295.33 278.205 295.796 277.752C296.274 277.286 296.936 276.971 297.78 276.807L301.521 276.07V277.317L298.479 277.941C297.862 278.067 297.402 278.243 297.1 278.47C296.797 278.697 296.646 279.012 296.646 279.415C296.646 279.805 296.797 280.126 297.1 280.378C297.414 280.618 297.855 280.737 298.422 280.737C298.788 280.737 299.134 280.693 299.461 280.605C299.802 280.504 300.104 280.359 300.368 280.171C300.633 279.969 300.841 279.723 300.992 279.434C301.143 279.131 301.219 278.779 301.219 278.375V275.768ZM306.49 268.077V279.471C306.49 279.95 306.578 280.284 306.755 280.473C306.931 280.649 307.214 280.737 307.605 280.737C307.857 280.737 308.065 280.718 308.228 280.681C308.392 280.643 308.613 280.574 308.89 280.473L308.644 281.796C308.443 281.884 308.222 281.947 307.983 281.984C307.744 282.035 307.498 282.06 307.246 282.06C306.478 282.06 305.904 281.852 305.526 281.436C305.161 281.021 304.978 280.385 304.978 279.528V268.077H306.49ZM316.766 272.423L312.326 283.458C312.087 284.076 311.822 284.561 311.532 284.913C311.255 285.279 310.94 285.537 310.587 285.688C310.247 285.852 309.851 285.934 309.397 285.934C308.969 285.934 308.572 285.871 308.207 285.745C307.854 285.631 307.539 285.474 307.262 285.272L307.678 283.95C307.93 284.176 308.194 284.34 308.471 284.441C308.761 284.554 309.044 284.611 309.321 284.611C309.649 284.611 309.958 284.51 310.247 284.309C310.537 284.107 310.802 283.698 311.041 283.08L311.532 281.852L310.587 279.604L307.583 272.423H309.303L311.665 278.583L312.25 280.265L312.931 278.394L315.141 272.423H316.766ZM320.555 282.06C319.635 282.06 318.785 281.865 318.004 281.474C317.236 281.084 316.643 280.53 316.228 279.811L317.513 278.886C317.79 279.465 318.193 279.919 318.722 280.246C319.264 280.574 319.912 280.737 320.668 280.737C321.336 280.737 321.859 280.611 322.237 280.359C322.614 280.095 322.803 279.755 322.803 279.339C322.803 279.075 322.715 278.835 322.539 278.621C322.375 278.394 322.054 278.231 321.575 278.13L319.308 277.657C318.388 277.468 317.727 277.154 317.324 276.713C316.933 276.272 316.738 275.724 316.738 275.069C316.738 274.552 316.883 274.08 317.173 273.652C317.475 273.223 317.897 272.883 318.439 272.631C318.993 272.367 319.642 272.234 320.385 272.234C321.317 272.234 322.104 272.417 322.747 272.782C323.389 273.148 323.868 273.664 324.183 274.332L322.917 275.163C322.703 274.609 322.356 274.206 321.877 273.954C321.399 273.689 320.901 273.557 320.385 273.557C319.931 273.557 319.541 273.62 319.213 273.746C318.898 273.872 318.653 274.048 318.476 274.275C318.313 274.489 318.231 274.735 318.231 275.012C318.231 275.289 318.325 275.547 318.514 275.787C318.703 276.014 319.056 276.177 319.572 276.278L321.934 276.769C322.816 276.946 323.433 277.235 323.786 277.639C324.139 278.042 324.315 278.533 324.315 279.112C324.315 279.704 324.158 280.227 323.843 280.681C323.528 281.122 323.087 281.462 322.52 281.701C321.953 281.94 321.298 282.06 320.555 282.06ZM326.524 270.609C326.184 270.609 325.907 270.509 325.693 270.307C325.491 270.093 325.39 269.816 325.39 269.476C325.39 269.136 325.491 268.865 325.693 268.663C325.907 268.449 326.184 268.342 326.524 268.342C326.864 268.342 327.135 268.449 327.337 268.663C327.551 268.865 327.658 269.136 327.658 269.476C327.658 269.816 327.551 270.093 327.337 270.307C327.135 270.509 326.864 270.609 326.524 270.609ZM327.28 272.423V281.871H325.768V272.423H327.28ZM332.839 282.06C331.919 282.06 331.069 281.865 330.288 281.474C329.52 281.084 328.928 280.53 328.512 279.811L329.797 278.886C330.074 279.465 330.477 279.919 331.006 280.246C331.548 280.574 332.196 280.737 332.952 280.737C333.62 280.737 334.143 280.611 334.521 280.359C334.899 280.095 335.087 279.755 335.087 279.339C335.087 279.075 334.999 278.835 334.823 278.621C334.659 278.394 334.338 278.231 333.859 278.13L331.592 277.657C330.672 277.468 330.011 277.154 329.608 276.713C329.217 276.272 329.022 275.724 329.022 275.069C329.022 274.552 329.167 274.08 329.457 273.652C329.759 273.223 330.181 272.883 330.723 272.631C331.277 272.367 331.926 272.234 332.669 272.234C333.601 272.234 334.388 272.417 335.031 272.782C335.673 273.148 336.152 273.664 336.467 274.332L335.201 275.163C334.987 274.609 334.64 274.206 334.162 273.954C333.683 273.689 333.185 273.557 332.669 273.557C332.215 273.557 331.825 273.62 331.497 273.746C331.182 273.872 330.937 274.048 330.76 274.275C330.597 274.489 330.515 274.735 330.515 275.012C330.515 275.289 330.609 275.547 330.798 275.787C330.987 276.014 331.34 276.177 331.856 276.278L334.218 276.769C335.1 276.946 335.717 277.235 336.07 277.639C336.423 278.042 336.599 278.533 336.599 279.112C336.599 279.704 336.442 280.227 336.127 280.681C335.812 281.122 335.371 281.462 334.804 281.701C334.237 281.94 333.582 282.06 332.839 282.06Z" fill="#333333"/>
<path d="M394.304 245.004C389.467 245.004 385.531 248.94 385.531 253.777C385.531 258.614 389.467 262.55 394.304 262.55C399.141 262.55 403.077 258.614 403.077 253.777C403.077 248.94 399.141 245.004 394.304 245.004ZM394.304 246.354C398.411 246.354 401.727 249.67 401.727 253.777C401.727 257.884 398.411 261.2 394.304 261.2C390.197 261.2 386.881 257.884 386.881 253.777C386.881 249.67 390.197 246.354 394.304 246.354ZM393.629 249.728V251.077H394.979V249.728H393.629ZM393.629 252.427V257.826H394.979V252.427H393.629Z" fill="#999999"/>
<rect x="46.4292" y="221.72" width="379.932" height="107.299" rx="2.36192" stroke="#49AFFD" stroke-width="0.674835"/>
</g>
<g filter="url(#filter1_d_1927_184472)">
<rect x="244.493" y="120.156" width="280.698" height="79.6306" rx="1.99076" fill="white"/>
<rect x="260.419" y="136.082" width="47.7783" height="47.7783" rx="1.99076" fill="#E5F3FF"/>
<g clip-path="url(#clip3_1927_184472)">
<path d="M285.044 153.876C285.594 153.326 285.595 152.434 285.044 151.883L282.852 149.691C282.301 149.14 281.409 149.139 280.858 149.691L278.112 152.437L282.298 156.622L285.044 153.876Z" fill="#2CA0FB"/>
<path d="M284.942 164.745C282.413 167.274 278.249 165.646 278.333 162.184C278.359 161.131 278.795 160.129 279.561 159.363L281.301 157.623L277.116 153.438L275.216 155.337C271.421 159.132 271.414 165.274 275.203 169.077C278.99 172.878 285.231 172.827 289.023 169.035L290.868 167.19L286.683 163.005L284.942 164.745Z" fill="#2CA0FB"/>
<path d="M292.418 159.265C291.869 158.714 290.976 158.714 290.426 159.265L287.68 162.011L291.865 166.196L294.611 163.45C295.162 162.899 295.162 162.008 294.611 161.457L292.418 159.265Z" fill="#2CA0FB"/>
<path d="M290.189 152.501C290.903 152.682 291.618 153.397 291.802 154.108C291.9 154.486 292.286 154.71 292.66 154.613C293.037 154.515 293.264 154.131 293.166 153.754C292.853 152.549 291.748 151.442 290.534 151.135C290.156 151.04 289.773 151.268 289.678 151.645C289.583 152.023 289.811 152.406 290.189 152.501V152.501Z" fill="#2CA0FB"/>
<path d="M296.232 152.829C295.667 150.651 293.638 148.624 291.452 148.072C291.074 147.977 290.691 148.206 290.596 148.583C290.501 148.96 290.729 149.343 291.107 149.439C292.792 149.865 294.431 151.5 294.867 153.183C294.965 153.561 295.351 153.785 295.726 153.688C296.103 153.591 296.329 153.206 296.232 152.829V152.829Z" fill="#2CA0FB"/>
</g>
<path d="M320.912 155.818C321.535 155.818 322.073 155.934 322.529 156.167C322.993 156.39 323.355 156.71 323.616 157.128C323.876 157.546 324.006 158.043 324.006 158.619C324.006 159.195 323.876 159.692 323.616 160.11C323.355 160.528 322.993 160.854 322.529 161.086C322.073 161.309 321.535 161.42 320.912 161.42H318.78V165.016H317.665V155.818H320.912ZM320.745 160.375C321.47 160.375 321.999 160.227 322.334 159.929C322.668 159.623 322.835 159.186 322.835 158.619C322.835 158.043 322.668 157.607 322.334 157.309C321.999 157.012 321.47 156.863 320.745 156.863H318.78V160.375H320.745ZM324.966 165.016V158.048H325.872L326.025 159.191C326.22 158.763 326.504 158.443 326.875 158.229C327.256 158.015 327.716 157.909 328.255 157.909C328.376 157.909 328.506 157.918 328.645 157.936C328.794 157.955 328.919 157.992 329.021 158.048L328.826 159.065C328.724 159.028 328.613 159 328.492 158.982C328.371 158.963 328.199 158.954 327.976 158.954C327.688 158.954 327.396 159.037 327.098 159.205C326.81 159.372 326.569 159.627 326.374 159.971C326.179 160.305 326.081 160.733 326.081 161.253V165.016H324.966ZM332.326 157.909C332.986 157.909 333.566 158.053 334.068 158.341C334.579 158.629 334.979 159.047 335.267 159.595C335.555 160.134 335.699 160.779 335.699 161.532C335.699 162.284 335.555 162.935 335.267 163.483C334.979 164.022 334.579 164.435 334.068 164.723C333.566 165.011 332.986 165.155 332.326 165.155C331.676 165.155 331.095 165.011 330.584 164.723C330.073 164.435 329.674 164.022 329.386 163.483C329.098 162.935 328.954 162.284 328.954 161.532C328.954 160.779 329.098 160.134 329.386 159.595C329.674 159.047 330.073 158.629 330.584 158.341C331.095 158.053 331.676 157.909 332.326 157.909ZM332.326 158.87C331.852 158.87 331.448 158.977 331.114 159.191C330.779 159.404 330.519 159.711 330.333 160.11C330.157 160.501 330.069 160.974 330.069 161.532C330.069 162.08 330.157 162.554 330.333 162.953C330.519 163.353 330.779 163.659 331.114 163.873C331.448 164.087 331.852 164.193 332.326 164.193C332.8 164.193 333.204 164.087 333.539 163.873C333.873 163.659 334.128 163.353 334.305 162.953C334.491 162.554 334.584 162.08 334.584 161.532C334.584 160.974 334.491 160.501 334.305 160.11C334.128 159.711 333.873 159.404 333.539 159.191C333.204 158.977 332.8 158.87 332.326 158.87ZM339.519 165.155C338.943 165.155 338.414 165.011 337.931 164.723C337.448 164.435 337.062 164.022 336.774 163.483C336.486 162.935 336.342 162.284 336.342 161.532C336.342 160.761 336.495 160.106 336.802 159.567C337.109 159.028 337.513 158.619 338.014 158.341C338.516 158.053 339.055 157.909 339.631 157.909C340.207 157.909 340.704 158.057 341.122 158.355C341.549 158.652 341.833 159.047 341.972 159.539L341.833 159.637V154.843H342.947V165.016H341.972L341.874 163.329L342.028 163.246C341.963 163.655 341.805 164.003 341.554 164.291C341.312 164.57 341.01 164.783 340.648 164.932C340.295 165.081 339.919 165.155 339.519 165.155ZM339.631 164.18C340.077 164.18 340.462 164.068 340.787 163.845C341.122 163.622 341.377 163.306 341.554 162.897C341.74 162.479 341.833 161.992 341.833 161.434C341.833 160.905 341.74 160.449 341.554 160.069C341.377 159.688 341.127 159.395 340.801 159.191C340.486 158.986 340.114 158.884 339.687 158.884C338.981 158.884 338.432 159.126 338.042 159.609C337.652 160.092 337.457 160.733 337.457 161.532C337.457 162.331 337.647 162.972 338.028 163.455C338.409 163.938 338.943 164.18 339.631 164.18ZM347.066 165.155C346.62 165.155 346.197 165.071 345.798 164.904C345.407 164.737 345.087 164.468 344.836 164.096C344.594 163.715 344.474 163.223 344.474 162.619V158.048H345.589V162.326C345.589 163.032 345.742 163.52 346.048 163.789C346.355 164.049 346.787 164.18 347.344 164.18C347.605 164.18 347.86 164.138 348.111 164.054C348.362 163.961 348.585 163.822 348.78 163.636C348.984 163.441 349.142 163.195 349.254 162.897C349.374 162.6 349.435 162.247 349.435 161.838V158.048H350.55V165.016H349.574L349.504 163.957C349.263 164.375 348.933 164.681 348.515 164.876C348.106 165.062 347.623 165.155 347.066 165.155ZM355.033 157.909C355.516 157.909 355.939 157.983 356.301 158.132C356.673 158.28 356.994 158.494 357.263 158.773C357.532 159.051 357.751 159.381 357.918 159.762L356.859 160.264C356.71 159.818 356.483 159.479 356.176 159.246C355.879 159.005 355.489 158.884 355.005 158.884C354.541 158.884 354.141 158.991 353.807 159.205C353.473 159.409 353.217 159.711 353.041 160.11C352.864 160.501 352.776 160.974 352.776 161.532C352.776 162.08 352.864 162.554 353.041 162.953C353.217 163.353 353.473 163.659 353.807 163.873C354.141 164.077 354.541 164.18 355.005 164.18C355.368 164.18 355.679 164.124 355.939 164.012C356.209 163.901 356.427 163.738 356.594 163.525C356.771 163.311 356.891 163.051 356.956 162.744L357.988 163.106C357.83 163.534 357.611 163.901 357.333 164.207C357.063 164.514 356.733 164.751 356.343 164.918C355.962 165.076 355.526 165.155 355.033 165.155C354.383 165.155 353.802 165.011 353.291 164.723C352.78 164.435 352.381 164.022 352.093 163.483C351.805 162.935 351.661 162.284 351.661 161.532C351.661 160.779 351.805 160.134 352.093 159.595C352.381 159.047 352.78 158.629 353.291 158.341C353.802 158.053 354.383 157.909 355.033 157.909ZM360.596 156.069V163.093C360.596 163.436 360.693 163.692 360.888 163.859C361.083 164.026 361.334 164.11 361.641 164.11C361.91 164.11 362.142 164.063 362.337 163.97C362.533 163.878 362.709 163.752 362.867 163.594L363.257 164.528C363.043 164.723 362.788 164.876 362.491 164.988C362.203 165.099 361.868 165.155 361.487 165.155C361.134 165.155 360.805 165.095 360.498 164.974C360.191 164.844 359.945 164.644 359.759 164.375C359.583 164.096 359.49 163.734 359.481 163.288V156.376L360.596 156.069ZM363.132 158.048V159.009H358.087V158.048H363.132ZM374.529 165.016H373.345L372.369 162.465H368.202L367.227 165.016H366.056L369.638 155.818H370.962L374.529 165.016ZM368.607 161.42H371.965L370.279 156.891L368.607 161.42ZM377.696 154.773C377.938 154.773 378.166 154.801 378.379 154.857C378.593 154.912 378.76 154.991 378.881 155.094L378.588 155.999C378.477 155.925 378.356 155.874 378.226 155.846C378.096 155.809 377.952 155.79 377.794 155.79C377.394 155.79 377.083 155.888 376.86 156.083C376.637 156.269 376.526 156.571 376.526 156.989V158.048V158.41V165.016H375.411V156.877C375.411 156.571 375.457 156.287 375.55 156.027C375.643 155.767 375.783 155.544 375.968 155.358C376.164 155.173 376.405 155.029 376.693 154.926C376.981 154.824 377.316 154.773 377.696 154.773ZM378.853 158.048V159.009H374.017V158.048H378.853ZM383.173 154.773C383.415 154.773 383.642 154.801 383.856 154.857C384.07 154.912 384.237 154.991 384.358 155.094L384.065 155.999C383.953 155.925 383.833 155.874 383.703 155.846C383.572 155.809 383.428 155.79 383.271 155.79C382.871 155.79 382.56 155.888 382.337 156.083C382.114 156.269 382.002 156.571 382.002 156.989V158.048V158.41V165.016H380.888V156.877C380.888 156.571 380.934 156.287 381.027 156.027C381.12 155.767 381.259 155.544 381.445 155.358C381.64 155.173 381.882 155.029 382.17 154.926C382.458 154.824 382.792 154.773 383.173 154.773ZM384.33 158.048V159.009H379.494V158.048H384.33ZM386.378 156.71C386.127 156.71 385.923 156.636 385.765 156.487C385.616 156.329 385.542 156.125 385.542 155.874C385.542 155.623 385.616 155.423 385.765 155.275C385.923 155.117 386.127 155.038 386.378 155.038C386.629 155.038 386.829 155.117 386.977 155.275C387.135 155.423 387.214 155.623 387.214 155.874C387.214 156.125 387.135 156.329 386.977 156.487C386.829 156.636 386.629 156.71 386.378 156.71ZM386.936 158.048V165.016H385.821V158.048H386.936ZM388.529 165.016V158.048H389.504L389.602 159.609L389.421 159.455C389.569 159.084 389.769 158.787 390.02 158.564C390.271 158.331 390.559 158.164 390.884 158.062C391.218 157.96 391.562 157.909 391.915 157.909C392.417 157.909 392.872 158.006 393.281 158.201C393.689 158.387 394.015 158.675 394.256 159.065C394.507 159.455 394.632 159.952 394.632 160.556V165.016H393.518V160.947C393.518 160.175 393.35 159.641 393.016 159.344C392.691 159.037 392.287 158.884 391.804 158.884C391.469 158.884 391.135 158.963 390.8 159.121C390.466 159.279 390.187 159.534 389.964 159.887C389.75 160.24 389.644 160.714 389.644 161.309V165.016H388.529ZM396.719 156.71C396.468 156.71 396.264 156.636 396.106 156.487C395.957 156.329 395.883 156.125 395.883 155.874C395.883 155.623 395.957 155.423 396.106 155.275C396.264 155.117 396.468 155.038 396.719 155.038C396.97 155.038 397.169 155.117 397.318 155.275C397.476 155.423 397.555 155.623 397.555 155.874C397.555 156.125 397.476 156.329 397.318 156.487C397.169 156.636 396.97 156.71 396.719 156.71ZM397.276 158.048V165.016H396.161V158.048H397.276ZM400.512 156.069V163.093C400.512 163.436 400.609 163.692 400.805 163.859C401 164.026 401.25 164.11 401.557 164.11C401.826 164.11 402.059 164.063 402.254 163.97C402.449 163.878 402.625 163.752 402.783 163.594L403.174 164.528C402.96 164.723 402.704 164.876 402.407 164.988C402.119 165.099 401.785 165.155 401.404 165.155C401.051 165.155 400.721 165.095 400.414 164.974C400.108 164.844 399.862 164.644 399.676 164.375C399.499 164.096 399.406 163.734 399.397 163.288V156.376L400.512 156.069ZM403.048 158.048V159.009H398.004V158.048H403.048ZM409.438 158.048L406.163 166.186C405.986 166.641 405.791 166.999 405.578 167.259C405.373 167.529 405.141 167.719 404.881 167.831C404.63 167.951 404.337 168.012 404.003 168.012C403.687 168.012 403.394 167.965 403.125 167.872C402.865 167.789 402.633 167.673 402.428 167.524L402.735 166.549C402.921 166.716 403.116 166.837 403.32 166.911C403.534 166.994 403.743 167.036 403.947 167.036C404.189 167.036 404.416 166.962 404.63 166.813C404.844 166.665 405.039 166.363 405.215 165.907L405.578 165.002L404.881 163.343L402.665 158.048H403.933L405.675 162.591L406.107 163.831L406.609 162.452L408.239 158.048H409.438ZM420.282 165.016H419.097L418.122 162.465H413.955L412.979 165.016H411.809L415.39 155.818H416.714L420.282 165.016ZM414.359 161.42H417.718L416.031 156.891L414.359 161.42ZM420.947 165.016V158.048H421.922L422.02 159.609L421.839 159.455C421.987 159.084 422.187 158.787 422.438 158.564C422.689 158.331 422.977 158.164 423.302 158.062C423.636 157.96 423.98 157.909 424.333 157.909C424.835 157.909 425.29 158.006 425.699 158.201C426.107 158.387 426.433 158.675 426.674 159.065C426.925 159.455 427.05 159.952 427.05 160.556V165.016H425.936V160.947C425.936 160.175 425.768 159.641 425.434 159.344C425.109 159.037 424.705 158.884 424.222 158.884C423.887 158.884 423.553 158.963 423.218 159.121C422.884 159.279 422.605 159.534 422.382 159.887C422.168 160.24 422.062 160.714 422.062 161.309V165.016H420.947ZM432.648 160.515C432.648 159.994 432.509 159.595 432.23 159.316C431.952 159.028 431.557 158.884 431.046 158.884C430.563 158.884 430.154 158.991 429.82 159.205C429.485 159.409 429.239 159.743 429.081 160.208L428.175 159.651C428.361 159.13 428.705 158.712 429.206 158.396C429.708 158.071 430.33 157.909 431.074 157.909C431.575 157.909 432.031 157.997 432.439 158.173C432.848 158.341 433.169 158.601 433.401 158.954C433.642 159.297 433.763 159.743 433.763 160.292V163.664C433.763 163.998 433.94 164.166 434.293 164.166C434.469 164.166 434.641 164.142 434.808 164.096L434.753 164.974C434.567 165.067 434.325 165.113 434.028 165.113C433.759 165.113 433.517 165.062 433.303 164.96C433.09 164.858 432.922 164.704 432.802 164.5C432.681 164.286 432.621 164.022 432.621 163.706V163.566L432.899 163.608C432.788 163.97 432.597 164.268 432.328 164.5C432.058 164.723 431.757 164.89 431.422 165.002C431.088 165.104 430.758 165.155 430.433 165.155C430.024 165.155 429.643 165.085 429.29 164.946C428.937 164.807 428.654 164.598 428.44 164.319C428.236 164.031 428.133 163.678 428.133 163.26C428.133 162.74 428.305 162.312 428.649 161.978C429.002 161.634 429.49 161.402 430.112 161.281L432.871 160.737V161.657L430.628 162.117C430.173 162.21 429.833 162.34 429.61 162.507C429.388 162.674 429.276 162.907 429.276 163.204C429.276 163.492 429.388 163.729 429.61 163.915C429.843 164.091 430.168 164.18 430.586 164.18C430.855 164.18 431.111 164.147 431.352 164.082C431.603 164.008 431.826 163.901 432.021 163.761C432.216 163.613 432.37 163.432 432.481 163.218C432.593 162.995 432.648 162.735 432.648 162.438V160.515ZM436.536 154.843V163.246C436.536 163.599 436.601 163.845 436.731 163.984C436.861 164.114 437.07 164.18 437.358 164.18C437.544 164.18 437.697 164.166 437.818 164.138C437.939 164.11 438.101 164.059 438.306 163.984L438.125 164.96C437.976 165.025 437.813 165.071 437.637 165.099C437.46 165.136 437.279 165.155 437.093 165.155C436.527 165.155 436.104 165.002 435.825 164.695C435.556 164.389 435.421 163.919 435.421 163.288V154.843H436.536ZM444.115 158.048L440.84 166.186C440.663 166.641 440.468 166.999 440.255 167.259C440.05 167.529 439.818 167.719 439.558 167.831C439.307 167.951 439.014 168.012 438.68 168.012C438.364 168.012 438.071 167.965 437.802 167.872C437.542 167.789 437.31 167.673 437.105 167.524L437.412 166.549C437.598 166.716 437.793 166.837 437.997 166.911C438.211 166.994 438.42 167.036 438.624 167.036C438.866 167.036 439.093 166.962 439.307 166.813C439.521 166.665 439.716 166.363 439.892 165.907L440.255 165.002L439.558 163.343L437.342 158.048H438.61L440.352 162.591L440.784 163.831L441.286 162.452L442.916 158.048H444.115ZM446.909 165.155C446.231 165.155 445.604 165.011 445.028 164.723C444.461 164.435 444.024 164.026 443.718 163.497L444.665 162.814C444.87 163.241 445.167 163.576 445.557 163.817C445.957 164.059 446.435 164.18 446.992 164.18C447.485 164.18 447.87 164.087 448.149 163.901C448.428 163.706 448.567 163.455 448.567 163.148C448.567 162.953 448.502 162.777 448.372 162.619C448.251 162.452 448.014 162.331 447.661 162.256L445.989 161.908C445.311 161.769 444.823 161.536 444.526 161.211C444.238 160.886 444.094 160.482 444.094 159.999C444.094 159.618 444.201 159.27 444.414 158.954C444.637 158.638 444.949 158.387 445.348 158.201C445.757 158.006 446.235 157.909 446.783 157.909C447.471 157.909 448.051 158.043 448.525 158.313C448.999 158.582 449.352 158.963 449.584 159.455L448.651 160.069C448.493 159.66 448.237 159.363 447.884 159.177C447.531 158.982 447.164 158.884 446.783 158.884C446.449 158.884 446.161 158.931 445.919 159.023C445.687 159.116 445.506 159.246 445.376 159.414C445.255 159.572 445.195 159.753 445.195 159.957C445.195 160.161 445.264 160.352 445.404 160.528C445.543 160.696 445.803 160.816 446.184 160.891L447.926 161.253C448.576 161.383 449.032 161.597 449.292 161.894C449.552 162.191 449.682 162.554 449.682 162.981C449.682 163.418 449.566 163.803 449.334 164.138C449.101 164.463 448.776 164.714 448.358 164.89C447.94 165.067 447.457 165.155 446.909 165.155ZM451.311 156.71C451.06 156.71 450.856 156.636 450.698 156.487C450.549 156.329 450.475 156.125 450.475 155.874C450.475 155.623 450.549 155.423 450.698 155.275C450.856 155.117 451.06 155.038 451.311 155.038C451.562 155.038 451.762 155.117 451.91 155.275C452.068 155.423 452.147 155.623 452.147 155.874C452.147 156.125 452.068 156.329 451.91 156.487C451.762 156.636 451.562 156.71 451.311 156.71ZM451.869 158.048V165.016H450.754V158.048H451.869ZM455.968 165.155C455.29 165.155 454.663 165.011 454.087 164.723C453.52 164.435 453.084 164.026 452.777 163.497L453.725 162.814C453.929 163.241 454.226 163.576 454.617 163.817C455.016 164.059 455.495 164.18 456.052 164.18C456.544 164.18 456.93 164.087 457.209 163.901C457.487 163.706 457.627 163.455 457.627 163.148C457.627 162.953 457.562 162.777 457.432 162.619C457.311 162.452 457.074 162.331 456.721 162.256L455.049 161.908C454.37 161.769 453.883 161.536 453.585 161.211C453.297 160.886 453.153 160.482 453.153 159.999C453.153 159.618 453.26 159.27 453.474 158.954C453.697 158.638 454.008 158.387 454.408 158.201C454.816 158.006 455.295 157.909 455.843 157.909C456.53 157.909 457.111 158.043 457.585 158.313C458.059 158.582 458.412 158.963 458.644 159.455L457.71 160.069C457.552 159.66 457.297 159.363 456.944 159.177C456.591 158.982 456.224 158.884 455.843 158.884C455.508 158.884 455.22 158.931 454.979 159.023C454.747 159.116 454.565 159.246 454.435 159.414C454.315 159.572 454.254 159.753 454.254 159.957C454.254 160.161 454.324 160.352 454.463 160.528C454.603 160.696 454.863 160.816 455.244 160.891L456.986 161.253C457.636 161.383 458.091 161.597 458.351 161.894C458.611 162.191 458.741 162.554 458.741 162.981C458.741 163.418 458.625 163.803 458.393 164.138C458.161 164.463 457.836 164.714 457.418 164.89C457 165.067 456.516 165.155 455.968 165.155Z" fill="#333333"/>
<path d="M501.303 137.574C497.736 137.574 494.833 140.477 494.833 144.044C494.833 147.612 497.736 150.514 501.303 150.514C504.87 150.514 507.773 147.612 507.773 144.044C507.773 140.477 504.87 137.574 501.303 137.574ZM501.303 138.57C504.332 138.57 506.778 141.015 506.778 144.044C506.778 147.073 504.332 149.519 501.303 149.519C498.274 149.519 495.828 147.073 495.828 144.044C495.828 141.015 498.274 138.57 501.303 138.57ZM500.805 141.058V142.053H501.801V141.058H500.805ZM500.805 143.049V147.03H501.801V143.049H500.805Z" fill="#999999"/>
<rect x="244.742" y="120.405" width="280.2" height="79.1329" rx="1.74192" stroke="#49AFFD" stroke-width="0.497691"/>
</g>
<rect x="449.946" y="220.335" width="342.209" height="96.645" rx="2.12741" fill="white"/>
<rect x="469.093" y="239.48" width="58.3517" height="58.3517" rx="2.43132" fill="#E5F3FF"/>
<g clip-path="url(#clip4_1927_184472)">
<path d="M499.168 261.21C499.841 260.539 499.841 259.449 499.169 258.776L496.491 256.098C495.818 255.426 494.73 255.425 494.057 256.098L490.703 259.453L495.815 264.564L499.168 261.21Z" fill="#2CA0FB"/>
<path d="M499.044 274.481C495.955 277.57 490.869 275.583 490.972 271.354C491.004 270.068 491.536 268.844 492.471 267.909L494.597 265.783L489.486 260.672L487.165 262.992C482.53 267.627 482.521 275.128 487.149 279.773C491.775 284.415 499.396 284.353 504.027 279.721L506.281 277.468L501.169 272.356L499.044 274.481Z" fill="#2CA0FB"/>
<path d="M508.174 267.79C507.503 267.117 506.412 267.117 505.74 267.79L502.387 271.143L507.498 276.255L510.852 272.901C511.525 272.229 511.525 271.14 510.852 270.467L508.174 267.79Z" fill="#2CA0FB"/>
<path d="M505.451 259.527C506.323 259.747 507.196 260.621 507.421 261.489C507.541 261.951 508.012 262.225 508.47 262.106C508.93 261.987 509.206 261.517 509.087 261.057C508.706 259.585 507.356 258.233 505.872 257.858C505.412 257.742 504.944 258.021 504.827 258.482C504.711 258.943 504.99 259.411 505.451 259.527V259.527Z" fill="#2CA0FB"/>
<path d="M512.831 259.93C512.142 257.269 509.663 254.794 506.993 254.12C506.533 254.004 506.065 254.283 505.948 254.744C505.832 255.205 506.111 255.673 506.572 255.789C508.631 256.309 510.632 258.306 511.165 260.361C511.285 260.824 511.756 261.097 512.214 260.979C512.674 260.859 512.95 260.39 512.831 259.93V259.93Z" fill="#2CA0FB"/>
</g>
<path d="M542.973 263.267C543.734 263.267 544.392 263.409 544.948 263.693C545.515 263.965 545.958 264.357 546.275 264.867C546.593 265.378 546.752 265.985 546.752 266.688C546.752 267.392 546.593 267.999 546.275 268.509C545.958 269.02 545.515 269.417 544.948 269.701C544.392 269.973 543.734 270.109 542.973 270.109H540.37V274.5H539.008V263.267H542.973ZM542.769 268.833C543.654 268.833 544.301 268.651 544.709 268.288C545.118 267.914 545.322 267.38 545.322 266.688C545.322 265.985 545.118 265.451 544.709 265.088C544.301 264.725 543.654 264.544 542.769 264.544H540.37V268.833H542.769ZM547.925 274.5V265.99H549.031L549.218 267.386C549.457 266.864 549.803 266.473 550.256 266.212C550.722 265.951 551.283 265.82 551.941 265.82C552.089 265.82 552.248 265.832 552.418 265.854C552.599 265.877 552.753 265.922 552.877 265.99L552.639 267.233C552.514 267.187 552.378 267.153 552.231 267.131C552.083 267.108 551.873 267.097 551.601 267.097C551.249 267.097 550.892 267.199 550.529 267.403C550.177 267.607 549.882 267.919 549.644 268.339C549.405 268.747 549.286 269.269 549.286 269.905V274.5H547.925ZM556.913 265.82C557.719 265.82 558.428 265.996 559.041 266.348C559.665 266.7 560.153 267.21 560.505 267.88C560.856 268.538 561.032 269.326 561.032 270.245C561.032 271.164 560.856 271.958 560.505 272.628C560.153 273.286 559.665 273.791 559.041 274.143C558.428 274.494 557.719 274.67 556.913 274.67C556.119 274.67 555.41 274.494 554.786 274.143C554.162 273.791 553.674 273.286 553.322 272.628C552.971 271.958 552.795 271.164 552.795 270.245C552.795 269.326 552.971 268.538 553.322 267.88C553.674 267.21 554.162 266.7 554.786 266.348C555.41 265.996 556.119 265.82 556.913 265.82ZM556.913 266.995C556.335 266.995 555.841 267.125 555.433 267.386C555.024 267.647 554.707 268.021 554.48 268.509C554.264 268.986 554.156 269.564 554.156 270.245C554.156 270.915 554.264 271.493 554.48 271.981C554.707 272.469 555.024 272.843 555.433 273.104C555.841 273.365 556.335 273.496 556.913 273.496C557.492 273.496 557.986 273.365 558.394 273.104C558.803 272.843 559.115 272.469 559.33 271.981C559.557 271.493 559.671 270.915 559.671 270.245C559.671 269.564 559.557 268.986 559.33 268.509C559.115 268.021 558.803 267.647 558.394 267.386C557.986 267.125 557.492 266.995 556.913 266.995ZM565.699 274.67C564.995 274.67 564.348 274.494 563.758 274.143C563.168 273.791 562.697 273.286 562.346 272.628C561.994 271.958 561.818 271.164 561.818 270.245C561.818 269.303 562.005 268.504 562.38 267.845C562.754 267.187 563.248 266.688 563.86 266.348C564.473 265.996 565.131 265.82 565.835 265.82C566.538 265.82 567.145 266.002 567.656 266.365C568.178 266.728 568.524 267.21 568.694 267.811L568.524 267.931V262.076H569.885V274.5H568.694L568.575 272.441L568.762 272.339C568.683 272.838 568.49 273.263 568.183 273.615C567.888 273.955 567.52 274.216 567.077 274.398C566.646 274.579 566.186 274.67 565.699 274.67ZM565.835 273.479C566.379 273.479 566.85 273.343 567.247 273.07C567.656 272.798 567.968 272.412 568.183 271.913C568.41 271.402 568.524 270.807 568.524 270.126C568.524 269.479 568.41 268.923 568.183 268.458C567.968 267.993 567.661 267.636 567.264 267.386C566.879 267.136 566.425 267.012 565.903 267.012C565.04 267.012 564.371 267.307 563.894 267.897C563.418 268.487 563.18 269.269 563.18 270.245C563.18 271.221 563.412 272.004 563.877 272.594C564.343 273.184 564.995 273.479 565.835 273.479ZM574.915 274.67C574.37 274.67 573.854 274.568 573.366 274.364C572.89 274.16 572.498 273.831 572.192 273.377C571.897 272.912 571.749 272.31 571.749 271.573V265.99H573.111V271.215C573.111 272.078 573.298 272.673 573.672 273.002C574.047 273.32 574.574 273.479 575.255 273.479C575.573 273.479 575.885 273.428 576.191 273.326C576.498 273.212 576.77 273.042 577.008 272.815C577.258 272.577 577.451 272.276 577.587 271.913C577.734 271.55 577.808 271.119 577.808 270.62V265.99H579.17V274.5H577.978L577.893 273.207C577.598 273.717 577.195 274.092 576.685 274.33C576.186 274.557 575.596 274.67 574.915 274.67ZM584.646 265.82C585.236 265.82 585.752 265.911 586.195 266.092C586.648 266.274 587.04 266.535 587.369 266.875C587.698 267.216 587.965 267.619 588.169 268.084L586.875 268.696C586.694 268.152 586.416 267.738 586.041 267.454C585.678 267.159 585.202 267.012 584.612 267.012C584.044 267.012 583.557 267.142 583.148 267.403C582.74 267.653 582.428 268.021 582.212 268.509C581.996 268.986 581.889 269.564 581.889 270.245C581.889 270.915 581.996 271.493 582.212 271.981C582.428 272.469 582.74 272.843 583.148 273.104C583.557 273.354 584.044 273.479 584.612 273.479C585.054 273.479 585.434 273.411 585.752 273.275C586.081 273.138 586.348 272.94 586.552 272.679C586.767 272.418 586.915 272.1 586.994 271.726L588.254 272.168C588.061 272.69 587.794 273.138 587.454 273.513C587.125 273.887 586.722 274.177 586.246 274.381C585.78 274.574 585.247 274.67 584.646 274.67C583.852 274.67 583.142 274.494 582.518 274.143C581.894 273.791 581.406 273.286 581.055 272.628C580.703 271.958 580.527 271.164 580.527 270.245C580.527 269.326 580.703 268.538 581.055 267.88C581.406 267.21 581.894 266.7 582.518 266.348C583.142 265.996 583.852 265.82 584.646 265.82ZM591.439 263.574V272.151C591.439 272.571 591.558 272.883 591.796 273.087C592.035 273.292 592.341 273.394 592.715 273.394C593.044 273.394 593.328 273.337 593.566 273.224C593.805 273.11 594.02 272.957 594.213 272.764L594.69 273.904C594.429 274.143 594.117 274.33 593.753 274.466C593.402 274.602 592.993 274.67 592.528 274.67C592.097 274.67 591.694 274.596 591.32 274.449C590.945 274.29 590.645 274.046 590.418 273.717C590.202 273.377 590.089 272.934 590.077 272.39V263.948L591.439 263.574ZM594.536 265.99V267.165H588.375V265.99H594.536ZM608.456 274.5H607.009L605.818 271.385H600.729L599.538 274.5H598.108L602.482 263.267H604.099L608.456 274.5ZM601.223 270.109H605.324L603.265 264.578L601.223 270.109ZM612.324 261.991C612.619 261.991 612.897 262.025 613.158 262.093C613.419 262.161 613.623 262.257 613.771 262.382L613.413 263.489C613.277 263.398 613.13 263.335 612.971 263.301C612.812 263.256 612.636 263.233 612.443 263.233C611.955 263.233 611.575 263.352 611.303 263.591C611.031 263.818 610.895 264.186 610.895 264.697V265.99V266.433V274.5H609.533V264.561C609.533 264.186 609.59 263.84 609.703 263.523C609.817 263.205 609.987 262.933 610.214 262.706C610.452 262.479 610.747 262.303 611.099 262.178C611.451 262.053 611.859 261.991 612.324 261.991ZM613.737 265.99V267.165H607.831V265.99H613.737ZM619.013 261.991C619.308 261.991 619.586 262.025 619.847 262.093C620.108 262.161 620.312 262.257 620.459 262.382L620.102 263.489C619.966 263.398 619.818 263.335 619.659 263.301C619.501 263.256 619.325 263.233 619.132 263.233C618.644 263.233 618.264 263.352 617.992 263.591C617.719 263.818 617.583 264.186 617.583 264.697V265.99V266.433V274.5H616.222V264.561C616.222 264.186 616.278 263.84 616.392 263.523C616.505 263.205 616.675 262.933 616.902 262.706C617.141 262.479 617.436 262.303 617.787 262.178C618.139 262.053 618.548 261.991 619.013 261.991ZM620.425 265.99V267.165H614.52V265.99H620.425ZM622.927 264.357C622.621 264.357 622.371 264.266 622.178 264.084C621.997 263.891 621.906 263.642 621.906 263.335C621.906 263.029 621.997 262.785 622.178 262.604C622.371 262.411 622.621 262.314 622.927 262.314C623.234 262.314 623.477 262.411 623.659 262.604C623.852 262.785 623.948 263.029 623.948 263.335C623.948 263.642 623.852 263.891 623.659 264.084C623.477 264.266 623.234 264.357 622.927 264.357ZM623.608 265.99V274.5H622.246V265.99H623.608ZM625.554 274.5V265.99H626.745L626.864 267.897L626.643 267.709C626.825 267.255 627.068 266.892 627.375 266.62C627.681 266.336 628.033 266.132 628.43 266.007C628.838 265.883 629.258 265.82 629.689 265.82C630.302 265.82 630.858 265.939 631.357 266.178C631.857 266.405 632.254 266.756 632.549 267.233C632.855 267.709 633.008 268.316 633.008 269.054V274.5H631.647V269.53C631.647 268.589 631.442 267.936 631.034 267.573C630.637 267.199 630.143 267.012 629.553 267.012C629.145 267.012 628.736 267.108 628.328 267.301C627.919 267.494 627.579 267.806 627.307 268.237C627.046 268.668 626.915 269.247 626.915 269.973V274.5H625.554ZM635.556 264.357C635.25 264.357 635 264.266 634.807 264.084C634.626 263.891 634.535 263.642 634.535 263.335C634.535 263.029 634.626 262.785 634.807 262.604C635 262.411 635.25 262.314 635.556 262.314C635.863 262.314 636.106 262.411 636.288 262.604C636.481 262.785 636.577 263.029 636.577 263.335C636.577 263.642 636.481 263.891 636.288 264.084C636.106 264.266 635.863 264.357 635.556 264.357ZM636.237 265.99V274.5H634.875V265.99H636.237ZM640.189 263.574V272.151C640.189 272.571 640.308 272.883 640.546 273.087C640.784 273.292 641.091 273.394 641.465 273.394C641.794 273.394 642.078 273.337 642.316 273.224C642.554 273.11 642.77 272.957 642.963 272.764L643.439 273.904C643.178 274.143 642.866 274.33 642.503 274.466C642.152 274.602 641.743 274.67 641.278 274.67C640.847 274.67 640.444 274.596 640.07 274.449C639.695 274.29 639.395 274.046 639.168 273.717C638.952 273.377 638.839 272.934 638.827 272.39V263.948L640.189 263.574ZM643.286 265.99V267.165H637.125V265.99H643.286ZM651.09 265.99L647.09 275.93C646.875 276.486 646.636 276.922 646.376 277.24C646.126 277.569 645.842 277.802 645.525 277.938C645.218 278.085 644.861 278.159 644.452 278.159C644.067 278.159 643.709 278.102 643.38 277.989C643.062 277.887 642.779 277.745 642.529 277.563L642.904 276.372C643.131 276.576 643.369 276.724 643.618 276.815C643.879 276.917 644.135 276.968 644.384 276.968C644.679 276.968 644.957 276.877 645.218 276.695C645.479 276.514 645.717 276.145 645.933 275.589L646.376 274.483L645.525 272.458L642.819 265.99H644.367L646.495 271.539L647.022 273.053L647.635 271.368L649.626 265.99H651.09ZM664.334 274.5H662.887L661.696 271.385H656.607L655.415 274.5H653.986L658.36 263.267H659.977L664.334 274.5ZM657.1 270.109H661.202L659.143 264.578L657.1 270.109ZM665.146 274.5V265.99H666.337L666.456 267.897L666.235 267.709C666.417 267.255 666.661 266.892 666.967 266.62C667.273 266.336 667.625 266.132 668.022 266.007C668.431 265.883 668.85 265.82 669.282 265.82C669.894 265.82 670.45 265.939 670.949 266.178C671.449 266.405 671.846 266.756 672.141 267.233C672.447 267.709 672.6 268.316 672.6 269.054V274.5H671.239V269.53C671.239 268.589 671.034 267.936 670.626 267.573C670.229 267.199 669.735 267.012 669.145 267.012C668.737 267.012 668.328 267.108 667.92 267.301C667.512 267.494 667.171 267.806 666.899 268.237C666.638 268.668 666.507 269.247 666.507 269.973V274.5H665.146ZM679.437 269.003C679.437 268.367 679.267 267.88 678.927 267.539C678.586 267.187 678.104 267.012 677.48 267.012C676.89 267.012 676.391 267.142 675.982 267.403C675.574 267.653 675.273 268.061 675.08 268.628L673.974 267.948C674.201 267.312 674.621 266.802 675.233 266.416C675.846 266.019 676.606 265.82 677.514 265.82C678.127 265.82 678.683 265.928 679.182 266.144C679.681 266.348 680.072 266.665 680.356 267.097C680.651 267.516 680.799 268.061 680.799 268.73V272.849C680.799 273.258 681.014 273.462 681.445 273.462C681.661 273.462 681.871 273.433 682.075 273.377L682.007 274.449C681.78 274.562 681.485 274.619 681.122 274.619C680.793 274.619 680.498 274.557 680.237 274.432C679.976 274.307 679.772 274.12 679.624 273.87C679.477 273.609 679.403 273.286 679.403 272.9V272.73L679.743 272.781C679.607 273.224 679.375 273.587 679.046 273.87C678.717 274.143 678.348 274.347 677.939 274.483C677.531 274.608 677.128 274.67 676.731 274.67C676.232 274.67 675.767 274.585 675.335 274.415C674.904 274.245 674.558 273.989 674.297 273.649C674.048 273.297 673.923 272.866 673.923 272.356C673.923 271.72 674.133 271.198 674.553 270.79C674.984 270.37 675.579 270.086 676.34 269.939L679.709 269.275V270.398L676.969 270.96C676.413 271.073 675.999 271.232 675.727 271.437C675.455 271.641 675.318 271.924 675.318 272.287C675.318 272.639 675.455 272.929 675.727 273.155C676.011 273.371 676.408 273.479 676.918 273.479C677.247 273.479 677.559 273.439 677.854 273.36C678.161 273.269 678.433 273.138 678.671 272.968C678.91 272.787 679.097 272.565 679.233 272.305C679.369 272.032 679.437 271.715 679.437 271.351V269.003ZM684.185 262.076V272.339C684.185 272.77 684.265 273.07 684.423 273.241C684.582 273.399 684.837 273.479 685.189 273.479C685.416 273.479 685.603 273.462 685.751 273.428C685.898 273.394 686.097 273.331 686.347 273.241L686.125 274.432C685.944 274.511 685.745 274.568 685.53 274.602C685.314 274.648 685.093 274.67 684.866 274.67C684.174 274.67 683.657 274.483 683.317 274.109C682.988 273.734 682.824 273.161 682.824 272.39V262.076H684.185ZM693.441 265.99L689.441 275.93C689.226 276.486 688.988 276.922 688.727 277.24C688.477 277.569 688.193 277.802 687.876 277.938C687.569 278.085 687.212 278.159 686.803 278.159C686.418 278.159 686.06 278.102 685.731 277.989C685.414 277.887 685.13 277.745 684.88 277.563L685.255 276.372C685.482 276.576 685.72 276.724 685.969 276.815C686.23 276.917 686.486 276.968 686.735 276.968C687.03 276.968 687.308 276.877 687.569 276.695C687.83 276.514 688.069 276.145 688.284 275.589L688.727 274.483L687.876 272.458L685.17 265.99H686.718L688.846 271.539L689.373 273.053L689.986 271.368L691.977 265.99H693.441ZM696.853 274.67C696.025 274.67 695.259 274.494 694.556 274.143C693.864 273.791 693.33 273.292 692.956 272.645L694.113 271.811C694.363 272.333 694.726 272.741 695.202 273.036C695.69 273.331 696.275 273.479 696.955 273.479C697.557 273.479 698.028 273.365 698.368 273.138C698.708 272.9 698.879 272.594 698.879 272.219C698.879 271.981 698.799 271.766 698.64 271.573C698.493 271.368 698.203 271.221 697.772 271.13L695.73 270.705C694.902 270.535 694.306 270.251 693.943 269.854C693.591 269.457 693.415 268.963 693.415 268.373C693.415 267.908 693.546 267.482 693.807 267.097C694.079 266.711 694.459 266.405 694.947 266.178C695.446 265.939 696.031 265.82 696.7 265.82C697.54 265.82 698.249 265.985 698.828 266.314C699.406 266.643 699.837 267.108 700.121 267.709L698.981 268.458C698.788 267.959 698.476 267.596 698.045 267.369C697.613 267.131 697.165 267.012 696.7 267.012C696.292 267.012 695.94 267.068 695.645 267.182C695.361 267.295 695.14 267.454 694.981 267.658C694.834 267.851 694.76 268.072 694.76 268.322C694.76 268.572 694.845 268.804 695.015 269.02C695.185 269.224 695.503 269.372 695.968 269.462L698.096 269.905C698.89 270.064 699.446 270.325 699.764 270.688C700.081 271.051 700.24 271.493 700.24 272.015C700.24 272.548 700.098 273.019 699.815 273.428C699.531 273.825 699.134 274.131 698.623 274.347C698.113 274.562 697.523 274.67 696.853 274.67ZM702.23 264.357C701.924 264.357 701.674 264.266 701.481 264.084C701.3 263.891 701.209 263.642 701.209 263.335C701.209 263.029 701.3 262.785 701.481 262.604C701.674 262.411 701.924 262.314 702.23 262.314C702.536 262.314 702.78 262.411 702.962 262.604C703.155 262.785 703.251 263.029 703.251 263.335C703.251 263.642 703.155 263.891 702.962 264.084C702.78 264.266 702.536 264.357 702.23 264.357ZM702.911 265.99V274.5H701.549V265.99H702.911ZM707.918 274.67C707.089 274.67 706.324 274.494 705.62 274.143C704.928 273.791 704.395 273.292 704.02 272.645L705.178 271.811C705.427 272.333 705.79 272.741 706.267 273.036C706.755 273.331 707.339 273.479 708.02 273.479C708.621 273.479 709.092 273.365 709.432 273.138C709.773 272.9 709.943 272.594 709.943 272.219C709.943 271.981 709.864 271.766 709.705 271.573C709.557 271.368 709.268 271.221 708.837 271.13L706.794 270.705C705.966 270.535 705.371 270.251 705.007 269.854C704.656 269.457 704.48 268.963 704.48 268.373C704.48 267.908 704.61 267.482 704.871 267.097C705.144 266.711 705.524 266.405 706.012 266.178C706.511 265.939 707.095 265.82 707.765 265.82C708.604 265.82 709.313 265.985 709.892 266.314C710.471 266.643 710.902 267.108 711.185 267.709L710.045 268.458C709.852 267.959 709.54 267.596 709.109 267.369C708.678 267.131 708.23 267.012 707.765 267.012C707.356 267.012 707.004 267.068 706.709 267.182C706.426 267.295 706.204 267.454 706.046 267.658C705.898 267.851 705.824 268.072 705.824 268.322C705.824 268.572 705.909 268.804 706.08 269.02C706.25 269.224 706.568 269.372 707.033 269.462L709.16 269.905C709.954 270.064 710.51 270.325 710.828 270.688C711.146 271.051 711.305 271.493 711.305 272.015C711.305 272.548 711.163 273.019 710.879 273.428C710.595 273.825 710.198 274.131 709.688 274.347C709.177 274.562 708.587 274.67 707.918 274.67Z" fill="#333333"/>
<rect x="449.946" y="220.335" width="342.209" height="96.645" rx="2.12741" stroke="#CCCCCC" stroke-width="0.60783"/>
</g>
<defs>
<filter id="filter0_d_1927_184472" x="39.3435" y="220.031" width="394.104" height="121.469" filterUnits="userSpaceOnUse" color-interpolation-filters="sRGB">
<feFlood flood-opacity="0" result="BackgroundImageFix"/>
<feColorMatrix in="SourceAlpha" type="matrix" values="0 0 0 0 0 0 0 0 0 0 0 0 0 0 0 0 0 0 127 0" result="hardAlpha"/>
<feMorphology radius="8.09802" operator="erode" in="SourceAlpha" result="effect1_dropShadow_1927_184472"/>
<feOffset dy="5.39868"/>
<feGaussianBlur stdDeviation="6.74835"/>
<feColorMatrix type="matrix" values="0 0 0 0 0 0 0 0 0 0 0 0 0 0 0 0 0 0 0.08 0"/>
<feBlend mode="normal" in2="BackgroundImageFix" result="effect1_dropShadow_1927_184472"/>
<feBlend mode="normal" in="SourceGraphic" in2="effect1_dropShadow_1927_184472" result="shape"/>
</filter>
<filter id="filter1_d_1927_184472" x="240.512" y="120.156" width="288.661" height="87.592" filterUnits="userSpaceOnUse" color-interpolation-filters="sRGB">
<feFlood flood-opacity="0" result="BackgroundImageFix"/>
<feColorMatrix in="SourceAlpha" type="matrix" values="0 0 0 0 0 0 0 0 0 0 0 0 0 0 0 0 0 0 127 0" result="hardAlpha"/>
<feMorphology radius="5.97229" operator="erode" in="SourceAlpha" result="effect1_dropShadow_1927_184472"/>
<feOffset dy="3.98153"/>
<feGaussianBlur stdDeviation="4.97691"/>
<feColorMatrix type="matrix" values="0 0 0 0 0 0 0 0 0 0 0 0 0 0 0 0 0 0 0.08 0"/>
<feBlend mode="normal" in2="BackgroundImageFix" result="effect1_dropShadow_1927_184472"/>
<feBlend mode="normal" in="SourceGraphic" in2="effect1_dropShadow_1927_184472" result="shape"/>
</filter>
<clipPath id="clip0_1927_184472">
<rect width="551" height="296" fill="white" transform="translate(11 97)"/>
</clipPath>
<clipPath id="clip1_1927_184472">
<rect width="17.0353" height="17.0353" fill="white" transform="translate(29.3184 157.055)"/>
</clipPath>
<clipPath id="clip2_1927_184472">
<rect width="32.3921" height="32.3921" fill="white" transform="translate(83.8799 259.172)"/>
</clipPath>
<clipPath id="clip3_1927_184472">
<rect width="23.8892" height="23.8892" fill="white" transform="translate(272.363 148.031)"/>
</clipPath>
<clipPath id="clip4_1927_184472">
<rect width="29.1759" height="29.1759" fill="white" transform="translate(483.681 254.07)"/>
</clipPath>
</defs>
</svg>
