<svg width="564" height="455" viewBox="0 0 564 455" fill="none" xmlns="http://www.w3.org/2000/svg">
<rect x="0.5" y="0.5" width="563" height="454" rx="5.5" fill="#FAFDFE" stroke="#E0E0E0"/>
<g clip-path="url(#clip0_1927_184431)">
<rect x="250.222" y="147.918" width="508.158" height="211.196" rx="4.80355" fill="white" stroke="#B2DDFF" stroke-width="1.82854"/>
<rect x="473.059" y="303.16" width="123.889" height="41.0102" rx="1.89942" fill="#DDF0FF" fill-opacity="0.4"/>
<rect x="506.637" y="318.266" width="59.3568" height="9.71293" rx="1.82854" fill="#A9D9FE"/>
<rect opacity="0.54" x="276.764" y="229.773" width="360.458" height="14.0298" rx="1.82854" fill="#A9D9FE"/>
<rect opacity="0.54" x="276.764" y="258.914" width="249.299" height="14.0298" rx="1.82854" fill="#A9D9FE"/>
<g clip-path="url(#clip1_1927_184431)">
<ellipse cx="287.766" cy="185.526" rx="14.6367" ry="14.6627" fill="#0C73D2"/>
<path d="M287.764 173.168C290.229 173.168 292.639 173.901 294.688 175.272C296.738 176.644 298.335 178.594 299.279 180.876C300.222 183.158 300.469 185.668 299.988 188.09C299.507 190.512 298.32 192.737 296.577 194.483C294.834 196.229 292.613 197.418 290.195 197.9C287.778 198.382 285.272 198.135 282.994 197.19C280.717 196.245 278.77 194.644 277.401 192.591C276.031 190.538 275.3 188.124 275.3 185.654C275.304 182.344 276.618 179.17 278.955 176.83C281.291 174.489 284.459 173.172 287.764 173.168V173.168ZM287.764 170.965C284.864 170.965 282.029 171.826 279.617 173.44C277.206 175.055 275.327 177.349 274.217 180.033C273.107 182.717 272.817 185.67 273.382 188.52C273.948 191.369 275.345 193.987 277.395 196.041C279.446 198.095 282.059 199.494 284.903 200.061C287.748 200.628 290.696 200.337 293.375 199.225C296.055 198.114 298.345 196.231 299.956 193.815C301.567 191.399 302.427 188.559 302.427 185.654C302.427 183.725 302.048 181.815 301.311 180.033C300.574 178.251 299.494 176.631 298.132 175.267C296.771 173.903 295.154 172.821 293.375 172.083C291.596 171.345 289.689 170.965 287.764 170.965V170.965Z" fill="#0C73D2"/>
<path d="M288.155 181.05C287.78 181.05 287.491 180.947 287.288 180.741C287.095 180.523 286.999 180.22 286.999 179.832C286.999 179.444 287.095 179.148 287.288 178.942C287.491 178.736 287.78 178.633 288.155 178.633C288.518 178.633 288.797 178.736 288.989 178.942C289.192 179.148 289.294 179.444 289.294 179.832C289.294 180.22 289.192 180.523 288.989 180.741C288.797 180.947 288.518 181.05 288.155 181.05ZM289.005 182.576V191.662H287.288V182.576H289.005Z" fill="#0C73D2"/>
<path d="M288.128 182.652V191.616" stroke="white" stroke-width="3.11504"/>
<path d="M288.128 181.217C288.878 181.217 289.485 180.608 289.485 179.858C289.485 179.107 288.878 178.498 288.128 178.498C287.378 178.498 286.771 179.107 286.771 179.858C286.771 180.608 287.378 181.217 288.128 181.217Z" fill="white" stroke="white" stroke-width="0.519174"/>
</g>
<rect x="323.236" y="171.695" width="147.848" height="17.3711" rx="1.82854" fill="#0A8BEF"/>
<rect x="-139.351" y="84.418" width="348.721" height="51.6624" rx="1.84509" fill="white"/>
<rect width="32.289" height="32.289" rx="4.84335" transform="matrix(-1 0 0 1 199.684 94.1055)" fill="white"/>
<path d="M189.485 112.883L190.21 112.158L183.904 105.851L183.541 105.504L183.178 105.851L176.872 112.158L177.597 112.883L183.541 106.939L189.485 112.883Z" fill="#0A8BEF" stroke="#0A8BEF" stroke-width="2.76763"/>
<rect x="-140.273" y="83.4954" width="350.566" height="53.5075" rx="2.76763" stroke="#A9D9FE" stroke-width="1.84509"/>
<g clip-path="url(#clip2_1927_184431)">
<rect x="-139.351" y="158.223" width="348.721" height="103.325" rx="1.84509" fill="white"/>
<rect width="348.721" height="51.6624" transform="translate(-139.351 158.223)" fill="#DDF0FF"/>
<rect x="-119.977" y="177.594" width="149.452" height="12.9156" rx="1.84509" fill="#0A8BEF"/>
<rect width="348.721" height="51.6624" transform="translate(-139.351 209.887)" fill="white"/>
</g>
<rect x="-140.273" y="157.3" width="350.566" height="105.17" rx="2.76763" stroke="#A9D9FE" stroke-width="1.84509"/>
</g>
<defs>
<clipPath id="clip0_1927_184431">
<rect width="564" height="314" fill="white" transform="translate(0 71)"/>
</clipPath>
<clipPath id="clip1_1927_184431">
<rect width="30.1643" height="30.218" fill="white" transform="translate(272.683 170.418)"/>
</clipPath>
<clipPath id="clip2_1927_184431">
<rect x="-139.351" y="158.223" width="348.721" height="103.325" rx="1.84509" fill="white"/>
</clipPath>
</defs>
</svg>
