<svg width="700" height="488" viewBox="0 0 700 488" fill="none" xmlns="http://www.w3.org/2000/svg">
<g clip-path="url(#clip0_1930_184557)">
<rect width="700" height="488" fill="white"/>
<rect x="201.465" y="291.688" width="420.768" height="174.876" rx="3.97746" fill="white" stroke="#B2DDFF" stroke-width="1.51408"/>
<rect x="502.985" y="420.234" width="102.583" height="33.9575" rx="1.57277" fill="#0A8BEF"/>
<rect x="530.846" y="432.746" width="49.1489" height="8.04255" rx="1.51408" fill="white"/>
<rect x="385.979" y="420.234" width="102.583" height="33.9575" rx="1.57277" fill="#DDF0FF" fill-opacity="0.4"/>
<rect x="413.782" y="432.746" width="49.1489" height="8.04255" rx="1.51408" fill="#A9D9FE"/>
<rect opacity="0.54" x="223.441" y="359.469" width="298.468" height="11.617" rx="1.51408" fill="#A9D9FE"/>
<rect opacity="0.54" x="223.441" y="383.594" width="206.426" height="11.617" rx="1.51408" fill="#A9D9FE"/>
<g clip-path="url(#clip1_1930_184557)">
<ellipse cx="232.552" cy="322.829" rx="12.1195" ry="12.1411" fill="#0C73D2"/>
<path d="M232.552 312.594C234.593 312.594 236.588 313.2 238.285 314.336C239.982 315.472 241.305 317.087 242.086 318.976C242.867 320.865 243.072 322.944 242.674 324.95C242.275 326.955 241.293 328.797 239.849 330.243C238.406 331.689 236.567 332.674 234.565 333.073C232.563 333.472 230.488 333.267 228.602 332.484C226.716 331.702 225.105 330.377 223.971 328.676C222.837 326.976 222.231 324.977 222.231 322.933C222.235 320.192 223.323 317.564 225.258 315.626C227.192 313.688 229.816 312.597 232.552 312.594V312.594ZM232.552 310.77C230.15 310.77 227.803 311.483 225.806 312.819C223.81 314.156 222.253 316.056 221.334 318.278C220.415 320.501 220.175 322.946 220.643 325.306C221.112 327.665 222.268 329.832 223.966 331.533C225.664 333.234 227.828 334.393 230.183 334.862C232.538 335.331 234.979 335.091 237.198 334.17C239.417 333.249 241.313 331.69 242.647 329.69C243.981 327.69 244.693 325.338 244.693 322.933C244.693 321.335 244.379 319.754 243.769 318.278C243.159 316.802 242.264 315.461 241.137 314.332C240.01 313.203 238.671 312.307 237.198 311.695C235.725 311.084 234.146 310.77 232.552 310.77V310.77Z" fill="#0C73D2"/>
<path d="M232.875 319.118C232.565 319.118 232.326 319.033 232.157 318.863C231.998 318.682 231.918 318.431 231.918 318.11C231.918 317.789 231.998 317.543 232.157 317.373C232.326 317.202 232.565 317.117 232.875 317.117C233.176 317.117 233.406 317.202 233.566 317.373C233.734 317.543 233.818 317.789 233.818 318.11C233.818 318.431 233.734 318.682 233.566 318.863C233.406 319.033 233.176 319.118 232.875 319.118ZM233.579 320.382V327.905H232.157V320.382H233.579Z" fill="#0C73D2"/>
<path d="M232.853 320.445V327.867" stroke="white" stroke-width="2.57934"/>
<path d="M232.852 319.259C233.473 319.259 233.976 318.754 233.976 318.133C233.976 317.512 233.473 317.008 232.852 317.008C232.231 317.008 231.728 317.512 231.728 318.133C231.728 318.754 232.231 319.259 232.852 319.259Z" fill="white" stroke="white" stroke-width="0.429889"/>
</g>
<rect x="261.923" y="311.375" width="122.422" height="14.3837" rx="1.51408" fill="#0A8BEF"/>
<rect x="-56" y="114" width="259.875" height="38.5" rx="1.375" fill="white"/>
<rect opacity="0.54" x="-41.5625" y="127.062" width="74.9375" height="12.375" rx="1.375" fill="#49AFFD"/>
<rect width="24.0625" height="24.0625" rx="3.60937" transform="matrix(-1 0 0 1 196.656 121.219)" fill="white"/>
<path d="M189.055 135.211L189.596 134.67L184.896 129.971L184.626 129.712L184.356 129.971L179.656 134.67L180.196 135.211L184.626 130.781L189.055 135.211Z" fill="#0A8BEF" stroke="#0A8BEF" stroke-width="2.0625"/>
<rect x="-56.6875" y="113.312" width="261.25" height="39.875" rx="2.0625" stroke="#A9D9FE" stroke-width="1.375"/>
<g clip-path="url(#clip2_1930_184557)">
<rect x="-56" y="169" width="259.875" height="77" rx="1.375" fill="white"/>
<rect width="259.875" height="38.5" transform="translate(-56 169)" fill="#DDF0FF"/>
<rect x="-41.5625" y="183.438" width="111.375" height="9.625" rx="1.375" fill="#0A8BEF"/>
<rect width="259.875" height="38.5" transform="translate(-56 207.5)" fill="white"/>
<rect opacity="0.54" x="-41.5625" y="223.312" width="82.5" height="8.9375" rx="1.375" fill="#A9D9FE"/>
</g>
<rect x="-56.6875" y="168.312" width="261.25" height="78.375" rx="2.0625" stroke="#A9D9FE" stroke-width="1.375"/>
<g clip-path="url(#clip3_1930_184557)">
<rect x="230" width="469.576" height="246" fill="#EBF6FF" fill-opacity="0.44"/>
<rect x="600.793" y="16.818" width="80.807" height="21.8928" rx="1.64879" fill="#DDF0FF" fill-opacity="0.6"/>
<path d="M615.07 30.4255C615.147 30.4325 615.235 30.4396 615.334 30.4466C615.439 30.4466 615.562 30.4466 615.703 30.4466C616.526 30.4466 617.134 30.2391 617.528 29.824C617.929 29.4089 618.13 28.8356 618.13 28.104C618.13 27.3372 617.94 26.7568 617.56 26.3629C617.18 25.9689 616.579 25.7719 615.756 25.7719C615.643 25.7719 615.527 25.7754 615.407 25.7825C615.288 25.7825 615.175 25.7895 615.07 25.8036V30.4255ZM619.829 28.104C619.829 28.7371 619.73 29.2894 619.533 29.7607C619.336 30.232 619.055 30.6225 618.689 30.932C618.33 31.2415 617.891 31.4737 617.37 31.6284C616.85 31.7832 616.266 31.8606 615.618 31.8606C615.323 31.8606 614.978 31.8465 614.584 31.8184C614.19 31.7973 613.803 31.748 613.424 31.6707V24.5479C613.803 24.4775 614.197 24.4318 614.605 24.4107C615.021 24.3825 615.376 24.3685 615.671 24.3685C616.297 24.3685 616.864 24.4388 617.37 24.5795C617.884 24.7202 618.323 24.9418 618.689 25.2443C619.055 25.5468 619.336 25.9337 619.533 26.4051C619.73 26.8764 619.829 27.4427 619.829 28.104ZM621.204 31.7656V24.4529H626.142V25.8352H622.85V27.2704H625.773V28.621H622.85V30.3833H626.385V31.7656H621.204ZM629.89 31.7656C629.602 31.1536 629.317 30.5169 629.036 29.8557C628.754 29.1944 628.487 28.5401 628.234 27.8929C627.98 27.2457 627.745 26.6267 627.527 26.0357C627.316 25.4448 627.133 24.9172 626.978 24.4529H628.793C628.934 24.875 629.085 25.3323 629.247 25.8247C629.415 26.3101 629.584 26.7955 629.753 27.2809C629.929 27.7663 630.098 28.2306 630.26 28.6738C630.421 29.117 630.573 29.5004 630.713 29.824C630.847 29.5004 630.995 29.117 631.157 28.6738C631.325 28.2306 631.494 27.7663 631.663 27.2809C631.839 26.7955 632.008 26.3101 632.17 25.8247C632.338 25.3323 632.493 24.875 632.634 24.4529H634.386C634.224 24.9172 634.037 25.4448 633.826 26.0357C633.615 26.6267 633.383 27.2457 633.13 27.8929C632.877 28.5401 632.609 29.1944 632.328 29.8557C632.047 30.5169 631.762 31.1536 631.473 31.7656H629.89ZM640.009 24.3685C641.107 24.3685 641.947 24.5655 642.531 24.9594C643.115 25.3463 643.407 25.9513 643.407 26.7744C643.407 27.2879 643.287 27.7065 643.048 28.0301C642.816 28.3467 642.478 28.5964 642.035 28.7793C642.183 28.9622 642.338 29.1733 642.499 29.4125C642.661 29.6446 642.82 29.8908 642.974 30.1511C643.136 30.4044 643.291 30.6717 643.439 30.9531C643.586 31.2275 643.723 31.4983 643.85 31.7656H642.003C641.87 31.5264 641.733 31.2837 641.592 31.0375C641.458 30.7913 641.318 30.5521 641.17 30.32C641.029 30.0878 640.888 29.8697 640.748 29.6657C640.607 29.4547 640.466 29.2647 640.326 29.0959H639.513V31.7656H637.867V24.5584C638.226 24.4881 638.595 24.4388 638.975 24.4107C639.362 24.3825 639.707 24.3685 640.009 24.3685ZM640.104 25.7719C639.984 25.7719 639.875 25.7754 639.777 25.7825C639.685 25.7895 639.598 25.7966 639.513 25.8036V27.7874H639.977C640.596 27.7874 641.04 27.71 641.307 27.5553C641.574 27.4005 641.708 27.1367 641.708 26.7638C641.708 26.4051 641.571 26.1518 641.296 26.0041C641.029 25.8493 640.632 25.7719 640.104 25.7719ZM644.905 31.7656V24.4529H649.844V25.8352H646.551V27.2704H649.474V28.621H646.551V30.3833H650.086V31.7656H644.905ZM656.201 31.7656C656.124 31.5124 656.036 31.2521 655.937 30.9848C655.846 30.7174 655.754 30.4501 655.663 30.1828H652.814C652.722 30.4501 652.627 30.7174 652.529 30.9848C652.437 31.2521 652.353 31.5124 652.275 31.7656H650.566C650.84 30.9777 651.101 30.2496 651.347 29.5813C651.593 28.913 651.832 28.2834 652.064 27.6924C652.304 27.1015 652.536 26.5422 652.761 26.0146C652.993 25.48 653.232 24.9594 653.478 24.4529H655.051C655.29 24.9594 655.526 25.48 655.758 26.0146C655.99 26.5422 656.222 27.1015 656.454 27.6924C656.693 28.2834 656.936 28.913 657.182 29.5813C657.428 30.2496 657.689 30.9777 657.963 31.7656H656.201ZM654.228 26.1096C654.192 26.2151 654.14 26.3593 654.069 26.5422C653.999 26.7252 653.918 26.9362 653.827 27.1754C653.735 27.4146 653.633 27.6784 653.521 27.9668C653.415 28.2552 653.306 28.5577 653.193 28.8743H655.272C655.16 28.5577 655.051 28.2552 654.945 27.9668C654.84 27.6784 654.738 27.4146 654.639 27.1754C654.548 26.9362 654.467 26.7252 654.396 26.5422C654.326 26.3593 654.27 26.2151 654.228 26.1096ZM660.556 30.4255C660.633 30.4325 660.721 30.4396 660.82 30.4466C660.925 30.4466 661.048 30.4466 661.189 30.4466C662.012 30.4466 662.621 30.2391 663.015 29.824C663.416 29.4089 663.616 28.8356 663.616 28.104C663.616 27.3372 663.426 26.7568 663.046 26.3629C662.666 25.9689 662.065 25.7719 661.242 25.7719C661.129 25.7719 661.013 25.7754 660.894 25.7825C660.774 25.7825 660.661 25.7895 660.556 25.8036V30.4255ZM665.315 28.104C665.315 28.7371 665.216 29.2894 665.019 29.7607C664.822 30.232 664.541 30.6225 664.175 30.932C663.816 31.2415 663.377 31.4737 662.856 31.6284C662.336 31.7832 661.752 31.8606 661.105 31.8606C660.809 31.8606 660.464 31.8465 660.07 31.8184C659.676 31.7973 659.29 31.748 658.91 31.6707V24.5479C659.29 24.4775 659.684 24.4318 660.092 24.4107C660.507 24.3825 660.862 24.3685 661.157 24.3685C661.783 24.3685 662.35 24.4388 662.856 24.5795C663.37 24.7202 663.809 24.9418 664.175 25.2443C664.541 25.5468 664.822 25.9337 665.019 26.4051C665.216 26.8764 665.315 27.4427 665.315 28.104ZM668.896 27.4603C669.192 26.9608 669.473 26.4613 669.74 25.9619C670.008 25.4624 670.254 24.9594 670.479 24.4529H672.294C671.893 25.2408 671.478 26.0041 671.049 26.7427C670.62 27.4814 670.166 28.2236 669.688 28.9693V31.7656H668.041V28.9904C667.563 28.2447 667.106 27.499 666.67 26.7533C666.241 26.0076 665.825 25.2408 665.424 24.4529H667.334C667.56 24.9594 667.802 25.4624 668.063 25.9619C668.323 26.4613 668.601 26.9608 668.896 27.4603Z" fill="#49AFFD"/>
<rect x="600.793" y="16.818" width="80.807" height="21.8928" rx="1.64879" stroke="#49AFFD" stroke-width="0.659517"/>
<g clip-path="url(#clip4_1930_184557)">
<rect x="380.37" y="102.887" width="69.5209" height="39.7262" rx="19.8631" fill="#A9D9FE"/>
<rect x="385.336" y="107.855" width="29.7947" height="29.7947" rx="14.8973" fill="white"/>
</g>
<rect x="479.686" y="102.887" width="69.5209" height="39.7262" rx="19.8631" fill="#0A8BEF"/>
<g filter="url(#filter0_dd_1930_184557)">
<rect x="514.446" y="107.855" width="29.7947" height="29.7947" rx="14.8973" fill="white"/>
</g>
</g>
</g>
<defs>
<filter id="filter0_dd_1930_184557" x="502.575" y="101.26" width="53.5375" height="53.5356" filterUnits="userSpaceOnUse" color-interpolation-filters="sRGB">
<feFlood flood-opacity="0" result="BackgroundImageFix"/>
<feColorMatrix in="SourceAlpha" type="matrix" values="0 0 0 0 0 0 0 0 0 0 0 0 0 0 0 0 0 0 127 0" result="hardAlpha"/>
<feOffset/>
<feGaussianBlur stdDeviation="0.329759"/>
<feColorMatrix type="matrix" values="0 0 0 0 0 0 0 0 0 0 0 0 0 0 0 0 0 0 0.18 0"/>
<feBlend mode="normal" in2="BackgroundImageFix" result="effect1_dropShadow_1930_184557"/>
<feColorMatrix in="SourceAlpha" type="matrix" values="0 0 0 0 0 0 0 0 0 0 0 0 0 0 0 0 0 0 127 0" result="hardAlpha"/>
<feMorphology radius="3.9571" operator="erode" in="SourceAlpha" result="effect2_dropShadow_1930_184557"/>
<feOffset dy="5.27614"/>
<feGaussianBlur stdDeviation="7.91421"/>
<feColorMatrix type="matrix" values="0 0 0 0 0 0 0 0 0 0 0 0 0 0 0 0 0 0 0.16 0"/>
<feBlend mode="normal" in2="effect1_dropShadow_1930_184557" result="effect2_dropShadow_1930_184557"/>
<feBlend mode="normal" in="SourceGraphic" in2="effect2_dropShadow_1930_184557" result="shape"/>
</filter>
<clipPath id="clip0_1930_184557">
<rect width="700" height="488" fill="white"/>
</clipPath>
<clipPath id="clip1_1930_184557">
<rect width="24.9768" height="25.0213" fill="white" transform="translate(220.063 310.316)"/>
</clipPath>
<clipPath id="clip2_1930_184557">
<rect x="-56" y="169" width="259.875" height="77" rx="1.375" fill="white"/>
</clipPath>
<clipPath id="clip3_1930_184557">
<rect width="469.576" height="246" fill="white" transform="translate(230)"/>
</clipPath>
<clipPath id="clip4_1930_184557">
<rect width="69.5209" height="39.7262" fill="white" transform="translate(380.37 102.887)"/>
</clipPath>
</defs>
</svg>
