<svg width="1152" height="511" viewBox="0 0 1152 511" fill="none" xmlns="http://www.w3.org/2000/svg">
<rect width="1152" height="511" fill="#EFEBFA" fill-opacity="0.3"/>
<g filter="url(#filter0_ddd_1753_128925)">
<rect width="541.79" height="159.072" transform="translate(289.152 297.504)" fill="white"/>
<path d="M322.137 382.43H319.345C319.237 381.833 319.037 381.308 318.745 380.855C318.453 380.401 318.095 380.017 317.671 379.7C317.248 379.384 316.773 379.146 316.248 378.985C315.729 378.823 315.177 378.743 314.593 378.743C313.537 378.743 312.591 379.008 311.756 379.539C310.927 380.07 310.271 380.849 309.787 381.875C309.31 382.901 309.071 384.154 309.071 385.633C309.071 387.125 309.31 388.384 309.787 389.41C310.271 390.436 310.93 391.211 311.765 391.736C312.6 392.261 313.54 392.524 314.584 392.524C315.163 392.524 315.711 392.446 316.23 392.291C316.755 392.13 317.23 391.895 317.653 391.584C318.077 391.274 318.435 390.895 318.727 390.448C319.025 389.994 319.231 389.475 319.345 388.891L322.137 388.9C321.987 389.801 321.698 390.63 321.269 391.387C320.845 392.139 320.299 392.789 319.631 393.338C318.969 393.881 318.211 394.302 317.358 394.6C316.505 394.898 315.574 395.047 314.566 395.047C312.979 395.047 311.565 394.672 310.324 393.92C309.083 393.162 308.105 392.079 307.389 390.672C306.679 389.264 306.324 387.584 306.324 385.633C306.324 383.677 306.682 381.997 307.398 380.595C308.114 379.187 309.092 378.108 310.333 377.356C311.574 376.598 312.985 376.219 314.566 376.219C315.538 376.219 316.445 376.36 317.286 376.64C318.134 376.914 318.894 377.32 319.568 377.857C320.242 378.388 320.8 379.038 321.242 379.808C321.683 380.571 321.981 381.445 322.137 382.43ZM331.02 395.074C329.732 395.074 328.607 394.779 327.647 394.188C326.686 393.598 325.941 392.771 325.41 391.71C324.879 390.648 324.613 389.407 324.613 387.987C324.613 386.561 324.879 385.314 325.41 384.246C325.941 383.178 326.686 382.349 327.647 381.759C328.607 381.168 329.732 380.873 331.02 380.873C332.309 380.873 333.434 381.168 334.394 381.759C335.355 382.349 336.1 383.178 336.631 384.246C337.162 385.314 337.428 386.561 337.428 387.987C337.428 389.407 337.162 390.648 336.631 391.71C336.1 392.771 335.355 393.598 334.394 394.188C333.434 394.779 332.309 395.074 331.02 395.074ZM331.029 392.828C331.865 392.828 332.557 392.607 333.105 392.166C333.654 391.724 334.06 391.137 334.322 390.403C334.591 389.669 334.725 388.861 334.725 387.978C334.725 387.101 334.591 386.296 334.322 385.562C334.06 384.822 333.654 384.228 333.105 383.781C332.557 383.334 331.865 383.11 331.029 383.11C330.188 383.11 329.49 383.334 328.935 383.781C328.386 384.228 327.978 384.822 327.709 385.562C327.447 386.296 327.316 387.101 327.316 387.978C327.316 388.861 327.447 389.669 327.709 390.403C327.978 391.137 328.386 391.724 328.935 392.166C329.49 392.607 330.188 392.828 331.029 392.828ZM343.09 376.47V394.797H340.414V376.47H343.09ZM352.479 395.074C351.191 395.074 350.066 394.779 349.106 394.188C348.145 393.598 347.399 392.771 346.869 391.71C346.338 390.648 346.072 389.407 346.072 387.987C346.072 386.561 346.338 385.314 346.869 384.246C347.399 383.178 348.145 382.349 349.106 381.759C350.066 381.168 351.191 380.873 352.479 380.873C353.768 380.873 354.893 381.168 355.853 381.759C356.814 382.349 357.559 383.178 358.09 384.246C358.621 385.314 358.887 386.561 358.887 387.987C358.887 389.407 358.621 390.648 358.09 391.71C357.559 392.771 356.814 393.598 355.853 394.188C354.893 394.779 353.768 395.074 352.479 395.074ZM352.488 392.828C353.324 392.828 354.016 392.607 354.564 392.166C355.113 391.724 355.519 391.137 355.781 390.403C356.05 389.669 356.184 388.861 356.184 387.978C356.184 387.101 356.05 386.296 355.781 385.562C355.519 384.822 355.113 384.228 354.564 383.781C354.016 383.334 353.324 383.11 352.488 383.11C351.647 383.11 350.949 383.334 350.394 383.781C349.845 384.228 349.437 384.822 349.168 385.562C348.906 386.296 348.775 387.101 348.775 387.978C348.775 388.861 348.906 389.669 349.168 390.403C349.437 391.137 349.845 391.724 350.394 392.166C350.949 392.607 351.647 392.828 352.488 392.828ZM361.873 394.797V381.052H364.459V383.235H364.603C364.853 382.495 365.295 381.914 365.927 381.49C366.565 381.061 367.287 380.846 368.093 380.846C368.26 380.846 368.457 380.852 368.683 380.864C368.916 380.876 369.098 380.891 369.229 380.908V383.468C369.122 383.438 368.931 383.405 368.656 383.369C368.382 383.328 368.108 383.307 367.833 383.307C367.201 383.307 366.637 383.441 366.142 383.709C365.653 383.972 365.265 384.339 364.978 384.81C364.692 385.275 364.549 385.806 364.549 386.403V394.797H361.873ZM381.845 384.407L379.419 384.837C379.318 384.527 379.157 384.231 378.936 383.951C378.721 383.671 378.429 383.441 378.059 383.262C377.689 383.083 377.227 382.994 376.672 382.994C375.915 382.994 375.282 383.164 374.775 383.504C374.268 383.838 374.014 384.27 374.014 384.801C374.014 385.261 374.184 385.63 374.524 385.911C374.865 386.191 375.413 386.421 376.171 386.6L378.355 387.101C379.619 387.393 380.562 387.844 381.182 388.452C381.803 389.061 382.113 389.851 382.113 390.824C382.113 391.647 381.874 392.381 381.397 393.025C380.926 393.663 380.267 394.165 379.419 394.528C378.578 394.892 377.603 395.074 376.493 395.074C374.954 395.074 373.698 394.746 372.726 394.09C371.753 393.428 371.157 392.488 370.936 391.271L373.522 390.877C373.683 391.551 374.014 392.062 374.516 392.408C375.017 392.748 375.67 392.918 376.475 392.918C377.352 392.918 378.053 392.736 378.578 392.372C379.103 392.002 379.366 391.551 379.366 391.021C379.366 390.591 379.205 390.23 378.882 389.938C378.566 389.645 378.08 389.425 377.424 389.276L375.097 388.765C373.815 388.473 372.866 388.008 372.252 387.369C371.643 386.731 371.339 385.923 371.339 384.944C371.339 384.133 371.565 383.423 372.019 382.815C372.472 382.206 373.099 381.732 373.898 381.392C374.697 381.046 375.613 380.873 376.645 380.873C378.131 380.873 379.3 381.195 380.153 381.839C381.006 382.478 381.57 383.334 381.845 384.407Z" fill="#4F4F4F"/>
<path d="M308.785 410.624V426.66H306.843V410.624H308.785ZM314.276 419.425V426.66H312.428V414.633H314.213V416.512H314.37C314.652 415.902 315.08 415.411 315.654 415.04C316.228 414.664 316.97 414.477 317.878 414.477C318.692 414.477 319.405 414.644 320.015 414.978C320.626 415.306 321.101 415.808 321.441 416.481C321.78 417.149 321.949 417.995 321.949 419.018V426.66H320.102V419.143C320.102 418.198 319.856 417.462 319.366 416.935C318.875 416.403 318.201 416.136 317.345 416.136C316.756 416.136 316.228 416.264 315.764 416.52C315.304 416.776 314.942 417.149 314.675 417.64C314.409 418.131 314.276 418.726 314.276 419.425ZM333.376 419.425V426.66H331.528V410.624H333.376V416.512H333.532C333.814 415.891 334.237 415.398 334.801 415.032C335.37 414.662 336.127 414.477 337.071 414.477C337.891 414.477 338.609 414.641 339.225 414.97C339.841 415.293 340.318 415.792 340.658 416.465C341.002 417.134 341.174 417.984 341.174 419.018V426.66H339.326V419.143C339.326 418.188 339.078 417.449 338.583 416.927C338.092 416.4 337.411 416.136 336.539 416.136C335.933 416.136 335.391 416.264 334.91 416.52C334.435 416.776 334.059 417.149 333.783 417.64C333.511 418.131 333.376 418.726 333.376 419.425ZM345.745 410.624L349.879 417.295H350.005L354.139 410.624H356.425L351.383 418.642L356.425 426.66H354.139L350.005 420.114H349.879L345.745 426.66H343.459L348.627 418.642L343.459 410.624H345.745ZM362.619 426.911C361.617 426.911 360.732 426.658 359.965 426.151C359.197 425.64 358.597 424.919 358.164 423.99C357.73 423.056 357.514 421.952 357.514 420.678C357.514 419.415 357.73 418.318 358.164 417.389C358.597 416.46 359.2 415.742 359.972 415.236C360.745 414.73 361.638 414.477 362.65 414.477C363.433 414.477 364.052 414.607 364.506 414.868C364.965 415.124 365.315 415.416 365.555 415.745C365.801 416.069 365.991 416.335 366.127 416.544H366.284V410.624H368.131V426.66H366.346V424.812H366.127C365.991 425.031 365.798 425.308 365.548 425.642C365.297 425.971 364.939 426.266 364.475 426.527C364.01 426.783 363.392 426.911 362.619 426.911ZM362.87 425.251C363.611 425.251 364.237 425.058 364.749 424.671C365.26 424.28 365.649 423.74 365.916 423.05C366.182 422.356 366.315 421.555 366.315 420.647C366.315 419.749 366.184 418.963 365.923 418.29C365.662 417.611 365.276 417.084 364.765 416.708C364.253 416.327 363.621 416.136 362.87 416.136C362.087 416.136 361.434 416.337 360.912 416.739C360.395 417.136 360.006 417.676 359.745 418.36C359.49 419.039 359.362 419.801 359.362 420.647C359.362 421.503 359.492 422.281 359.753 422.98C360.019 423.674 360.411 424.228 360.928 424.64C361.45 425.047 362.097 425.251 362.87 425.251ZM373.119 426.785C372.733 426.785 372.401 426.647 372.125 426.37C371.848 426.094 371.71 425.762 371.71 425.376C371.71 424.99 371.848 424.658 372.125 424.382C372.401 424.105 372.733 423.967 373.119 423.967C373.506 423.967 373.837 424.105 374.114 424.382C374.39 424.658 374.529 424.99 374.529 425.376C374.529 425.632 374.463 425.867 374.333 426.081C374.208 426.295 374.038 426.467 373.824 426.598C373.615 426.723 373.38 426.785 373.119 426.785ZM379.191 426.785C378.805 426.785 378.474 426.647 378.197 426.37C377.92 426.094 377.782 425.762 377.782 425.376C377.782 424.99 377.92 424.658 378.197 424.382C378.474 424.105 378.805 423.967 379.191 423.967C379.578 423.967 379.909 424.105 380.186 424.382C380.463 424.658 380.601 424.99 380.601 425.376C380.601 425.632 380.536 425.867 380.405 426.081C380.28 426.295 380.11 426.467 379.896 426.598C379.687 426.723 379.452 426.785 379.191 426.785ZM385.264 426.785C384.877 426.785 384.546 426.647 384.269 426.37C383.993 426.094 383.854 425.762 383.854 425.376C383.854 424.99 383.993 424.658 384.269 424.382C384.546 424.105 384.877 423.967 385.264 423.967C385.65 423.967 385.982 424.105 386.258 424.382C386.535 424.658 386.673 424.99 386.673 425.376C386.673 425.632 386.608 425.867 386.477 426.081C386.352 426.295 386.182 426.467 385.968 426.598C385.76 426.723 385.525 426.785 385.264 426.785ZM403.739 421.054C403.353 421.054 403.021 420.915 402.744 420.639C402.468 420.362 402.329 420.031 402.329 419.644C402.329 419.258 402.468 418.927 402.744 418.65C403.021 418.373 403.353 418.235 403.739 418.235C404.125 418.235 404.457 418.373 404.733 418.65C405.01 418.927 405.148 419.258 405.148 419.644C405.148 419.9 405.083 420.135 404.953 420.349C404.827 420.563 404.658 420.735 404.444 420.866C404.235 420.991 404 421.054 403.739 421.054ZM414.916 426.66V410.624H424.594V412.347H416.858V417.765H424.093V419.488H416.858V424.938H424.72V426.66H414.916ZM432.385 426.911C431.383 426.911 430.498 426.658 429.731 426.151C428.964 425.64 428.363 424.919 427.93 423.99C427.497 423.056 427.28 421.952 427.28 420.678C427.28 419.415 427.497 418.318 427.93 417.389C428.363 416.46 428.966 415.742 429.739 415.236C430.511 414.73 431.404 414.477 432.417 414.477C433.2 414.477 433.818 414.607 434.272 414.868C434.732 415.124 435.082 415.416 435.322 415.745C435.567 416.069 435.758 416.335 435.893 416.544H436.05V410.624H437.898V426.66H436.112V424.812H435.893C435.758 425.031 435.564 425.308 435.314 425.642C435.063 425.971 434.706 426.266 434.241 426.527C433.777 426.783 433.158 426.911 432.385 426.911ZM432.636 425.251C433.377 425.251 434.004 425.058 434.515 424.671C435.027 424.28 435.416 423.74 435.682 423.05C435.948 422.356 436.081 421.555 436.081 420.647C436.081 419.749 435.951 418.963 435.69 418.29C435.429 417.611 435.042 417.084 434.531 416.708C434.019 416.327 433.388 416.136 432.636 416.136C431.853 416.136 431.2 416.337 430.678 416.739C430.162 417.136 429.773 417.676 429.512 418.36C429.256 419.039 429.128 419.801 429.128 420.647C429.128 421.503 429.259 422.281 429.52 422.98C429.786 423.674 430.177 424.228 430.694 424.64C431.216 425.047 431.863 425.251 432.636 425.251ZM441.539 426.66V414.633H443.387V426.66H441.539ZM442.478 412.629C442.118 412.629 441.808 412.506 441.547 412.261C441.291 412.015 441.163 411.72 441.163 411.376C441.163 411.031 441.291 410.736 441.547 410.491C441.808 410.246 442.118 410.123 442.478 410.123C442.839 410.123 443.147 410.246 443.402 410.491C443.663 410.736 443.794 411.031 443.794 411.376C443.794 411.72 443.663 412.015 443.402 412.261C443.147 412.506 442.839 412.629 442.478 412.629ZM452.002 414.633V416.199H445.769V414.633H452.002ZM447.586 411.752H449.433V423.215C449.433 423.737 449.509 424.128 449.661 424.389C449.817 424.645 450.016 424.817 450.256 424.906C450.501 424.99 450.759 425.031 451.031 425.031C451.234 425.031 451.401 425.021 451.532 425C451.662 424.974 451.767 424.953 451.845 424.938L452.221 426.598C452.096 426.644 451.921 426.691 451.696 426.738C451.472 426.791 451.187 426.817 450.843 426.817C450.321 426.817 449.809 426.705 449.308 426.48C448.812 426.256 448.4 425.914 448.071 425.454C447.747 424.995 447.586 424.416 447.586 423.716V411.752ZM459.695 426.911C458.536 426.911 457.536 426.655 456.696 426.143C455.861 425.627 455.216 424.906 454.762 423.982C454.313 423.053 454.088 421.973 454.088 420.741C454.088 419.509 454.313 418.423 454.762 417.483C455.216 416.538 455.848 415.802 456.657 415.275C457.471 414.743 458.421 414.477 459.507 414.477C460.133 414.477 460.752 414.581 461.363 414.79C461.973 414.999 462.529 415.338 463.03 415.808C463.532 416.272 463.931 416.888 464.228 417.656C464.526 418.423 464.675 419.368 464.675 420.49V421.273H455.404V419.676H462.796C462.796 418.997 462.66 418.392 462.388 417.859C462.122 417.327 461.741 416.906 461.245 416.598C460.754 416.29 460.175 416.136 459.507 416.136C458.771 416.136 458.134 416.319 457.596 416.685C457.064 417.045 456.654 417.515 456.367 418.094C456.08 418.673 455.936 419.295 455.936 419.958V421.022C455.936 421.931 456.093 422.701 456.406 423.332C456.725 423.959 457.166 424.436 457.729 424.765C458.293 425.089 458.948 425.251 459.695 425.251C460.18 425.251 460.619 425.183 461.01 425.047C461.407 424.906 461.749 424.697 462.036 424.421C462.323 424.139 462.545 423.789 462.702 423.372L464.487 423.873C464.299 424.478 463.983 425.011 463.539 425.47C463.096 425.924 462.548 426.279 461.895 426.535C461.243 426.785 460.509 426.911 459.695 426.911ZM472.027 426.911C471.025 426.911 470.14 426.658 469.373 426.151C468.605 425.64 468.005 424.919 467.572 423.99C467.139 423.056 466.922 421.952 466.922 420.678C466.922 419.415 467.139 418.318 467.572 417.389C468.005 416.46 468.608 415.742 469.381 415.236C470.153 414.73 471.046 414.477 472.059 414.477C472.842 414.477 473.46 414.607 473.914 414.868C474.374 415.124 474.723 415.416 474.964 415.745C475.209 416.069 475.399 416.335 475.535 416.544H475.692V410.624H477.54V426.66H475.754V424.812H475.535C475.399 425.031 475.206 425.308 474.956 425.642C474.705 425.971 474.348 426.266 473.883 426.527C473.418 426.783 472.8 426.911 472.027 426.911ZM472.278 425.251C473.019 425.251 473.645 425.058 474.157 424.671C474.669 424.28 475.058 423.74 475.324 423.05C475.59 422.356 475.723 421.555 475.723 420.647C475.723 419.749 475.593 418.963 475.332 418.29C475.071 417.611 474.684 417.084 474.173 416.708C473.661 416.327 473.03 416.136 472.278 416.136C471.495 416.136 470.842 416.337 470.32 416.739C469.803 417.136 469.415 417.676 469.154 418.36C468.898 419.039 468.77 419.801 468.77 420.647C468.77 421.503 468.9 422.281 469.161 422.98C469.428 423.674 469.819 424.228 470.336 424.64C470.858 425.047 471.505 425.251 472.278 425.251ZM487.351 426.66V425.251L492.644 419.456C493.265 418.778 493.777 418.188 494.179 417.687C494.581 417.181 494.878 416.705 495.071 416.262C495.27 415.813 495.369 415.343 495.369 414.852C495.369 414.289 495.233 413.801 494.962 413.388C494.695 412.976 494.33 412.657 493.865 412.433C493.401 412.208 492.879 412.096 492.299 412.096C491.683 412.096 491.146 412.224 490.686 412.48C490.232 412.73 489.88 413.083 489.629 413.537C489.384 413.991 489.261 414.523 489.261 415.134H487.413C487.413 414.195 487.63 413.37 488.063 412.66C488.497 411.95 489.086 411.397 489.833 411C490.585 410.603 491.428 410.405 492.362 410.405C493.302 410.405 494.134 410.603 494.86 411C495.585 411.397 496.154 411.932 496.567 412.605C496.979 413.278 497.185 414.028 497.185 414.852C497.185 415.442 497.078 416.019 496.864 416.583C496.656 417.141 496.29 417.765 495.768 418.454C495.251 419.138 494.534 419.973 493.615 420.96L490.013 424.812V424.938H497.467V426.66H487.351ZM506.934 426.66V414.633H508.719V416.512H508.876C509.126 415.87 509.531 415.372 510.089 415.017C510.648 414.657 511.319 414.477 512.102 414.477C512.895 414.477 513.556 414.657 514.083 415.017C514.615 415.372 515.03 415.87 515.328 416.512H515.453C515.761 415.891 516.223 415.398 516.839 415.032C517.455 414.662 518.194 414.477 519.055 414.477C520.13 414.477 521.01 414.813 521.694 415.487C522.377 416.155 522.719 417.196 522.719 418.611V426.66H520.871V418.611C520.871 417.723 520.629 417.089 520.143 416.708C519.658 416.327 519.086 416.136 518.428 416.136C517.583 416.136 516.928 416.392 516.463 416.904C515.999 417.41 515.766 418.052 515.766 418.83V426.66H513.887V418.423C513.887 417.739 513.665 417.188 513.221 416.771C512.778 416.348 512.206 416.136 511.507 416.136C511.026 416.136 510.577 416.264 510.16 416.52C509.747 416.776 509.413 417.131 509.158 417.585C508.907 418.034 508.782 418.553 508.782 419.143V426.66H506.934ZM530.984 426.911C529.898 426.911 528.946 426.652 528.126 426.136C527.312 425.619 526.675 424.896 526.216 423.967C525.761 423.037 525.534 421.952 525.534 420.709C525.534 419.456 525.761 418.363 526.216 417.428C526.675 416.494 527.312 415.768 528.126 415.252C528.946 414.735 529.898 414.477 530.984 414.477C532.07 414.477 533.02 414.735 533.834 415.252C534.654 415.768 535.291 416.494 535.745 417.428C536.204 418.363 536.434 419.456 536.434 420.709C536.434 421.952 536.204 423.037 535.745 423.967C535.291 424.896 534.654 425.619 533.834 426.136C533.02 426.652 532.07 426.911 530.984 426.911ZM530.984 425.251C531.809 425.251 532.487 425.039 533.02 424.616C533.552 424.194 533.946 423.638 534.202 422.949C534.458 422.26 534.586 421.513 534.586 420.709C534.586 419.905 534.458 419.156 534.202 418.462C533.946 417.768 533.552 417.207 533.02 416.779C532.487 416.351 531.809 416.136 530.984 416.136C530.159 416.136 529.481 416.351 528.948 416.779C528.416 417.207 528.022 417.768 527.766 418.462C527.51 419.156 527.382 419.905 527.382 420.709C527.382 421.513 527.51 422.26 527.766 422.949C528.022 423.638 528.416 424.194 528.948 424.616C529.481 425.039 530.159 425.251 530.984 425.251ZM541.103 419.425V426.66H539.255V414.633H541.04V416.512H541.196C541.478 415.902 541.906 415.411 542.481 415.04C543.055 414.664 543.796 414.477 544.704 414.477C545.519 414.477 546.231 414.644 546.842 414.978C547.453 415.306 547.928 415.808 548.267 416.481C548.606 417.149 548.776 417.995 548.776 419.018V426.66H546.928V419.143C546.928 418.198 546.683 417.462 546.192 416.935C545.701 416.403 545.028 416.136 544.172 416.136C543.582 416.136 543.055 416.264 542.59 416.52C542.131 416.776 541.768 417.149 541.502 417.64C541.236 418.131 541.103 418.726 541.103 419.425ZM557.383 414.633V416.199H551.151V414.633H557.383ZM552.967 411.752H554.815V423.215C554.815 423.737 554.891 424.128 555.042 424.389C555.199 424.645 555.397 424.817 555.637 424.906C555.883 424.99 556.141 425.031 556.412 425.031C556.616 425.031 556.783 425.021 556.913 425C557.044 424.974 557.148 424.953 557.227 424.938L557.603 426.598C557.477 426.644 557.302 426.691 557.078 426.738C556.853 426.791 556.569 426.817 556.224 426.817C555.702 426.817 555.191 426.705 554.69 426.48C554.194 426.256 553.781 425.914 553.453 425.454C553.129 424.995 552.967 424.416 552.967 423.716V411.752ZM562.269 419.425V426.66H560.421V410.624H562.269V416.512H562.426C562.708 415.891 563.131 415.398 563.694 415.032C564.263 414.662 565.02 414.477 565.965 414.477C566.785 414.477 567.502 414.641 568.118 414.97C568.734 415.293 569.212 415.792 569.551 416.465C569.896 417.134 570.068 417.984 570.068 419.018V426.66H568.22V419.143C568.22 418.188 567.972 417.449 567.476 416.927C566.986 416.4 566.304 416.136 565.433 416.136C564.827 416.136 564.284 416.264 563.804 416.52C563.329 416.776 562.953 417.149 562.676 417.64C562.405 418.131 562.269 418.726 562.269 419.425ZM581.968 417.327L580.308 417.796C580.203 417.52 580.05 417.251 579.846 416.99C579.648 416.724 579.376 416.505 579.032 416.332C578.687 416.16 578.246 416.074 577.708 416.074C576.972 416.074 576.359 416.243 575.868 416.583C575.383 416.917 575.14 417.342 575.14 417.859C575.14 418.318 575.307 418.681 575.641 418.947C575.975 419.214 576.497 419.436 577.207 419.613L578.992 420.052C580.068 420.313 580.869 420.712 581.396 421.25C581.924 421.782 582.187 422.468 582.187 423.309C582.187 423.998 581.989 424.614 581.592 425.157C581.201 425.7 580.652 426.128 579.948 426.441C579.243 426.754 578.423 426.911 577.489 426.911C576.262 426.911 575.247 426.644 574.443 426.112C573.639 425.58 573.13 424.802 572.916 423.779L574.67 423.34C574.837 423.987 575.153 424.473 575.618 424.797C576.087 425.12 576.701 425.282 577.458 425.282C578.319 425.282 579.003 425.099 579.509 424.734C580.021 424.363 580.277 423.92 580.277 423.403C580.277 422.985 580.13 422.635 579.838 422.354C579.546 422.066 579.097 421.852 578.491 421.712L576.487 421.242C575.385 420.981 574.576 420.576 574.059 420.028C573.548 419.475 573.292 418.783 573.292 417.953C573.292 417.274 573.483 416.674 573.864 416.152C574.25 415.63 574.775 415.22 575.438 414.923C576.106 414.625 576.863 414.477 577.708 414.477C578.898 414.477 579.833 414.738 580.511 415.26C581.195 415.782 581.681 416.471 581.968 417.327ZM594.709 426.942C593.947 426.942 593.256 426.798 592.634 426.511C592.013 426.219 591.52 425.799 591.155 425.251C590.789 424.697 590.606 424.029 590.606 423.246C590.606 422.557 590.742 421.999 591.014 421.571C591.285 421.137 591.648 420.798 592.102 420.553C592.556 420.307 593.057 420.125 593.605 420.005C594.159 419.879 594.715 419.78 595.273 419.707C596.004 419.613 596.596 419.543 597.051 419.496C597.51 419.443 597.844 419.357 598.053 419.237C598.267 419.117 598.374 418.908 598.374 418.611V418.548C598.374 417.776 598.163 417.175 597.74 416.747C597.322 416.319 596.688 416.105 595.837 416.105C594.955 416.105 594.263 416.298 593.762 416.685C593.261 417.071 592.909 417.483 592.705 417.922L590.951 417.295C591.264 416.565 591.682 415.996 592.204 415.588C592.731 415.176 593.305 414.889 593.926 414.727C594.553 414.56 595.169 414.477 595.774 414.477C596.161 414.477 596.604 414.523 597.105 414.617C597.612 414.706 598.1 414.891 598.57 415.173C599.045 415.455 599.439 415.881 599.752 416.45C600.065 417.019 600.222 417.781 600.222 418.736V426.66H598.374V425.031H598.28C598.155 425.292 597.946 425.572 597.654 425.869C597.361 426.167 596.972 426.42 596.487 426.629C596.001 426.838 595.409 426.942 594.709 426.942ZM594.991 425.282C595.722 425.282 596.338 425.139 596.839 424.851C597.346 424.564 597.727 424.194 597.982 423.74C598.243 423.285 598.374 422.808 598.374 422.307V420.615C598.296 420.709 598.123 420.795 597.857 420.874C597.596 420.947 597.293 421.012 596.949 421.069C596.61 421.122 596.278 421.169 595.954 421.21C595.636 421.247 595.378 421.278 595.179 421.304C594.699 421.367 594.25 421.469 593.832 421.61C593.42 421.745 593.086 421.952 592.83 422.228C592.58 422.5 592.454 422.87 592.454 423.34C592.454 423.982 592.692 424.468 593.167 424.797C593.647 425.12 594.255 425.282 594.991 425.282ZM608.449 431.421C607.557 431.421 606.789 431.306 606.147 431.076C605.505 430.852 604.97 430.554 604.542 430.184C604.119 429.818 603.783 429.427 603.532 429.009L605.004 427.976C605.171 428.195 605.382 428.445 605.638 428.727C605.894 429.014 606.244 429.262 606.688 429.471C607.136 429.685 607.724 429.792 608.449 429.792C609.42 429.792 610.222 429.557 610.853 429.087C611.485 428.618 611.801 427.882 611.801 426.879V424.436H611.644C611.508 424.656 611.315 424.927 611.065 425.251C610.819 425.569 610.464 425.854 610 426.104C609.54 426.35 608.919 426.472 608.136 426.472C607.165 426.472 606.293 426.243 605.521 425.783C604.753 425.324 604.145 424.656 603.696 423.779C603.253 422.902 603.031 421.837 603.031 420.584C603.031 419.352 603.247 418.279 603.681 417.366C604.114 416.447 604.717 415.737 605.49 415.236C606.262 414.73 607.155 414.477 608.167 414.477C608.95 414.477 609.572 414.607 610.031 414.868C610.496 415.124 610.851 415.416 611.096 415.745C611.346 416.069 611.54 416.335 611.675 416.544H611.863V414.633H613.648V427.005C613.648 428.038 613.414 428.879 612.944 429.526C612.479 430.178 611.853 430.656 611.065 430.959C610.282 431.267 609.41 431.421 608.449 431.421ZM608.387 424.812C609.128 424.812 609.754 424.643 610.266 424.303C610.777 423.964 611.166 423.476 611.433 422.839C611.699 422.202 611.832 421.44 611.832 420.553C611.832 419.686 611.701 418.921 611.44 418.258C611.179 417.595 610.793 417.076 610.282 416.7C609.77 416.324 609.138 416.136 608.387 416.136C607.604 416.136 606.951 416.335 606.429 416.732C605.912 417.128 605.523 417.661 605.262 418.329C605.007 418.997 604.879 419.738 604.879 420.553C604.879 421.388 605.009 422.127 605.27 422.769C605.536 423.405 605.928 423.907 606.445 424.272C606.967 424.632 607.614 424.812 608.387 424.812ZM621.917 426.911C620.831 426.911 619.879 426.652 619.059 426.136C618.245 425.619 617.608 424.896 617.149 423.967C616.694 423.037 616.467 421.952 616.467 420.709C616.467 419.456 616.694 418.363 617.149 417.428C617.608 416.494 618.245 415.768 619.059 415.252C619.879 414.735 620.831 414.477 621.917 414.477C623.003 414.477 623.953 414.735 624.767 415.252C625.587 415.768 626.224 416.494 626.678 417.428C627.137 418.363 627.367 419.456 627.367 420.709C627.367 421.952 627.137 423.037 626.678 423.967C626.224 424.896 625.587 425.619 624.767 426.136C623.953 426.652 623.003 426.911 621.917 426.911ZM621.917 425.251C622.742 425.251 623.42 425.039 623.953 424.616C624.485 424.194 624.879 423.638 625.135 422.949C625.391 422.26 625.519 421.513 625.519 420.709C625.519 419.905 625.391 419.156 625.135 418.462C624.879 417.768 624.485 417.207 623.953 416.779C623.42 416.351 622.742 416.136 621.917 416.136C621.092 416.136 620.414 416.351 619.881 416.779C619.349 417.207 618.955 417.768 618.699 418.462C618.443 419.156 618.315 419.905 618.315 420.709C618.315 421.513 618.443 422.26 618.699 422.949C618.955 423.638 619.349 424.194 619.881 424.616C620.414 425.039 621.092 425.251 621.917 425.251Z" fill="#B3B3B3"/>
<circle cx="389.163" cy="375.465" r="12.5998" fill="#0A8BEF" stroke="white" stroke-width="1.57497"/>
<path d="M392.351 378.833C392.574 378.833 392.749 378.898 392.878 379.026C393.012 379.149 393.079 379.313 393.079 379.519V380.758H384.778V380.072C384.778 379.932 384.806 379.787 384.862 379.637C384.924 379.48 385.018 379.341 385.147 379.218L388.82 375.537C389.127 375.224 389.4 374.926 389.64 374.642C389.885 374.357 390.089 374.075 390.251 373.796C390.412 373.518 390.535 373.236 390.619 372.951C390.708 372.661 390.753 372.357 390.753 372.039C390.753 371.749 390.711 371.496 390.627 371.278C390.543 371.055 390.423 370.868 390.267 370.717C390.117 370.567 389.933 370.455 389.715 370.383C389.503 370.305 389.263 370.266 388.995 370.266C388.75 370.266 388.521 370.302 388.309 370.374C388.103 370.441 387.919 370.539 387.757 370.667C387.595 370.79 387.459 370.935 387.347 371.102C387.236 371.27 387.152 371.454 387.096 371.654C387.001 371.911 386.879 372.081 386.728 372.165C386.577 372.249 386.36 372.268 386.075 372.223L384.988 372.031C385.071 371.451 385.233 370.943 385.473 370.508C385.713 370.068 386.011 369.702 386.368 369.412C386.731 369.116 387.144 368.896 387.607 368.751C388.075 368.601 388.577 368.525 389.113 368.525C389.67 368.525 390.181 368.609 390.644 368.776C391.107 368.938 391.503 369.169 391.832 369.471C392.161 369.772 392.418 370.134 392.602 370.558C392.786 370.982 392.878 371.454 392.878 371.972C392.878 372.419 392.811 372.831 392.677 373.211C392.549 373.59 392.373 373.953 392.15 374.298C391.932 374.644 391.676 374.979 391.38 375.303C391.084 375.626 390.775 375.955 390.451 376.29L387.724 379.076C387.986 378.998 388.245 378.939 388.502 378.9C388.764 378.856 389.012 378.833 389.246 378.833H392.351Z" fill="white"/>
</g>
<g clip-path="url(#clip0_1753_128925)">
<g clip-path="url(#clip1_1753_128925)">
<rect x="279.701" y="44.7227" width="560.69" height="293.732" fill="#ECFBF4"/>
<rect x="730.468" y="64.8039" width="88.2621" height="25.8123" rx="1.96871" fill="#42C256" fill-opacity="0.1"/>
<path d="M744.301 81.1108C744.393 81.1192 744.498 81.1276 744.616 81.136C744.742 81.136 744.889 81.136 745.057 81.136C746.04 81.136 746.766 80.8882 747.237 80.3926C747.715 79.897 747.955 79.2124 747.955 78.3388C747.955 77.4232 747.728 76.7302 747.274 76.2599C746.821 75.7895 746.103 75.5543 745.12 75.5543C744.986 75.5543 744.847 75.5585 744.704 75.5669C744.561 75.5669 744.427 75.5753 744.301 75.5921V81.1108ZM749.983 78.3388C749.983 79.0948 749.866 79.7542 749.631 80.317C749.395 80.8798 749.059 81.346 748.623 81.7156C748.194 82.0851 747.669 82.3623 747.048 82.5471C746.426 82.7319 745.729 82.8243 744.956 82.8243C744.603 82.8243 744.192 82.8075 743.721 82.7739C743.251 82.7487 742.789 82.6899 742.335 82.5975V74.0927C742.789 74.0087 743.259 73.9541 743.747 73.9289C744.242 73.8953 744.666 73.8785 745.019 73.8785C745.767 73.8785 746.443 73.9625 747.048 74.1305C747.661 74.2985 748.186 74.5631 748.623 74.9243C749.059 75.2855 749.395 75.7475 749.631 76.3103C749.866 76.873 749.983 77.5492 749.983 78.3388ZM751.625 82.7109V73.9793H757.522V75.6299H753.591V77.3434H757.081V78.9562H753.591V81.0604H757.812V82.7109H751.625ZM761.887 73.8785C763.189 73.8785 764.189 74.1095 764.886 74.5715C765.583 75.0251 765.932 75.7727 765.932 76.8142C765.932 77.8642 765.579 78.6244 764.873 79.0948C764.168 79.5568 763.16 79.7878 761.849 79.7878H761.232V82.7109H759.266V74.1053C759.695 74.0213 760.148 73.9625 760.627 73.9289C761.106 73.8953 761.526 73.8785 761.887 73.8785ZM762.013 75.5543C761.87 75.5543 761.727 75.5585 761.585 75.5669C761.45 75.5753 761.333 75.5837 761.232 75.5921V78.112H761.849C762.53 78.112 763.042 78.0196 763.386 77.8348C763.731 77.65 763.903 77.3056 763.903 76.8016C763.903 76.5581 763.857 76.3565 763.764 76.1969C763.68 76.0373 763.554 75.9113 763.386 75.8189C763.227 75.7181 763.029 75.6509 762.794 75.6173C762.559 75.5753 762.299 75.5543 762.013 75.5543ZM773.209 81.0226V82.7109H767.375V73.9793H769.34V81.0226H773.209ZM775.879 78.3388C775.879 78.7672 775.929 79.1536 776.03 79.498C776.139 79.8424 776.291 80.1406 776.484 80.3926C776.685 80.6362 776.929 80.8252 777.215 80.9596C777.5 81.094 777.828 81.1612 778.197 81.1612C778.559 81.1612 778.882 81.094 779.168 80.9596C779.462 80.8252 779.705 80.6362 779.898 80.3926C780.1 80.1406 780.251 79.8424 780.352 79.498C780.461 79.1536 780.516 78.7672 780.516 78.3388C780.516 77.9104 780.461 77.524 780.352 77.1796C780.251 76.8268 780.1 76.5287 779.898 76.2851C779.705 76.0331 779.462 75.8399 779.168 75.7055C778.882 75.5711 778.559 75.5039 778.197 75.5039C777.828 75.5039 777.5 75.5753 777.215 75.7181C776.929 75.8525 776.685 76.0457 776.484 76.2977C776.291 76.5413 776.139 76.8394 776.03 77.1922C775.929 77.5366 775.879 77.9188 775.879 78.3388ZM782.544 78.3388C782.544 79.0864 782.431 79.7458 782.204 80.317C781.986 80.8798 781.683 81.3544 781.297 81.7408C780.911 82.1187 780.449 82.4043 779.911 82.5975C779.382 82.7907 778.811 82.8873 778.197 82.8873C777.601 82.8873 777.038 82.7907 776.509 82.5975C775.98 82.4043 775.518 82.1187 775.123 81.7408C774.728 81.3544 774.418 80.8798 774.191 80.317C773.964 79.7458 773.851 79.0864 773.851 78.3388C773.851 77.5912 773.968 76.936 774.203 76.3733C774.439 75.8021 774.754 75.3233 775.148 74.9369C775.551 74.5505 776.013 74.2607 776.534 74.0675C777.063 73.8743 777.618 73.7777 778.197 73.7777C778.794 73.7777 779.357 73.8743 779.886 74.0675C780.415 74.2607 780.877 74.5505 781.272 74.9369C781.667 75.3233 781.977 75.8021 782.204 76.3733C782.431 76.936 782.544 77.5912 782.544 78.3388ZM786.817 77.5702C787.17 76.9738 787.506 76.3775 787.825 75.7811C788.144 75.1847 788.438 74.5841 788.707 73.9793H790.874C790.395 74.9201 789.9 75.8315 789.388 76.7134C788.875 77.5954 788.333 78.4816 787.762 79.372V82.7109H785.797V79.3972C785.225 78.5068 784.679 77.6164 784.159 76.726C783.646 75.8357 783.151 74.9201 782.672 73.9793H784.952C785.221 74.5841 785.511 75.1847 785.822 75.7811C786.133 76.3775 786.464 76.9738 786.817 77.5702ZM791.947 82.7109V73.9793H797.844V75.6299H793.912V77.3434H797.403V78.9562H793.912V81.0604H798.133V82.7109H791.947ZM801.554 81.1108C801.646 81.1192 801.751 81.1276 801.869 81.136C801.995 81.136 802.142 81.136 802.31 81.136C803.292 81.136 804.019 80.8882 804.489 80.3926C804.968 79.897 805.208 79.2124 805.208 78.3388C805.208 77.4232 804.981 76.7302 804.527 76.2599C804.074 75.7895 803.355 75.5543 802.373 75.5543C802.238 75.5543 802.1 75.5585 801.957 75.5669C801.814 75.5669 801.68 75.5753 801.554 75.5921V81.1108ZM807.236 78.3388C807.236 79.0948 807.118 79.7542 806.883 80.317C806.648 80.8798 806.312 81.346 805.875 81.7156C805.447 82.0851 804.922 82.3623 804.3 82.5471C803.679 82.7319 802.982 82.8243 802.209 82.8243C801.856 82.8243 801.444 82.8075 800.974 82.7739C800.504 82.7487 800.042 82.6899 799.588 82.5975V74.0927C800.042 74.0087 800.512 73.9541 800.999 73.9289C801.495 73.8953 801.919 73.8785 802.272 73.8785C803.019 73.8785 803.696 73.9625 804.3 74.1305C804.914 74.2985 805.438 74.5631 805.875 74.9243C806.312 75.2855 806.648 75.7475 806.883 76.3103C807.118 76.873 807.236 77.5492 807.236 78.3388Z" fill="#2AC081"/>
<rect x="730.468" y="64.8039" width="88.2621" height="25.8123" rx="1.96871" stroke="#2AC081" stroke-width="0.787485"/>
<g clip-path="url(#clip2_1753_128925)">
<circle cx="429.872" cy="191.827" r="22.1625" fill="#219653"/>
<path d="M429.872 169.781C425.48 169.781 421.188 171.083 417.537 173.523C413.885 175.963 411.04 179.43 409.359 183.487C407.679 187.544 407.239 192.009 408.096 196.316C408.952 200.622 411.067 204.579 414.172 207.684C417.277 210.789 421.233 212.903 425.54 213.76C429.847 214.617 434.311 214.177 438.368 212.497C442.425 210.816 445.893 207.97 448.333 204.319C450.772 200.668 452.074 196.375 452.074 191.984C452.074 189.068 451.5 186.181 450.384 183.487C449.269 180.794 447.633 178.346 445.571 176.284C443.51 174.223 441.062 172.587 438.368 171.471C435.675 170.356 432.787 169.781 429.872 169.781ZM429.872 210.856C426.139 210.856 422.49 209.749 419.387 207.676C416.283 205.602 413.864 202.655 412.436 199.206C411.008 195.758 410.634 191.963 411.362 188.302C412.09 184.641 413.888 181.279 416.527 178.639C419.166 176 422.529 174.202 426.19 173.474C429.851 172.746 433.645 173.12 437.094 174.548C440.542 175.977 443.49 178.396 445.563 181.499C447.637 184.603 448.744 188.251 448.744 191.984C448.738 196.987 446.748 201.784 443.21 205.322C439.672 208.86 434.875 210.85 429.872 210.856ZM428.54 193.76L423.522 188.742L421.301 190.963L428.428 198.09L438.642 187.876L436.532 185.656L428.54 193.76Z" fill="#219653"/>
<path d="M422.34 190.292L428.528 196.292L437.41 187.363" stroke="white" stroke-width="4.56742"/>
</g>
<g clip-path="url(#clip3_1753_128925)">
<circle cx="516.499" cy="191.983" r="22.1625" fill="#0C73D2"/>
<path d="M516.495 173.303C520.227 173.303 523.876 174.41 526.98 176.484C530.083 178.557 532.502 181.505 533.93 184.953C535.359 188.402 535.733 192.196 535.004 195.857C534.276 199.518 532.479 202.881 529.839 205.52C527.2 208.159 523.837 209.957 520.177 210.685C516.516 211.413 512.721 211.04 509.273 209.611C505.824 208.183 502.877 205.764 500.803 202.66C498.729 199.557 497.622 195.908 497.622 192.175C497.628 187.172 499.618 182.375 503.156 178.837C506.694 175.299 511.491 173.309 516.495 173.303ZM516.495 169.973C512.103 169.973 507.811 171.275 504.16 173.714C500.508 176.154 497.663 179.622 495.982 183.679C494.302 187.736 493.862 192.2 494.719 196.507C495.575 200.814 497.69 204.77 500.795 207.875C503.9 210.98 507.856 213.095 512.163 213.951C516.47 214.808 520.934 214.368 524.991 212.688C529.048 211.008 532.516 208.162 534.956 204.511C537.395 200.859 538.697 196.567 538.697 192.175C538.697 189.26 538.123 186.373 537.007 183.679C535.892 180.985 534.256 178.537 532.194 176.476C530.133 174.414 527.685 172.779 524.991 171.663C522.298 170.547 519.41 169.973 516.495 169.973Z" fill="#0C73D2"/>
<path d="M517.088 185.212C516.521 185.212 516.083 185.056 515.775 184.745C515.484 184.415 515.338 183.957 515.338 183.371C515.338 182.785 515.484 182.337 515.775 182.026C516.083 181.714 516.521 181.559 517.088 181.559C517.638 181.559 518.06 181.714 518.351 182.026C518.659 182.337 518.813 182.785 518.813 183.371C518.813 183.957 518.659 184.415 518.351 184.745C518.06 185.056 517.638 185.212 517.088 185.212ZM518.376 187.519V201.251H515.775V187.519H518.376Z" fill="#0C73D2"/>
<path d="M517.048 187.637V201.185" stroke="white" stroke-width="4.56742"/>
<path d="M517.049 185.459C518.177 185.459 519.092 184.544 519.092 183.416C519.092 182.288 518.177 181.373 517.049 181.373C515.921 181.373 515.006 182.288 515.006 183.416C515.006 184.544 515.921 185.459 517.049 185.459Z" fill="white" stroke="white" stroke-width="0.761236"/>
</g>
<g clip-path="url(#clip4_1753_128925)">
<path d="M580.284 209.109L603.346 169.145L625.958 209.109H580.284Z" fill="#FFAD25"/>
<path d="M601.869 195.279L600.999 186.473H605.457L604.424 195.279H601.869Z" fill="white"/>
<ellipse cx="603.176" cy="201.086" rx="2.04735" ry="2.04735" fill="white"/>
</g>
<g clip-path="url(#clip5_1753_128925)">
<circle cx="689.982" cy="192.224" r="22.5992" fill="#DA2C2C"/>
<path d="M683.407 183.152L680.908 185.651L687.482 192.225L680.908 198.798L683.407 201.297L689.98 194.724L696.554 201.297L699.053 198.798L692.479 192.225L699.053 185.651L696.554 183.152L689.98 189.726L683.407 183.152Z" fill="white"/>
</g>
</g>
<rect width="560.69" height="125.21" transform="translate(279.701 338.453)" fill="white"/>
<path d="M309.68 376.47V394.797H306.915V376.47H309.68ZM319.282 395.074C317.952 395.074 316.806 394.773 315.846 394.17C314.891 393.562 314.157 392.724 313.644 391.656C313.131 390.588 312.875 389.365 312.875 387.987C312.875 386.591 313.137 385.359 313.662 384.291C314.187 383.217 314.927 382.379 315.881 381.777C316.836 381.174 317.961 380.873 319.255 380.873C320.299 380.873 321.23 381.067 322.047 381.454C322.864 381.836 323.524 382.373 324.025 383.065C324.532 383.757 324.833 384.566 324.929 385.49H322.324C322.181 384.846 321.853 384.291 321.34 383.826C320.833 383.36 320.153 383.128 319.3 383.128C318.554 383.128 317.901 383.325 317.34 383.718C316.785 384.106 316.353 384.661 316.042 385.383C315.732 386.099 315.577 386.946 315.577 387.924C315.577 388.927 315.729 389.792 316.034 390.519C316.338 391.247 316.767 391.811 317.322 392.211C317.883 392.61 318.542 392.81 319.3 392.81C319.807 392.81 320.266 392.718 320.678 392.533C321.096 392.342 321.445 392.071 321.725 391.719C322.011 391.367 322.211 390.943 322.324 390.448H324.929C324.833 391.337 324.544 392.13 324.061 392.828C323.577 393.526 322.93 394.075 322.119 394.475C321.313 394.874 320.368 395.074 319.282 395.074ZM333.58 395.074C332.291 395.074 331.167 394.779 330.206 394.188C329.246 393.598 328.5 392.771 327.969 391.71C327.438 390.648 327.172 389.407 327.172 387.987C327.172 386.561 327.438 385.314 327.969 384.246C328.5 383.178 329.246 382.349 330.206 381.759C331.167 381.168 332.291 380.873 333.58 380.873C334.868 380.873 335.993 381.168 336.953 381.759C337.914 382.349 338.66 383.178 339.191 384.246C339.721 385.314 339.987 386.561 339.987 387.987C339.987 389.407 339.721 390.648 339.191 391.71C338.66 392.771 337.914 393.598 336.953 394.188C335.993 394.779 334.868 395.074 333.58 395.074ZM333.589 392.828C334.424 392.828 335.116 392.607 335.665 392.166C336.214 391.724 336.619 391.137 336.882 390.403C337.15 389.669 337.284 388.861 337.284 387.978C337.284 387.101 337.15 386.296 336.882 385.562C336.619 384.822 336.214 384.228 335.665 383.781C335.116 383.334 334.424 383.11 333.589 383.11C332.747 383.11 332.049 383.334 331.495 383.781C330.946 384.228 330.537 384.822 330.269 385.562C330.006 386.296 329.875 387.101 329.875 387.978C329.875 388.861 330.006 389.669 330.269 390.403C330.537 391.137 330.946 391.724 331.495 392.166C332.049 392.607 332.747 392.828 333.589 392.828ZM345.649 386.636V394.797H342.974V381.052H345.542V383.289H345.712C346.028 382.561 346.523 381.976 347.197 381.535C347.877 381.093 348.734 380.873 349.766 380.873C350.702 380.873 351.523 381.07 352.227 381.463C352.931 381.851 353.476 382.43 353.864 383.199C354.252 383.969 354.446 384.92 354.446 386.054V394.797H351.77V386.376C351.77 385.38 351.511 384.601 350.992 384.041C350.473 383.474 349.76 383.19 348.853 383.19C348.232 383.19 347.681 383.325 347.197 383.593C346.72 383.862 346.341 384.255 346.061 384.774C345.786 385.287 345.649 385.908 345.649 386.636ZM368.334 384.407L365.909 384.837C365.808 384.527 365.647 384.231 365.426 383.951C365.211 383.671 364.919 383.441 364.549 383.262C364.179 383.083 363.717 382.994 363.162 382.994C362.404 382.994 361.772 383.164 361.265 383.504C360.758 383.838 360.504 384.27 360.504 384.801C360.504 385.261 360.674 385.63 361.014 385.911C361.354 386.191 361.903 386.421 362.661 386.6L364.844 387.101C366.109 387.393 367.052 387.844 367.672 388.452C368.292 389.061 368.603 389.851 368.603 390.824C368.603 391.647 368.364 392.381 367.887 393.025C367.415 393.663 366.756 394.165 365.909 394.528C365.068 394.892 364.093 395.074 362.983 395.074C361.444 395.074 360.188 394.746 359.215 394.09C358.243 393.428 357.646 392.488 357.426 391.271L360.012 390.877C360.173 391.551 360.504 392.062 361.005 392.408C361.506 392.748 362.16 392.918 362.965 392.918C363.842 392.918 364.543 392.736 365.068 392.372C365.593 392.002 365.855 391.551 365.855 391.021C365.855 390.591 365.694 390.23 365.372 389.938C365.056 389.645 364.57 389.425 363.914 389.276L361.587 388.765C360.304 388.473 359.356 388.008 358.741 387.369C358.133 386.731 357.828 385.923 357.828 384.944C357.828 384.133 358.055 383.423 358.509 382.815C358.962 382.206 359.588 381.732 360.388 381.392C361.187 381.046 362.103 380.873 363.135 380.873C364.621 380.873 365.79 381.195 366.643 381.839C367.496 382.478 368.06 383.334 368.334 384.407Z" fill="#4F4F4F"/>
<path d="M308.785 410.624V426.66H306.843V410.624H308.785ZM314.276 419.425V426.66H312.428V414.633H314.213V416.512H314.37C314.652 415.902 315.08 415.411 315.654 415.04C316.228 414.664 316.97 414.477 317.878 414.477C318.692 414.477 319.405 414.644 320.015 414.978C320.626 415.306 321.101 415.808 321.441 416.481C321.78 417.149 321.949 417.995 321.949 419.018V426.66H320.102V419.143C320.102 418.198 319.856 417.462 319.366 416.935C318.875 416.403 318.201 416.136 317.345 416.136C316.756 416.136 316.228 416.264 315.764 416.52C315.304 416.776 314.942 417.149 314.675 417.64C314.409 418.131 314.276 418.726 314.276 419.425ZM333.376 419.425V426.66H331.528V410.624H333.376V416.512H333.532C333.814 415.891 334.237 415.398 334.801 415.032C335.37 414.662 336.127 414.477 337.071 414.477C337.891 414.477 338.609 414.641 339.225 414.97C339.841 415.293 340.318 415.792 340.658 416.465C341.002 417.134 341.174 417.984 341.174 419.018V426.66H339.326V419.143C339.326 418.188 339.078 417.449 338.583 416.927C338.092 416.4 337.411 416.136 336.539 416.136C335.933 416.136 335.391 416.264 334.91 416.52C334.435 416.776 334.059 417.149 333.783 417.64C333.511 418.131 333.376 418.726 333.376 419.425ZM345.745 410.624L349.879 417.295H350.005L354.139 410.624H356.425L351.383 418.642L356.425 426.66H354.139L350.005 420.114H349.879L345.745 426.66H343.459L348.627 418.642L343.459 410.624H345.745ZM362.619 426.911C361.617 426.911 360.732 426.658 359.965 426.151C359.197 425.64 358.597 424.919 358.164 423.99C357.73 423.056 357.514 421.952 357.514 420.678C357.514 419.415 357.73 418.318 358.164 417.389C358.597 416.46 359.2 415.742 359.972 415.236C360.745 414.73 361.638 414.477 362.65 414.477C363.433 414.477 364.052 414.607 364.506 414.868C364.965 415.124 365.315 415.416 365.555 415.745C365.801 416.069 365.991 416.335 366.127 416.544H366.284V410.624H368.131V426.66H366.346V424.812H366.127C365.991 425.031 365.798 425.308 365.548 425.642C365.297 425.971 364.939 426.266 364.475 426.527C364.01 426.783 363.392 426.911 362.619 426.911ZM362.87 425.251C363.611 425.251 364.237 425.058 364.749 424.671C365.26 424.28 365.649 423.74 365.916 423.05C366.182 422.356 366.315 421.555 366.315 420.647C366.315 419.749 366.184 418.963 365.923 418.29C365.662 417.611 365.276 417.084 364.765 416.708C364.253 416.327 363.621 416.136 362.87 416.136C362.087 416.136 361.434 416.337 360.912 416.739C360.395 417.136 360.006 417.676 359.745 418.36C359.49 419.039 359.362 419.801 359.362 420.647C359.362 421.503 359.492 422.281 359.753 422.98C360.019 423.674 360.411 424.228 360.928 424.64C361.45 425.047 362.097 425.251 362.87 425.251ZM373.119 426.785C372.733 426.785 372.401 426.647 372.125 426.37C371.848 426.094 371.71 425.762 371.71 425.376C371.71 424.99 371.848 424.658 372.125 424.382C372.401 424.105 372.733 423.967 373.119 423.967C373.506 423.967 373.837 424.105 374.114 424.382C374.39 424.658 374.529 424.99 374.529 425.376C374.529 425.632 374.463 425.867 374.333 426.081C374.208 426.295 374.038 426.467 373.824 426.598C373.615 426.723 373.38 426.785 373.119 426.785ZM379.191 426.785C378.805 426.785 378.474 426.647 378.197 426.37C377.92 426.094 377.782 425.762 377.782 425.376C377.782 424.99 377.92 424.658 378.197 424.382C378.474 424.105 378.805 423.967 379.191 423.967C379.578 423.967 379.909 424.105 380.186 424.382C380.463 424.658 380.601 424.99 380.601 425.376C380.601 425.632 380.536 425.867 380.405 426.081C380.28 426.295 380.11 426.467 379.896 426.598C379.687 426.723 379.452 426.785 379.191 426.785ZM385.264 426.785C384.877 426.785 384.546 426.647 384.269 426.37C383.993 426.094 383.854 425.762 383.854 425.376C383.854 424.99 383.993 424.658 384.269 424.382C384.546 424.105 384.877 423.967 385.264 423.967C385.65 423.967 385.982 424.105 386.258 424.382C386.535 424.658 386.673 424.99 386.673 425.376C386.673 425.632 386.608 425.867 386.477 426.081C386.352 426.295 386.182 426.467 385.968 426.598C385.76 426.723 385.525 426.785 385.264 426.785ZM403.739 421.054C403.353 421.054 403.021 420.915 402.744 420.639C402.468 420.362 402.329 420.031 402.329 419.644C402.329 419.258 402.468 418.927 402.744 418.65C403.021 418.373 403.353 418.235 403.739 418.235C404.125 418.235 404.457 418.373 404.733 418.65C405.01 418.927 405.148 419.258 405.148 419.644C405.148 419.9 405.083 420.135 404.953 420.349C404.827 420.563 404.658 420.735 404.444 420.866C404.235 420.991 404 421.054 403.739 421.054ZM414.916 426.66V410.624H424.594V412.347H416.858V417.765H424.093V419.488H416.858V424.938H424.72V426.66H414.916ZM432.385 426.911C431.383 426.911 430.498 426.658 429.731 426.151C428.964 425.64 428.363 424.919 427.93 423.99C427.497 423.056 427.28 421.952 427.28 420.678C427.28 419.415 427.497 418.318 427.93 417.389C428.363 416.46 428.966 415.742 429.739 415.236C430.511 414.73 431.404 414.477 432.417 414.477C433.2 414.477 433.818 414.607 434.272 414.868C434.732 415.124 435.082 415.416 435.322 415.745C435.567 416.069 435.758 416.335 435.893 416.544H436.05V410.624H437.898V426.66H436.112V424.812H435.893C435.758 425.031 435.564 425.308 435.314 425.642C435.063 425.971 434.706 426.266 434.241 426.527C433.777 426.783 433.158 426.911 432.385 426.911ZM432.636 425.251C433.377 425.251 434.004 425.058 434.515 424.671C435.027 424.28 435.416 423.74 435.682 423.05C435.948 422.356 436.081 421.555 436.081 420.647C436.081 419.749 435.951 418.963 435.69 418.29C435.429 417.611 435.042 417.084 434.531 416.708C434.019 416.327 433.388 416.136 432.636 416.136C431.853 416.136 431.2 416.337 430.678 416.739C430.162 417.136 429.773 417.676 429.512 418.36C429.256 419.039 429.128 419.801 429.128 420.647C429.128 421.503 429.259 422.281 429.52 422.98C429.786 423.674 430.177 424.228 430.694 424.64C431.216 425.047 431.863 425.251 432.636 425.251ZM441.539 426.66V414.633H443.387V426.66H441.539ZM442.478 412.629C442.118 412.629 441.808 412.506 441.547 412.261C441.291 412.015 441.163 411.72 441.163 411.376C441.163 411.031 441.291 410.736 441.547 410.491C441.808 410.246 442.118 410.123 442.478 410.123C442.839 410.123 443.147 410.246 443.402 410.491C443.663 410.736 443.794 411.031 443.794 411.376C443.794 411.72 443.663 412.015 443.402 412.261C443.147 412.506 442.839 412.629 442.478 412.629ZM452.002 414.633V416.199H445.769V414.633H452.002ZM447.586 411.752H449.433V423.215C449.433 423.737 449.509 424.128 449.661 424.389C449.817 424.645 450.016 424.817 450.256 424.906C450.501 424.99 450.759 425.031 451.031 425.031C451.234 425.031 451.401 425.021 451.532 425C451.662 424.974 451.767 424.953 451.845 424.938L452.221 426.598C452.096 426.644 451.921 426.691 451.696 426.738C451.472 426.791 451.187 426.817 450.843 426.817C450.321 426.817 449.809 426.705 449.308 426.48C448.812 426.256 448.4 425.914 448.071 425.454C447.747 424.995 447.586 424.416 447.586 423.716V411.752ZM459.695 426.911C458.536 426.911 457.536 426.655 456.696 426.143C455.861 425.627 455.216 424.906 454.762 423.982C454.313 423.053 454.088 421.973 454.088 420.741C454.088 419.509 454.313 418.423 454.762 417.483C455.216 416.538 455.848 415.802 456.657 415.275C457.471 414.743 458.421 414.477 459.507 414.477C460.133 414.477 460.752 414.581 461.363 414.79C461.973 414.999 462.529 415.338 463.03 415.808C463.532 416.272 463.931 416.888 464.228 417.656C464.526 418.423 464.675 419.368 464.675 420.49V421.273H455.404V419.676H462.796C462.796 418.997 462.66 418.392 462.388 417.859C462.122 417.327 461.741 416.906 461.245 416.598C460.754 416.29 460.175 416.136 459.507 416.136C458.771 416.136 458.134 416.319 457.596 416.685C457.064 417.045 456.654 417.515 456.367 418.094C456.08 418.673 455.936 419.295 455.936 419.958V421.022C455.936 421.931 456.093 422.701 456.406 423.332C456.725 423.959 457.166 424.436 457.729 424.765C458.293 425.089 458.948 425.251 459.695 425.251C460.18 425.251 460.619 425.183 461.01 425.047C461.407 424.906 461.749 424.697 462.036 424.421C462.323 424.139 462.545 423.789 462.702 423.372L464.487 423.873C464.299 424.478 463.983 425.011 463.539 425.47C463.096 425.924 462.548 426.279 461.895 426.535C461.243 426.785 460.509 426.911 459.695 426.911ZM472.027 426.911C471.025 426.911 470.14 426.658 469.373 426.151C468.605 425.64 468.005 424.919 467.572 423.99C467.139 423.056 466.922 421.952 466.922 420.678C466.922 419.415 467.139 418.318 467.572 417.389C468.005 416.46 468.608 415.742 469.381 415.236C470.153 414.73 471.046 414.477 472.059 414.477C472.842 414.477 473.46 414.607 473.914 414.868C474.374 415.124 474.723 415.416 474.964 415.745C475.209 416.069 475.399 416.335 475.535 416.544H475.692V410.624H477.54V426.66H475.754V424.812H475.535C475.399 425.031 475.206 425.308 474.956 425.642C474.705 425.971 474.348 426.266 473.883 426.527C473.418 426.783 472.8 426.911 472.027 426.911ZM472.278 425.251C473.019 425.251 473.645 425.058 474.157 424.671C474.669 424.28 475.058 423.74 475.324 423.05C475.59 422.356 475.723 421.555 475.723 420.647C475.723 419.749 475.593 418.963 475.332 418.29C475.071 417.611 474.684 417.084 474.173 416.708C473.661 416.327 473.03 416.136 472.278 416.136C471.495 416.136 470.842 416.337 470.32 416.739C469.803 417.136 469.415 417.676 469.154 418.36C468.898 419.039 468.77 419.801 468.77 420.647C468.77 421.503 468.9 422.281 469.161 422.98C469.428 423.674 469.819 424.228 470.336 424.64C470.858 425.047 471.505 425.251 472.278 425.251ZM487.351 426.66V425.251L492.644 419.456C493.265 418.778 493.777 418.188 494.179 417.687C494.581 417.181 494.878 416.705 495.071 416.262C495.27 415.813 495.369 415.343 495.369 414.852C495.369 414.289 495.233 413.801 494.962 413.388C494.695 412.976 494.33 412.657 493.865 412.433C493.401 412.208 492.879 412.096 492.299 412.096C491.683 412.096 491.146 412.224 490.686 412.48C490.232 412.73 489.88 413.083 489.629 413.537C489.384 413.991 489.261 414.523 489.261 415.134H487.413C487.413 414.195 487.63 413.37 488.063 412.66C488.497 411.95 489.086 411.397 489.833 411C490.585 410.603 491.428 410.405 492.362 410.405C493.302 410.405 494.134 410.603 494.86 411C495.585 411.397 496.154 411.932 496.567 412.605C496.979 413.278 497.185 414.028 497.185 414.852C497.185 415.442 497.078 416.019 496.864 416.583C496.656 417.141 496.29 417.765 495.768 418.454C495.251 419.138 494.534 419.973 493.615 420.96L490.013 424.812V424.938H497.467V426.66H487.351ZM506.934 426.66V414.633H508.719V416.512H508.876C509.126 415.87 509.531 415.372 510.089 415.017C510.648 414.657 511.319 414.477 512.102 414.477C512.895 414.477 513.556 414.657 514.083 415.017C514.615 415.372 515.03 415.87 515.328 416.512H515.453C515.761 415.891 516.223 415.398 516.839 415.032C517.455 414.662 518.194 414.477 519.055 414.477C520.13 414.477 521.01 414.813 521.694 415.487C522.377 416.155 522.719 417.196 522.719 418.611V426.66H520.871V418.611C520.871 417.723 520.629 417.089 520.143 416.708C519.658 416.327 519.086 416.136 518.428 416.136C517.583 416.136 516.928 416.392 516.463 416.904C515.999 417.41 515.766 418.052 515.766 418.83V426.66H513.887V418.423C513.887 417.739 513.665 417.188 513.221 416.771C512.778 416.348 512.206 416.136 511.507 416.136C511.026 416.136 510.577 416.264 510.16 416.52C509.747 416.776 509.413 417.131 509.158 417.585C508.907 418.034 508.782 418.553 508.782 419.143V426.66H506.934ZM530.984 426.911C529.898 426.911 528.946 426.652 528.126 426.136C527.312 425.619 526.675 424.896 526.216 423.967C525.761 423.037 525.534 421.952 525.534 420.709C525.534 419.456 525.761 418.363 526.216 417.428C526.675 416.494 527.312 415.768 528.126 415.252C528.946 414.735 529.898 414.477 530.984 414.477C532.07 414.477 533.02 414.735 533.834 415.252C534.654 415.768 535.291 416.494 535.745 417.428C536.204 418.363 536.434 419.456 536.434 420.709C536.434 421.952 536.204 423.037 535.745 423.967C535.291 424.896 534.654 425.619 533.834 426.136C533.02 426.652 532.07 426.911 530.984 426.911ZM530.984 425.251C531.809 425.251 532.487 425.039 533.02 424.616C533.552 424.194 533.946 423.638 534.202 422.949C534.458 422.26 534.586 421.513 534.586 420.709C534.586 419.905 534.458 419.156 534.202 418.462C533.946 417.768 533.552 417.207 533.02 416.779C532.487 416.351 531.809 416.136 530.984 416.136C530.159 416.136 529.481 416.351 528.948 416.779C528.416 417.207 528.022 417.768 527.766 418.462C527.51 419.156 527.382 419.905 527.382 420.709C527.382 421.513 527.51 422.26 527.766 422.949C528.022 423.638 528.416 424.194 528.948 424.616C529.481 425.039 530.159 425.251 530.984 425.251ZM541.103 419.425V426.66H539.255V414.633H541.04V416.512H541.196C541.478 415.902 541.906 415.411 542.481 415.04C543.055 414.664 543.796 414.477 544.704 414.477C545.519 414.477 546.231 414.644 546.842 414.978C547.453 415.306 547.928 415.808 548.267 416.481C548.606 417.149 548.776 417.995 548.776 419.018V426.66H546.928V419.143C546.928 418.198 546.683 417.462 546.192 416.935C545.701 416.403 545.028 416.136 544.172 416.136C543.582 416.136 543.055 416.264 542.59 416.52C542.131 416.776 541.768 417.149 541.502 417.64C541.236 418.131 541.103 418.726 541.103 419.425ZM557.383 414.633V416.199H551.151V414.633H557.383ZM552.967 411.752H554.815V423.215C554.815 423.737 554.891 424.128 555.042 424.389C555.199 424.645 555.397 424.817 555.637 424.906C555.883 424.99 556.141 425.031 556.412 425.031C556.616 425.031 556.783 425.021 556.913 425C557.044 424.974 557.148 424.953 557.227 424.938L557.603 426.598C557.477 426.644 557.302 426.691 557.078 426.738C556.853 426.791 556.569 426.817 556.224 426.817C555.702 426.817 555.191 426.705 554.69 426.48C554.194 426.256 553.781 425.914 553.453 425.454C553.129 424.995 552.967 424.416 552.967 423.716V411.752ZM562.269 419.425V426.66H560.421V410.624H562.269V416.512H562.426C562.708 415.891 563.131 415.398 563.694 415.032C564.263 414.662 565.02 414.477 565.965 414.477C566.785 414.477 567.502 414.641 568.118 414.97C568.734 415.293 569.212 415.792 569.551 416.465C569.896 417.134 570.068 417.984 570.068 419.018V426.66H568.22V419.143C568.22 418.188 567.972 417.449 567.476 416.927C566.986 416.4 566.304 416.136 565.433 416.136C564.827 416.136 564.284 416.264 563.804 416.52C563.329 416.776 562.953 417.149 562.676 417.64C562.405 418.131 562.269 418.726 562.269 419.425ZM581.968 417.327L580.308 417.796C580.203 417.52 580.05 417.251 579.846 416.99C579.648 416.724 579.376 416.505 579.032 416.332C578.687 416.16 578.246 416.074 577.708 416.074C576.972 416.074 576.359 416.243 575.868 416.583C575.383 416.917 575.14 417.342 575.14 417.859C575.14 418.318 575.307 418.681 575.641 418.947C575.975 419.214 576.497 419.436 577.207 419.613L578.992 420.052C580.068 420.313 580.869 420.712 581.396 421.25C581.924 421.782 582.187 422.468 582.187 423.309C582.187 423.998 581.989 424.614 581.592 425.157C581.201 425.7 580.652 426.128 579.948 426.441C579.243 426.754 578.423 426.911 577.489 426.911C576.262 426.911 575.247 426.644 574.443 426.112C573.639 425.58 573.13 424.802 572.916 423.779L574.67 423.34C574.837 423.987 575.153 424.473 575.618 424.797C576.087 425.12 576.701 425.282 577.458 425.282C578.319 425.282 579.003 425.099 579.509 424.734C580.021 424.363 580.277 423.92 580.277 423.403C580.277 422.985 580.13 422.635 579.838 422.354C579.546 422.066 579.097 421.852 578.491 421.712L576.487 421.242C575.385 420.981 574.576 420.576 574.059 420.028C573.548 419.475 573.292 418.783 573.292 417.953C573.292 417.274 573.483 416.674 573.864 416.152C574.25 415.63 574.775 415.22 575.438 414.923C576.106 414.625 576.863 414.477 577.708 414.477C578.898 414.477 579.833 414.738 580.511 415.26C581.195 415.782 581.681 416.471 581.968 417.327ZM594.709 426.942C593.947 426.942 593.256 426.798 592.634 426.511C592.013 426.219 591.52 425.799 591.155 425.251C590.789 424.697 590.606 424.029 590.606 423.246C590.606 422.557 590.742 421.999 591.014 421.571C591.285 421.137 591.648 420.798 592.102 420.553C592.556 420.307 593.057 420.125 593.605 420.005C594.159 419.879 594.715 419.78 595.273 419.707C596.004 419.613 596.596 419.543 597.051 419.496C597.51 419.443 597.844 419.357 598.053 419.237C598.267 419.117 598.374 418.908 598.374 418.611V418.548C598.374 417.776 598.163 417.175 597.74 416.747C597.322 416.319 596.688 416.105 595.837 416.105C594.955 416.105 594.263 416.298 593.762 416.685C593.261 417.071 592.909 417.483 592.705 417.922L590.951 417.295C591.264 416.565 591.682 415.996 592.204 415.588C592.731 415.176 593.305 414.889 593.926 414.727C594.553 414.56 595.169 414.477 595.774 414.477C596.161 414.477 596.604 414.523 597.105 414.617C597.612 414.706 598.1 414.891 598.57 415.173C599.045 415.455 599.439 415.881 599.752 416.45C600.065 417.019 600.222 417.781 600.222 418.736V426.66H598.374V425.031H598.28C598.155 425.292 597.946 425.572 597.654 425.869C597.361 426.167 596.972 426.42 596.487 426.629C596.001 426.838 595.409 426.942 594.709 426.942ZM594.991 425.282C595.722 425.282 596.338 425.139 596.839 424.851C597.346 424.564 597.727 424.194 597.982 423.74C598.243 423.285 598.374 422.808 598.374 422.307V420.615C598.296 420.709 598.123 420.795 597.857 420.874C597.596 420.947 597.293 421.012 596.949 421.069C596.61 421.122 596.278 421.169 595.954 421.21C595.636 421.247 595.378 421.278 595.179 421.304C594.699 421.367 594.25 421.469 593.832 421.61C593.42 421.745 593.086 421.952 592.83 422.228C592.58 422.5 592.454 422.87 592.454 423.34C592.454 423.982 592.692 424.468 593.167 424.797C593.647 425.12 594.255 425.282 594.991 425.282ZM608.449 431.421C607.557 431.421 606.789 431.306 606.147 431.076C605.505 430.852 604.97 430.554 604.542 430.184C604.119 429.818 603.783 429.427 603.532 429.009L605.004 427.976C605.171 428.195 605.382 428.445 605.638 428.727C605.894 429.014 606.244 429.262 606.688 429.471C607.136 429.685 607.724 429.792 608.449 429.792C609.42 429.792 610.222 429.557 610.853 429.087C611.485 428.618 611.801 427.882 611.801 426.879V424.436H611.644C611.508 424.656 611.315 424.927 611.065 425.251C610.819 425.569 610.464 425.854 610 426.104C609.54 426.35 608.919 426.472 608.136 426.472C607.165 426.472 606.293 426.243 605.521 425.783C604.753 425.324 604.145 424.656 603.696 423.779C603.253 422.902 603.031 421.837 603.031 420.584C603.031 419.352 603.247 418.279 603.681 417.366C604.114 416.447 604.717 415.737 605.49 415.236C606.262 414.73 607.155 414.477 608.167 414.477C608.95 414.477 609.572 414.607 610.031 414.868C610.496 415.124 610.851 415.416 611.096 415.745C611.346 416.069 611.54 416.335 611.675 416.544H611.863V414.633H613.648V427.005C613.648 428.038 613.414 428.879 612.944 429.526C612.479 430.178 611.853 430.656 611.065 430.959C610.282 431.267 609.41 431.421 608.449 431.421ZM608.387 424.812C609.128 424.812 609.754 424.643 610.266 424.303C610.777 423.964 611.166 423.476 611.433 422.839C611.699 422.202 611.832 421.44 611.832 420.553C611.832 419.686 611.701 418.921 611.44 418.258C611.179 417.595 610.793 417.076 610.282 416.7C609.77 416.324 609.138 416.136 608.387 416.136C607.604 416.136 606.951 416.335 606.429 416.732C605.912 417.128 605.523 417.661 605.262 418.329C605.007 418.997 604.879 419.738 604.879 420.553C604.879 421.388 605.009 422.127 605.27 422.769C605.536 423.405 605.928 423.907 606.445 424.272C606.967 424.632 607.614 424.812 608.387 424.812ZM621.917 426.911C620.831 426.911 619.879 426.652 619.059 426.136C618.245 425.619 617.608 424.896 617.149 423.967C616.694 423.037 616.467 421.952 616.467 420.709C616.467 419.456 616.694 418.363 617.149 417.428C617.608 416.494 618.245 415.768 619.059 415.252C619.879 414.735 620.831 414.477 621.917 414.477C623.003 414.477 623.953 414.735 624.767 415.252C625.587 415.768 626.224 416.494 626.678 417.428C627.137 418.363 627.367 419.456 627.367 420.709C627.367 421.952 627.137 423.037 626.678 423.967C626.224 424.896 625.587 425.619 624.767 426.136C623.953 426.652 623.003 426.911 621.917 426.911ZM621.917 425.251C622.742 425.251 623.42 425.039 623.953 424.616C624.485 424.194 624.879 423.638 625.135 422.949C625.391 422.26 625.519 421.513 625.519 420.709C625.519 419.905 625.391 419.156 625.135 418.462C624.879 417.768 624.485 417.207 623.953 416.779C623.42 416.351 622.742 416.136 621.917 416.136C621.092 416.136 620.414 416.351 619.881 416.779C619.349 417.207 618.955 417.768 618.699 418.462C618.443 419.156 618.315 419.905 618.315 420.709C618.315 421.513 618.443 422.26 618.699 422.949C618.955 423.638 619.349 424.194 619.881 424.616C620.414 425.039 621.092 425.251 621.917 425.251Z" fill="#B3B3B3"/>
<circle cx="389.163" cy="375.465" r="12.5998" fill="#0A8BEF" stroke="white" stroke-width="1.57497"/>
<path d="M392.351 378.833C392.574 378.833 392.749 378.898 392.878 379.026C393.012 379.149 393.079 379.313 393.079 379.519V380.758H384.778V380.072C384.778 379.932 384.806 379.787 384.862 379.637C384.924 379.48 385.018 379.341 385.147 379.218L388.82 375.537C389.127 375.224 389.4 374.926 389.64 374.642C389.885 374.357 390.089 374.075 390.251 373.796C390.412 373.518 390.535 373.236 390.619 372.951C390.708 372.661 390.753 372.357 390.753 372.039C390.753 371.749 390.711 371.496 390.627 371.278C390.543 371.055 390.423 370.868 390.267 370.717C390.117 370.567 389.933 370.455 389.715 370.383C389.503 370.305 389.263 370.266 388.995 370.266C388.75 370.266 388.521 370.302 388.309 370.374C388.103 370.441 387.919 370.539 387.757 370.667C387.595 370.79 387.459 370.935 387.347 371.102C387.236 371.27 387.152 371.454 387.096 371.654C387.001 371.911 386.879 372.081 386.728 372.165C386.577 372.249 386.36 372.268 386.075 372.223L384.988 372.031C385.071 371.451 385.233 370.943 385.473 370.508C385.713 370.068 386.011 369.702 386.368 369.412C386.731 369.116 387.144 368.896 387.607 368.751C388.075 368.601 388.577 368.525 389.113 368.525C389.67 368.525 390.181 368.609 390.644 368.776C391.107 368.938 391.503 369.169 391.832 369.471C392.161 369.772 392.418 370.134 392.602 370.558C392.786 370.982 392.878 371.454 392.878 371.972C392.878 372.419 392.811 372.831 392.677 373.211C392.549 373.59 392.373 373.953 392.15 374.298C391.932 374.644 391.676 374.979 391.38 375.303C391.084 375.626 390.775 375.955 390.451 376.29L387.724 379.076C387.986 378.998 388.245 378.939 388.502 378.9C388.764 378.856 389.012 378.833 389.246 378.833H392.351Z" fill="white"/>
<path opacity="0.3" d="M783.299 305.843L779.805 315.293H778.328L774.834 305.843H776.409L779.017 313.373H779.116L781.724 305.843H783.299ZM794.493 302.693V315.293H792.967V304.293H792.894L789.818 306.335V304.785L792.967 302.693H794.493ZM798.455 315.391C798.152 315.391 797.891 315.283 797.674 315.065C797.457 314.848 797.348 314.588 797.348 314.284C797.348 313.98 797.457 313.72 797.674 313.503C797.891 313.285 798.152 313.177 798.455 313.177C798.759 313.177 799.019 313.285 799.237 313.503C799.454 313.72 799.563 313.98 799.563 314.284C799.563 314.485 799.511 314.67 799.409 314.838C799.31 315.006 799.177 315.141 799.009 315.244C798.845 315.342 798.66 315.391 798.455 315.391ZM805.813 315.465C804.886 315.465 804.097 315.213 803.445 314.709C802.793 314.2 802.294 313.464 801.95 312.5C801.605 311.532 801.433 310.363 801.433 308.993C801.433 307.631 801.605 306.469 801.95 305.505C802.298 304.537 802.799 303.799 803.451 303.29C804.107 302.777 804.895 302.521 805.813 302.521C806.732 302.521 807.517 302.777 808.17 303.29C808.826 303.799 809.326 304.537 809.671 305.505C810.019 306.469 810.194 307.631 810.194 308.993C810.194 310.363 810.021 311.532 809.677 312.5C809.332 313.464 808.834 314.2 808.182 314.709C807.53 315.213 806.74 315.465 805.813 315.465ZM805.813 314.112C806.732 314.112 807.446 313.669 807.954 312.783C808.463 311.897 808.717 310.634 808.717 308.993C808.717 307.902 808.6 306.973 808.367 306.206C808.137 305.439 807.805 304.855 807.37 304.453C806.939 304.051 806.42 303.85 805.813 303.85C804.903 303.85 804.191 304.299 803.679 305.197C803.166 306.091 802.909 307.357 802.909 308.993C802.909 310.084 803.024 311.011 803.254 311.774C803.484 312.537 803.814 313.117 804.245 313.515C804.679 313.913 805.202 314.112 805.813 314.112Z" fill="#070F1F"/>
<circle cx="402.549" cy="212.458" r="12.5998" fill="#0A8BEF" stroke="white" stroke-width="1.57497"/>
<path d="M406.189 216.202V217.75H399.496V216.202H401.947V209.149C401.947 208.87 401.955 208.583 401.972 208.287L400.232 209.743C400.131 209.821 400.031 209.871 399.931 209.893C399.836 209.91 399.744 209.91 399.655 209.893C399.571 209.877 399.496 209.849 399.429 209.81C399.362 209.765 399.311 209.718 399.278 209.667L398.625 208.772L402.315 205.635H404.014V216.202H406.189Z" fill="white"/>
<circle cx="819.129" cy="98.2701" r="12.5998" fill="#0A8BEF" stroke="white" stroke-width="1.57497"/>
<path d="M815.013 94.8357C815.097 94.2556 815.258 93.748 815.498 93.3129C815.738 92.8722 816.037 92.5069 816.394 92.2168C816.756 91.9212 817.169 91.7008 817.632 91.5558C818.1 91.4052 818.602 91.3299 819.138 91.3299C819.696 91.3299 820.198 91.4108 820.644 91.5725C821.096 91.7287 821.481 91.9491 821.799 92.2335C822.117 92.5124 822.359 92.8415 822.527 93.2208C822.7 93.6002 822.786 94.0101 822.786 94.4508C822.786 94.8357 822.741 95.1759 822.652 95.4716C822.568 95.7616 822.446 96.0154 822.284 96.233C822.122 96.4505 821.921 96.6346 821.682 96.7852C821.442 96.9358 821.171 97.0613 820.87 97.1617C821.595 97.3904 822.136 97.739 822.493 98.2076C822.85 98.6762 823.029 99.2646 823.029 99.973C823.029 100.575 822.917 101.108 822.694 101.571C822.471 102.034 822.17 102.425 821.79 102.743C821.411 103.055 820.97 103.292 820.468 103.454C819.972 103.615 819.445 103.696 818.887 103.696C818.279 103.696 817.749 103.627 817.297 103.487C816.845 103.348 816.452 103.141 816.117 102.868C815.783 102.595 815.498 102.26 815.264 101.864C815.03 101.468 814.829 101.011 814.662 100.492L815.574 100.115C815.813 100.015 816.037 99.9898 816.243 100.04C816.455 100.085 816.608 100.196 816.703 100.375C816.804 100.57 816.912 100.762 817.029 100.952C817.152 101.142 817.297 101.312 817.465 101.462C817.632 101.607 817.827 101.727 818.05 101.822C818.279 101.911 818.549 101.956 818.862 101.956C819.213 101.956 819.52 101.9 819.782 101.789C820.044 101.672 820.262 101.521 820.435 101.337C820.613 101.153 820.744 100.949 820.828 100.726C820.917 100.497 820.962 100.269 820.962 100.04C820.962 99.7499 820.931 99.4878 820.87 99.2535C820.809 99.0136 820.68 98.81 820.485 98.6427C820.29 98.4753 820.008 98.3443 819.64 98.2494C819.277 98.1546 818.789 98.1072 818.176 98.1072V96.6346C818.683 96.629 819.104 96.5816 819.439 96.4924C819.774 96.4031 820.039 96.2804 820.234 96.1242C820.435 95.9624 820.574 95.77 820.652 95.5469C820.73 95.3238 820.77 95.0783 820.77 94.8106C820.77 94.2416 820.611 93.8093 820.293 93.5137C819.975 93.2181 819.551 93.0702 819.021 93.0702C818.775 93.0702 818.549 93.1065 818.343 93.179C818.137 93.2459 817.95 93.3436 817.783 93.4719C817.621 93.5946 817.484 93.7396 817.373 93.9069C817.261 94.0743 817.177 94.2584 817.122 94.4592C817.027 94.7158 816.901 94.8859 816.745 94.9696C816.594 95.0532 816.38 95.0728 816.101 95.0281L815.013 94.8357Z" fill="white"/>
</g>
<rect x="280.489" y="45.5101" width="559.115" height="417.367" rx="3.14994" stroke="#E0EBF7" stroke-width="1.57497"/>
<circle cx="838.029" cy="309.317" r="12.5998" fill="#0A8BEF" stroke="white" stroke-width="1.57497"/>
<path d="M838.966 310.049V306.092C838.966 305.718 838.991 305.305 839.041 304.853L835.285 310.049H838.966ZM842.288 310.049V311.246C842.288 311.357 842.252 311.455 842.179 311.539C842.107 311.617 842.003 311.656 841.869 311.656H840.765V314.609H838.966V311.656H833.862C833.723 311.656 833.6 311.614 833.494 311.53C833.388 311.441 833.321 311.332 833.293 311.204L833.076 310.158L838.807 302.502H840.765V310.049H842.288Z" fill="white"/>
<defs>
<filter id="filter0_ddd_1753_128925" x="270.253" y="278.604" width="579.589" height="222.069" filterUnits="userSpaceOnUse" color-interpolation-filters="sRGB">
<feFlood flood-opacity="0" result="BackgroundImageFix"/>
<feColorMatrix in="SourceAlpha" type="matrix" values="0 0 0 0 0 0 0 0 0 0 0 0 0 0 0 0 0 0 127 0" result="hardAlpha"/>
<feOffset/>
<feGaussianBlur stdDeviation="0.393743"/>
<feColorMatrix type="matrix" values="0 0 0 0 0 0 0 0 0 0 0 0 0 0 0 0 0 0 0.16 0"/>
<feBlend mode="normal" in2="BackgroundImageFix" result="effect1_dropShadow_1753_128925"/>
<feColorMatrix in="SourceAlpha" type="matrix" values="0 0 0 0 0 0 0 0 0 0 0 0 0 0 0 0 0 0 127 0" result="hardAlpha"/>
<feMorphology radius="6.29988" operator="erode" in="SourceAlpha" result="effect2_dropShadow_1753_128925"/>
<feOffset/>
<feGaussianBlur stdDeviation="12.5998"/>
<feColorMatrix type="matrix" values="0 0 0 0 0 0 0 0 0 0 0 0 0 0 0 0 0 0 0.12 0"/>
<feBlend mode="normal" in2="effect1_dropShadow_1753_128925" result="effect2_dropShadow_1753_128925"/>
<feColorMatrix in="SourceAlpha" type="matrix" values="0 0 0 0 0 0 0 0 0 0 0 0 0 0 0 0 0 0 127 0" result="hardAlpha"/>
<feMorphology radius="6.29988" operator="erode" in="SourceAlpha" result="effect3_dropShadow_1753_128925"/>
<feOffset dy="25.1995"/>
<feGaussianBlur stdDeviation="12.5998"/>
<feColorMatrix type="matrix" values="0 0 0 0 0 0 0 0 0 0 0 0 0 0 0 0 0 0 0.08 0"/>
<feBlend mode="normal" in2="effect2_dropShadow_1753_128925" result="effect3_dropShadow_1753_128925"/>
<feBlend mode="normal" in="SourceGraphic" in2="effect3_dropShadow_1753_128925" result="shape"/>
</filter>
<clipPath id="clip0_1753_128925">
<rect x="279.701" y="44.7227" width="560.69" height="418.942" rx="3.93743" fill="white"/>
</clipPath>
<clipPath id="clip1_1753_128925">
<rect width="560.69" height="293.732" fill="white" transform="translate(279.701 44.7227)"/>
</clipPath>
<clipPath id="clip2_1753_128925">
<rect width="45.6742" height="45.6742" fill="white" transform="translate(407.037 169.145)"/>
</clipPath>
<clipPath id="clip3_1753_128925">
<rect width="45.6742" height="45.6742" fill="white" transform="translate(493.66 169.145)"/>
</clipPath>
<clipPath id="clip4_1753_128925">
<rect width="45.6742" height="45.6742" fill="white" transform="translate(580.284 169.145)"/>
</clipPath>
<clipPath id="clip5_1753_128925">
<rect width="45.6742" height="45.6742" fill="white" transform="translate(666.907 169.145)"/>
</clipPath>
</defs>
</svg>
