<svg width="50" height="50" viewBox="0 0 50 50" fill="none" xmlns="http://www.w3.org/2000/svg">
<rect width="50" height="50" rx="25" fill="#B6EDB5"/>
<path d="M13.0002 34.3321V16.5987C13.0001 16.325 13.0842 16.0579 13.2412 15.8337C13.3981 15.6095 13.6203 15.439 13.8775 15.3454L26.7722 10.6574C26.8729 10.6207 26.981 10.6089 27.0872 10.6229C27.1935 10.6369 27.2948 10.6763 27.3826 10.7378C27.4704 10.7993 27.5421 10.8811 27.5916 10.9762C27.641 11.0712 27.6669 11.1769 27.6668 11.2841V17.8881L36.0882 20.6947C36.3538 20.7832 36.5848 20.953 36.7485 21.1801C36.9122 21.4072 37.0002 21.6801 37.0002 21.9601V34.3321H39.6668V36.9987H10.3335V34.3321H13.0002ZM15.6668 34.3321H25.0002V14.1387L15.6668 17.5334V34.3321ZM34.3335 34.3321V22.9214L27.6668 20.6987V34.3321H34.3335Z" fill="black"/>
</svg>
