<svg width="24" height="24" viewBox="0 0 24 24" fill="none" xmlns="http://www.w3.org/2000/svg">
<path d="M3 19.001V5.70099C2.99994 5.49572 3.06305 5.2954 3.18077 5.12723C3.29849 4.95906 3.4651 4.8312 3.658 4.76099L13.329 1.24499C13.4045 1.2175 13.4856 1.20863 13.5653 1.21913C13.645 1.22963 13.721 1.25919 13.7869 1.30531C13.8527 1.35144 13.9065 1.41275 13.9436 1.48407C13.9807 1.55539 14 1.6346 14 1.71499V6.66799L20.316 8.77299C20.5152 8.83934 20.6885 8.96671 20.8112 9.13704C20.934 9.30738 21.0001 9.51203 21 9.72199V19.001H23V21.001H1V19.001H3ZM5 19.001H12V3.85599L5 6.40199V19.001ZM19 19.001V10.443L14 8.77599V19.001H19Z" fill="black"/>
</svg>
