<svg width="175" height="34" viewBox="0 0 175 34" fill="none" xmlns="http://www.w3.org/2000/svg">
<path d="M0.162 26V3.6H4.45L16.834 20.336H15.938C15.8527 19.6747 15.778 19.0347 15.714 18.416C15.65 17.776 15.586 17.136 15.522 16.496C15.4793 15.8347 15.4367 15.1627 15.394 14.48C15.3727 13.776 15.3513 13.04 15.33 12.272C15.3087 11.4827 15.298 10.6293 15.298 9.712V3.6H20.002V26H15.65L3.01 9.104L4.226 9.136C4.33267 10.2453 4.418 11.1947 4.482 11.984C4.56733 12.752 4.63133 13.424 4.674 14C4.71667 14.576 4.74867 15.0773 4.77 15.504C4.81267 15.9307 4.834 16.336 4.834 16.72C4.85533 17.104 4.866 17.5093 4.866 17.936V26H0.162ZM31.5143 26.32C30.1063 26.32 28.8369 25.936 27.7063 25.168C26.5756 24.4 25.6796 23.3547 25.0182 22.032C24.3569 20.7093 24.0263 19.1947 24.0263 17.488C24.0263 15.7813 24.3569 14.2773 25.0182 12.976C25.7009 11.6533 26.6183 10.6187 27.7703 9.872C28.9223 9.104 30.2343 8.72 31.7063 8.72C32.5383 8.72 33.2956 8.848 33.9783 9.104C34.6823 9.33867 35.2903 9.66933 35.8023 10.096C36.3356 10.5227 36.7836 11.0133 37.1463 11.568C37.5089 12.1227 37.7649 12.72 37.9143 13.36L36.9543 13.2V9.072H41.4663V26H36.8903V21.936L37.9143 21.84C37.7436 22.4373 37.4663 23.0027 37.0823 23.536C36.6983 24.0693 36.2183 24.5493 35.6423 24.976C35.0876 25.3813 34.4583 25.712 33.7543 25.968C33.0503 26.2027 32.3036 26.32 31.5143 26.32ZM32.7623 22.384C33.6156 22.384 34.3623 22.1813 35.0023 21.776C35.6423 21.3707 36.1329 20.8053 36.4743 20.08C36.8369 19.3333 37.0183 18.4693 37.0183 17.488C37.0183 16.528 36.8369 15.6853 36.4743 14.96C36.1329 14.2347 35.6423 13.6693 35.0023 13.264C34.3623 12.8373 33.6156 12.624 32.7623 12.624C31.9303 12.624 31.1943 12.8373 30.5543 13.264C29.9356 13.6693 29.4449 14.2347 29.0823 14.96C28.7196 15.6853 28.5383 16.528 28.5383 17.488C28.5383 18.4693 28.7196 19.3333 29.0823 20.08C29.4449 20.8053 29.9356 21.3707 30.5543 21.776C31.1943 22.1813 31.9303 22.384 32.7623 22.384ZM50.959 26L43.855 9.072H48.847L53.359 21.712L52.303 21.904L57.039 9.072H61.903L54.447 26H50.959ZM65.0623 26V9.072H69.6063V26H65.0623ZM67.3023 5.584C66.4276 5.584 65.7449 5.37067 65.2543 4.944C64.7636 4.51733 64.5182 3.90933 64.5182 3.12C64.5182 2.39467 64.7636 1.808 65.2543 1.36C65.7663 0.890665 66.4489 0.655998 67.3023 0.655998C68.1769 0.655998 68.8596 0.879999 69.3503 1.328C69.8409 1.75467 70.0863 2.352 70.0863 3.12C70.0863 3.86667 69.8303 4.464 69.3183 4.912C68.8276 5.36 68.1556 5.584 67.3023 5.584ZM82.1715 33.36C80.8275 33.36 79.5048 33.1573 78.2035 32.752C76.9022 32.368 75.8462 31.8667 75.0355 31.248L76.6355 27.984C77.0622 28.2827 77.5528 28.5493 78.1075 28.784C78.6622 29.0187 79.2382 29.2 79.8355 29.328C80.4542 29.456 81.0835 29.52 81.7235 29.52C82.8328 29.52 83.7395 29.3493 84.4435 29.008C85.1688 28.6667 85.7128 28.1547 86.0755 27.472C86.4382 26.8107 86.6195 25.9573 86.6195 24.912V21.968L87.3875 22.128C87.2595 22.832 86.9075 23.4827 86.3315 24.08C85.7555 24.656 85.0302 25.1253 84.1555 25.488C83.2808 25.8293 82.3848 26 81.4675 26C79.8888 26 78.4915 25.6373 77.2755 24.912C76.0595 24.1867 75.0995 23.184 74.3955 21.904C73.6915 20.624 73.3395 19.152 73.3395 17.488C73.3395 15.7813 73.6808 14.2773 74.3635 12.976C75.0675 11.6533 76.0168 10.6187 77.2115 9.872C78.4275 9.104 79.8035 8.72 81.3395 8.72C81.9795 8.72 82.5875 8.79467 83.1635 8.944C83.7608 9.09333 84.3048 9.30667 84.7955 9.584C85.3075 9.84 85.7555 10.1387 86.1395 10.48C86.5448 10.8 86.8755 11.152 87.1315 11.536C87.3875 11.92 87.5475 12.304 87.6115 12.688L86.6835 12.944L86.8115 9.072H91.1635V24.72C91.1635 26.1067 90.9608 27.3333 90.5555 28.4C90.1502 29.4667 89.5528 30.3627 88.7635 31.088C87.9955 31.8347 87.0462 32.4 85.9155 32.784C84.8062 33.168 83.5582 33.36 82.1715 33.36ZM82.2995 22.352C83.1955 22.352 83.9742 22.1493 84.6355 21.744C85.3182 21.3387 85.8408 20.7733 86.2035 20.048C86.5662 19.3227 86.7475 18.4693 86.7475 17.488C86.7475 16.528 86.5662 15.6853 86.2035 14.96C85.8408 14.2133 85.3182 13.6373 84.6355 13.232C83.9742 12.8267 83.1955 12.624 82.2995 12.624C81.4248 12.624 80.6462 12.8373 79.9635 13.264C79.3022 13.6693 78.7902 14.2347 78.4275 14.96C78.0648 15.6853 77.8835 16.528 77.8835 17.488C77.8835 18.448 78.0648 19.3013 78.4275 20.048C78.7902 20.7733 79.3022 21.3387 79.9635 21.744C80.6462 22.1493 81.4248 22.352 82.2995 22.352ZM102.014 26.32C100.606 26.32 99.3369 25.936 98.2063 25.168C97.0756 24.4 96.1796 23.3547 95.5182 22.032C94.8569 20.7093 94.5263 19.1947 94.5263 17.488C94.5263 15.7813 94.8569 14.2773 95.5182 12.976C96.2009 11.6533 97.1183 10.6187 98.2703 9.872C99.4223 9.104 100.734 8.72 102.206 8.72C103.038 8.72 103.796 8.848 104.478 9.104C105.182 9.33867 105.79 9.66933 106.302 10.096C106.836 10.5227 107.284 11.0133 107.646 11.568C108.009 12.1227 108.265 12.72 108.414 13.36L107.454 13.2V9.072H111.966V26H107.39V21.936L108.414 21.84C108.244 22.4373 107.966 23.0027 107.582 23.536C107.198 24.0693 106.718 24.5493 106.142 24.976C105.588 25.3813 104.958 25.712 104.254 25.968C103.55 26.2027 102.804 26.32 102.014 26.32ZM103.262 22.384C104.116 22.384 104.862 22.1813 105.502 21.776C106.142 21.3707 106.633 20.8053 106.974 20.08C107.337 19.3333 107.518 18.4693 107.518 17.488C107.518 16.528 107.337 15.6853 106.974 14.96C106.633 14.2347 106.142 13.6693 105.502 13.264C104.862 12.8373 104.116 12.624 103.262 12.624C102.43 12.624 101.694 12.8373 101.054 13.264C100.436 13.6693 99.9449 14.2347 99.5823 14.96C99.2196 15.6853 99.0383 16.528 99.0383 17.488C99.0383 18.4693 99.2196 19.3333 99.5823 20.08C99.9449 20.8053 100.436 21.3707 101.054 21.776C101.694 22.1813 102.43 22.384 103.262 22.384ZM118.154 26V4.784H122.698V26H118.154ZM114.986 13.136V9.072H126.154V13.136H114.986ZM129.5 26V9.072H134.044V26H129.5ZM131.74 5.584C130.865 5.584 130.182 5.37067 129.692 4.944C129.201 4.51733 128.956 3.90933 128.956 3.12C128.956 2.39467 129.201 1.808 129.692 1.36C130.204 0.890665 130.886 0.655998 131.74 0.655998C132.614 0.655998 133.297 0.879999 133.788 1.328C134.278 1.75467 134.524 2.352 134.524 3.12C134.524 3.86667 134.268 4.464 133.756 4.912C133.265 5.36 132.593 5.584 131.74 5.584ZM146.769 26.32C145.041 26.32 143.494 25.9467 142.129 25.2C140.785 24.432 139.718 23.3867 138.929 22.064C138.161 20.7413 137.777 19.2267 137.777 17.52C137.777 15.8133 138.161 14.3093 138.929 13.008C139.718 11.6853 140.785 10.64 142.129 9.872C143.494 9.104 145.041 8.72 146.769 8.72C148.476 8.72 150.001 9.104 151.345 9.872C152.71 10.64 153.777 11.6853 154.545 13.008C155.313 14.3093 155.697 15.8133 155.697 17.52C155.697 19.2267 155.313 20.7413 154.545 22.064C153.777 23.3867 152.71 24.432 151.345 25.2C150.001 25.9467 148.476 26.32 146.769 26.32ZM146.769 22.352C147.601 22.352 148.348 22.1493 149.009 21.744C149.67 21.3173 150.182 20.7413 150.545 20.016C150.929 19.2693 151.121 18.4373 151.121 17.52C151.121 16.5813 150.929 15.7493 150.545 15.024C150.182 14.2773 149.67 13.7013 149.009 13.296C148.348 12.8693 147.601 12.656 146.769 12.656C145.916 12.656 145.158 12.8693 144.497 13.296C143.836 13.7227 143.313 14.2987 142.929 15.024C142.545 15.7493 142.364 16.5813 142.385 17.52C142.364 18.4373 142.545 19.2693 142.929 20.016C143.313 20.7413 143.836 21.3173 144.497 21.744C145.158 22.1493 145.916 22.352 146.769 22.352ZM159.116 26V9.072H163.468L163.596 12.528L162.7 12.912C162.934 12.144 163.35 11.4507 163.948 10.832C164.566 10.192 165.302 9.68 166.156 9.296C167.009 8.912 167.905 8.72 168.844 8.72C170.124 8.72 171.19 8.976 172.044 9.488C172.918 10 173.569 10.7787 173.996 11.824C174.444 12.848 174.668 14.1173 174.668 15.632V26H170.124V15.984C170.124 15.216 170.017 14.576 169.804 14.064C169.59 13.552 169.26 13.1787 168.812 12.944C168.385 12.688 167.852 12.5813 167.212 12.624C166.7 12.624 166.22 12.7093 165.772 12.88C165.345 13.0293 164.972 13.2533 164.652 13.552C164.353 13.8507 164.108 14.192 163.916 14.576C163.745 14.96 163.66 15.376 163.66 15.824V26H161.42C160.929 26 160.492 26 160.108 26C159.724 26 159.393 26 159.116 26Z" fill="#F2F2F2"/>
</svg>
