<svg width="686" height="770" viewBox="0 0 686 770" fill="none" xmlns="http://www.w3.org/2000/svg">
<g filter="url(#filter0_d_1920_184282)">
<rect x="63" y="62" width="560" height="644" rx="1" fill="#7F78C9"/>
</g>
<path d="M256.162 293V270.6H260.45L272.834 287.336H271.938C271.853 286.675 271.778 286.035 271.714 285.416C271.65 284.776 271.586 284.136 271.522 283.496C271.479 282.835 271.437 282.163 271.394 281.48C271.373 280.776 271.351 280.04 271.33 279.272C271.309 278.483 271.298 277.629 271.298 276.712V270.6H276.002V293H271.65L259.01 276.104L260.226 276.136C260.333 277.245 260.418 278.195 260.482 278.984C260.567 279.752 260.631 280.424 260.674 281C260.717 281.576 260.749 282.077 260.77 282.504C260.813 282.931 260.834 283.336 260.834 283.72C260.855 284.104 260.866 284.509 260.866 284.936V293H256.162ZM287.514 293.32C286.106 293.32 284.837 292.936 283.706 292.168C282.576 291.4 281.68 290.355 281.018 289.032C280.357 287.709 280.026 286.195 280.026 284.488C280.026 282.781 280.357 281.277 281.018 279.976C281.701 278.653 282.618 277.619 283.77 276.872C284.922 276.104 286.234 275.72 287.706 275.72C288.538 275.72 289.296 275.848 289.978 276.104C290.682 276.339 291.29 276.669 291.802 277.096C292.336 277.523 292.784 278.013 293.146 278.568C293.509 279.123 293.765 279.72 293.914 280.36L292.954 280.2V276.072H297.466V293H292.89V288.936L293.914 288.84C293.744 289.437 293.466 290.003 293.082 290.536C292.698 291.069 292.218 291.549 291.642 291.976C291.088 292.381 290.458 292.712 289.754 292.968C289.05 293.203 288.304 293.32 287.514 293.32ZM288.762 289.384C289.616 289.384 290.362 289.181 291.002 288.776C291.642 288.371 292.133 287.805 292.474 287.08C292.837 286.333 293.018 285.469 293.018 284.488C293.018 283.528 292.837 282.685 292.474 281.96C292.133 281.235 291.642 280.669 291.002 280.264C290.362 279.837 289.616 279.624 288.762 279.624C287.93 279.624 287.194 279.837 286.554 280.264C285.936 280.669 285.445 281.235 285.082 281.96C284.72 282.685 284.538 283.528 284.538 284.488C284.538 285.469 284.72 286.333 285.082 287.08C285.445 287.805 285.936 288.371 286.554 288.776C287.194 289.181 287.93 289.384 288.762 289.384ZM306.959 293L299.855 276.072H304.847L309.359 288.712L308.303 288.904L313.039 276.072H317.903L310.447 293H306.959ZM321.062 293V276.072H325.606V293H321.062ZM323.302 272.584C322.428 272.584 321.745 272.371 321.254 271.944C320.764 271.517 320.518 270.909 320.518 270.12C320.518 269.395 320.764 268.808 321.254 268.36C321.766 267.891 322.449 267.656 323.302 267.656C324.177 267.656 324.86 267.88 325.35 268.328C325.841 268.755 326.086 269.352 326.086 270.12C326.086 270.867 325.83 271.464 325.318 271.912C324.828 272.36 324.156 272.584 323.302 272.584ZM338.172 300.36C336.828 300.36 335.505 300.157 334.204 299.752C332.902 299.368 331.846 298.867 331.036 298.248L332.636 294.984C333.062 295.283 333.553 295.549 334.108 295.784C334.662 296.019 335.238 296.2 335.836 296.328C336.454 296.456 337.084 296.52 337.724 296.52C338.833 296.52 339.74 296.349 340.444 296.008C341.169 295.667 341.713 295.155 342.076 294.472C342.438 293.811 342.62 292.957 342.62 291.912V288.968L343.388 289.128C343.26 289.832 342.908 290.483 342.332 291.08C341.756 291.656 341.03 292.125 340.156 292.488C339.281 292.829 338.385 293 337.468 293C335.889 293 334.492 292.637 333.276 291.912C332.06 291.187 331.1 290.184 330.396 288.904C329.692 287.624 329.34 286.152 329.34 284.488C329.34 282.781 329.681 281.277 330.364 279.976C331.068 278.653 332.017 277.619 333.212 276.872C334.428 276.104 335.804 275.72 337.34 275.72C337.98 275.72 338.588 275.795 339.164 275.944C339.761 276.093 340.305 276.307 340.796 276.584C341.308 276.84 341.756 277.139 342.14 277.48C342.545 277.8 342.876 278.152 343.132 278.536C343.388 278.92 343.548 279.304 343.612 279.688L342.684 279.944L342.812 276.072H347.164V291.72C347.164 293.107 346.961 294.333 346.556 295.4C346.15 296.467 345.553 297.363 344.764 298.088C343.996 298.835 343.046 299.4 341.916 299.784C340.806 300.168 339.558 300.36 338.172 300.36ZM338.3 289.352C339.196 289.352 339.974 289.149 340.636 288.744C341.318 288.339 341.841 287.773 342.204 287.048C342.566 286.323 342.748 285.469 342.748 284.488C342.748 283.528 342.566 282.685 342.204 281.96C341.841 281.213 341.318 280.637 340.636 280.232C339.974 279.827 339.196 279.624 338.3 279.624C337.425 279.624 336.646 279.837 335.964 280.264C335.302 280.669 334.79 281.235 334.428 281.96C334.065 282.685 333.884 283.528 333.884 284.488C333.884 285.448 334.065 286.301 334.428 287.048C334.79 287.773 335.302 288.339 335.964 288.744C336.646 289.149 337.425 289.352 338.3 289.352ZM358.014 293.32C356.606 293.32 355.337 292.936 354.206 292.168C353.076 291.4 352.18 290.355 351.518 289.032C350.857 287.709 350.526 286.195 350.526 284.488C350.526 282.781 350.857 281.277 351.518 279.976C352.201 278.653 353.118 277.619 354.27 276.872C355.422 276.104 356.734 275.72 358.206 275.72C359.038 275.72 359.796 275.848 360.478 276.104C361.182 276.339 361.79 276.669 362.302 277.096C362.836 277.523 363.284 278.013 363.646 278.568C364.009 279.123 364.265 279.72 364.414 280.36L363.454 280.2V276.072H367.966V293H363.39V288.936L364.414 288.84C364.244 289.437 363.966 290.003 363.582 290.536C363.198 291.069 362.718 291.549 362.142 291.976C361.588 292.381 360.958 292.712 360.254 292.968C359.55 293.203 358.804 293.32 358.014 293.32ZM359.262 289.384C360.116 289.384 360.862 289.181 361.502 288.776C362.142 288.371 362.633 287.805 362.974 287.08C363.337 286.333 363.518 285.469 363.518 284.488C363.518 283.528 363.337 282.685 362.974 281.96C362.633 281.235 362.142 280.669 361.502 280.264C360.862 279.837 360.116 279.624 359.262 279.624C358.43 279.624 357.694 279.837 357.054 280.264C356.436 280.669 355.945 281.235 355.582 281.96C355.22 282.685 355.038 283.528 355.038 284.488C355.038 285.469 355.22 286.333 355.582 287.08C355.945 287.805 356.436 288.371 357.054 288.776C357.694 289.181 358.43 289.384 359.262 289.384ZM374.154 293V271.784H378.698V293H374.154ZM370.986 280.136V276.072H382.154V280.136H370.986ZM385.5 293V276.072H390.044V293H385.5ZM387.74 272.584C386.865 272.584 386.182 272.371 385.692 271.944C385.201 271.517 384.956 270.909 384.956 270.12C384.956 269.395 385.201 268.808 385.692 268.36C386.204 267.891 386.886 267.656 387.74 267.656C388.614 267.656 389.297 267.88 389.788 268.328C390.278 268.755 390.524 269.352 390.524 270.12C390.524 270.867 390.268 271.464 389.756 271.912C389.265 272.36 388.593 272.584 387.74 272.584ZM402.769 293.32C401.041 293.32 399.494 292.947 398.129 292.2C396.785 291.432 395.718 290.387 394.929 289.064C394.161 287.741 393.777 286.227 393.777 284.52C393.777 282.813 394.161 281.309 394.929 280.008C395.718 278.685 396.785 277.64 398.129 276.872C399.494 276.104 401.041 275.72 402.769 275.72C404.476 275.72 406.001 276.104 407.345 276.872C408.71 277.64 409.777 278.685 410.545 280.008C411.313 281.309 411.697 282.813 411.697 284.52C411.697 286.227 411.313 287.741 410.545 289.064C409.777 290.387 408.71 291.432 407.345 292.2C406.001 292.947 404.476 293.32 402.769 293.32ZM402.769 289.352C403.601 289.352 404.348 289.149 405.009 288.744C405.67 288.317 406.182 287.741 406.545 287.016C406.929 286.269 407.121 285.437 407.121 284.52C407.121 283.581 406.929 282.749 406.545 282.024C406.182 281.277 405.67 280.701 405.009 280.296C404.348 279.869 403.601 279.656 402.769 279.656C401.916 279.656 401.158 279.869 400.497 280.296C399.836 280.723 399.313 281.299 398.929 282.024C398.545 282.749 398.364 283.581 398.385 284.52C398.364 285.437 398.545 286.269 398.929 287.016C399.313 287.741 399.836 288.317 400.497 288.744C401.158 289.149 401.916 289.352 402.769 289.352ZM415.116 293V276.072H419.468L419.596 279.528L418.7 279.912C418.934 279.144 419.35 278.451 419.948 277.832C420.566 277.192 421.302 276.68 422.156 276.296C423.009 275.912 423.905 275.72 424.844 275.72C426.124 275.72 427.19 275.976 428.044 276.488C428.918 277 429.569 277.779 429.996 278.824C430.444 279.848 430.668 281.117 430.668 282.632V293H426.124V282.984C426.124 282.216 426.017 281.576 425.804 281.064C425.59 280.552 425.26 280.179 424.812 279.944C424.385 279.688 423.852 279.581 423.212 279.624C422.7 279.624 422.22 279.709 421.772 279.88C421.345 280.029 420.972 280.253 420.652 280.552C420.353 280.851 420.108 281.192 419.916 281.576C419.745 281.96 419.66 282.376 419.66 282.824V293H417.42C416.929 293 416.492 293 416.108 293C415.724 293 415.393 293 415.116 293Z" fill="#F2F2F2"/>
<g filter="url(#filter1_d_1920_184282)">
<path d="M99 548H587.571V602.286C587.571 614.278 577.85 624 565.857 624H120.714C108.722 624 99 614.278 99 602.286V548Z" fill="#262837"/>
<circle cx="149.215" cy="585.998" r="27.1429" fill="#373A4E"/>
<g clip-path="url(#clip0_1920_184282)">
<path d="M158.716 598.216H139.716C139.356 598.216 139.011 598.073 138.756 597.819C138.502 597.564 138.359 597.219 138.359 596.859V584.645H134.287L148.302 571.904C148.552 571.677 148.878 571.551 149.216 571.551C149.553 571.551 149.879 571.677 150.129 571.904L164.144 584.645H160.073V596.859C160.073 597.219 159.93 597.564 159.675 597.819C159.421 598.073 159.076 598.216 158.716 598.216ZM141.073 595.502H157.359V582.144L149.216 574.742L141.073 582.144V595.502Z" fill="#7362F4"/>
</g>
<g clip-path="url(#clip1_1920_184282)">
<path d="M286.286 584.644C288.086 584.644 289.812 585.359 291.084 586.631C292.357 587.904 293.072 589.63 293.072 591.43V599.573H290.358V591.43C290.358 590.391 289.961 589.392 289.249 588.636C288.536 587.881 287.562 587.426 286.525 587.365L286.286 587.358C285.248 587.358 284.249 587.755 283.493 588.467C282.737 589.18 282.283 590.154 282.222 591.191L282.215 591.43V599.573H279.501V591.43C279.501 589.63 280.215 587.904 281.488 586.631C282.761 585.359 284.487 584.644 286.286 584.644ZM277.465 588.715C277.843 588.715 278.211 588.76 278.564 588.843C278.332 589.534 278.195 590.253 278.156 590.98L278.143 591.43V591.546C277.987 591.491 277.825 591.454 277.66 591.438L277.465 591.43C276.959 591.43 276.471 591.618 276.096 591.958C275.722 592.299 275.487 592.766 275.439 593.27L275.429 593.465V599.573H272.715V593.465C272.715 592.206 273.215 590.997 274.106 590.107C274.997 589.216 276.205 588.715 277.465 588.715V588.715ZM295.108 588.715C296.367 588.715 297.576 589.216 298.466 590.107C299.357 590.997 299.858 592.206 299.858 593.465V599.573H297.143V593.465C297.143 592.959 296.955 592.471 296.615 592.097C296.274 591.722 295.807 591.488 295.303 591.439L295.108 591.43C294.87 591.43 294.642 591.47 294.429 591.545V591.43C294.429 590.526 294.283 589.657 294.01 588.846C294.361 588.76 294.729 588.715 295.108 588.715ZM277.465 580.573C278.365 580.573 279.228 580.93 279.864 581.566C280.5 582.203 280.858 583.066 280.858 583.965C280.858 584.865 280.5 585.728 279.864 586.365C279.228 587.001 278.365 587.358 277.465 587.358C276.565 587.358 275.702 587.001 275.066 586.365C274.429 585.728 274.072 584.865 274.072 583.965C274.072 583.066 274.429 582.203 275.066 581.566C275.702 580.93 276.565 580.573 277.465 580.573V580.573ZM295.108 580.573C296.008 580.573 296.871 580.93 297.507 581.566C298.143 582.203 298.501 583.066 298.501 583.965C298.501 584.865 298.143 585.728 297.507 586.365C296.871 587.001 296.008 587.358 295.108 587.358C294.208 587.358 293.345 587.001 292.709 586.365C292.072 585.728 291.715 584.865 291.715 583.965C291.715 583.066 292.072 582.203 292.709 581.566C293.345 580.93 294.208 580.573 295.108 580.573V580.573ZM277.465 583.287C277.285 583.287 277.112 583.358 276.985 583.486C276.858 583.613 276.786 583.785 276.786 583.965C276.786 584.145 276.858 584.318 276.985 584.445C277.112 584.572 277.285 584.644 277.465 584.644C277.645 584.644 277.817 584.572 277.945 584.445C278.072 584.318 278.143 584.145 278.143 583.965C278.143 583.785 278.072 583.613 277.945 583.486C277.817 583.358 277.645 583.287 277.465 583.287ZM295.108 583.287C294.928 583.287 294.755 583.358 294.628 583.486C294.501 583.613 294.429 583.785 294.429 583.965C294.429 584.145 294.501 584.318 294.628 584.445C294.755 584.572 294.928 584.644 295.108 584.644C295.288 584.644 295.46 584.572 295.588 584.445C295.715 584.318 295.786 584.145 295.786 583.965C295.786 583.785 295.715 583.613 295.588 583.486C295.46 583.358 295.288 583.287 295.108 583.287ZM286.286 572.43C287.726 572.43 289.107 573.002 290.125 574.02C291.143 575.038 291.715 576.419 291.715 577.858C291.715 579.298 291.143 580.679 290.125 581.697C289.107 582.715 287.726 583.287 286.286 583.287C284.847 583.287 283.466 582.715 282.448 581.697C281.43 580.679 280.858 579.298 280.858 577.858C280.858 576.419 281.43 575.038 282.448 574.02C283.466 573.002 284.847 572.43 286.286 572.43V572.43ZM286.286 575.144C285.566 575.144 284.876 575.43 284.367 575.939C283.858 576.448 283.572 577.138 283.572 577.858C283.572 578.578 283.858 579.269 284.367 579.778C284.876 580.287 285.566 580.573 286.286 580.573C287.006 580.573 287.697 580.287 288.206 579.778C288.715 579.269 289.001 578.578 289.001 577.858C289.001 577.138 288.715 576.448 288.206 575.939C287.697 575.43 287.006 575.144 286.286 575.144V575.144Z" fill="#9E9E9E"/>
</g>
<g clip-path="url(#clip2_1920_184282)">
<path d="M426.071 579.214H427.428V592.785H426.071V596.857C426.071 597.217 425.928 597.562 425.673 597.816C425.419 598.071 425.073 598.214 424.713 598.214H400.285C399.925 598.214 399.58 598.071 399.325 597.816C399.071 597.562 398.928 597.217 398.928 596.857V575.142C398.928 574.782 399.071 574.437 399.325 574.183C399.58 573.928 399.925 573.785 400.285 573.785H424.713C425.073 573.785 425.419 573.928 425.673 574.183C425.928 574.437 426.071 574.782 426.071 575.142V579.214ZM423.356 592.785H415.213C413.414 592.785 411.688 592.07 410.415 590.798C409.143 589.525 408.428 587.799 408.428 585.999C408.428 584.2 409.143 582.474 410.415 581.201C411.688 579.929 413.414 579.214 415.213 579.214H423.356V576.499H401.642V595.499H423.356V592.785ZM424.713 590.071V581.928H415.213C414.134 581.928 413.098 582.357 412.335 583.121C411.571 583.884 411.142 584.92 411.142 585.999C411.142 587.079 411.571 588.115 412.335 588.878C413.098 589.642 414.134 590.071 415.213 590.071H424.713ZM415.213 584.642H419.285V587.357H415.213V584.642Z" fill="#9E9E9E"/>
</g>
<g clip-path="url(#clip3_1920_184282)">
<path d="M538.716 573.785C537.223 573.785 536.002 575.007 536.002 576.499C536.002 577.992 537.223 579.214 538.716 579.214C540.209 579.214 541.431 577.992 541.431 576.499C541.431 575.007 540.209 573.785 538.716 573.785ZM538.716 592.785C537.223 592.785 536.002 594.007 536.002 595.499C536.002 596.992 537.223 598.214 538.716 598.214C540.209 598.214 541.431 596.992 541.431 595.499C541.431 594.007 540.209 592.785 538.716 592.785ZM538.716 583.285C537.223 583.285 536.002 584.507 536.002 585.999C536.002 587.492 537.223 588.714 538.716 588.714C540.209 588.714 541.431 587.492 541.431 585.999C541.431 584.507 540.209 583.285 538.716 583.285Z" fill="#9E9E9E"/>
</g>
</g>
<defs>
<filter id="filter0_d_1920_184282" x="0" y="0" width="686" height="770" filterUnits="userSpaceOnUse" color-interpolation-filters="sRGB">
<feFlood flood-opacity="0" result="BackgroundImageFix"/>
<feColorMatrix in="SourceAlpha" type="matrix" values="0 0 0 0 0 0 0 0 0 0 0 0 0 0 0 0 0 0 127 0" result="hardAlpha"/>
<feOffset dy="1"/>
<feGaussianBlur stdDeviation="31.5"/>
<feComposite in2="hardAlpha" operator="out"/>
<feColorMatrix type="matrix" values="0 0 0 0 0 0 0 0 0 0 0 0 0 0 0 0 0 0 0.06 0"/>
<feBlend mode="normal" in2="BackgroundImageFix" result="effect1_dropShadow_1920_184282"/>
<feBlend mode="normal" in="SourceGraphic" in2="effect1_dropShadow_1920_184282" result="shape"/>
</filter>
<filter id="filter1_d_1920_184282" x="80" y="519.5" width="526.572" height="114" filterUnits="userSpaceOnUse" color-interpolation-filters="sRGB">
<feFlood flood-opacity="0" result="BackgroundImageFix"/>
<feColorMatrix in="SourceAlpha" type="matrix" values="0 0 0 0 0 0 0 0 0 0 0 0 0 0 0 0 0 0 127 0" result="hardAlpha"/>
<feOffset dy="-9.5"/>
<feGaussianBlur stdDeviation="9.5"/>
<feColorMatrix type="matrix" values="0 0 0 0 0 0 0 0 0 0 0 0 0 0 0 0 0 0 0.3 0"/>
<feBlend mode="normal" in2="BackgroundImageFix" result="effect1_dropShadow_1920_184282"/>
<feBlend mode="normal" in="SourceGraphic" in2="effect1_dropShadow_1920_184282" result="shape"/>
</filter>
<clipPath id="clip0_1920_184282">
<rect width="32.5714" height="32.5714" fill="white" transform="translate(132.928 569.715)"/>
</clipPath>
<clipPath id="clip1_1920_184282">
<rect width="32.5714" height="32.5714" fill="white" transform="translate(270 569.715)"/>
</clipPath>
<clipPath id="clip2_1920_184282">
<rect width="32.5714" height="32.5714" fill="white" transform="translate(396.215 569.715)"/>
</clipPath>
<clipPath id="clip3_1920_184282">
<rect width="32.5714" height="32.5714" fill="white" transform="translate(522.428 569.715)"/>
</clipPath>
</defs>
</svg>
