<svg width="1153" height="1049" viewBox="0 0 1153 1049" fill="none" xmlns="http://www.w3.org/2000/svg">
<path d="M15.92 283.4C13.8667 283.4 11.9733 283.053 10.24 282.36C8.53333 281.64 7.04 280.64 5.76 279.36C4.50667 278.053 3.53333 276.52 2.84 274.76C2.14667 272.973 1.8 271.027 1.8 268.92C1.8 266.867 2.16 264.973 2.88 263.24C3.6 261.48 4.61333 259.96 5.92 258.68C7.22667 257.373 8.76 256.36 10.52 255.64C12.28 254.92 14.1867 254.56 16.24 254.56C17.5733 254.56 18.88 254.747 20.16 255.12C21.4667 255.467 22.6533 255.987 23.72 256.68C24.8133 257.373 25.7467 258.2 26.52 259.16L22.76 263.32C22.12 262.68 21.4533 262.133 20.76 261.68C20.0933 261.2 19.3733 260.84 18.6 260.6C17.8533 260.333 17.0533 260.2 16.2 260.2C15.0533 260.2 13.9733 260.413 12.96 260.84C11.9733 261.267 11.1067 261.867 10.36 262.64C9.61333 263.387 9.01333 264.307 8.56 265.4C8.13333 266.467 7.92 267.653 7.92 268.96C7.92 270.293 8.13333 271.507 8.56 272.6C8.98667 273.667 9.58667 274.587 10.36 275.36C11.1333 276.107 12.0533 276.693 13.12 277.12C14.2133 277.52 15.4133 277.72 16.72 277.72C17.5733 277.72 18.4 277.6 19.2 277.36C20 277.12 20.7333 276.787 21.4 276.36C22.0933 275.933 22.7067 275.44 23.24 274.88L26.16 279.56C25.52 280.28 24.6533 280.933 23.56 281.52C22.4933 282.107 21.2933 282.573 19.96 282.92C18.6267 283.24 17.28 283.4 15.92 283.4ZM40.2581 283.4C38.0981 283.4 36.1648 282.933 34.4581 282C32.7781 281.04 31.4448 279.733 30.4581 278.08C29.4981 276.427 29.0181 274.533 29.0181 272.4C29.0181 270.267 29.4981 268.387 30.4581 266.76C31.4448 265.107 32.7781 263.8 34.4581 262.84C36.1648 261.88 38.0981 261.4 40.2581 261.4C42.3915 261.4 44.2981 261.88 45.9781 262.84C47.6848 263.8 49.0181 265.107 49.9781 266.76C50.9381 268.387 51.4181 270.267 51.4181 272.4C51.4181 274.533 50.9381 276.427 49.9781 278.08C49.0181 279.733 47.6848 281.04 45.9781 282C44.2981 282.933 42.3915 283.4 40.2581 283.4ZM40.2581 278.44C41.2981 278.44 42.2315 278.187 43.0581 277.68C43.8848 277.147 44.5248 276.427 44.9781 275.52C45.4581 274.587 45.6981 273.547 45.6981 272.4C45.6981 271.227 45.4581 270.187 44.9781 269.28C44.5248 268.347 43.8848 267.627 43.0581 267.12C42.2315 266.587 41.2981 266.32 40.2581 266.32C39.1915 266.32 38.2448 266.587 37.4181 267.12C36.5915 267.653 35.9381 268.373 35.4581 269.28C34.9781 270.187 34.7515 271.227 34.7781 272.4C34.7515 273.547 34.9781 274.587 35.4581 275.52C35.9381 276.427 36.5915 277.147 37.4181 277.68C38.2448 278.187 39.1915 278.44 40.2581 278.44ZM55.7316 283V253.4H61.4116V283H55.7316ZM76.6253 283.4C74.4653 283.4 72.532 282.933 70.8253 282C69.1453 281.04 67.812 279.733 66.8253 278.08C65.8653 276.427 65.3853 274.533 65.3853 272.4C65.3853 270.267 65.8653 268.387 66.8253 266.76C67.812 265.107 69.1453 263.8 70.8253 262.84C72.532 261.88 74.4653 261.4 76.6253 261.4C78.7586 261.4 80.6653 261.88 82.3453 262.84C84.052 263.8 85.3853 265.107 86.3453 266.76C87.3053 268.387 87.7853 270.267 87.7853 272.4C87.7853 274.533 87.3053 276.427 86.3453 278.08C85.3853 279.733 84.052 281.04 82.3453 282C80.6653 282.933 78.7586 283.4 76.6253 283.4ZM76.6253 278.44C77.6653 278.44 78.5986 278.187 79.4253 277.68C80.252 277.147 80.892 276.427 81.3453 275.52C81.8253 274.587 82.0653 273.547 82.0653 272.4C82.0653 271.227 81.8253 270.187 81.3453 269.28C80.892 268.347 80.252 267.627 79.4253 267.12C78.5986 266.587 77.6653 266.32 76.6253 266.32C75.5586 266.32 74.612 266.587 73.7853 267.12C72.9586 267.653 72.3053 268.373 71.8253 269.28C71.3453 270.187 71.1186 271.227 71.1453 272.4C71.1186 273.547 71.3453 274.587 71.8253 275.52C72.3053 276.427 72.9586 277.147 73.7853 277.68C74.612 278.187 75.5586 278.44 76.6253 278.44ZM92.0588 283V261.84H97.5388L97.7388 268.64L96.7788 267.24C97.0988 266.147 97.6188 265.16 98.3388 264.28C99.0588 263.373 99.8988 262.667 100.859 262.16C101.845 261.653 102.872 261.4 103.939 261.4C104.392 261.4 104.832 261.44 105.259 261.52C105.685 261.6 106.045 261.693 106.339 261.8L104.819 268.04C104.499 267.88 104.112 267.747 103.659 267.64C103.205 267.507 102.739 267.44 102.259 267.44C101.619 267.44 101.019 267.56 100.459 267.8C99.9254 268.013 99.4588 268.333 99.0588 268.76C98.6588 269.16 98.3388 269.64 98.0988 270.2C97.8854 270.76 97.7788 271.373 97.7788 272.04V283H92.0588ZM131.743 283.4C130.01 283.4 128.423 283.187 126.983 282.76C125.57 282.333 124.303 281.707 123.183 280.88C122.09 280.053 121.103 279.053 120.223 277.88L123.983 273.6C125.29 275.413 126.583 276.653 127.863 277.32C129.17 277.96 130.583 278.28 132.103 278.28C132.93 278.28 133.663 278.173 134.303 277.96C134.97 277.72 135.49 277.387 135.863 276.96C136.237 276.533 136.423 276.027 136.423 275.44C136.423 275.013 136.33 274.627 136.143 274.28C135.957 273.907 135.69 273.587 135.343 273.32C134.997 273.027 134.583 272.773 134.103 272.56C133.623 272.32 133.09 272.12 132.503 271.96C131.917 271.773 131.277 271.627 130.583 271.52C129.09 271.173 127.783 270.76 126.663 270.28C125.543 269.773 124.61 269.16 123.863 268.44C123.117 267.693 122.557 266.853 122.183 265.92C121.837 264.987 121.663 263.933 121.663 262.76C121.663 261.56 121.93 260.453 122.463 259.44C122.997 258.4 123.73 257.507 124.663 256.76C125.623 256.013 126.717 255.44 127.943 255.04C129.197 254.64 130.517 254.44 131.903 254.44C133.61 254.44 135.103 254.64 136.383 255.04C137.663 255.413 138.77 255.96 139.703 256.68C140.663 257.4 141.463 258.28 142.103 259.32L138.303 263C137.743 262.253 137.13 261.627 136.463 261.12C135.823 260.613 135.117 260.24 134.343 260C133.597 259.733 132.823 259.6 132.023 259.6C131.143 259.6 130.383 259.72 129.743 259.96C129.103 260.173 128.597 260.493 128.223 260.92C127.877 261.347 127.703 261.867 127.703 262.48C127.703 262.96 127.823 263.387 128.063 263.76C128.303 264.133 128.65 264.467 129.103 264.76C129.557 265.027 130.103 265.267 130.743 265.48C131.383 265.693 132.09 265.88 132.863 266.04C134.33 266.333 135.65 266.72 136.823 267.2C137.997 267.68 138.997 268.267 139.823 268.96C140.677 269.627 141.33 270.427 141.783 271.36C142.237 272.267 142.463 273.293 142.463 274.44C142.463 276.333 142.01 277.947 141.103 279.28C140.197 280.613 138.943 281.64 137.343 282.36C135.743 283.053 133.877 283.4 131.743 283.4ZM149.138 283V256.48H154.818V283H149.138ZM145.178 266.92V261.84H159.138V266.92H145.178ZM165.8 292.2L170.44 281.32L170.52 284.6L160.2 261.84H166.64L171.8 274.04C172.013 274.493 172.213 275.027 172.4 275.64C172.613 276.227 172.787 276.8 172.92 277.36L171.96 277.76C172.12 277.307 172.307 276.787 172.52 276.2C172.733 275.613 172.947 274.987 173.16 274.32L177.6 261.84H184.08L175.2 283L171.56 292.2H165.8ZM187.177 283V253.4H192.857V283H187.177ZM208.271 283.4C205.977 283.4 203.977 282.933 202.271 282C200.564 281.067 199.231 279.787 198.271 278.16C197.311 276.533 196.831 274.667 196.831 272.56C196.831 270.933 197.097 269.44 197.631 268.08C198.164 266.72 198.911 265.547 199.871 264.56C200.831 263.547 201.964 262.773 203.271 262.24C204.604 261.68 206.044 261.4 207.591 261.4C209.031 261.4 210.364 261.667 211.591 262.2C212.817 262.707 213.871 263.44 214.751 264.4C215.657 265.333 216.351 266.44 216.831 267.72C217.311 269 217.524 270.4 217.471 271.92L217.431 273.68H200.431L199.511 270.2H212.751L212.111 270.92V270.04C212.057 269.32 211.817 268.667 211.391 268.08C210.991 267.493 210.471 267.04 209.831 266.72C209.191 266.4 208.471 266.24 207.671 266.24C206.497 266.24 205.497 266.467 204.671 266.92C203.871 267.373 203.257 268.04 202.831 268.92C202.404 269.8 202.191 270.867 202.191 272.12C202.191 273.4 202.457 274.507 202.991 275.44C203.551 276.373 204.324 277.107 205.311 277.64C206.324 278.147 207.511 278.4 208.871 278.4C209.804 278.4 210.657 278.253 211.431 277.96C212.204 277.667 213.031 277.16 213.911 276.44L216.631 280.24C215.857 280.933 215.004 281.52 214.071 282C213.137 282.453 212.177 282.8 211.191 283.04C210.204 283.28 209.231 283.4 208.271 283.4Z" fill="#4F4F4F"/>
<path d="M2.352 352V335.2H9.192C10.104 335.2 10.928 335.432 11.664 335.896C12.416 336.344 13.016 336.96 13.464 337.744C13.912 338.528 14.136 339.4 14.136 340.36C14.136 341.32 13.912 342.192 13.464 342.976C13.016 343.76 12.416 344.392 11.664 344.872C10.928 345.336 10.104 345.568 9.192 345.568H4.944V352H2.352ZM4.944 343.072H9.144C9.576 343.072 9.968 342.952 10.32 342.712C10.672 342.456 10.952 342.128 11.16 341.728C11.384 341.312 11.496 340.856 11.496 340.36C11.496 339.864 11.384 339.416 11.16 339.016C10.952 338.616 10.672 338.296 10.32 338.056C9.968 337.816 9.576 337.696 9.144 337.696H4.944V343.072ZM17.8029 352V335.2H24.9549C25.9149 335.2 26.7949 335.44 27.5949 335.92C28.4109 336.384 29.0589 337.024 29.5389 337.84C30.0189 338.64 30.2589 339.544 30.2589 340.552C30.2589 341.464 30.0189 342.312 29.5389 343.096C29.0589 343.88 28.4189 344.512 27.6189 344.992C26.8189 345.456 25.9309 345.688 24.9549 345.688H20.3949V352H17.8029ZM27.7869 352L23.5149 344.416L26.1789 343.816L30.9309 352.024L27.7869 352ZM20.3949 343.192H25.1949C25.6589 343.192 26.0749 343.08 26.4429 342.856C26.8109 342.616 27.0989 342.296 27.3069 341.896C27.5149 341.48 27.6189 341.024 27.6189 340.528C27.6189 339.968 27.4829 339.48 27.2109 339.064C26.9549 338.632 26.5869 338.296 26.1069 338.056C25.6429 337.816 25.1149 337.696 24.5229 337.696H20.3949V343.192ZM34.1064 352V349.6H36.8184V337.6H34.1064V335.2H42.1224V337.6H39.4104V349.6H42.1224V352H34.1064ZM46.4314 352V335.2H48.9754L55.0954 345.16L53.8714 345.136L60.0634 335.2H62.4634V352H59.8714V345.112C59.8714 343.672 59.9034 342.376 59.9674 341.224C60.0474 340.072 60.1754 338.928 60.3514 337.792L60.6874 338.68L55.1914 347.176H53.6074L48.2794 338.776L48.5434 337.792C48.7194 338.864 48.8394 339.968 48.9034 341.104C48.9834 342.224 49.0234 343.56 49.0234 345.112V352H46.4314ZM65.6616 352L72.1656 335.2H74.8056L81.2616 352H78.5016L74.6616 341.872C74.6136 341.76 74.5176 341.488 74.3736 341.056C74.2456 340.624 74.0936 340.144 73.9176 339.616C73.7416 339.088 73.5816 338.608 73.4376 338.176C73.2936 337.728 73.1976 337.44 73.1496 337.312L73.7016 337.288C73.6056 337.56 73.4856 337.904 73.3416 338.32C73.2136 338.736 73.0696 339.176 72.9096 339.64C72.7656 340.104 72.6216 340.544 72.4776 340.96C72.3336 341.36 72.2136 341.696 72.1176 341.968L68.3016 352H65.6616ZM68.5416 347.824L69.5016 345.328H77.1336L78.2376 347.824H68.5416ZM84.4582 352V335.2H91.6102C92.5702 335.2 93.4502 335.44 94.2502 335.92C95.0662 336.384 95.7142 337.024 96.1942 337.84C96.6742 338.64 96.9142 339.544 96.9142 340.552C96.9142 341.464 96.6742 342.312 96.1942 343.096C95.7142 343.88 95.0742 344.512 94.2742 344.992C93.4742 345.456 92.5862 345.688 91.6102 345.688H87.0502V352H84.4582ZM94.4422 352L90.1702 344.416L92.8342 343.816L97.5862 352.024L94.4422 352ZM87.0502 343.192H91.8502C92.3142 343.192 92.7302 343.08 93.0982 342.856C93.4662 342.616 93.7542 342.296 93.9622 341.896C94.1702 341.48 94.2742 341.024 94.2742 340.528C94.2742 339.968 94.1382 339.48 93.8662 339.064C93.6102 338.632 93.2422 338.296 92.7622 338.056C92.2982 337.816 91.7702 337.696 91.1782 337.696H87.0502V343.192ZM104.702 352V343.624L104.87 344.8L98.0784 335.2H101.198L106.382 342.64L105.782 342.568L110.462 335.2H113.438L106.934 345.064L107.294 343.432V352H104.702Z" fill="#828282"/>
<rect y="367" width="110.348" height="110.348" fill="#6B5ECD"/>
<rect x="110.348" y="367" width="110.348" height="110.348" fill="#9284FF"/>
<rect x="220.695" y="367" width="110.348" height="110.348" fill="#C3BBFF"/>
<rect x="331.043" y="367" width="110.348" height="110.348" fill="#F4F2FF"/>
<path d="M7.536 542.588C6.624 542.588 5.776 542.468 4.992 542.228C4.224 541.988 3.52 541.628 2.88 541.148C2.256 540.652 1.696 540.044 1.2 539.324L2.976 537.284C3.76 538.404 4.512 539.18 5.232 539.612C5.952 540.044 6.808 540.26 7.8 540.26C8.408 540.26 8.96 540.164 9.456 539.972C9.952 539.78 10.344 539.516 10.632 539.18C10.92 538.844 11.064 538.46 11.064 538.028C11.064 537.74 11.016 537.468 10.92 537.212C10.824 536.956 10.672 536.724 10.464 536.516C10.272 536.308 10.016 536.116 9.696 535.94C9.392 535.764 9.032 535.612 8.616 535.484C8.2 535.34 7.72 535.22 7.176 535.124C6.312 534.948 5.56 534.716 4.92 534.428C4.28 534.14 3.744 533.78 3.312 533.348C2.88 532.916 2.56 532.428 2.352 531.884C2.144 531.324 2.04 530.7 2.04 530.012C2.04 529.34 2.184 528.716 2.472 528.14C2.776 527.564 3.184 527.068 3.696 526.652C4.224 526.22 4.84 525.892 5.544 525.668C6.248 525.428 7.008 525.308 7.824 525.308C8.688 525.308 9.48 525.42 10.2 525.644C10.92 525.868 11.56 526.204 12.12 526.652C12.68 527.084 13.144 527.62 13.512 528.26L11.688 530.06C11.368 529.532 11.008 529.092 10.608 528.74C10.208 528.372 9.768 528.1 9.288 527.924C8.808 527.732 8.296 527.636 7.752 527.636C7.128 527.636 6.584 527.732 6.12 527.924C5.656 528.116 5.288 528.388 5.016 528.74C4.76 529.076 4.632 529.476 4.632 529.94C4.632 530.276 4.696 530.588 4.824 530.876C4.952 531.148 5.144 531.396 5.4 531.62C5.672 531.828 6.032 532.02 6.48 532.196C6.928 532.356 7.464 532.5 8.088 532.628C8.968 532.82 9.752 533.068 10.44 533.372C11.128 533.66 11.712 534.004 12.192 534.404C12.672 534.804 13.032 535.252 13.272 535.748C13.528 536.244 13.656 536.78 13.656 537.356C13.656 538.428 13.408 539.356 12.912 540.14C12.416 540.924 11.712 541.532 10.8 541.964C9.888 542.38 8.8 542.588 7.536 542.588ZM17.5686 542.348V525.548H28.1526V528.044H20.1606V539.852H28.1526V542.348H17.5686ZM18.7446 534.98V532.484H26.8326V534.98H18.7446ZM39.3668 542.588C38.1988 542.588 37.1267 542.38 36.1507 541.964C35.1747 541.548 34.3267 540.956 33.6067 540.188C32.8867 539.404 32.3267 538.484 31.9267 537.428C31.5427 536.372 31.3507 535.212 31.3507 533.948C31.3507 532.748 31.5587 531.636 31.9747 530.612C32.4067 529.572 32.9987 528.66 33.7507 527.876C34.5027 527.092 35.3747 526.484 36.3667 526.052C37.3587 525.62 38.4307 525.404 39.5828 525.404C40.3988 525.404 41.1908 525.532 41.9587 525.788C42.7428 526.028 43.4468 526.372 44.0707 526.82C44.7108 527.252 45.2308 527.748 45.6307 528.308L43.9028 530.108C43.4388 529.644 42.9668 529.26 42.4868 528.956C42.0227 528.636 41.5427 528.396 41.0468 528.236C40.5668 528.076 40.0788 527.996 39.5828 527.996C38.7987 527.996 38.0627 528.148 37.3748 528.452C36.7027 528.74 36.1107 529.148 35.5987 529.676C35.1027 530.204 34.7107 530.836 34.4227 531.572C34.1347 532.292 33.9907 533.084 33.9907 533.948C33.9907 534.86 34.1267 535.692 34.3987 536.444C34.6867 537.18 35.0867 537.812 35.5987 538.34C36.1107 538.868 36.7187 539.276 37.4228 539.564C38.1428 539.836 38.9347 539.972 39.7987 539.972C40.3268 539.972 40.8468 539.9 41.3588 539.756C41.8707 539.612 42.3507 539.404 42.7988 539.132C43.2468 538.86 43.6548 538.54 44.0228 538.172L45.3188 540.284C44.9508 540.716 44.4468 541.108 43.8068 541.46C43.1827 541.812 42.4787 542.092 41.6948 542.3C40.9268 542.492 40.1508 542.588 39.3668 542.588ZM56.1118 542.588C54.9278 542.588 53.8318 542.372 52.8238 541.94C51.8318 541.508 50.9598 540.908 50.2078 540.14C49.4718 539.356 48.8958 538.444 48.4798 537.404C48.0798 536.348 47.8798 535.196 47.8798 533.948C47.8798 532.7 48.0798 531.556 48.4798 530.516C48.8958 529.46 49.4718 528.548 50.2078 527.78C50.9598 526.996 51.8318 526.388 52.8238 525.956C53.8318 525.524 54.9278 525.308 56.1118 525.308C57.2958 525.308 58.3838 525.524 59.3758 525.956C60.3838 526.388 61.2558 526.996 61.9918 527.78C62.7438 528.564 63.3198 529.484 63.7198 530.54C64.1358 531.58 64.3438 532.716 64.3438 533.948C64.3438 535.18 64.1358 536.324 63.7198 537.38C63.3198 538.42 62.7438 539.332 61.9918 540.116C61.2558 540.9 60.3838 541.508 59.3758 541.94C58.3838 542.372 57.2958 542.588 56.1118 542.588ZM56.1118 540.068C56.9278 540.068 57.6718 539.916 58.3438 539.612C59.0318 539.308 59.6238 538.884 60.1198 538.34C60.6158 537.78 60.9998 537.132 61.2718 536.396C61.5598 535.644 61.7038 534.828 61.7038 533.948C61.7038 533.068 61.5598 532.26 61.2718 531.524C60.9998 530.772 60.6158 530.124 60.1198 529.58C59.6238 529.02 59.0318 528.588 58.3438 528.284C57.6718 527.98 56.9278 527.828 56.1118 527.828C55.2958 527.828 54.5438 527.98 53.8558 528.284C53.1838 528.588 52.5918 529.012 52.0798 529.556C51.5838 530.1 51.1998 530.748 50.9278 531.5C50.6558 532.236 50.5198 533.052 50.5198 533.948C50.5198 534.828 50.6558 535.644 50.9278 536.396C51.1998 537.148 51.5838 537.796 52.0798 538.34C52.5918 538.884 53.1838 539.308 53.8558 539.612C54.5438 539.916 55.2958 540.068 56.1118 540.068ZM68.0932 542.348V525.548H70.4212L80.6932 539.3L80.3093 539.516C80.2453 539.116 80.1892 538.684 80.1412 538.22C80.0932 537.74 80.0452 537.236 79.9973 536.708C79.9652 536.164 79.9332 535.596 79.9012 535.004C79.8853 534.396 79.8692 533.764 79.8532 533.108C79.8372 532.452 79.8292 531.772 79.8292 531.068V525.548H82.4213V542.348H80.0452L69.9412 529.1L70.2052 528.764C70.2852 529.74 70.3492 530.572 70.3972 531.26C70.4612 531.932 70.5092 532.508 70.5412 532.988C70.5892 533.452 70.6212 533.836 70.6372 534.14C70.6532 534.428 70.6612 534.668 70.6612 534.86C70.6772 535.052 70.6852 535.22 70.6852 535.364V542.348H68.0932ZM87.3645 542.348V525.548H93.9405C95.1405 525.548 96.2205 525.748 97.1805 526.148C98.1565 526.548 98.9885 527.124 99.6765 527.876C100.364 528.628 100.892 529.516 101.26 530.54C101.628 531.564 101.812 532.7 101.812 533.948C101.812 535.196 101.628 536.34 101.26 537.38C100.892 538.404 100.364 539.292 99.6765 540.044C99.0045 540.78 98.1805 541.348 97.2045 541.748C96.2285 542.148 95.1405 542.348 93.9405 542.348H87.3645ZM89.9565 540.116L89.8845 539.852H93.8205C94.6685 539.852 95.4205 539.716 96.0765 539.444C96.7485 539.172 97.3085 538.788 97.7565 538.292C98.2205 537.78 98.5725 537.156 98.8125 536.42C99.0525 535.684 99.1725 534.86 99.1725 533.948C99.1725 533.036 99.0525 532.22 98.8125 531.5C98.5725 530.764 98.2205 530.14 97.7565 529.628C97.2925 529.116 96.7325 528.724 96.0765 528.452C95.4205 528.18 94.6685 528.044 93.8205 528.044H89.8125L89.9565 527.828V540.116ZM103.337 542.348L109.841 525.548H112.481L118.937 542.348H116.177L112.337 532.22C112.289 532.108 112.193 531.836 112.049 531.404C111.921 530.972 111.769 530.492 111.593 529.964C111.417 529.436 111.257 528.956 111.113 528.524C110.969 528.076 110.873 527.788 110.825 527.66L111.377 527.636C111.281 527.908 111.161 528.252 111.017 528.668C110.889 529.084 110.745 529.524 110.585 529.988C110.441 530.452 110.297 530.892 110.153 531.308C110.009 531.708 109.889 532.044 109.793 532.316L105.977 542.348H103.337ZM106.217 538.172L107.177 535.676H114.809L115.913 538.172H106.217ZM122.134 542.348V525.548H129.286C130.246 525.548 131.126 525.788 131.926 526.268C132.742 526.732 133.39 527.372 133.87 528.188C134.35 528.988 134.59 529.892 134.59 530.9C134.59 531.812 134.35 532.66 133.87 533.444C133.39 534.228 132.75 534.86 131.95 535.34C131.15 535.804 130.262 536.036 129.286 536.036H124.726V542.348H122.134ZM132.118 542.348L127.846 534.764L130.51 534.164L135.262 542.372L132.118 542.348ZM124.726 533.54H129.526C129.99 533.54 130.406 533.428 130.774 533.204C131.142 532.964 131.43 532.644 131.638 532.244C131.846 531.828 131.95 531.372 131.95 530.876C131.95 530.316 131.814 529.828 131.542 529.412C131.286 528.98 130.918 528.644 130.438 528.404C129.974 528.164 129.446 528.044 128.854 528.044H124.726V533.54ZM142.378 542.348V533.972L142.546 535.148L135.754 525.548H138.874L144.058 532.988L143.458 532.916L148.138 525.548H151.114L144.61 535.412L144.97 533.78V542.348H142.378Z" fill="#828282"/>
<rect y="557.348" width="110.348" height="110.348" fill="#1F1D2C"/>
<rect x="110.348" y="557.348" width="110.348" height="110.348" fill="#262837"/>
<rect x="220.695" y="557.348" width="110.348" height="110.348" fill="#373A4E"/>
<rect x="331.043" y="557.348" width="110.348" height="110.348" fill="#585C77"/>
<rect x="441.391" y="557.348" width="110.348" height="110.348" fill="#7C81A0"/>
<rect x="551.738" y="557.348" width="110.348" height="110.348" fill="#A3A8C8"/>
<rect x="662.086" y="557.348" width="110.348" height="110.348" fill="#CDD2F1"/>
<rect x="772.434" y="557.348" width="110.348" height="110.348" fill="#F5F6F9"/>
<path d="M0.6 732.695L7.104 715.895H9.744L16.2 732.695H13.44L9.6 722.567C9.552 722.455 9.456 722.183 9.312 721.751C9.184 721.319 9.032 720.839 8.856 720.311C8.68 719.783 8.52 719.303 8.376 718.871C8.232 718.423 8.136 718.135 8.088 718.007L8.64 717.983C8.544 718.255 8.424 718.599 8.28 719.015C8.152 719.431 8.008 719.871 7.848 720.335C7.704 720.799 7.56 721.239 7.416 721.655C7.272 722.055 7.152 722.391 7.056 722.663L3.24 732.695H0.6ZM3.48 728.519L4.44 726.023H12.072L13.176 728.519H3.48ZM19.3967 732.695V715.895H21.9887V730.199H29.8607V732.695H19.3967ZM34.0039 732.695V715.895H44.5879V718.391H36.5959V730.199H44.5879V732.695H34.0039ZM35.1799 725.327V722.831H43.2679V725.327H35.1799ZM48.9861 732.695V715.895H56.1381C57.0981 715.895 57.9781 716.135 58.7781 716.615C59.5941 717.079 60.2421 717.719 60.7221 718.535C61.2021 719.335 61.4421 720.239 61.4421 721.247C61.4421 722.159 61.2021 723.007 60.7221 723.791C60.2421 724.575 59.6021 725.207 58.8021 725.687C58.0021 726.151 57.1141 726.383 56.1381 726.383H51.5781V732.695H48.9861ZM58.9701 732.695L54.6981 725.111L57.3621 724.511L62.1141 732.719L58.9701 732.695ZM51.5781 723.887H56.3781C56.8421 723.887 57.2581 723.775 57.6261 723.551C57.9941 723.311 58.2821 722.991 58.4901 722.591C58.6981 722.175 58.8021 721.719 58.8021 721.223C58.8021 720.663 58.6661 720.175 58.3941 719.759C58.1381 719.327 57.7701 718.991 57.2901 718.751C56.8261 718.511 56.2981 718.391 55.7061 718.391H51.5781V723.887ZM68.6368 732.695V718.391H63.9328V715.895H76.0768V718.391H71.2288V732.695H68.6368ZM84.6969 732.935C83.7849 732.935 82.9369 732.815 82.1529 732.575C81.3849 732.335 80.6809 731.975 80.0409 731.495C79.4169 730.999 78.8569 730.391 78.3609 729.671L80.1369 727.631C80.9209 728.751 81.6729 729.527 82.3929 729.959C83.1129 730.391 83.9689 730.607 84.9609 730.607C85.5689 730.607 86.1209 730.511 86.6169 730.319C87.1129 730.127 87.5049 729.863 87.7929 729.527C88.0809 729.191 88.2249 728.807 88.2249 728.375C88.2249 728.087 88.1769 727.815 88.0809 727.559C87.9849 727.303 87.8329 727.071 87.6249 726.863C87.4329 726.655 87.1769 726.463 86.8569 726.287C86.5529 726.111 86.1929 725.959 85.7769 725.831C85.3609 725.687 84.8809 725.567 84.3369 725.471C83.4729 725.295 82.7209 725.063 82.0809 724.775C81.4409 724.487 80.9049 724.127 80.4729 723.695C80.0409 723.263 79.7209 722.775 79.5129 722.231C79.3049 721.671 79.2009 721.047 79.2009 720.359C79.2009 719.687 79.3449 719.063 79.6329 718.487C79.9369 717.911 80.3449 717.415 80.8569 716.999C81.3849 716.567 82.0009 716.239 82.7049 716.015C83.4089 715.775 84.1689 715.655 84.9849 715.655C85.8489 715.655 86.6409 715.767 87.3609 715.991C88.0809 716.215 88.7209 716.551 89.2809 716.999C89.8409 717.431 90.3049 717.967 90.6729 718.607L88.8489 720.407C88.5289 719.879 88.1689 719.439 87.7689 719.087C87.3689 718.719 86.9289 718.447 86.4489 718.271C85.9689 718.079 85.4569 717.983 84.9129 717.983C84.2889 717.983 83.7449 718.079 83.2809 718.271C82.8169 718.463 82.4489 718.735 82.1769 719.087C81.9209 719.423 81.7929 719.823 81.7929 720.287C81.7929 720.623 81.8569 720.935 81.9849 721.223C82.1129 721.495 82.3049 721.743 82.5609 721.967C82.8329 722.175 83.1929 722.367 83.6409 722.543C84.0889 722.703 84.6249 722.847 85.2489 722.975C86.1289 723.167 86.9129 723.415 87.6009 723.719C88.2889 724.007 88.8729 724.351 89.3529 724.751C89.8329 725.151 90.1929 725.599 90.4329 726.095C90.6889 726.591 90.8169 727.127 90.8169 727.703C90.8169 728.775 90.5689 729.703 90.0729 730.487C89.5769 731.271 88.8729 731.879 87.9609 732.311C87.0489 732.727 85.9609 732.935 84.6969 732.935Z" fill="#828282"/>
<rect y="747.695" width="110.348" height="110.348" fill="#F08B6F"/>
<rect x="110.348" y="747.695" width="110.348" height="110.348" fill="#FFC4B3"/>
<rect x="220.695" y="747.695" width="110.348" height="110.348" fill="#FFF4F1"/>
<path d="M0.6 923.043L7.104 906.243H9.744L16.2 923.043H13.44L9.6 912.915C9.552 912.803 9.456 912.531 9.312 912.099C9.184 911.667 9.032 911.187 8.856 910.659C8.68 910.131 8.52 909.651 8.376 909.219C8.232 908.771 8.136 908.483 8.088 908.355L8.64 908.331C8.544 908.603 8.424 908.947 8.28 909.363C8.152 909.779 8.008 910.219 7.848 910.683C7.704 911.147 7.56 911.587 7.416 912.003C7.272 912.403 7.152 912.739 7.056 913.011L3.24 923.043H0.6ZM3.48 918.867L4.44 916.371H12.072L13.176 918.867H3.48ZM19.3967 923.043V906.243H21.9887V920.547H29.8607V923.043H19.3967ZM34.0039 923.043V906.243H44.5879V908.739H36.5959V920.547H44.5879V923.043H34.0039ZM35.1799 915.675V913.179H43.2679V915.675H35.1799ZM48.9861 923.043V906.243H56.1381C57.0981 906.243 57.9781 906.483 58.7781 906.963C59.5941 907.427 60.2421 908.067 60.7221 908.883C61.2021 909.683 61.4421 910.587 61.4421 911.595C61.4421 912.507 61.2021 913.355 60.7221 914.139C60.2421 914.923 59.6021 915.555 58.8021 916.035C58.0021 916.499 57.1141 916.731 56.1381 916.731H51.5781V923.043H48.9861ZM58.9701 923.043L54.6981 915.459L57.3621 914.859L62.1141 923.067L58.9701 923.043ZM51.5781 914.235H56.3781C56.8421 914.235 57.2581 914.123 57.6261 913.899C57.9941 913.659 58.2821 913.339 58.4901 912.939C58.6981 912.523 58.8021 912.067 58.8021 911.571C58.8021 911.011 58.6661 910.523 58.3941 910.107C58.1381 909.675 57.7701 909.339 57.2901 909.099C56.8261 908.859 56.2981 908.739 55.7061 908.739H51.5781V914.235ZM68.6368 923.043V908.739H63.9328V906.243H76.0768V908.739H71.2288V923.043H68.6368ZM84.6969 923.283C83.7849 923.283 82.9369 923.163 82.1529 922.923C81.3849 922.683 80.6809 922.323 80.0409 921.843C79.4169 921.347 78.8569 920.739 78.3609 920.019L80.1369 917.979C80.9209 919.099 81.6729 919.875 82.3929 920.307C83.1129 920.739 83.9689 920.955 84.9609 920.955C85.5689 920.955 86.1209 920.859 86.6169 920.667C87.1129 920.475 87.5049 920.211 87.7929 919.875C88.0809 919.539 88.2249 919.155 88.2249 918.723C88.2249 918.435 88.1769 918.163 88.0809 917.907C87.9849 917.651 87.8329 917.419 87.6249 917.211C87.4329 917.003 87.1769 916.811 86.8569 916.635C86.5529 916.459 86.1929 916.307 85.7769 916.179C85.3609 916.035 84.8809 915.915 84.3369 915.819C83.4729 915.643 82.7209 915.411 82.0809 915.123C81.4409 914.835 80.9049 914.475 80.4729 914.043C80.0409 913.611 79.7209 913.123 79.5129 912.579C79.3049 912.019 79.2009 911.395 79.2009 910.707C79.2009 910.035 79.3449 909.411 79.6329 908.835C79.9369 908.259 80.3449 907.763 80.8569 907.347C81.3849 906.915 82.0009 906.587 82.7049 906.363C83.4089 906.123 84.1689 906.003 84.9849 906.003C85.8489 906.003 86.6409 906.115 87.3609 906.339C88.0809 906.563 88.7209 906.899 89.2809 907.347C89.8409 907.779 90.3049 908.315 90.6729 908.955L88.8489 910.755C88.5289 910.227 88.1689 909.787 87.7689 909.435C87.3689 909.067 86.9289 908.795 86.4489 908.619C85.9689 908.427 85.4569 908.331 84.9129 908.331C84.2889 908.331 83.7449 908.427 83.2809 908.619C82.8169 908.811 82.4489 909.083 82.1769 909.435C81.9209 909.771 81.7929 910.171 81.7929 910.635C81.7929 910.971 81.8569 911.283 81.9849 911.571C82.1129 911.843 82.3049 912.091 82.5609 912.315C82.8329 912.523 83.1929 912.715 83.6409 912.891C84.0889 913.051 84.6249 913.195 85.2489 913.323C86.1289 913.515 86.9129 913.763 87.6009 914.067C88.2889 914.355 88.8729 914.699 89.3529 915.099C89.8329 915.499 90.1929 915.947 90.4329 916.443C90.6889 916.939 90.8169 917.475 90.8169 918.051C90.8169 919.123 90.5689 920.051 90.0729 920.835C89.5769 921.619 88.8729 922.227 87.9609 922.659C87.0489 923.075 85.9609 923.283 84.6969 923.283Z" fill="#828282"/>
<rect y="938.043" width="110.348" height="110.348" fill="#1BB55C"/>
<rect x="110.348" y="938.043" width="110.348" height="110.348" fill="#B6FFD5"/>
<rect x="220.695" y="938.043" width="110.348" height="110.348" fill="#ECFFF4"/>
<path d="M6.544 33V18.696H1.84V16.2H13.984V18.696H9.136V33H6.544ZM22.1665 33V24.624L22.3345 25.8L15.5425 16.2H18.6625L23.8465 23.64L23.2465 23.568L27.9265 16.2H30.9025L24.3985 26.064L24.7585 24.432V33H22.1665ZM33.7382 33V16.2H40.5782C41.4903 16.2 42.3143 16.432 43.0503 16.896C43.8023 17.344 44.4023 17.96 44.8503 18.744C45.2983 19.528 45.5223 20.4 45.5223 21.36C45.5223 22.32 45.2983 23.192 44.8503 23.976C44.4023 24.76 43.8023 25.392 43.0503 25.872C42.3143 26.336 41.4903 26.568 40.5782 26.568H36.3302V33H33.7382ZM36.3302 24.072H40.5302C40.9622 24.072 41.3542 23.952 41.7062 23.712C42.0582 23.456 42.3383 23.128 42.5463 22.728C42.7703 22.312 42.8823 21.856 42.8823 21.36C42.8823 20.864 42.7703 20.416 42.5463 20.016C42.3383 19.616 42.0582 19.296 41.7062 19.056C41.3542 18.816 40.9622 18.696 40.5302 18.696H36.3302V24.072ZM49.1892 33V16.2H59.7732V18.696H51.7812V30.504H59.7732V33H49.1892ZM50.3652 25.632V23.136H58.4532V25.632H50.3652ZM64.1714 33V16.2H66.7634V33H64.1714ZM65.3234 25.848V23.352H73.9874V25.848H65.3234ZM65.3234 18.696V16.2H75.0674V18.696H65.3234ZM75.6672 33L82.1712 16.2H84.8112L91.2672 33H88.5072L84.6672 22.872C84.6192 22.76 84.5232 22.488 84.3792 22.056C84.2512 21.624 84.0992 21.144 83.9232 20.616C83.7472 20.088 83.5872 19.608 83.4432 19.176C83.2992 18.728 83.2032 18.44 83.1552 18.312L83.7072 18.288C83.6112 18.56 83.4912 18.904 83.3472 19.32C83.2192 19.736 83.0752 20.176 82.9152 20.64C82.7712 21.104 82.6272 21.544 82.4832 21.96C82.3392 22.36 82.2192 22.696 82.1232 22.968L78.3072 33H75.6672ZM78.5472 28.824L79.5072 26.328H87.1392L88.2432 28.824H78.5472ZM100.811 33.24C99.6431 33.24 98.5711 33.032 97.5951 32.616C96.6191 32.2 95.7711 31.608 95.0511 30.84C94.3311 30.056 93.7711 29.136 93.3711 28.08C92.9871 27.024 92.7951 25.864 92.7951 24.6C92.7951 23.4 93.0031 22.288 93.4191 21.264C93.8511 20.224 94.4431 19.312 95.1951 18.528C95.9471 17.744 96.8191 17.136 97.8111 16.704C98.8031 16.272 99.8751 16.056 101.027 16.056C101.843 16.056 102.635 16.184 103.403 16.44C104.187 16.68 104.891 17.024 105.515 17.472C106.155 17.904 106.675 18.4 107.075 18.96L105.347 20.76C104.883 20.296 104.411 19.912 103.931 19.608C103.467 19.288 102.987 19.048 102.491 18.888C102.011 18.728 101.523 18.648 101.027 18.648C100.243 18.648 99.5071 18.8 98.8191 19.104C98.1471 19.392 97.5551 19.8 97.0431 20.328C96.5471 20.856 96.1551 21.488 95.8671 22.224C95.5791 22.944 95.4351 23.736 95.4351 24.6C95.4351 25.512 95.5711 26.344 95.8431 27.096C96.1311 27.832 96.5311 28.464 97.0431 28.992C97.5551 29.52 98.1631 29.928 98.8671 30.216C99.5871 30.488 100.379 30.624 101.243 30.624C101.771 30.624 102.291 30.552 102.803 30.408C103.315 30.264 103.795 30.056 104.243 29.784C104.691 29.512 105.099 29.192 105.467 28.824L106.763 30.936C106.395 31.368 105.891 31.76 105.251 32.112C104.627 32.464 103.923 32.744 103.139 32.952C102.371 33.144 101.595 33.24 100.811 33.24ZM110.524 33V16.2H121.108V18.696H113.116V30.504H121.108V33H110.524ZM111.7 25.632V23.136H119.788V25.632H111.7Z" fill="#BDBDBD"/>
<path d="M5.368 102V68.4H12.568V95.52H27.784V102H5.368ZM45.1079 102.48C42.3559 102.48 39.9559 101.92 37.9079 100.8C35.8599 99.68 34.2599 98.144 33.1079 96.192C31.9559 94.24 31.3799 92 31.3799 89.472C31.3799 87.52 31.6999 85.728 32.3399 84.096C32.9799 82.464 33.8759 81.056 35.0279 79.872C36.1799 78.656 37.5399 77.728 39.1079 77.088C40.7079 76.416 42.4359 76.08 44.2919 76.08C46.0199 76.08 47.6199 76.4 49.0919 77.04C50.5639 77.648 51.8279 78.528 52.8839 79.68C53.9719 80.8 54.8039 82.128 55.3799 83.664C55.9559 85.2 56.2119 86.88 56.1479 88.704L56.0999 90.816H35.6999L34.5959 86.64H50.4839L49.7159 87.504V86.448C49.6519 85.584 49.3639 84.8 48.8519 84.096C48.3719 83.392 47.7479 82.848 46.9799 82.464C46.2119 82.08 45.3479 81.888 44.3879 81.888C42.9799 81.888 41.7799 82.16 40.7879 82.704C39.8279 83.248 39.0919 84.048 38.5799 85.104C38.0679 86.16 37.8119 87.44 37.8119 88.944C37.8119 90.48 38.1319 91.808 38.7719 92.928C39.4439 94.048 40.3719 94.928 41.5559 95.568C42.7719 96.176 44.1959 96.48 45.8279 96.48C46.9479 96.48 47.9719 96.304 48.8999 95.952C49.8279 95.6 50.8199 94.992 51.8759 94.128L55.1399 98.688C54.2119 99.52 53.1879 100.224 52.0679 100.8C50.9479 101.344 49.7959 101.76 48.6119 102.048C47.4279 102.336 46.2599 102.48 45.1079 102.48ZM77.5563 102L71.2682 93.024L69.3482 90.336L59.0762 76.608H67.3322L73.4763 85.296L75.5883 88.176L85.7163 102H77.5563ZM58.9802 102L69.1082 88.128L72.8522 92.592L66.9962 102H58.9802ZM75.3002 90.576L71.6522 86.112L77.0762 76.608H85.0923L75.3002 90.576ZM101.005 102.48C98.2534 102.48 95.8534 101.92 93.8054 100.8C91.7574 99.68 90.1574 98.144 89.0054 96.192C87.8534 94.24 87.2774 92 87.2774 89.472C87.2774 87.52 87.5974 85.728 88.2374 84.096C88.8774 82.464 89.7734 81.056 90.9254 79.872C92.0774 78.656 93.4374 77.728 95.0054 77.088C96.6054 76.416 98.3334 76.08 100.189 76.08C101.917 76.08 103.517 76.4 104.989 77.04C106.461 77.648 107.725 78.528 108.781 79.68C109.869 80.8 110.701 82.128 111.277 83.664C111.853 85.2 112.109 86.88 112.045 88.704L111.997 90.816H91.5974L90.4934 86.64H106.381L105.613 87.504V86.448C105.549 85.584 105.261 84.8 104.749 84.096C104.269 83.392 103.645 82.848 102.877 82.464C102.109 82.08 101.245 81.888 100.285 81.888C98.8774 81.888 97.6774 82.16 96.6854 82.704C95.7254 83.248 94.9894 84.048 94.4774 85.104C93.9654 86.16 93.7094 87.44 93.7094 88.944C93.7094 90.48 94.0294 91.808 94.6694 92.928C95.3414 94.048 96.2694 94.928 97.4534 95.568C98.6694 96.176 100.093 96.48 101.725 96.48C102.845 96.48 103.869 96.304 104.797 95.952C105.725 95.6 106.717 94.992 107.773 94.128L111.037 98.688C110.109 99.52 109.085 100.224 107.965 100.8C106.845 101.344 105.693 101.76 104.509 102.048C103.325 102.336 102.157 102.48 101.005 102.48ZM117.562 102V76.608H124.09L124.282 81.792L122.938 82.368C123.29 81.216 123.914 80.176 124.81 79.248C125.738 78.288 126.842 77.52 128.122 76.944C129.402 76.368 130.746 76.08 132.154 76.08C134.074 76.08 135.674 76.464 136.954 77.232C138.266 78 139.242 79.168 139.882 80.736C140.554 82.272 140.89 84.176 140.89 86.448V102H134.074V86.976C134.074 85.824 133.914 84.864 133.594 84.096C133.274 83.328 132.778 82.768 132.106 82.416C131.466 82.032 130.666 81.872 129.706 81.936C128.938 81.936 128.218 82.064 127.546 82.32C126.906 82.544 126.346 82.88 125.866 83.328C125.418 83.776 125.05 84.288 124.762 84.864C124.506 85.44 124.378 86.064 124.378 86.736V102H121.018C120.282 102 119.626 102 119.05 102C118.474 102 117.978 102 117.562 102ZM157.838 102.48C155.63 102.48 153.646 101.92 151.886 100.8C150.126 99.648 148.734 98.096 147.71 96.144C146.718 94.16 146.222 91.872 146.222 89.28C146.222 86.752 146.718 84.496 147.71 82.512C148.734 80.528 150.11 78.96 151.838 77.808C153.598 76.656 155.598 76.08 157.838 76.08C159.022 76.08 160.158 76.272 161.246 76.656C162.366 77.008 163.358 77.504 164.222 78.144C165.118 78.784 165.838 79.504 166.382 80.304C166.926 81.072 167.23 81.888 167.294 82.752L165.566 83.04V66.48H172.382V102H165.95L165.662 96.144L167.006 96.288C166.942 97.088 166.654 97.856 166.142 98.592C165.63 99.328 164.942 100 164.078 100.608C163.246 101.184 162.286 101.648 161.198 102C160.142 102.32 159.022 102.48 157.838 102.48ZM159.374 96.816C160.654 96.816 161.774 96.496 162.734 95.856C163.694 95.216 164.446 94.336 164.99 93.216C165.534 92.096 165.806 90.784 165.806 89.28C165.806 87.808 165.534 86.512 164.99 85.392C164.446 84.24 163.694 83.36 162.734 82.752C161.774 82.112 160.654 81.792 159.374 81.792C158.094 81.792 156.974 82.112 156.014 82.752C155.086 83.36 154.35 84.24 153.806 85.392C153.294 86.512 153.038 87.808 153.038 89.28C153.038 90.784 153.294 92.096 153.806 93.216C154.35 94.336 155.086 95.216 156.014 95.856C156.974 96.496 158.094 96.816 159.374 96.816Z" fill="#333333"/>
</svg>
