<svg width="1153" height="1049" viewBox="0 0 1153 1049" fill="none" xmlns="http://www.w3.org/2000/svg">
<path d="M9.552 277.24C8.32 277.24 7.184 277.032 6.144 276.616C5.12 276.184 4.224 275.584 3.456 274.816C2.704 274.032 2.12 273.112 1.704 272.056C1.288 270.984 1.08 269.816 1.08 268.552C1.08 267.32 1.296 266.184 1.728 265.144C2.16 264.088 2.768 263.176 3.552 262.408C4.336 261.624 5.256 261.016 6.312 260.584C7.368 260.152 8.512 259.936 9.744 259.936C10.544 259.936 11.328 260.048 12.096 260.272C12.88 260.48 13.592 260.792 14.232 261.208C14.888 261.624 15.448 262.12 15.912 262.696L13.656 265.192C13.272 264.808 12.872 264.48 12.456 264.208C12.056 263.92 11.624 263.704 11.16 263.56C10.712 263.4 10.232 263.32 9.72 263.32C9.032 263.32 8.384 263.448 7.776 263.704C7.184 263.96 6.664 264.32 6.216 264.784C5.768 265.232 5.408 265.784 5.136 266.44C4.88 267.08 4.752 267.792 4.752 268.576C4.752 269.376 4.88 270.104 5.136 270.76C5.392 271.4 5.752 271.952 6.216 272.416C6.68 272.864 7.232 273.216 7.872 273.472C8.528 273.712 9.248 273.832 10.032 273.832C10.544 273.832 11.04 273.76 11.52 273.616C12 273.472 12.44 273.272 12.84 273.016C13.256 272.76 13.624 272.464 13.944 272.128L15.696 274.936C15.312 275.368 14.792 275.76 14.136 276.112C13.496 276.464 12.776 276.744 11.976 276.952C11.176 277.144 10.368 277.24 9.552 277.24ZM24.1549 277.24C22.8589 277.24 21.6989 276.96 20.6749 276.4C19.6669 275.824 18.8669 275.04 18.2749 274.048C17.6989 273.056 17.4109 271.92 17.4109 270.64C17.4109 269.36 17.6989 268.232 18.2749 267.256C18.8669 266.264 19.6669 265.48 20.6749 264.904C21.6989 264.328 22.8589 264.04 24.1549 264.04C25.4349 264.04 26.5789 264.328 27.5869 264.904C28.6109 265.48 29.4109 266.264 29.9869 267.256C30.5629 268.232 30.8509 269.36 30.8509 270.64C30.8509 271.92 30.5629 273.056 29.9869 274.048C29.4109 275.04 28.6109 275.824 27.5869 276.4C26.5789 276.96 25.4349 277.24 24.1549 277.24ZM24.1549 274.264C24.7789 274.264 25.3389 274.112 25.8349 273.808C26.3309 273.488 26.7149 273.056 26.9869 272.512C27.2749 271.952 27.4189 271.328 27.4189 270.64C27.4189 269.936 27.2749 269.312 26.9869 268.768C26.7149 268.208 26.3309 267.776 25.8349 267.472C25.3389 267.152 24.7789 266.992 24.1549 266.992C23.5149 266.992 22.9469 267.152 22.4509 267.472C21.9549 267.792 21.5629 268.224 21.2749 268.768C20.9869 269.312 20.8509 269.936 20.8669 270.64C20.8509 271.328 20.9869 271.952 21.2749 272.512C21.5629 273.056 21.9549 273.488 22.4509 273.808C22.9469 274.112 23.5149 274.264 24.1549 274.264ZM33.4389 277V259.24H36.8469V277H33.4389ZM45.9752 277.24C44.6792 277.24 43.5192 276.96 42.4952 276.4C41.4872 275.824 40.6872 275.04 40.0952 274.048C39.5192 273.056 39.2312 271.92 39.2312 270.64C39.2312 269.36 39.5192 268.232 40.0952 267.256C40.6872 266.264 41.4872 265.48 42.4952 264.904C43.5192 264.328 44.6792 264.04 45.9752 264.04C47.2552 264.04 48.3992 264.328 49.4072 264.904C50.4312 265.48 51.2312 266.264 51.8072 267.256C52.3832 268.232 52.6712 269.36 52.6712 270.64C52.6712 271.92 52.3832 273.056 51.8072 274.048C51.2312 275.04 50.4312 275.824 49.4072 276.4C48.3992 276.96 47.2552 277.24 45.9752 277.24ZM45.9752 274.264C46.5992 274.264 47.1592 274.112 47.6552 273.808C48.1512 273.488 48.5352 273.056 48.8072 272.512C49.0952 271.952 49.2392 271.328 49.2392 270.64C49.2392 269.936 49.0952 269.312 48.8072 268.768C48.5352 268.208 48.1512 267.776 47.6552 267.472C47.1592 267.152 46.5992 266.992 45.9752 266.992C45.3352 266.992 44.7672 267.152 44.2712 267.472C43.7752 267.792 43.3832 268.224 43.0952 268.768C42.8072 269.312 42.6712 269.936 42.6872 270.64C42.6712 271.328 42.8072 271.952 43.0952 272.512C43.3832 273.056 43.7752 273.488 44.2712 273.808C44.7672 274.112 45.3352 274.264 45.9752 274.264ZM55.2353 277V264.304H58.5233L58.6433 268.384L58.0673 267.544C58.2593 266.888 58.5713 266.296 59.0033 265.768C59.4353 265.224 59.9393 264.8 60.5153 264.496C61.1073 264.192 61.7233 264.04 62.3633 264.04C62.6353 264.04 62.8993 264.064 63.1553 264.112C63.4113 264.16 63.6273 264.216 63.8033 264.28L62.8913 268.024C62.6993 267.928 62.4673 267.848 62.1953 267.784C61.9233 267.704 61.6433 267.664 61.3553 267.664C60.9713 267.664 60.6113 267.736 60.2753 267.88C59.9553 268.008 59.6753 268.2 59.4353 268.456C59.1953 268.696 59.0033 268.984 58.8593 269.32C58.7313 269.656 58.6673 270.024 58.6673 270.424V277H55.2353ZM79.0461 277.24C78.0061 277.24 77.0541 277.112 76.1901 276.856C75.3421 276.6 74.5821 276.224 73.9101 275.728C73.2541 275.232 72.6621 274.632 72.1341 273.928L74.3901 271.36C75.1741 272.448 75.9501 273.192 76.7181 273.592C77.5021 273.976 78.3501 274.168 79.2621 274.168C79.7581 274.168 80.1981 274.104 80.5821 273.976C80.9821 273.832 81.2941 273.632 81.5181 273.376C81.7421 273.12 81.8541 272.816 81.8541 272.464C81.8541 272.208 81.7981 271.976 81.6861 271.768C81.5741 271.544 81.4141 271.352 81.2061 271.192C80.9981 271.016 80.7501 270.864 80.4621 270.736C80.1741 270.592 79.8541 270.472 79.5021 270.376C79.1501 270.264 78.7661 270.176 78.3501 270.112C77.4541 269.904 76.6701 269.656 75.9981 269.368C75.3261 269.064 74.7661 268.696 74.3181 268.264C73.8701 267.816 73.5341 267.312 73.3101 266.752C73.1021 266.192 72.9981 265.56 72.9981 264.856C72.9981 264.136 73.1581 263.472 73.4781 262.864C73.7981 262.24 74.2381 261.704 74.7981 261.256C75.3741 260.808 76.0301 260.464 76.7661 260.224C77.5181 259.984 78.3101 259.864 79.1421 259.864C80.1661 259.864 81.0621 259.984 81.8301 260.224C82.5981 260.448 83.2621 260.776 83.8221 261.208C84.3981 261.64 84.8781 262.168 85.2621 262.792L82.9821 265C82.6461 264.552 82.2781 264.176 81.8781 263.872C81.4941 263.568 81.0701 263.344 80.6061 263.2C80.1581 263.04 79.6941 262.96 79.2141 262.96C78.6861 262.96 78.2301 263.032 77.8461 263.176C77.4621 263.304 77.1581 263.496 76.9341 263.752C76.7261 264.008 76.6221 264.32 76.6221 264.688C76.6221 264.976 76.6941 265.232 76.8381 265.456C76.9821 265.68 77.1901 265.88 77.4621 266.056C77.7341 266.216 78.0621 266.36 78.4461 266.488C78.8301 266.616 79.2541 266.728 79.7181 266.824C80.5981 267 81.3901 267.232 82.0941 267.52C82.7981 267.808 83.3981 268.16 83.8941 268.576C84.4061 268.976 84.7981 269.456 85.0701 270.016C85.3421 270.56 85.4781 271.176 85.4781 271.864C85.4781 273 85.2061 273.968 84.6621 274.768C84.1181 275.568 83.3661 276.184 82.4061 276.616C81.4461 277.032 80.3261 277.24 79.0461 277.24ZM89.4827 277V261.088H92.8907V277H89.4827ZM87.1067 267.352V264.304H95.4827V267.352H87.1067ZM99.48 282.52L102.264 275.992L102.312 277.96L96.12 264.304H99.984L103.08 271.624C103.208 271.896 103.328 272.216 103.44 272.584C103.568 272.936 103.672 273.28 103.752 273.616L103.176 273.856C103.272 273.584 103.384 273.272 103.512 272.92C103.64 272.568 103.768 272.192 103.896 271.792L106.56 264.304H110.448L105.12 277L102.936 282.52H99.48ZM112.306 277V259.24H115.714V277H112.306ZM124.962 277.24C123.586 277.24 122.386 276.96 121.362 276.4C120.338 275.84 119.538 275.072 118.962 274.096C118.386 273.12 118.098 272 118.098 270.736C118.098 269.76 118.258 268.864 118.578 268.048C118.898 267.232 119.346 266.528 119.922 265.936C120.498 265.328 121.178 264.864 121.962 264.544C122.762 264.208 123.626 264.04 124.554 264.04C125.418 264.04 126.218 264.2 126.954 264.52C127.69 264.824 128.322 265.264 128.85 265.84C129.394 266.4 129.81 267.064 130.098 267.832C130.386 268.6 130.514 269.44 130.482 270.352L130.458 271.408H120.258L119.706 269.32H127.65L127.266 269.752V269.224C127.234 268.792 127.09 268.4 126.834 268.048C126.594 267.696 126.282 267.424 125.898 267.232C125.514 267.04 125.082 266.944 124.602 266.944C123.898 266.944 123.298 267.08 122.802 267.352C122.322 267.624 121.954 268.024 121.698 268.552C121.442 269.08 121.314 269.72 121.314 270.472C121.314 271.24 121.474 271.904 121.794 272.464C122.13 273.024 122.594 273.464 123.186 273.784C123.794 274.088 124.506 274.24 125.322 274.24C125.882 274.24 126.394 274.152 126.858 273.976C127.322 273.8 127.818 273.496 128.346 273.064L129.978 275.344C129.514 275.76 129.002 276.112 128.442 276.4C127.882 276.672 127.306 276.88 126.714 277.024C126.122 277.168 125.538 277.24 124.962 277.24Z" fill="#4F4F4F"/>
<path d="M2.352 352V335.2H9.192C10.104 335.2 10.928 335.432 11.664 335.896C12.416 336.344 13.016 336.96 13.464 337.744C13.912 338.528 14.136 339.4 14.136 340.36C14.136 341.32 13.912 342.192 13.464 342.976C13.016 343.76 12.416 344.392 11.664 344.872C10.928 345.336 10.104 345.568 9.192 345.568H4.944V352H2.352ZM4.944 343.072H9.144C9.576 343.072 9.968 342.952 10.32 342.712C10.672 342.456 10.952 342.128 11.16 341.728C11.384 341.312 11.496 340.856 11.496 340.36C11.496 339.864 11.384 339.416 11.16 339.016C10.952 338.616 10.672 338.296 10.32 338.056C9.968 337.816 9.576 337.696 9.144 337.696H4.944V343.072ZM17.8029 352V335.2H24.9549C25.9149 335.2 26.7949 335.44 27.5949 335.92C28.4109 336.384 29.0589 337.024 29.5389 337.84C30.0189 338.64 30.2589 339.544 30.2589 340.552C30.2589 341.464 30.0189 342.312 29.5389 343.096C29.0589 343.88 28.4189 344.512 27.6189 344.992C26.8189 345.456 25.9309 345.688 24.9549 345.688H20.3949V352H17.8029ZM27.7869 352L23.5149 344.416L26.1789 343.816L30.9309 352.024L27.7869 352ZM20.3949 343.192H25.1949C25.6589 343.192 26.0749 343.08 26.4429 342.856C26.8109 342.616 27.0989 342.296 27.3069 341.896C27.5149 341.48 27.6189 341.024 27.6189 340.528C27.6189 339.968 27.4829 339.48 27.2109 339.064C26.9549 338.632 26.5869 338.296 26.1069 338.056C25.6429 337.816 25.1149 337.696 24.5229 337.696H20.3949V343.192ZM34.1064 352V349.6H36.8184V337.6H34.1064V335.2H42.1224V337.6H39.4104V349.6H42.1224V352H34.1064ZM46.4314 352V335.2H48.9754L55.0954 345.16L53.8714 345.136L60.0634 335.2H62.4634V352H59.8714V345.112C59.8714 343.672 59.9034 342.376 59.9674 341.224C60.0474 340.072 60.1754 338.928 60.3514 337.792L60.6874 338.68L55.1914 347.176H53.6074L48.2794 338.776L48.5434 337.792C48.7194 338.864 48.8394 339.968 48.9034 341.104C48.9834 342.224 49.0234 343.56 49.0234 345.112V352H46.4314ZM65.6616 352L72.1656 335.2H74.8056L81.2616 352H78.5016L74.6616 341.872C74.6136 341.76 74.5176 341.488 74.3736 341.056C74.2456 340.624 74.0936 340.144 73.9176 339.616C73.7416 339.088 73.5816 338.608 73.4376 338.176C73.2936 337.728 73.1976 337.44 73.1496 337.312L73.7016 337.288C73.6056 337.56 73.4856 337.904 73.3416 338.32C73.2136 338.736 73.0696 339.176 72.9096 339.64C72.7656 340.104 72.6216 340.544 72.4776 340.96C72.3336 341.36 72.2136 341.696 72.1176 341.968L68.3016 352H65.6616ZM68.5416 347.824L69.5016 345.328H77.1336L78.2376 347.824H68.5416ZM84.4582 352V335.2H91.6102C92.5702 335.2 93.4502 335.44 94.2502 335.92C95.0662 336.384 95.7142 337.024 96.1942 337.84C96.6742 338.64 96.9142 339.544 96.9142 340.552C96.9142 341.464 96.6742 342.312 96.1942 343.096C95.7142 343.88 95.0742 344.512 94.2742 344.992C93.4742 345.456 92.5862 345.688 91.6102 345.688H87.0502V352H84.4582ZM94.4422 352L90.1702 344.416L92.8342 343.816L97.5862 352.024L94.4422 352ZM87.0502 343.192H91.8502C92.3142 343.192 92.7302 343.08 93.0982 342.856C93.4662 342.616 93.7542 342.296 93.9622 341.896C94.1702 341.48 94.2742 341.024 94.2742 340.528C94.2742 339.968 94.1382 339.48 93.8662 339.064C93.6102 338.632 93.2422 338.296 92.7622 338.056C92.2982 337.816 91.7702 337.696 91.1782 337.696H87.0502V343.192ZM104.702 352V343.624L104.87 344.8L98.0784 335.2H101.198L106.382 342.64L105.782 342.568L110.462 335.2H113.438L106.934 345.064L107.294 343.432V352H104.702Z" fill="#828282"/>
<rect y="367" width="110.348" height="110.348" fill="#6B5ECD"/>
<rect x="110.348" y="367" width="110.348" height="110.348" fill="#9284FF"/>
<rect x="220.695" y="367" width="110.348" height="110.348" fill="#C3BBFF"/>
<rect x="331.043" y="367" width="110.348" height="110.348" fill="#F4F2FF"/>
<path d="M7.536 542.588C6.624 542.588 5.776 542.468 4.992 542.228C4.224 541.988 3.52 541.628 2.88 541.148C2.256 540.652 1.696 540.044 1.2 539.324L2.976 537.284C3.76 538.404 4.512 539.18 5.232 539.612C5.952 540.044 6.808 540.26 7.8 540.26C8.408 540.26 8.96 540.164 9.456 539.972C9.952 539.78 10.344 539.516 10.632 539.18C10.92 538.844 11.064 538.46 11.064 538.028C11.064 537.74 11.016 537.468 10.92 537.212C10.824 536.956 10.672 536.724 10.464 536.516C10.272 536.308 10.016 536.116 9.696 535.94C9.392 535.764 9.032 535.612 8.616 535.484C8.2 535.34 7.72 535.22 7.176 535.124C6.312 534.948 5.56 534.716 4.92 534.428C4.28 534.14 3.744 533.78 3.312 533.348C2.88 532.916 2.56 532.428 2.352 531.884C2.144 531.324 2.04 530.7 2.04 530.012C2.04 529.34 2.184 528.716 2.472 528.14C2.776 527.564 3.184 527.068 3.696 526.652C4.224 526.22 4.84 525.892 5.544 525.668C6.248 525.428 7.008 525.308 7.824 525.308C8.688 525.308 9.48 525.42 10.2 525.644C10.92 525.868 11.56 526.204 12.12 526.652C12.68 527.084 13.144 527.62 13.512 528.26L11.688 530.06C11.368 529.532 11.008 529.092 10.608 528.74C10.208 528.372 9.768 528.1 9.288 527.924C8.808 527.732 8.296 527.636 7.752 527.636C7.128 527.636 6.584 527.732 6.12 527.924C5.656 528.116 5.288 528.388 5.016 528.74C4.76 529.076 4.632 529.476 4.632 529.94C4.632 530.276 4.696 530.588 4.824 530.876C4.952 531.148 5.144 531.396 5.4 531.62C5.672 531.828 6.032 532.02 6.48 532.196C6.928 532.356 7.464 532.5 8.088 532.628C8.968 532.82 9.752 533.068 10.44 533.372C11.128 533.66 11.712 534.004 12.192 534.404C12.672 534.804 13.032 535.252 13.272 535.748C13.528 536.244 13.656 536.78 13.656 537.356C13.656 538.428 13.408 539.356 12.912 540.14C12.416 540.924 11.712 541.532 10.8 541.964C9.888 542.38 8.8 542.588 7.536 542.588ZM17.5686 542.348V525.548H28.1526V528.044H20.1606V539.852H28.1526V542.348H17.5686ZM18.7446 534.98V532.484H26.8326V534.98H18.7446ZM39.3668 542.588C38.1988 542.588 37.1267 542.38 36.1507 541.964C35.1747 541.548 34.3267 540.956 33.6067 540.188C32.8867 539.404 32.3267 538.484 31.9267 537.428C31.5427 536.372 31.3507 535.212 31.3507 533.948C31.3507 532.748 31.5587 531.636 31.9747 530.612C32.4067 529.572 32.9987 528.66 33.7507 527.876C34.5027 527.092 35.3747 526.484 36.3667 526.052C37.3587 525.62 38.4307 525.404 39.5828 525.404C40.3988 525.404 41.1908 525.532 41.9587 525.788C42.7428 526.028 43.4468 526.372 44.0707 526.82C44.7108 527.252 45.2308 527.748 45.6307 528.308L43.9028 530.108C43.4388 529.644 42.9668 529.26 42.4868 528.956C42.0227 528.636 41.5427 528.396 41.0468 528.236C40.5668 528.076 40.0788 527.996 39.5828 527.996C38.7987 527.996 38.0627 528.148 37.3748 528.452C36.7027 528.74 36.1107 529.148 35.5987 529.676C35.1027 530.204 34.7107 530.836 34.4227 531.572C34.1347 532.292 33.9907 533.084 33.9907 533.948C33.9907 534.86 34.1267 535.692 34.3987 536.444C34.6867 537.18 35.0867 537.812 35.5987 538.34C36.1107 538.868 36.7187 539.276 37.4228 539.564C38.1428 539.836 38.9347 539.972 39.7987 539.972C40.3268 539.972 40.8468 539.9 41.3588 539.756C41.8707 539.612 42.3507 539.404 42.7988 539.132C43.2468 538.86 43.6548 538.54 44.0228 538.172L45.3188 540.284C44.9508 540.716 44.4468 541.108 43.8068 541.46C43.1827 541.812 42.4787 542.092 41.6948 542.3C40.9268 542.492 40.1508 542.588 39.3668 542.588ZM56.1118 542.588C54.9278 542.588 53.8318 542.372 52.8238 541.94C51.8318 541.508 50.9598 540.908 50.2078 540.14C49.4718 539.356 48.8958 538.444 48.4798 537.404C48.0798 536.348 47.8798 535.196 47.8798 533.948C47.8798 532.7 48.0798 531.556 48.4798 530.516C48.8958 529.46 49.4718 528.548 50.2078 527.78C50.9598 526.996 51.8318 526.388 52.8238 525.956C53.8318 525.524 54.9278 525.308 56.1118 525.308C57.2958 525.308 58.3838 525.524 59.3758 525.956C60.3838 526.388 61.2558 526.996 61.9918 527.78C62.7438 528.564 63.3198 529.484 63.7198 530.54C64.1358 531.58 64.3438 532.716 64.3438 533.948C64.3438 535.18 64.1358 536.324 63.7198 537.38C63.3198 538.42 62.7438 539.332 61.9918 540.116C61.2558 540.9 60.3838 541.508 59.3758 541.94C58.3838 542.372 57.2958 542.588 56.1118 542.588ZM56.1118 540.068C56.9278 540.068 57.6718 539.916 58.3438 539.612C59.0318 539.308 59.6238 538.884 60.1198 538.34C60.6158 537.78 60.9998 537.132 61.2718 536.396C61.5598 535.644 61.7038 534.828 61.7038 533.948C61.7038 533.068 61.5598 532.26 61.2718 531.524C60.9998 530.772 60.6158 530.124 60.1198 529.58C59.6238 529.02 59.0318 528.588 58.3438 528.284C57.6718 527.98 56.9278 527.828 56.1118 527.828C55.2958 527.828 54.5438 527.98 53.8558 528.284C53.1838 528.588 52.5918 529.012 52.0798 529.556C51.5838 530.1 51.1998 530.748 50.9278 531.5C50.6558 532.236 50.5198 533.052 50.5198 533.948C50.5198 534.828 50.6558 535.644 50.9278 536.396C51.1998 537.148 51.5838 537.796 52.0798 538.34C52.5918 538.884 53.1838 539.308 53.8558 539.612C54.5438 539.916 55.2958 540.068 56.1118 540.068ZM68.0932 542.348V525.548H70.4212L80.6932 539.3L80.3093 539.516C80.2453 539.116 80.1892 538.684 80.1412 538.22C80.0932 537.74 80.0452 537.236 79.9973 536.708C79.9652 536.164 79.9332 535.596 79.9012 535.004C79.8853 534.396 79.8692 533.764 79.8532 533.108C79.8372 532.452 79.8292 531.772 79.8292 531.068V525.548H82.4213V542.348H80.0452L69.9412 529.1L70.2052 528.764C70.2852 529.74 70.3492 530.572 70.3972 531.26C70.4612 531.932 70.5092 532.508 70.5412 532.988C70.5892 533.452 70.6212 533.836 70.6372 534.14C70.6532 534.428 70.6612 534.668 70.6612 534.86C70.6772 535.052 70.6852 535.22 70.6852 535.364V542.348H68.0932ZM87.3645 542.348V525.548H93.9405C95.1405 525.548 96.2205 525.748 97.1805 526.148C98.1565 526.548 98.9885 527.124 99.6765 527.876C100.364 528.628 100.892 529.516 101.26 530.54C101.628 531.564 101.812 532.7 101.812 533.948C101.812 535.196 101.628 536.34 101.26 537.38C100.892 538.404 100.364 539.292 99.6765 540.044C99.0045 540.78 98.1805 541.348 97.2045 541.748C96.2285 542.148 95.1405 542.348 93.9405 542.348H87.3645ZM89.9565 540.116L89.8845 539.852H93.8205C94.6685 539.852 95.4205 539.716 96.0765 539.444C96.7485 539.172 97.3085 538.788 97.7565 538.292C98.2205 537.78 98.5725 537.156 98.8125 536.42C99.0525 535.684 99.1725 534.86 99.1725 533.948C99.1725 533.036 99.0525 532.22 98.8125 531.5C98.5725 530.764 98.2205 530.14 97.7565 529.628C97.2925 529.116 96.7325 528.724 96.0765 528.452C95.4205 528.18 94.6685 528.044 93.8205 528.044H89.8125L89.9565 527.828V540.116ZM103.337 542.348L109.841 525.548H112.481L118.937 542.348H116.177L112.337 532.22C112.289 532.108 112.193 531.836 112.049 531.404C111.921 530.972 111.769 530.492 111.593 529.964C111.417 529.436 111.257 528.956 111.113 528.524C110.969 528.076 110.873 527.788 110.825 527.66L111.377 527.636C111.281 527.908 111.161 528.252 111.017 528.668C110.889 529.084 110.745 529.524 110.585 529.988C110.441 530.452 110.297 530.892 110.153 531.308C110.009 531.708 109.889 532.044 109.793 532.316L105.977 542.348H103.337ZM106.217 538.172L107.177 535.676H114.809L115.913 538.172H106.217ZM122.134 542.348V525.548H129.286C130.246 525.548 131.126 525.788 131.926 526.268C132.742 526.732 133.39 527.372 133.87 528.188C134.35 528.988 134.59 529.892 134.59 530.9C134.59 531.812 134.35 532.66 133.87 533.444C133.39 534.228 132.75 534.86 131.95 535.34C131.15 535.804 130.262 536.036 129.286 536.036H124.726V542.348H122.134ZM132.118 542.348L127.846 534.764L130.51 534.164L135.262 542.372L132.118 542.348ZM124.726 533.54H129.526C129.99 533.54 130.406 533.428 130.774 533.204C131.142 532.964 131.43 532.644 131.638 532.244C131.846 531.828 131.95 531.372 131.95 530.876C131.95 530.316 131.814 529.828 131.542 529.412C131.286 528.98 130.918 528.644 130.438 528.404C129.974 528.164 129.446 528.044 128.854 528.044H124.726V533.54ZM142.378 542.348V533.972L142.546 535.148L135.754 525.548H138.874L144.058 532.988L143.458 532.916L148.138 525.548H151.114L144.61 535.412L144.97 533.78V542.348H142.378Z" fill="#828282"/>
<rect y="557.348" width="110.348" height="110.348" fill="#1F1D2C"/>
<rect x="110.348" y="557.348" width="110.348" height="110.348" fill="#262837"/>
<rect x="220.695" y="557.348" width="110.348" height="110.348" fill="#373A4E"/>
<rect x="331.043" y="557.348" width="110.348" height="110.348" fill="#585C77"/>
<rect x="441.391" y="557.348" width="110.348" height="110.348" fill="#7C81A0"/>
<rect x="551.738" y="557.348" width="110.348" height="110.348" fill="#A3A8C8"/>
<rect x="662.086" y="557.348" width="110.348" height="110.348" fill="#CDD2F1"/>
<rect x="772.434" y="557.348" width="110.348" height="110.348" fill="#F5F6F9"/>
<path d="M0.6 732.695L7.104 715.895H9.744L16.2 732.695H13.44L9.6 722.567C9.552 722.455 9.456 722.183 9.312 721.751C9.184 721.319 9.032 720.839 8.856 720.311C8.68 719.783 8.52 719.303 8.376 718.871C8.232 718.423 8.136 718.135 8.088 718.007L8.64 717.983C8.544 718.255 8.424 718.599 8.28 719.015C8.152 719.431 8.008 719.871 7.848 720.335C7.704 720.799 7.56 721.239 7.416 721.655C7.272 722.055 7.152 722.391 7.056 722.663L3.24 732.695H0.6ZM3.48 728.519L4.44 726.023H12.072L13.176 728.519H3.48ZM19.3967 732.695V715.895H21.9887V730.199H29.8607V732.695H19.3967ZM34.0039 732.695V715.895H44.5879V718.391H36.5959V730.199H44.5879V732.695H34.0039ZM35.1799 725.327V722.831H43.2679V725.327H35.1799ZM48.9861 732.695V715.895H56.1381C57.0981 715.895 57.9781 716.135 58.7781 716.615C59.5941 717.079 60.2421 717.719 60.7221 718.535C61.2021 719.335 61.4421 720.239 61.4421 721.247C61.4421 722.159 61.2021 723.007 60.7221 723.791C60.2421 724.575 59.6021 725.207 58.8021 725.687C58.0021 726.151 57.1141 726.383 56.1381 726.383H51.5781V732.695H48.9861ZM58.9701 732.695L54.6981 725.111L57.3621 724.511L62.1141 732.719L58.9701 732.695ZM51.5781 723.887H56.3781C56.8421 723.887 57.2581 723.775 57.6261 723.551C57.9941 723.311 58.2821 722.991 58.4901 722.591C58.6981 722.175 58.8021 721.719 58.8021 721.223C58.8021 720.663 58.6661 720.175 58.3941 719.759C58.1381 719.327 57.7701 718.991 57.2901 718.751C56.8261 718.511 56.2981 718.391 55.7061 718.391H51.5781V723.887ZM68.6368 732.695V718.391H63.9328V715.895H76.0768V718.391H71.2288V732.695H68.6368ZM84.6969 732.935C83.7849 732.935 82.9369 732.815 82.1529 732.575C81.3849 732.335 80.6809 731.975 80.0409 731.495C79.4169 730.999 78.8569 730.391 78.3609 729.671L80.1369 727.631C80.9209 728.751 81.6729 729.527 82.3929 729.959C83.1129 730.391 83.9689 730.607 84.9609 730.607C85.5689 730.607 86.1209 730.511 86.6169 730.319C87.1129 730.127 87.5049 729.863 87.7929 729.527C88.0809 729.191 88.2249 728.807 88.2249 728.375C88.2249 728.087 88.1769 727.815 88.0809 727.559C87.9849 727.303 87.8329 727.071 87.6249 726.863C87.4329 726.655 87.1769 726.463 86.8569 726.287C86.5529 726.111 86.1929 725.959 85.7769 725.831C85.3609 725.687 84.8809 725.567 84.3369 725.471C83.4729 725.295 82.7209 725.063 82.0809 724.775C81.4409 724.487 80.9049 724.127 80.4729 723.695C80.0409 723.263 79.7209 722.775 79.5129 722.231C79.3049 721.671 79.2009 721.047 79.2009 720.359C79.2009 719.687 79.3449 719.063 79.6329 718.487C79.9369 717.911 80.3449 717.415 80.8569 716.999C81.3849 716.567 82.0009 716.239 82.7049 716.015C83.4089 715.775 84.1689 715.655 84.9849 715.655C85.8489 715.655 86.6409 715.767 87.3609 715.991C88.0809 716.215 88.7209 716.551 89.2809 716.999C89.8409 717.431 90.3049 717.967 90.6729 718.607L88.8489 720.407C88.5289 719.879 88.1689 719.439 87.7689 719.087C87.3689 718.719 86.9289 718.447 86.4489 718.271C85.9689 718.079 85.4569 717.983 84.9129 717.983C84.2889 717.983 83.7449 718.079 83.2809 718.271C82.8169 718.463 82.4489 718.735 82.1769 719.087C81.9209 719.423 81.7929 719.823 81.7929 720.287C81.7929 720.623 81.8569 720.935 81.9849 721.223C82.1129 721.495 82.3049 721.743 82.5609 721.967C82.8329 722.175 83.1929 722.367 83.6409 722.543C84.0889 722.703 84.6249 722.847 85.2489 722.975C86.1289 723.167 86.9129 723.415 87.6009 723.719C88.2889 724.007 88.8729 724.351 89.3529 724.751C89.8329 725.151 90.1929 725.599 90.4329 726.095C90.6889 726.591 90.8169 727.127 90.8169 727.703C90.8169 728.775 90.5689 729.703 90.0729 730.487C89.5769 731.271 88.8729 731.879 87.9609 732.311C87.0489 732.727 85.9609 732.935 84.6969 732.935Z" fill="#828282"/>
<rect y="747.695" width="110.348" height="110.348" fill="#F08B6F"/>
<rect x="110.348" y="747.695" width="110.348" height="110.348" fill="#FFC4B3"/>
<rect x="220.695" y="747.695" width="110.348" height="110.348" fill="#FFF4F1"/>
<path d="M0.6 923.043L7.104 906.243H9.744L16.2 923.043H13.44L9.6 912.915C9.552 912.803 9.456 912.531 9.312 912.099C9.184 911.667 9.032 911.187 8.856 910.659C8.68 910.131 8.52 909.651 8.376 909.219C8.232 908.771 8.136 908.483 8.088 908.355L8.64 908.331C8.544 908.603 8.424 908.947 8.28 909.363C8.152 909.779 8.008 910.219 7.848 910.683C7.704 911.147 7.56 911.587 7.416 912.003C7.272 912.403 7.152 912.739 7.056 913.011L3.24 923.043H0.6ZM3.48 918.867L4.44 916.371H12.072L13.176 918.867H3.48ZM19.3967 923.043V906.243H21.9887V920.547H29.8607V923.043H19.3967ZM34.0039 923.043V906.243H44.5879V908.739H36.5959V920.547H44.5879V923.043H34.0039ZM35.1799 915.675V913.179H43.2679V915.675H35.1799ZM48.9861 923.043V906.243H56.1381C57.0981 906.243 57.9781 906.483 58.7781 906.963C59.5941 907.427 60.2421 908.067 60.7221 908.883C61.2021 909.683 61.4421 910.587 61.4421 911.595C61.4421 912.507 61.2021 913.355 60.7221 914.139C60.2421 914.923 59.6021 915.555 58.8021 916.035C58.0021 916.499 57.1141 916.731 56.1381 916.731H51.5781V923.043H48.9861ZM58.9701 923.043L54.6981 915.459L57.3621 914.859L62.1141 923.067L58.9701 923.043ZM51.5781 914.235H56.3781C56.8421 914.235 57.2581 914.123 57.6261 913.899C57.9941 913.659 58.2821 913.339 58.4901 912.939C58.6981 912.523 58.8021 912.067 58.8021 911.571C58.8021 911.011 58.6661 910.523 58.3941 910.107C58.1381 909.675 57.7701 909.339 57.2901 909.099C56.8261 908.859 56.2981 908.739 55.7061 908.739H51.5781V914.235ZM68.6368 923.043V908.739H63.9328V906.243H76.0768V908.739H71.2288V923.043H68.6368ZM84.6969 923.283C83.7849 923.283 82.9369 923.163 82.1529 922.923C81.3849 922.683 80.6809 922.323 80.0409 921.843C79.4169 921.347 78.8569 920.739 78.3609 920.019L80.1369 917.979C80.9209 919.099 81.6729 919.875 82.3929 920.307C83.1129 920.739 83.9689 920.955 84.9609 920.955C85.5689 920.955 86.1209 920.859 86.6169 920.667C87.1129 920.475 87.5049 920.211 87.7929 919.875C88.0809 919.539 88.2249 919.155 88.2249 918.723C88.2249 918.435 88.1769 918.163 88.0809 917.907C87.9849 917.651 87.8329 917.419 87.6249 917.211C87.4329 917.003 87.1769 916.811 86.8569 916.635C86.5529 916.459 86.1929 916.307 85.7769 916.179C85.3609 916.035 84.8809 915.915 84.3369 915.819C83.4729 915.643 82.7209 915.411 82.0809 915.123C81.4409 914.835 80.9049 914.475 80.4729 914.043C80.0409 913.611 79.7209 913.123 79.5129 912.579C79.3049 912.019 79.2009 911.395 79.2009 910.707C79.2009 910.035 79.3449 909.411 79.6329 908.835C79.9369 908.259 80.3449 907.763 80.8569 907.347C81.3849 906.915 82.0009 906.587 82.7049 906.363C83.4089 906.123 84.1689 906.003 84.9849 906.003C85.8489 906.003 86.6409 906.115 87.3609 906.339C88.0809 906.563 88.7209 906.899 89.2809 907.347C89.8409 907.779 90.3049 908.315 90.6729 908.955L88.8489 910.755C88.5289 910.227 88.1689 909.787 87.7689 909.435C87.3689 909.067 86.9289 908.795 86.4489 908.619C85.9689 908.427 85.4569 908.331 84.9129 908.331C84.2889 908.331 83.7449 908.427 83.2809 908.619C82.8169 908.811 82.4489 909.083 82.1769 909.435C81.9209 909.771 81.7929 910.171 81.7929 910.635C81.7929 910.971 81.8569 911.283 81.9849 911.571C82.1129 911.843 82.3049 912.091 82.5609 912.315C82.8329 912.523 83.1929 912.715 83.6409 912.891C84.0889 913.051 84.6249 913.195 85.2489 913.323C86.1289 913.515 86.9129 913.763 87.6009 914.067C88.2889 914.355 88.8729 914.699 89.3529 915.099C89.8329 915.499 90.1929 915.947 90.4329 916.443C90.6889 916.939 90.8169 917.475 90.8169 918.051C90.8169 919.123 90.5689 920.051 90.0729 920.835C89.5769 921.619 88.8729 922.227 87.9609 922.659C87.0489 923.075 85.9609 923.283 84.6969 923.283Z" fill="#828282"/>
<rect y="938.043" width="110.348" height="110.348" fill="#1BB55C"/>
<rect x="110.348" y="938.043" width="110.348" height="110.348" fill="#B6FFD5"/>
<rect x="220.695" y="938.043" width="110.348" height="110.348" fill="#ECFFF4"/>
<path d="M6.544 33V18.696H1.84V16.2H13.984V18.696H9.136V33H6.544ZM22.1665 33V24.624L22.3345 25.8L15.5425 16.2H18.6625L23.8465 23.64L23.2465 23.568L27.9265 16.2H30.9025L24.3985 26.064L24.7585 24.432V33H22.1665ZM33.7382 33V16.2H40.5782C41.4903 16.2 42.3143 16.432 43.0503 16.896C43.8023 17.344 44.4023 17.96 44.8503 18.744C45.2983 19.528 45.5223 20.4 45.5223 21.36C45.5223 22.32 45.2983 23.192 44.8503 23.976C44.4023 24.76 43.8023 25.392 43.0503 25.872C42.3143 26.336 41.4903 26.568 40.5782 26.568H36.3302V33H33.7382ZM36.3302 24.072H40.5302C40.9622 24.072 41.3542 23.952 41.7062 23.712C42.0582 23.456 42.3383 23.128 42.5463 22.728C42.7703 22.312 42.8823 21.856 42.8823 21.36C42.8823 20.864 42.7703 20.416 42.5463 20.016C42.3383 19.616 42.0582 19.296 41.7062 19.056C41.3542 18.816 40.9622 18.696 40.5302 18.696H36.3302V24.072ZM49.1892 33V16.2H59.7732V18.696H51.7812V30.504H59.7732V33H49.1892ZM50.3652 25.632V23.136H58.4532V25.632H50.3652ZM64.1714 33V16.2H66.7634V33H64.1714ZM65.3234 25.848V23.352H73.9874V25.848H65.3234ZM65.3234 18.696V16.2H75.0674V18.696H65.3234ZM75.6672 33L82.1712 16.2H84.8112L91.2672 33H88.5072L84.6672 22.872C84.6192 22.76 84.5232 22.488 84.3792 22.056C84.2512 21.624 84.0992 21.144 83.9232 20.616C83.7472 20.088 83.5872 19.608 83.4432 19.176C83.2992 18.728 83.2032 18.44 83.1552 18.312L83.7072 18.288C83.6112 18.56 83.4912 18.904 83.3472 19.32C83.2192 19.736 83.0752 20.176 82.9152 20.64C82.7712 21.104 82.6272 21.544 82.4832 21.96C82.3392 22.36 82.2192 22.696 82.1232 22.968L78.3072 33H75.6672ZM78.5472 28.824L79.5072 26.328H87.1392L88.2432 28.824H78.5472ZM100.811 33.24C99.6431 33.24 98.5711 33.032 97.5951 32.616C96.6191 32.2 95.7711 31.608 95.0511 30.84C94.3311 30.056 93.7711 29.136 93.3711 28.08C92.9871 27.024 92.7951 25.864 92.7951 24.6C92.7951 23.4 93.0031 22.288 93.4191 21.264C93.8511 20.224 94.4431 19.312 95.1951 18.528C95.9471 17.744 96.8191 17.136 97.8111 16.704C98.8031 16.272 99.8751 16.056 101.027 16.056C101.843 16.056 102.635 16.184 103.403 16.44C104.187 16.68 104.891 17.024 105.515 17.472C106.155 17.904 106.675 18.4 107.075 18.96L105.347 20.76C104.883 20.296 104.411 19.912 103.931 19.608C103.467 19.288 102.987 19.048 102.491 18.888C102.011 18.728 101.523 18.648 101.027 18.648C100.243 18.648 99.5071 18.8 98.8191 19.104C98.1471 19.392 97.5551 19.8 97.0431 20.328C96.5471 20.856 96.1551 21.488 95.8671 22.224C95.5791 22.944 95.4351 23.736 95.4351 24.6C95.4351 25.512 95.5711 26.344 95.8431 27.096C96.1311 27.832 96.5311 28.464 97.0431 28.992C97.5551 29.52 98.1631 29.928 98.8671 30.216C99.5871 30.488 100.379 30.624 101.243 30.624C101.771 30.624 102.291 30.552 102.803 30.408C103.315 30.264 103.795 30.056 104.243 29.784C104.691 29.512 105.099 29.192 105.467 28.824L106.763 30.936C106.395 31.368 105.891 31.76 105.251 32.112C104.627 32.464 103.923 32.744 103.139 32.952C102.371 33.144 101.595 33.24 100.811 33.24ZM110.524 33V16.2H121.108V18.696H113.116V30.504H121.108V33H110.524ZM111.7 25.632V23.136H119.788V25.632H111.7Z" fill="#BDBDBD"/>
<path d="M3.912 96V73.6H8.712V91.68H18.856V96H3.912ZM30.4053 96.32C28.5706 96.32 26.9706 95.9467 25.6052 95.2C24.2399 94.4533 23.1732 93.4293 22.4052 92.128C21.6372 90.8267 21.2532 89.3333 21.2532 87.648C21.2532 86.3467 21.4666 85.152 21.8932 84.064C22.3199 82.976 22.9172 82.0373 23.6852 81.248C24.4532 80.4373 25.3599 79.8187 26.4053 79.392C27.4719 78.944 28.6239 78.72 29.8612 78.72C31.0133 78.72 32.0799 78.9333 33.0613 79.36C34.0426 79.7653 34.8853 80.352 35.5893 81.12C36.3146 81.8667 36.8692 82.752 37.2533 83.776C37.6373 84.8 37.8079 85.92 37.7653 87.136L37.7332 88.544H24.1332L23.3972 85.76H33.9893L33.4773 86.336V85.632C33.4346 85.056 33.2426 84.5333 32.9012 84.064C32.5813 83.5947 32.1653 83.232 31.6533 82.976C31.1413 82.72 30.5653 82.592 29.9253 82.592C28.9866 82.592 28.1866 82.7733 27.5252 83.136C26.8852 83.4987 26.3946 84.032 26.0532 84.736C25.7119 85.44 25.5412 86.2933 25.5412 87.296C25.5412 88.32 25.7546 89.2053 26.1813 89.952C26.6293 90.6987 27.2479 91.2853 28.0373 91.712C28.8479 92.1173 29.7973 92.32 30.8853 92.32C31.6319 92.32 32.3146 92.2027 32.9333 91.968C33.5519 91.7333 34.2133 91.328 34.9173 90.752L37.0933 93.792C36.4746 94.3467 35.7919 94.816 35.0452 95.2C34.2986 95.5627 33.5306 95.84 32.7413 96.032C31.9519 96.224 31.1733 96.32 30.4053 96.32ZM52.0375 96L47.8455 90.016L46.5655 88.224L39.7175 79.072H45.2215L49.3175 84.864L50.7255 86.784L57.4775 96H52.0375ZM39.6535 96L46.4055 86.752L48.9015 89.728L44.9975 96H39.6535ZM50.5335 88.384L48.1015 85.408L51.7175 79.072H57.0615L50.5335 88.384ZM67.6702 96.32C65.8356 96.32 64.2356 95.9467 62.8702 95.2C61.5049 94.4533 60.4382 93.4293 59.6702 92.128C58.9022 90.8267 58.5182 89.3333 58.5182 87.648C58.5182 86.3467 58.7316 85.152 59.1582 84.064C59.5849 82.976 60.1822 82.0373 60.9502 81.248C61.7182 80.4373 62.6249 79.8187 63.6702 79.392C64.7369 78.944 65.8889 78.72 67.1262 78.72C68.2782 78.72 69.3449 78.9333 70.3263 79.36C71.3076 79.7653 72.1503 80.352 72.8542 81.12C73.5796 81.8667 74.1342 82.752 74.5182 83.776C74.9022 84.8 75.0729 85.92 75.0303 87.136L74.9982 88.544H61.3982L60.6622 85.76H71.2542L70.7422 86.336V85.632C70.6996 85.056 70.5076 84.5333 70.1662 84.064C69.8462 83.5947 69.4302 83.232 68.9183 82.976C68.4062 82.72 67.8302 82.592 67.1902 82.592C66.2516 82.592 65.4516 82.7733 64.7902 83.136C64.1502 83.4987 63.6596 84.032 63.3182 84.736C62.9769 85.44 62.8062 86.2933 62.8062 87.296C62.8062 88.32 63.0196 89.2053 63.4462 89.952C63.8942 90.6987 64.5129 91.2853 65.3022 91.712C66.1129 92.1173 67.0622 92.32 68.1502 92.32C68.8969 92.32 69.5796 92.2027 70.1982 91.968C70.8169 91.7333 71.4782 91.328 72.1823 90.752L74.3582 93.792C73.7396 94.3467 73.0569 94.816 72.3102 95.2C71.5636 95.5627 70.7956 95.84 70.0062 96.032C69.2169 96.224 68.4382 96.32 67.6702 96.32ZM78.7082 96V79.072H83.0602L83.1882 82.528L82.2922 82.912C82.5269 82.144 82.9429 81.4507 83.5402 80.832C84.1589 80.192 84.8949 79.68 85.7482 79.296C86.6016 78.912 87.4976 78.72 88.4362 78.72C89.7162 78.72 90.7829 78.976 91.6362 79.488C92.5109 80 93.1616 80.7787 93.5882 81.824C94.0362 82.848 94.2603 84.1173 94.2603 85.632V96H89.7162V85.984C89.7162 85.216 89.6096 84.576 89.3962 84.064C89.1829 83.552 88.8522 83.1787 88.4042 82.944C87.9776 82.688 87.4442 82.5813 86.8042 82.624C86.2922 82.624 85.8122 82.7093 85.3642 82.88C84.9376 83.0293 84.5642 83.2533 84.2442 83.552C83.9456 83.8507 83.7002 84.192 83.5082 84.576C83.3376 84.96 83.2522 85.376 83.2522 85.824V96H81.0122C80.5216 96 80.0842 96 79.7002 96C79.3162 96 78.9856 96 78.7082 96ZM105.558 96.32C104.086 96.32 102.764 95.9467 101.59 95.2C100.417 94.432 99.4892 93.3973 98.8065 92.096C98.1452 90.7733 97.8145 89.248 97.8145 87.52C97.8145 85.8347 98.1452 84.3307 98.8065 83.008C99.4892 81.6853 100.406 80.64 101.558 79.872C102.732 79.104 104.065 78.72 105.558 78.72C106.348 78.72 107.105 78.848 107.83 79.104C108.577 79.3387 109.238 79.6693 109.814 80.096C110.412 80.5227 110.892 81.0027 111.254 81.536C111.617 82.048 111.82 82.592 111.862 83.168L110.71 83.36V72.32H115.254V96H110.966L110.774 92.096L111.67 92.192C111.628 92.7253 111.436 93.2373 111.094 93.728C110.753 94.2187 110.294 94.6667 109.718 95.072C109.164 95.456 108.524 95.7653 107.798 96C107.094 96.2133 106.348 96.32 105.558 96.32ZM106.582 92.544C107.436 92.544 108.182 92.3307 108.822 91.904C109.462 91.4773 109.964 90.8907 110.326 90.144C110.689 89.3973 110.87 88.5227 110.87 87.52C110.87 86.5387 110.689 85.6747 110.326 84.928C109.964 84.16 109.462 83.5733 108.822 83.168C108.182 82.7413 107.436 82.528 106.582 82.528C105.729 82.528 104.982 82.7413 104.342 83.168C103.724 83.5733 103.233 84.16 102.87 84.928C102.529 85.6747 102.358 86.5387 102.358 87.52C102.358 88.5227 102.529 89.3973 102.87 90.144C103.233 90.8907 103.724 91.4773 104.342 91.904C104.982 92.3307 105.729 92.544 106.582 92.544Z" fill="#333333"/>
</svg>
