<svg width="1153" height="972" viewBox="0 0 1153 972" fill="none" xmlns="http://www.w3.org/2000/svg">
<path d="M9.552 200.24C8.32 200.24 7.184 200.032 6.144 199.616C5.12 199.184 4.224 198.584 3.456 197.816C2.704 197.032 2.12 196.112 1.704 195.056C1.288 193.984 1.08 192.816 1.08 191.552C1.08 190.32 1.296 189.184 1.728 188.144C2.16 187.088 2.768 186.176 3.552 185.408C4.336 184.624 5.256 184.016 6.312 183.584C7.368 183.152 8.512 182.936 9.744 182.936C10.544 182.936 11.328 183.048 12.096 183.272C12.88 183.48 13.592 183.792 14.232 184.208C14.888 184.624 15.448 185.12 15.912 185.696L13.656 188.192C13.272 187.808 12.872 187.48 12.456 187.208C12.056 186.92 11.624 186.704 11.16 186.56C10.712 186.4 10.232 186.32 9.72 186.32C9.032 186.32 8.384 186.448 7.776 186.704C7.184 186.96 6.664 187.32 6.216 187.784C5.768 188.232 5.408 188.784 5.136 189.44C4.88 190.08 4.752 190.792 4.752 191.576C4.752 192.376 4.88 193.104 5.136 193.76C5.392 194.4 5.752 194.952 6.216 195.416C6.68 195.864 7.232 196.216 7.872 196.472C8.528 196.712 9.248 196.832 10.032 196.832C10.544 196.832 11.04 196.76 11.52 196.616C12 196.472 12.44 196.272 12.84 196.016C13.256 195.76 13.624 195.464 13.944 195.128L15.696 197.936C15.312 198.368 14.792 198.76 14.136 199.112C13.496 199.464 12.776 199.744 11.976 199.952C11.176 200.144 10.368 200.24 9.552 200.24ZM24.1549 200.24C22.8589 200.24 21.6989 199.96 20.6749 199.4C19.6669 198.824 18.8669 198.04 18.2749 197.048C17.6989 196.056 17.4109 194.92 17.4109 193.64C17.4109 192.36 17.6989 191.232 18.2749 190.256C18.8669 189.264 19.6669 188.48 20.6749 187.904C21.6989 187.328 22.8589 187.04 24.1549 187.04C25.4349 187.04 26.5789 187.328 27.5869 187.904C28.6109 188.48 29.4109 189.264 29.9869 190.256C30.5629 191.232 30.8509 192.36 30.8509 193.64C30.8509 194.92 30.5629 196.056 29.9869 197.048C29.4109 198.04 28.6109 198.824 27.5869 199.4C26.5789 199.96 25.4349 200.24 24.1549 200.24ZM24.1549 197.264C24.7789 197.264 25.3389 197.112 25.8349 196.808C26.3309 196.488 26.7149 196.056 26.9869 195.512C27.2749 194.952 27.4189 194.328 27.4189 193.64C27.4189 192.936 27.2749 192.312 26.9869 191.768C26.7149 191.208 26.3309 190.776 25.8349 190.472C25.3389 190.152 24.7789 189.992 24.1549 189.992C23.5149 189.992 22.9469 190.152 22.4509 190.472C21.9549 190.792 21.5629 191.224 21.2749 191.768C20.9869 192.312 20.8509 192.936 20.8669 193.64C20.8509 194.328 20.9869 194.952 21.2749 195.512C21.5629 196.056 21.9549 196.488 22.4509 196.808C22.9469 197.112 23.5149 197.264 24.1549 197.264ZM33.4389 200V182.24H36.8469V200H33.4389ZM45.9752 200.24C44.6792 200.24 43.5192 199.96 42.4952 199.4C41.4872 198.824 40.6872 198.04 40.0952 197.048C39.5192 196.056 39.2312 194.92 39.2312 193.64C39.2312 192.36 39.5192 191.232 40.0952 190.256C40.6872 189.264 41.4872 188.48 42.4952 187.904C43.5192 187.328 44.6792 187.04 45.9752 187.04C47.2552 187.04 48.3992 187.328 49.4072 187.904C50.4312 188.48 51.2312 189.264 51.8072 190.256C52.3832 191.232 52.6712 192.36 52.6712 193.64C52.6712 194.92 52.3832 196.056 51.8072 197.048C51.2312 198.04 50.4312 198.824 49.4072 199.4C48.3992 199.96 47.2552 200.24 45.9752 200.24ZM45.9752 197.264C46.5992 197.264 47.1592 197.112 47.6552 196.808C48.1512 196.488 48.5352 196.056 48.8072 195.512C49.0952 194.952 49.2392 194.328 49.2392 193.64C49.2392 192.936 49.0952 192.312 48.8072 191.768C48.5352 191.208 48.1512 190.776 47.6552 190.472C47.1592 190.152 46.5992 189.992 45.9752 189.992C45.3352 189.992 44.7672 190.152 44.2712 190.472C43.7752 190.792 43.3832 191.224 43.0952 191.768C42.8072 192.312 42.6712 192.936 42.6872 193.64C42.6712 194.328 42.8072 194.952 43.0952 195.512C43.3832 196.056 43.7752 196.488 44.2712 196.808C44.7672 197.112 45.3352 197.264 45.9752 197.264ZM55.2353 200V187.304H58.5233L58.6433 191.384L58.0673 190.544C58.2593 189.888 58.5713 189.296 59.0033 188.768C59.4353 188.224 59.9393 187.8 60.5153 187.496C61.1073 187.192 61.7233 187.04 62.3633 187.04C62.6353 187.04 62.8993 187.064 63.1553 187.112C63.4113 187.16 63.6273 187.216 63.8033 187.28L62.8913 191.024C62.6993 190.928 62.4673 190.848 62.1953 190.784C61.9233 190.704 61.6433 190.664 61.3553 190.664C60.9713 190.664 60.6113 190.736 60.2753 190.88C59.9553 191.008 59.6753 191.2 59.4353 191.456C59.1953 191.696 59.0033 191.984 58.8593 192.32C58.7313 192.656 58.6673 193.024 58.6673 193.424V200H55.2353ZM79.0461 200.24C78.0061 200.24 77.0541 200.112 76.1901 199.856C75.3421 199.6 74.5821 199.224 73.9101 198.728C73.2541 198.232 72.6621 197.632 72.1341 196.928L74.3901 194.36C75.1741 195.448 75.9501 196.192 76.7181 196.592C77.5021 196.976 78.3501 197.168 79.2621 197.168C79.7581 197.168 80.1981 197.104 80.5821 196.976C80.9821 196.832 81.2941 196.632 81.5181 196.376C81.7421 196.12 81.8541 195.816 81.8541 195.464C81.8541 195.208 81.7981 194.976 81.6861 194.768C81.5741 194.544 81.4141 194.352 81.2061 194.192C80.9981 194.016 80.7501 193.864 80.4621 193.736C80.1741 193.592 79.8541 193.472 79.5021 193.376C79.1501 193.264 78.7661 193.176 78.3501 193.112C77.4541 192.904 76.6701 192.656 75.9981 192.368C75.3261 192.064 74.7661 191.696 74.3181 191.264C73.8701 190.816 73.5341 190.312 73.3101 189.752C73.1021 189.192 72.9981 188.56 72.9981 187.856C72.9981 187.136 73.1581 186.472 73.4781 185.864C73.7981 185.24 74.2381 184.704 74.7981 184.256C75.3741 183.808 76.0301 183.464 76.7661 183.224C77.5181 182.984 78.3101 182.864 79.1421 182.864C80.1661 182.864 81.0621 182.984 81.8301 183.224C82.5981 183.448 83.2621 183.776 83.8221 184.208C84.3981 184.64 84.8781 185.168 85.2621 185.792L82.9821 188C82.6461 187.552 82.2781 187.176 81.8781 186.872C81.4941 186.568 81.0701 186.344 80.6061 186.2C80.1581 186.04 79.6941 185.96 79.2141 185.96C78.6861 185.96 78.2301 186.032 77.8461 186.176C77.4621 186.304 77.1581 186.496 76.9341 186.752C76.7261 187.008 76.6221 187.32 76.6221 187.688C76.6221 187.976 76.6941 188.232 76.8381 188.456C76.9821 188.68 77.1901 188.88 77.4621 189.056C77.7341 189.216 78.0621 189.36 78.4461 189.488C78.8301 189.616 79.2541 189.728 79.7181 189.824C80.5981 190 81.3901 190.232 82.0941 190.52C82.7981 190.808 83.3981 191.16 83.8941 191.576C84.4061 191.976 84.7981 192.456 85.0701 193.016C85.3421 193.56 85.4781 194.176 85.4781 194.864C85.4781 196 85.2061 196.968 84.6621 197.768C84.1181 198.568 83.3661 199.184 82.4061 199.616C81.4461 200.032 80.3261 200.24 79.0461 200.24ZM89.4827 200V184.088H92.8907V200H89.4827ZM87.1067 190.352V187.304H95.4827V190.352H87.1067ZM99.48 205.52L102.264 198.992L102.312 200.96L96.12 187.304H99.984L103.08 194.624C103.208 194.896 103.328 195.216 103.44 195.584C103.568 195.936 103.672 196.28 103.752 196.616L103.176 196.856C103.272 196.584 103.384 196.272 103.512 195.92C103.64 195.568 103.768 195.192 103.896 194.792L106.56 187.304H110.448L105.12 200L102.936 205.52H99.48ZM112.306 200V182.24H115.714V200H112.306ZM124.962 200.24C123.586 200.24 122.386 199.96 121.362 199.4C120.338 198.84 119.538 198.072 118.962 197.096C118.386 196.12 118.098 195 118.098 193.736C118.098 192.76 118.258 191.864 118.578 191.048C118.898 190.232 119.346 189.528 119.922 188.936C120.498 188.328 121.178 187.864 121.962 187.544C122.762 187.208 123.626 187.04 124.554 187.04C125.418 187.04 126.218 187.2 126.954 187.52C127.69 187.824 128.322 188.264 128.85 188.84C129.394 189.4 129.81 190.064 130.098 190.832C130.386 191.6 130.514 192.44 130.482 193.352L130.458 194.408H120.258L119.706 192.32H127.65L127.266 192.752V192.224C127.234 191.792 127.09 191.4 126.834 191.048C126.594 190.696 126.282 190.424 125.898 190.232C125.514 190.04 125.082 189.944 124.602 189.944C123.898 189.944 123.298 190.08 122.802 190.352C122.322 190.624 121.954 191.024 121.698 191.552C121.442 192.08 121.314 192.72 121.314 193.472C121.314 194.24 121.474 194.904 121.794 195.464C122.13 196.024 122.594 196.464 123.186 196.784C123.794 197.088 124.506 197.24 125.322 197.24C125.882 197.24 126.394 197.152 126.858 196.976C127.322 196.8 127.818 196.496 128.346 196.064L129.978 198.344C129.514 198.76 129.002 199.112 128.442 199.4C127.882 199.672 127.306 199.88 126.714 200.024C126.122 200.168 125.538 200.24 124.962 200.24Z" fill="#4F4F4F"/>
<path d="M2.352 275V258.2H9.192C10.104 258.2 10.928 258.432 11.664 258.896C12.416 259.344 13.016 259.96 13.464 260.744C13.912 261.528 14.136 262.4 14.136 263.36C14.136 264.32 13.912 265.192 13.464 265.976C13.016 266.76 12.416 267.392 11.664 267.872C10.928 268.336 10.104 268.568 9.192 268.568H4.944V275H2.352ZM4.944 266.072H9.144C9.576 266.072 9.968 265.952 10.32 265.712C10.672 265.456 10.952 265.128 11.16 264.728C11.384 264.312 11.496 263.856 11.496 263.36C11.496 262.864 11.384 262.416 11.16 262.016C10.952 261.616 10.672 261.296 10.32 261.056C9.968 260.816 9.576 260.696 9.144 260.696H4.944V266.072ZM17.8029 275V258.2H24.9549C25.9149 258.2 26.7949 258.44 27.5949 258.92C28.4109 259.384 29.0589 260.024 29.5389 260.84C30.0189 261.64 30.2589 262.544 30.2589 263.552C30.2589 264.464 30.0189 265.312 29.5389 266.096C29.0589 266.88 28.4189 267.512 27.6189 267.992C26.8189 268.456 25.9309 268.688 24.9549 268.688H20.3949V275H17.8029ZM27.7869 275L23.5149 267.416L26.1789 266.816L30.9309 275.024L27.7869 275ZM20.3949 266.192H25.1949C25.6589 266.192 26.0749 266.08 26.4429 265.856C26.8109 265.616 27.0989 265.296 27.3069 264.896C27.5149 264.48 27.6189 264.024 27.6189 263.528C27.6189 262.968 27.4829 262.48 27.2109 262.064C26.9549 261.632 26.5869 261.296 26.1069 261.056C25.6429 260.816 25.1149 260.696 24.5229 260.696H20.3949V266.192ZM34.1064 275V272.6H36.8184V260.6H34.1064V258.2H42.1224V260.6H39.4104V272.6H42.1224V275H34.1064ZM46.4314 275V258.2H48.9754L55.0954 268.16L53.8714 268.136L60.0634 258.2H62.4634V275H59.8714V268.112C59.8714 266.672 59.9034 265.376 59.9674 264.224C60.0474 263.072 60.1754 261.928 60.3514 260.792L60.6874 261.68L55.1914 270.176H53.6074L48.2794 261.776L48.5434 260.792C48.7194 261.864 48.8394 262.968 48.9034 264.104C48.9834 265.224 49.0234 266.56 49.0234 268.112V275H46.4314ZM65.6616 275L72.1656 258.2H74.8056L81.2616 275H78.5016L74.6616 264.872C74.6136 264.76 74.5176 264.488 74.3736 264.056C74.2456 263.624 74.0936 263.144 73.9176 262.616C73.7416 262.088 73.5816 261.608 73.4376 261.176C73.2936 260.728 73.1976 260.44 73.1496 260.312L73.7016 260.288C73.6056 260.56 73.4856 260.904 73.3416 261.32C73.2136 261.736 73.0696 262.176 72.9096 262.64C72.7656 263.104 72.6216 263.544 72.4776 263.96C72.3336 264.36 72.2136 264.696 72.1176 264.968L68.3016 275H65.6616ZM68.5416 270.824L69.5016 268.328H77.1336L78.2376 270.824H68.5416ZM84.4582 275V258.2H91.6102C92.5702 258.2 93.4502 258.44 94.2502 258.92C95.0662 259.384 95.7142 260.024 96.1942 260.84C96.6742 261.64 96.9142 262.544 96.9142 263.552C96.9142 264.464 96.6742 265.312 96.1942 266.096C95.7142 266.88 95.0742 267.512 94.2742 267.992C93.4742 268.456 92.5862 268.688 91.6102 268.688H87.0502V275H84.4582ZM94.4422 275L90.1702 267.416L92.8342 266.816L97.5862 275.024L94.4422 275ZM87.0502 266.192H91.8502C92.3142 266.192 92.7302 266.08 93.0982 265.856C93.4662 265.616 93.7542 265.296 93.9622 264.896C94.1702 264.48 94.2742 264.024 94.2742 263.528C94.2742 262.968 94.1382 262.48 93.8662 262.064C93.6102 261.632 93.2422 261.296 92.7622 261.056C92.2982 260.816 91.7702 260.696 91.1782 260.696H87.0502V266.192ZM104.702 275V266.624L104.87 267.8L98.0784 258.2H101.198L106.382 265.64L105.782 265.568L110.462 258.2H113.438L106.934 268.064L107.294 266.432V275H104.702Z" fill="#828282"/>
<rect y="290" width="110.348" height="110.348" fill="#6B5ECD"/>
<rect x="110.348" y="290" width="110.348" height="110.348" fill="#9284FF"/>
<rect x="220.695" y="290" width="110.348" height="110.348" fill="#C3BBFF"/>
<rect x="331.043" y="290" width="110.348" height="110.348" fill="#F4F2FF"/>
<path d="M7.536 465.588C6.624 465.588 5.776 465.468 4.992 465.228C4.224 464.988 3.52 464.628 2.88 464.148C2.256 463.652 1.696 463.044 1.2 462.324L2.976 460.284C3.76 461.404 4.512 462.18 5.232 462.612C5.952 463.044 6.808 463.26 7.8 463.26C8.408 463.26 8.96 463.164 9.456 462.972C9.952 462.78 10.344 462.516 10.632 462.18C10.92 461.844 11.064 461.46 11.064 461.028C11.064 460.74 11.016 460.468 10.92 460.212C10.824 459.956 10.672 459.724 10.464 459.516C10.272 459.308 10.016 459.116 9.696 458.94C9.392 458.764 9.032 458.612 8.616 458.484C8.2 458.34 7.72 458.22 7.176 458.124C6.312 457.948 5.56 457.716 4.92 457.428C4.28 457.14 3.744 456.78 3.312 456.348C2.88 455.916 2.56 455.428 2.352 454.884C2.144 454.324 2.04 453.7 2.04 453.012C2.04 452.34 2.184 451.716 2.472 451.14C2.776 450.564 3.184 450.068 3.696 449.652C4.224 449.22 4.84 448.892 5.544 448.668C6.248 448.428 7.008 448.308 7.824 448.308C8.688 448.308 9.48 448.42 10.2 448.644C10.92 448.868 11.56 449.204 12.12 449.652C12.68 450.084 13.144 450.62 13.512 451.26L11.688 453.06C11.368 452.532 11.008 452.092 10.608 451.74C10.208 451.372 9.768 451.1 9.288 450.924C8.808 450.732 8.296 450.636 7.752 450.636C7.128 450.636 6.584 450.732 6.12 450.924C5.656 451.116 5.288 451.388 5.016 451.74C4.76 452.076 4.632 452.476 4.632 452.94C4.632 453.276 4.696 453.588 4.824 453.876C4.952 454.148 5.144 454.396 5.4 454.62C5.672 454.828 6.032 455.02 6.48 455.196C6.928 455.356 7.464 455.5 8.088 455.628C8.968 455.82 9.752 456.068 10.44 456.372C11.128 456.66 11.712 457.004 12.192 457.404C12.672 457.804 13.032 458.252 13.272 458.748C13.528 459.244 13.656 459.78 13.656 460.356C13.656 461.428 13.408 462.356 12.912 463.14C12.416 463.924 11.712 464.532 10.8 464.964C9.888 465.38 8.8 465.588 7.536 465.588ZM17.5686 465.348V448.548H28.1526V451.044H20.1606V462.852H28.1526V465.348H17.5686ZM18.7446 457.98V455.484H26.8326V457.98H18.7446ZM39.3668 465.588C38.1988 465.588 37.1267 465.38 36.1507 464.964C35.1747 464.548 34.3267 463.956 33.6067 463.188C32.8867 462.404 32.3267 461.484 31.9267 460.428C31.5427 459.372 31.3507 458.212 31.3507 456.948C31.3507 455.748 31.5587 454.636 31.9747 453.612C32.4067 452.572 32.9987 451.66 33.7507 450.876C34.5027 450.092 35.3747 449.484 36.3667 449.052C37.3587 448.62 38.4307 448.404 39.5828 448.404C40.3988 448.404 41.1908 448.532 41.9587 448.788C42.7428 449.028 43.4468 449.372 44.0707 449.82C44.7108 450.252 45.2308 450.748 45.6307 451.308L43.9028 453.108C43.4388 452.644 42.9668 452.26 42.4868 451.956C42.0227 451.636 41.5427 451.396 41.0468 451.236C40.5668 451.076 40.0788 450.996 39.5828 450.996C38.7987 450.996 38.0627 451.148 37.3748 451.452C36.7027 451.74 36.1107 452.148 35.5987 452.676C35.1027 453.204 34.7107 453.836 34.4227 454.572C34.1347 455.292 33.9907 456.084 33.9907 456.948C33.9907 457.86 34.1267 458.692 34.3987 459.444C34.6867 460.18 35.0867 460.812 35.5987 461.34C36.1107 461.868 36.7187 462.276 37.4228 462.564C38.1428 462.836 38.9347 462.972 39.7987 462.972C40.3268 462.972 40.8468 462.9 41.3588 462.756C41.8707 462.612 42.3507 462.404 42.7988 462.132C43.2468 461.86 43.6548 461.54 44.0228 461.172L45.3188 463.284C44.9508 463.716 44.4468 464.108 43.8068 464.46C43.1827 464.812 42.4787 465.092 41.6948 465.3C40.9268 465.492 40.1508 465.588 39.3668 465.588ZM56.1118 465.588C54.9278 465.588 53.8318 465.372 52.8238 464.94C51.8318 464.508 50.9598 463.908 50.2078 463.14C49.4718 462.356 48.8958 461.444 48.4798 460.404C48.0798 459.348 47.8798 458.196 47.8798 456.948C47.8798 455.7 48.0798 454.556 48.4798 453.516C48.8958 452.46 49.4718 451.548 50.2078 450.78C50.9598 449.996 51.8318 449.388 52.8238 448.956C53.8318 448.524 54.9278 448.308 56.1118 448.308C57.2958 448.308 58.3838 448.524 59.3758 448.956C60.3838 449.388 61.2558 449.996 61.9918 450.78C62.7438 451.564 63.3198 452.484 63.7198 453.54C64.1358 454.58 64.3438 455.716 64.3438 456.948C64.3438 458.18 64.1358 459.324 63.7198 460.38C63.3198 461.42 62.7438 462.332 61.9918 463.116C61.2558 463.9 60.3838 464.508 59.3758 464.94C58.3838 465.372 57.2958 465.588 56.1118 465.588ZM56.1118 463.068C56.9278 463.068 57.6718 462.916 58.3438 462.612C59.0318 462.308 59.6238 461.884 60.1198 461.34C60.6158 460.78 60.9998 460.132 61.2718 459.396C61.5598 458.644 61.7038 457.828 61.7038 456.948C61.7038 456.068 61.5598 455.26 61.2718 454.524C60.9998 453.772 60.6158 453.124 60.1198 452.58C59.6238 452.02 59.0318 451.588 58.3438 451.284C57.6718 450.98 56.9278 450.828 56.1118 450.828C55.2958 450.828 54.5438 450.98 53.8558 451.284C53.1838 451.588 52.5918 452.012 52.0798 452.556C51.5838 453.1 51.1998 453.748 50.9278 454.5C50.6558 455.236 50.5198 456.052 50.5198 456.948C50.5198 457.828 50.6558 458.644 50.9278 459.396C51.1998 460.148 51.5838 460.796 52.0798 461.34C52.5918 461.884 53.1838 462.308 53.8558 462.612C54.5438 462.916 55.2958 463.068 56.1118 463.068ZM68.0932 465.348V448.548H70.4212L80.6932 462.3L80.3093 462.516C80.2453 462.116 80.1892 461.684 80.1412 461.22C80.0932 460.74 80.0452 460.236 79.9973 459.708C79.9652 459.164 79.9332 458.596 79.9012 458.004C79.8853 457.396 79.8692 456.764 79.8532 456.108C79.8372 455.452 79.8292 454.772 79.8292 454.068V448.548H82.4213V465.348H80.0452L69.9412 452.1L70.2052 451.764C70.2852 452.74 70.3492 453.572 70.3972 454.26C70.4612 454.932 70.5092 455.508 70.5412 455.988C70.5892 456.452 70.6212 456.836 70.6372 457.14C70.6532 457.428 70.6612 457.668 70.6612 457.86C70.6772 458.052 70.6852 458.22 70.6852 458.364V465.348H68.0932ZM87.3645 465.348V448.548H93.9405C95.1405 448.548 96.2205 448.748 97.1805 449.148C98.1565 449.548 98.9885 450.124 99.6765 450.876C100.364 451.628 100.892 452.516 101.26 453.54C101.628 454.564 101.812 455.7 101.812 456.948C101.812 458.196 101.628 459.34 101.26 460.38C100.892 461.404 100.364 462.292 99.6765 463.044C99.0045 463.78 98.1805 464.348 97.2045 464.748C96.2285 465.148 95.1405 465.348 93.9405 465.348H87.3645ZM89.9565 463.116L89.8845 462.852H93.8205C94.6685 462.852 95.4205 462.716 96.0765 462.444C96.7485 462.172 97.3085 461.788 97.7565 461.292C98.2205 460.78 98.5725 460.156 98.8125 459.42C99.0525 458.684 99.1725 457.86 99.1725 456.948C99.1725 456.036 99.0525 455.22 98.8125 454.5C98.5725 453.764 98.2205 453.14 97.7565 452.628C97.2925 452.116 96.7325 451.724 96.0765 451.452C95.4205 451.18 94.6685 451.044 93.8205 451.044H89.8125L89.9565 450.828V463.116ZM103.337 465.348L109.841 448.548H112.481L118.937 465.348H116.177L112.337 455.22C112.289 455.108 112.193 454.836 112.049 454.404C111.921 453.972 111.769 453.492 111.593 452.964C111.417 452.436 111.257 451.956 111.113 451.524C110.969 451.076 110.873 450.788 110.825 450.66L111.377 450.636C111.281 450.908 111.161 451.252 111.017 451.668C110.889 452.084 110.745 452.524 110.585 452.988C110.441 453.452 110.297 453.892 110.153 454.308C110.009 454.708 109.889 455.044 109.793 455.316L105.977 465.348H103.337ZM106.217 461.172L107.177 458.676H114.809L115.913 461.172H106.217ZM122.134 465.348V448.548H129.286C130.246 448.548 131.126 448.788 131.926 449.268C132.742 449.732 133.39 450.372 133.87 451.188C134.35 451.988 134.59 452.892 134.59 453.9C134.59 454.812 134.35 455.66 133.87 456.444C133.39 457.228 132.75 457.86 131.95 458.34C131.15 458.804 130.262 459.036 129.286 459.036H124.726V465.348H122.134ZM132.118 465.348L127.846 457.764L130.51 457.164L135.262 465.372L132.118 465.348ZM124.726 456.54H129.526C129.99 456.54 130.406 456.428 130.774 456.204C131.142 455.964 131.43 455.644 131.638 455.244C131.846 454.828 131.95 454.372 131.95 453.876C131.95 453.316 131.814 452.828 131.542 452.412C131.286 451.98 130.918 451.644 130.438 451.404C129.974 451.164 129.446 451.044 128.854 451.044H124.726V456.54ZM142.378 465.348V456.972L142.546 458.148L135.754 448.548H138.874L144.058 455.988L143.458 455.916L148.138 448.548H151.114L144.61 458.412L144.97 456.78V465.348H142.378Z" fill="#828282"/>
<rect y="480.348" width="110.348" height="110.348" fill="#1F1D2C"/>
<rect x="110.348" y="480.348" width="110.348" height="110.348" fill="#262837"/>
<rect x="220.695" y="480.348" width="110.348" height="110.348" fill="#373A4E"/>
<rect x="331.043" y="480.348" width="110.348" height="110.348" fill="#585C77"/>
<rect x="441.391" y="480.348" width="110.348" height="110.348" fill="#7C81A0"/>
<rect x="551.738" y="480.348" width="110.348" height="110.348" fill="#A3A8C8"/>
<rect x="662.086" y="480.348" width="110.348" height="110.348" fill="#CDD2F1"/>
<rect x="772.434" y="480.348" width="110.348" height="110.348" fill="#F5F6F9"/>
<path d="M0.6 655.695L7.104 638.895H9.744L16.2 655.695H13.44L9.6 645.567C9.552 645.455 9.456 645.183 9.312 644.751C9.184 644.319 9.032 643.839 8.856 643.311C8.68 642.783 8.52 642.303 8.376 641.871C8.232 641.423 8.136 641.135 8.088 641.007L8.64 640.983C8.544 641.255 8.424 641.599 8.28 642.015C8.152 642.431 8.008 642.871 7.848 643.335C7.704 643.799 7.56 644.239 7.416 644.655C7.272 645.055 7.152 645.391 7.056 645.663L3.24 655.695H0.6ZM3.48 651.519L4.44 649.023H12.072L13.176 651.519H3.48ZM19.3967 655.695V638.895H21.9887V653.199H29.8607V655.695H19.3967ZM34.0039 655.695V638.895H44.5879V641.391H36.5959V653.199H44.5879V655.695H34.0039ZM35.1799 648.327V645.831H43.2679V648.327H35.1799ZM48.9861 655.695V638.895H56.1381C57.0981 638.895 57.9781 639.135 58.7781 639.615C59.5941 640.079 60.2421 640.719 60.7221 641.535C61.2021 642.335 61.4421 643.239 61.4421 644.247C61.4421 645.159 61.2021 646.007 60.7221 646.791C60.2421 647.575 59.6021 648.207 58.8021 648.687C58.0021 649.151 57.1141 649.383 56.1381 649.383H51.5781V655.695H48.9861ZM58.9701 655.695L54.6981 648.111L57.3621 647.511L62.1141 655.719L58.9701 655.695ZM51.5781 646.887H56.3781C56.8421 646.887 57.2581 646.775 57.6261 646.551C57.9941 646.311 58.2821 645.991 58.4901 645.591C58.6981 645.175 58.8021 644.719 58.8021 644.223C58.8021 643.663 58.6661 643.175 58.3941 642.759C58.1381 642.327 57.7701 641.991 57.2901 641.751C56.8261 641.511 56.2981 641.391 55.7061 641.391H51.5781V646.887ZM68.6368 655.695V641.391H63.9328V638.895H76.0768V641.391H71.2288V655.695H68.6368ZM84.6969 655.935C83.7849 655.935 82.9369 655.815 82.1529 655.575C81.3849 655.335 80.6809 654.975 80.0409 654.495C79.4169 653.999 78.8569 653.391 78.3609 652.671L80.1369 650.631C80.9209 651.751 81.6729 652.527 82.3929 652.959C83.1129 653.391 83.9689 653.607 84.9609 653.607C85.5689 653.607 86.1209 653.511 86.6169 653.319C87.1129 653.127 87.5049 652.863 87.7929 652.527C88.0809 652.191 88.2249 651.807 88.2249 651.375C88.2249 651.087 88.1769 650.815 88.0809 650.559C87.9849 650.303 87.8329 650.071 87.6249 649.863C87.4329 649.655 87.1769 649.463 86.8569 649.287C86.5529 649.111 86.1929 648.959 85.7769 648.831C85.3609 648.687 84.8809 648.567 84.3369 648.471C83.4729 648.295 82.7209 648.063 82.0809 647.775C81.4409 647.487 80.9049 647.127 80.4729 646.695C80.0409 646.263 79.7209 645.775 79.5129 645.231C79.3049 644.671 79.2009 644.047 79.2009 643.359C79.2009 642.687 79.3449 642.063 79.6329 641.487C79.9369 640.911 80.3449 640.415 80.8569 639.999C81.3849 639.567 82.0009 639.239 82.7049 639.015C83.4089 638.775 84.1689 638.655 84.9849 638.655C85.8489 638.655 86.6409 638.767 87.3609 638.991C88.0809 639.215 88.7209 639.551 89.2809 639.999C89.8409 640.431 90.3049 640.967 90.6729 641.607L88.8489 643.407C88.5289 642.879 88.1689 642.439 87.7689 642.087C87.3689 641.719 86.9289 641.447 86.4489 641.271C85.9689 641.079 85.4569 640.983 84.9129 640.983C84.2889 640.983 83.7449 641.079 83.2809 641.271C82.8169 641.463 82.4489 641.735 82.1769 642.087C81.9209 642.423 81.7929 642.823 81.7929 643.287C81.7929 643.623 81.8569 643.935 81.9849 644.223C82.1129 644.495 82.3049 644.743 82.5609 644.967C82.8329 645.175 83.1929 645.367 83.6409 645.543C84.0889 645.703 84.6249 645.847 85.2489 645.975C86.1289 646.167 86.9129 646.415 87.6009 646.719C88.2889 647.007 88.8729 647.351 89.3529 647.751C89.8329 648.151 90.1929 648.599 90.4329 649.095C90.6889 649.591 90.8169 650.127 90.8169 650.703C90.8169 651.775 90.5689 652.703 90.0729 653.487C89.5769 654.271 88.8729 654.879 87.9609 655.311C87.0489 655.727 85.9609 655.935 84.6969 655.935Z" fill="#828282"/>
<rect y="670.695" width="110.348" height="110.348" fill="#F08B6F"/>
<rect x="110.348" y="670.695" width="110.348" height="110.348" fill="#FFC4B3"/>
<rect x="220.695" y="670.695" width="110.348" height="110.348" fill="#FFF4F1"/>
<path d="M0.6 846.043L7.104 829.243H9.744L16.2 846.043H13.44L9.6 835.915C9.552 835.803 9.456 835.531 9.312 835.099C9.184 834.667 9.032 834.187 8.856 833.659C8.68 833.131 8.52 832.651 8.376 832.219C8.232 831.771 8.136 831.483 8.088 831.355L8.64 831.331C8.544 831.603 8.424 831.947 8.28 832.363C8.152 832.779 8.008 833.219 7.848 833.683C7.704 834.147 7.56 834.587 7.416 835.003C7.272 835.403 7.152 835.739 7.056 836.011L3.24 846.043H0.6ZM3.48 841.867L4.44 839.371H12.072L13.176 841.867H3.48ZM19.3967 846.043V829.243H21.9887V843.547H29.8607V846.043H19.3967ZM34.0039 846.043V829.243H44.5879V831.739H36.5959V843.547H44.5879V846.043H34.0039ZM35.1799 838.675V836.179H43.2679V838.675H35.1799ZM48.9861 846.043V829.243H56.1381C57.0981 829.243 57.9781 829.483 58.7781 829.963C59.5941 830.427 60.2421 831.067 60.7221 831.883C61.2021 832.683 61.4421 833.587 61.4421 834.595C61.4421 835.507 61.2021 836.355 60.7221 837.139C60.2421 837.923 59.6021 838.555 58.8021 839.035C58.0021 839.499 57.1141 839.731 56.1381 839.731H51.5781V846.043H48.9861ZM58.9701 846.043L54.6981 838.459L57.3621 837.859L62.1141 846.067L58.9701 846.043ZM51.5781 837.235H56.3781C56.8421 837.235 57.2581 837.123 57.6261 836.899C57.9941 836.659 58.2821 836.339 58.4901 835.939C58.6981 835.523 58.8021 835.067 58.8021 834.571C58.8021 834.011 58.6661 833.523 58.3941 833.107C58.1381 832.675 57.7701 832.339 57.2901 832.099C56.8261 831.859 56.2981 831.739 55.7061 831.739H51.5781V837.235ZM68.6368 846.043V831.739H63.9328V829.243H76.0768V831.739H71.2288V846.043H68.6368ZM84.6969 846.283C83.7849 846.283 82.9369 846.163 82.1529 845.923C81.3849 845.683 80.6809 845.323 80.0409 844.843C79.4169 844.347 78.8569 843.739 78.3609 843.019L80.1369 840.979C80.9209 842.099 81.6729 842.875 82.3929 843.307C83.1129 843.739 83.9689 843.955 84.9609 843.955C85.5689 843.955 86.1209 843.859 86.6169 843.667C87.1129 843.475 87.5049 843.211 87.7929 842.875C88.0809 842.539 88.2249 842.155 88.2249 841.723C88.2249 841.435 88.1769 841.163 88.0809 840.907C87.9849 840.651 87.8329 840.419 87.6249 840.211C87.4329 840.003 87.1769 839.811 86.8569 839.635C86.5529 839.459 86.1929 839.307 85.7769 839.179C85.3609 839.035 84.8809 838.915 84.3369 838.819C83.4729 838.643 82.7209 838.411 82.0809 838.123C81.4409 837.835 80.9049 837.475 80.4729 837.043C80.0409 836.611 79.7209 836.123 79.5129 835.579C79.3049 835.019 79.2009 834.395 79.2009 833.707C79.2009 833.035 79.3449 832.411 79.6329 831.835C79.9369 831.259 80.3449 830.763 80.8569 830.347C81.3849 829.915 82.0009 829.587 82.7049 829.363C83.4089 829.123 84.1689 829.003 84.9849 829.003C85.8489 829.003 86.6409 829.115 87.3609 829.339C88.0809 829.563 88.7209 829.899 89.2809 830.347C89.8409 830.779 90.3049 831.315 90.6729 831.955L88.8489 833.755C88.5289 833.227 88.1689 832.787 87.7689 832.435C87.3689 832.067 86.9289 831.795 86.4489 831.619C85.9689 831.427 85.4569 831.331 84.9129 831.331C84.2889 831.331 83.7449 831.427 83.2809 831.619C82.8169 831.811 82.4489 832.083 82.1769 832.435C81.9209 832.771 81.7929 833.171 81.7929 833.635C81.7929 833.971 81.8569 834.283 81.9849 834.571C82.1129 834.843 82.3049 835.091 82.5609 835.315C82.8329 835.523 83.1929 835.715 83.6409 835.891C84.0889 836.051 84.6249 836.195 85.2489 836.323C86.1289 836.515 86.9129 836.763 87.6009 837.067C88.2889 837.355 88.8729 837.699 89.3529 838.099C89.8329 838.499 90.1929 838.947 90.4329 839.443C90.6889 839.939 90.8169 840.475 90.8169 841.051C90.8169 842.123 90.5689 843.051 90.0729 843.835C89.5769 844.619 88.8729 845.227 87.9609 845.659C87.0489 846.075 85.9609 846.283 84.6969 846.283Z" fill="#828282"/>
<rect y="861.043" width="110.348" height="110.348" fill="#1BB55C"/>
<rect x="110.348" y="861.043" width="110.348" height="110.348" fill="#B6FFD5"/>
<rect x="220.695" y="861.043" width="110.348" height="110.348" fill="#ECFFF4"/>
<path d="M6.544 33V18.696H1.84V16.2H13.984V18.696H9.136V33H6.544ZM22.1665 33V24.624L22.3345 25.8L15.5425 16.2H18.6625L23.8465 23.64L23.2465 23.568L27.9265 16.2H30.9025L24.3985 26.064L24.7585 24.432V33H22.1665ZM33.7382 33V16.2H40.5782C41.4903 16.2 42.3143 16.432 43.0503 16.896C43.8023 17.344 44.4023 17.96 44.8503 18.744C45.2983 19.528 45.5223 20.4 45.5223 21.36C45.5223 22.32 45.2983 23.192 44.8503 23.976C44.4023 24.76 43.8023 25.392 43.0503 25.872C42.3143 26.336 41.4903 26.568 40.5782 26.568H36.3302V33H33.7382ZM36.3302 24.072H40.5302C40.9622 24.072 41.3542 23.952 41.7062 23.712C42.0582 23.456 42.3383 23.128 42.5463 22.728C42.7703 22.312 42.8823 21.856 42.8823 21.36C42.8823 20.864 42.7703 20.416 42.5463 20.016C42.3383 19.616 42.0582 19.296 41.7062 19.056C41.3542 18.816 40.9622 18.696 40.5302 18.696H36.3302V24.072ZM49.1892 33V16.2H59.7732V18.696H51.7812V30.504H59.7732V33H49.1892ZM50.3652 25.632V23.136H58.4532V25.632H50.3652ZM64.1714 33V16.2H66.7634V33H64.1714ZM65.3234 25.848V23.352H73.9874V25.848H65.3234ZM65.3234 18.696V16.2H75.0674V18.696H65.3234ZM75.6672 33L82.1712 16.2H84.8112L91.2672 33H88.5072L84.6672 22.872C84.6192 22.76 84.5232 22.488 84.3792 22.056C84.2512 21.624 84.0992 21.144 83.9232 20.616C83.7472 20.088 83.5872 19.608 83.4432 19.176C83.2992 18.728 83.2032 18.44 83.1552 18.312L83.7072 18.288C83.6112 18.56 83.4912 18.904 83.3472 19.32C83.2192 19.736 83.0752 20.176 82.9152 20.64C82.7712 21.104 82.6272 21.544 82.4832 21.96C82.3392 22.36 82.2192 22.696 82.1232 22.968L78.3072 33H75.6672ZM78.5472 28.824L79.5072 26.328H87.1392L88.2432 28.824H78.5472ZM100.811 33.24C99.6431 33.24 98.5711 33.032 97.5951 32.616C96.6191 32.2 95.7711 31.608 95.0511 30.84C94.3311 30.056 93.7711 29.136 93.3711 28.08C92.9871 27.024 92.7951 25.864 92.7951 24.6C92.7951 23.4 93.0031 22.288 93.4191 21.264C93.8511 20.224 94.4431 19.312 95.1951 18.528C95.9471 17.744 96.8191 17.136 97.8111 16.704C98.8031 16.272 99.8751 16.056 101.027 16.056C101.843 16.056 102.635 16.184 103.403 16.44C104.187 16.68 104.891 17.024 105.515 17.472C106.155 17.904 106.675 18.4 107.075 18.96L105.347 20.76C104.883 20.296 104.411 19.912 103.931 19.608C103.467 19.288 102.987 19.048 102.491 18.888C102.011 18.728 101.523 18.648 101.027 18.648C100.243 18.648 99.5071 18.8 98.8191 19.104C98.1471 19.392 97.5551 19.8 97.0431 20.328C96.5471 20.856 96.1551 21.488 95.8671 22.224C95.5791 22.944 95.4351 23.736 95.4351 24.6C95.4351 25.512 95.5711 26.344 95.8431 27.096C96.1311 27.832 96.5311 28.464 97.0431 28.992C97.5551 29.52 98.1631 29.928 98.8671 30.216C99.5871 30.488 100.379 30.624 101.243 30.624C101.771 30.624 102.291 30.552 102.803 30.408C103.315 30.264 103.795 30.056 104.243 29.784C104.691 29.512 105.099 29.192 105.467 28.824L106.763 30.936C106.395 31.368 105.891 31.76 105.251 32.112C104.627 32.464 103.923 32.744 103.139 32.952C102.371 33.144 101.595 33.24 100.811 33.24ZM110.524 33V16.2H121.108V18.696H113.116V30.504H121.108V33H110.524ZM111.7 25.632V23.136H119.788V25.632H111.7Z" fill="#BDBDBD"/>
<path d="M3.912 96V73.6H8.712V91.68H18.856V96H3.912ZM30.4053 96.32C28.5706 96.32 26.9706 95.9467 25.6052 95.2C24.2399 94.4533 23.1732 93.4293 22.4052 92.128C21.6372 90.8267 21.2532 89.3333 21.2532 87.648C21.2532 86.3467 21.4666 85.152 21.8932 84.064C22.3199 82.976 22.9172 82.0373 23.6852 81.248C24.4532 80.4373 25.3599 79.8187 26.4053 79.392C27.4719 78.944 28.6239 78.72 29.8612 78.72C31.0133 78.72 32.0799 78.9333 33.0613 79.36C34.0426 79.7653 34.8853 80.352 35.5893 81.12C36.3146 81.8667 36.8692 82.752 37.2533 83.776C37.6373 84.8 37.8079 85.92 37.7653 87.136L37.7332 88.544H24.1332L23.3972 85.76H33.9893L33.4773 86.336V85.632C33.4346 85.056 33.2426 84.5333 32.9012 84.064C32.5813 83.5947 32.1653 83.232 31.6533 82.976C31.1413 82.72 30.5653 82.592 29.9253 82.592C28.9866 82.592 28.1866 82.7733 27.5252 83.136C26.8852 83.4987 26.3946 84.032 26.0532 84.736C25.7119 85.44 25.5412 86.2933 25.5412 87.296C25.5412 88.32 25.7546 89.2053 26.1813 89.952C26.6293 90.6987 27.2479 91.2853 28.0373 91.712C28.8479 92.1173 29.7973 92.32 30.8853 92.32C31.6319 92.32 32.3146 92.2027 32.9333 91.968C33.5519 91.7333 34.2133 91.328 34.9173 90.752L37.0933 93.792C36.4746 94.3467 35.7919 94.816 35.0452 95.2C34.2986 95.5627 33.5306 95.84 32.7413 96.032C31.9519 96.224 31.1733 96.32 30.4053 96.32ZM52.0375 96L47.8455 90.016L46.5655 88.224L39.7175 79.072H45.2215L49.3175 84.864L50.7255 86.784L57.4775 96H52.0375ZM39.6535 96L46.4055 86.752L48.9015 89.728L44.9975 96H39.6535ZM50.5335 88.384L48.1015 85.408L51.7175 79.072H57.0615L50.5335 88.384ZM67.6702 96.32C65.8356 96.32 64.2356 95.9467 62.8702 95.2C61.5049 94.4533 60.4382 93.4293 59.6702 92.128C58.9022 90.8267 58.5182 89.3333 58.5182 87.648C58.5182 86.3467 58.7316 85.152 59.1582 84.064C59.5849 82.976 60.1822 82.0373 60.9502 81.248C61.7182 80.4373 62.6249 79.8187 63.6702 79.392C64.7369 78.944 65.8889 78.72 67.1262 78.72C68.2782 78.72 69.3449 78.9333 70.3263 79.36C71.3076 79.7653 72.1503 80.352 72.8542 81.12C73.5796 81.8667 74.1342 82.752 74.5182 83.776C74.9022 84.8 75.0729 85.92 75.0303 87.136L74.9982 88.544H61.3982L60.6622 85.76H71.2542L70.7422 86.336V85.632C70.6996 85.056 70.5076 84.5333 70.1662 84.064C69.8462 83.5947 69.4302 83.232 68.9183 82.976C68.4062 82.72 67.8302 82.592 67.1902 82.592C66.2516 82.592 65.4516 82.7733 64.7902 83.136C64.1502 83.4987 63.6596 84.032 63.3182 84.736C62.9769 85.44 62.8062 86.2933 62.8062 87.296C62.8062 88.32 63.0196 89.2053 63.4462 89.952C63.8942 90.6987 64.5129 91.2853 65.3022 91.712C66.1129 92.1173 67.0622 92.32 68.1502 92.32C68.8969 92.32 69.5796 92.2027 70.1982 91.968C70.8169 91.7333 71.4782 91.328 72.1823 90.752L74.3582 93.792C73.7396 94.3467 73.0569 94.816 72.3102 95.2C71.5636 95.5627 70.7956 95.84 70.0062 96.032C69.2169 96.224 68.4382 96.32 67.6702 96.32ZM78.7082 96V79.072H83.0602L83.1882 82.528L82.2922 82.912C82.5269 82.144 82.9429 81.4507 83.5402 80.832C84.1589 80.192 84.8949 79.68 85.7482 79.296C86.6016 78.912 87.4976 78.72 88.4362 78.72C89.7162 78.72 90.7829 78.976 91.6362 79.488C92.5109 80 93.1616 80.7787 93.5882 81.824C94.0362 82.848 94.2603 84.1173 94.2603 85.632V96H89.7162V85.984C89.7162 85.216 89.6096 84.576 89.3962 84.064C89.1829 83.552 88.8522 83.1787 88.4042 82.944C87.9776 82.688 87.4442 82.5813 86.8042 82.624C86.2922 82.624 85.8122 82.7093 85.3642 82.88C84.9376 83.0293 84.5642 83.2533 84.2442 83.552C83.9456 83.8507 83.7002 84.192 83.5082 84.576C83.3376 84.96 83.2522 85.376 83.2522 85.824V96H81.0122C80.5216 96 80.0842 96 79.7002 96C79.3162 96 78.9856 96 78.7082 96ZM105.558 96.32C104.086 96.32 102.764 95.9467 101.59 95.2C100.417 94.432 99.4892 93.3973 98.8065 92.096C98.1452 90.7733 97.8145 89.248 97.8145 87.52C97.8145 85.8347 98.1452 84.3307 98.8065 83.008C99.4892 81.6853 100.406 80.64 101.558 79.872C102.732 79.104 104.065 78.72 105.558 78.72C106.348 78.72 107.105 78.848 107.83 79.104C108.577 79.3387 109.238 79.6693 109.814 80.096C110.412 80.5227 110.892 81.0027 111.254 81.536C111.617 82.048 111.82 82.592 111.862 83.168L110.71 83.36V72.32H115.254V96H110.966L110.774 92.096L111.67 92.192C111.628 92.7253 111.436 93.2373 111.094 93.728C110.753 94.2187 110.294 94.6667 109.718 95.072C109.164 95.456 108.524 95.7653 107.798 96C107.094 96.2133 106.348 96.32 105.558 96.32ZM106.582 92.544C107.436 92.544 108.182 92.3307 108.822 91.904C109.462 91.4773 109.964 90.8907 110.326 90.144C110.689 89.3973 110.87 88.5227 110.87 87.52C110.87 86.5387 110.689 85.6747 110.326 84.928C109.964 84.16 109.462 83.5733 108.822 83.168C108.182 82.7413 107.436 82.528 106.582 82.528C105.729 82.528 104.982 82.7413 104.342 83.168C103.724 83.5733 103.233 84.16 102.87 84.928C102.529 85.6747 102.358 86.5387 102.358 87.52C102.358 88.5227 102.529 89.3973 102.87 90.144C103.233 90.8907 103.724 91.4773 104.342 91.904C104.982 92.3307 105.729 92.544 106.582 92.544Z" fill="#333333"/>
</svg>
