<svg width="50" height="50" viewBox="0 0 50 50" fill="none" xmlns="http://www.w3.org/2000/svg">
<rect width="50" height="50" rx="25" fill="#DEB5ED"/>
<path d="M28.7375 14.3333C28.2603 15.1575 27.9351 16.0608 27.7775 17H13.0002V33H37.0002V26.2227C37.9394 26.065 38.8426 25.7399 39.6668 25.2627V34.3333C39.6668 35.0707 39.0802 35.668 38.3308 35.668H11.6695C11.4941 35.6683 11.3203 35.6341 11.1581 35.5671C10.996 35.5002 10.8486 35.4019 10.7245 35.2779C10.6004 35.154 10.502 35.0067 10.4349 34.8446C10.3678 34.6825 10.3333 34.5088 10.3335 34.3333V15.6667C10.3335 14.9307 10.9202 14.3333 11.6695 14.3333H28.7362H28.7375ZM35.6668 21C36.3741 21 37.0523 20.719 37.5524 20.219C38.0525 19.7189 38.3335 19.0406 38.3335 18.3333C38.3335 17.6261 38.0525 16.9478 37.5524 16.4477C37.0523 15.9476 36.3741 15.6667 35.6668 15.6667C34.9596 15.6667 34.2813 15.9476 33.7812 16.4477C33.2811 16.9478 33.0002 17.6261 33.0002 18.3333C33.0002 19.0406 33.2811 19.7189 33.7812 20.219C34.2813 20.719 34.9596 21 35.6668 21V21ZM35.6668 23.6667C34.2523 23.6667 32.8958 23.1048 31.8956 22.1046C30.8954 21.1044 30.3335 19.7478 30.3335 18.3333C30.3335 16.9188 30.8954 15.5623 31.8956 14.5621C32.8958 13.5619 34.2523 13 35.6668 13C37.0813 13 38.4379 13.5619 39.4381 14.5621C40.4383 15.5623 41.0002 16.9188 41.0002 18.3333C41.0002 19.7478 40.4383 21.1044 39.4381 22.1046C38.4379 23.1048 37.0813 23.6667 35.6668 23.6667ZM33.0002 26.3333H35.6668V30.3333H33.0002V26.3333Z" fill="black"/>
</svg>
