<svg width="50" height="50" viewBox="0 0 50 50" fill="none" xmlns="http://www.w3.org/2000/svg">
<rect width="50" height="50" rx="25" fill="#B5EDE2"/>
<path d="M25.0002 27.6654V30.332C22.8784 30.332 20.8436 31.1749 19.3433 32.6752C17.843 34.1755 17.0002 36.2103 17.0002 38.332H14.3335C14.3335 35.5031 15.4573 32.7899 17.4577 30.7896C19.4581 28.7892 22.1712 27.6654 25.0002 27.6654V27.6654ZM25.0002 26.332C20.5802 26.332 17.0002 22.752 17.0002 18.332C17.0002 13.912 20.5802 10.332 25.0002 10.332C29.4202 10.332 33.0002 13.912 33.0002 18.332C33.0002 22.752 29.4202 26.332 25.0002 26.332ZM25.0002 23.6654C27.9468 23.6654 30.3335 21.2787 30.3335 18.332C30.3335 15.3854 27.9468 12.9987 25.0002 12.9987C22.0535 12.9987 19.6668 15.3854 19.6668 18.332C19.6668 21.2787 22.0535 23.6654 25.0002 23.6654ZM37.5948 35.708L39.6002 37.7134L37.7148 39.5987L35.7095 37.5934C34.5913 38.2527 33.271 38.4816 31.9961 38.2371C30.7212 37.9926 29.5793 37.2915 28.7843 36.2652C27.9894 35.239 27.596 33.9581 27.6779 32.6625C27.7599 31.367 28.3115 30.1458 29.2294 29.2279C30.1473 28.31 31.3685 27.7584 32.664 27.6765C33.9595 27.5945 35.2405 27.9879 36.2667 28.7829C37.2929 29.5778 37.994 30.7198 38.2385 31.9946C38.483 33.2695 38.2542 34.5898 37.5948 35.708V35.708ZM33.0002 35.6654C33.7074 35.6654 34.3857 35.3844 34.8858 34.8843C35.3859 34.3842 35.6668 33.7059 35.6668 32.9987C35.6668 32.2915 35.3859 31.6132 34.8858 31.1131C34.3857 30.613 33.7074 30.332 33.0002 30.332C32.2929 30.332 31.6146 30.613 31.1145 31.1131C30.6144 31.6132 30.3335 32.2915 30.3335 32.9987C30.3335 33.7059 30.6144 34.3842 31.1145 34.8843C31.6146 35.3844 32.2929 35.6654 33.0002 35.6654V35.6654Z" fill="black"/>
</svg>
